<svg xmlns="http://www.w3.org/2000/svg" viewBox="0 0 86.9 26.8"><path fill="#769E42" d="M5.9 12v6c.1.9.4 1.4.9 1.4.1 0 .4 0 .8-.1.1 0 .3-.1.5-.1.8 0 1.2.3 1.2 1 0 .3-.1.5-.4.7-.3.2-.6.3-1 .3-.3 0-.9 0-1.5-.1-.8 0-1.3-.1-1.7-.1-.5 0-1.2 0-1.8.1-.8.1-1.4.2-1.6.2-.8 0-1.3-.4-1.3-1.1 0-.7.4-1 1.1-1 .2 0 .4 0 .7.1.3.1.6.1.7.1.5 0 .8-.7.9-2V12 9.3c-.1-1.3-.4-2-1-2-.2 0-.4 0-.7.1-.2.1-.4.1-.6.1-.7 0-1.1-.3-1.1-1s.5-1.1 1.4-1.1h.9c.7.1 1.1.1 1.3.1.2 0 .4 0 .8-.1.3-.1.6-.1.8-.1.5.1.8.5.8 1.4v2.7c-.1.8-.1 1.7-.1 2.6zM4.2 3.8c-.5 0-.9-.2-1.2-.6-.4-.3-.5-.7-.5-1.2s.1-.9.5-1.2c.3-.3.8-.5 1.2-.5.5 0 .9.2 1.2.5.4.3.6.7.6 1.2s-.2.9-.5 1.2c-.4.4-.8.6-1.3.6z"/><path fill="#FFF" d="M21.9 17V4.3c0-1.6-.5-2.3-1.6-2.3h-.7c-.4.1-.7.1-.8.1-.7 0-1-.3-1-1S18.3 0 19.2 0h.5l1.5.2c.5.1 1.1.1 1.9.1.5 0 1.2 0 1.9-.1 1.7-.1 3-.2 3.9-.2 1.3 0 2.5.1 3.5.3 1.4.3 2.5.9 3.3 2 .8 1 1.2 2.2 1.2 3.7 0 2-.7 3.5-2 4.5-1.4 1.1-3.3 1.6-5.9 1.6H25.5c-.3 0-.6.1-.6.2-.1.1-.1.4-.1.8v.6c0 2.7.1 4.3.2 4.8.2.6.6.8 1.4.8.2 0 .5 0 .7-.1.5 0 .7-.1.9-.1.7 0 1 .3 1 1 0 .8-.5 1.1-1.4 1.1l-.4-.1-2-.1c-.4-.1-1.1-.1-2-.1-.7 0-1.3 0-1.8.1l-1.8.3h-.4c-.9 0-1.4-.4-1.4-1.1 0-.3.1-.5.3-.7.2-.2.4-.3.7-.3.2 0 .5 0 .9.1.1 0 .4.1.7.1 1-.1 1.5-.9 1.5-2.4zm2.9-14.3c-.1.2-.2.8-.2 1.7v4.7c0 .6.4.9 1.2 1h1.8c1.5 0 2.7-.1 3.7-.3 1.9-.5 2.8-1.8 2.8-3.8 0-2.7-1.7-4-5.1-4-2.5 0-4 .2-4.2.7zM51.7 21.6c-1.7 0-2.8-.7-3.2-2.2-1.1 1.6-2.8 2.4-5 2.4-1.7 0-3.1-.4-4.1-1.3-1-.8-1.5-2-1.5-3.4 0-1.7.7-3 2.2-3.8.6-.3 1.1-.5 1.5-.6.4-.1 1.2-.2 2.5-.4 1.8-.2 2.9-.5 3.5-.8.5-.3.8-1 .8-1.9 0-.9-.3-1.5-.9-2-.6-.5-1.4-.7-2.5-.7-.9 0-1.8.3-2.7.8-.3.2-.5.4-.5.7 0 .1.1.2.3.3.3.2.4.6.4 1.1 0 .4-.2.8-.5 1-.3.3-.7.4-1.2.4s-1-.2-1.4-.6c-.4-.4-.6-.8-.6-1.4 0-1.2.6-2.2 1.8-3 1.2-.8 2.6-1.3 4.2-1.3 3.8 0 5.7 1.8 5.7 5.5v6.4c0 1 0 1.6.1 1.8.1.7.5 1.1 1.1 1.1.7 0 1.1-.7 1.1-2v-1.5c0-.7.3-1 1-1s1 .5 1 1.5v2c.1 1.9-1 2.9-3.1 2.9zm-3.5-6.3v-2.2c-.5.4-.9.7-1.5.9-.5.2-1.4.3-2.7.4-2.4.2-3.6 1.1-3.6 2.6 0 .8.3 1.4.9 1.9.6.5 1.4.7 2.4.7 1.4 0 2.5-.4 3.3-1.2.7-.7 1.1-1.8 1.2-3.1zM63.4 4.9c.5 0 1.2.1 1.9.3C65.4 3 66.5 2 68.8 2c1 0 1.8.3 2.4.8.7.5 1 1.1 1 1.9 0 .5-.2.9-.5 1.3s-.7.5-1.2.5c-.3 0-.6-.1-.9-.3-.3-.2-.4-.5-.4-.8 0-.3.2-.7.7-1-.3-.4-.8-.6-1.3-.6-1.1 0-1.7.7-1.7 2.1 1.6 1.1 2.4 2.5 2.4 4.3 0 1.5-.6 2.7-1.7 3.6-1.1 1-2.5 1.5-4.1 1.5-1.2 0-2.4-.3-3.6-.8-.3-.1-.6-.2-.9-.2-.3 0-.6.1-.8.4-.2.3-.3.6-.3.9 0 1.1 1.1 1.6 3.3 1.6H62.4c2 0 3.6.2 4.9.6 1.2.4 2.1.9 2.8 1.7.7.8 1 1.6 1 2.5 0 1.5-.7 2.7-2.1 3.6-1.4.9-3.3 1.3-5.8 1.3-2.4 0-4.3-.4-5.7-1.3-1.4-.8-2.1-2-2.1-3.5 0-1.7 1-2.9 2.9-3.6-1.7-.7-2.6-1.7-2.6-3 0-1.5.9-2.5 2.6-3-.5-.7-.8-1.6-.8-2.6 0-1.4.6-2.6 1.7-3.6s2.5-1.4 4.2-1.4zm.1 14.3c-1.7 0-3 .3-4 .8S58 21.2 58 22.1c0 .9.5 1.5 1.4 2 1 .5 2.2.7 3.8.7 1.7 0 3-.3 4-.8s1.5-1.2 1.5-2c0-.9-.5-1.6-1.4-2.1-.8-.5-2.1-.7-3.8-.7zm0-12.3c-.9 0-1.7.3-2.4.8s-1 1.2-1.1 2v.3c0 .9.3 1.7.9 2.2.6.6 1.5.8 2.5.8 1.1 0 1.9-.3 2.6-.8.7-.6 1-1.3 1-2.2 0-.9-.3-1.6-1-2.2-.7-.6-1.5-.9-2.5-.9zM86.9 11.9c0 .8-.1 1.3-.2 1.5-.1.2-.4.3-.9.3H75.7c-.3 0-.5 0-.5.1-.1.1-.1.2-.1.4 0 1.6.5 2.9 1.4 4 .9 1.1 2.1 1.6 3.5 1.6.9 0 1.8-.3 2.5-.8.8-.5 1.3-1.1 1.5-1.9l.3-.9c.1-.5.5-.8 1-.8.8 0 1.2.4 1.2 1.2 0 1.4-.7 2.6-2.1 3.6-1.4 1.1-3 1.6-4.7 1.6-2.2 0-4-.7-5.3-2.2-1.3-1.5-2-3.5-2-6 0-2.6.7-4.6 2.1-6.2C75.9 5.8 77.7 5 79.9 5c2 0 3.6.7 4.9 2 1.4 1.2 2.1 2.8 2.1 4.9zm-11.5-.8c0 .3.2.4.7.4h7.6c.4 0 .7-.1.7-.4 0-1.1-.4-2.1-1.3-2.9-.8-.8-1.8-1.2-3-1.2s-2.3.4-3.2 1.3c-1 .8-1.5 1.7-1.5 2.8z"/></svg>