<svg xmlns="http://www.w3.org/2000/svg" viewBox="0 0 104.6 10.9"><g fill="#fff"><path d="M12.4 8.6h-.8V1.1c0-.2 0-.2-.2-.2-.1 0-.1 0-.2.1l-3 3.3V1.1c0-.2-.1-.2-.2-.2 0-.1 0 0-.1 0L1.1 8.6H0L7.2.5c.3-.4.5-.5 1-.5s.8.4.8 1.1v1.2L10.6.5c.3-.3.5-.5 1-.5s.8.4.8 1.1v7.5zM7.8 1.7v6.9h-.7V3.7L2.8 8.6h-1l6-6.9zm3.4 0v6.9h-.8V3.7L9 5.3v3.3h-.8V5l3-3.3zM16.8 8.6c-2.2 0-3.8-1.7-3.8-4.2S14.6.2 16.8.2h.3c2.2 0 3.8 1.7 3.8 4.2s-1.6 4.2-3.8 4.2h-.3zm0-.9h.3c1.8 0 3.1-1.3 3.1-3.4 0-2-1.3-3.4-3.1-3.4h-.3c-1.8 0-3.1 1.3-3.1 3.4 0 2.1 1.3 3.4 3.1 3.4zm0-.4c-1.5 0-2.6-1.1-2.6-2.9 0-1.8 1.2-2.9 2.6-2.9h.3c1.5 0 2.6 1.1 2.6 2.9 0 1.8-1.1 2.9-2.6 2.9h-.3zm.3-.9c1.1 0 1.9-.7 1.9-2.1 0-1.4-.8-2.1-1.9-2.1h-.3c-1.1 0-1.9.7-1.9 2.1 0 1.4.8 2.1 1.9 2.1h.3zM25 .1h.8v4.6c0 2.4-1.4 3.8-3.8 3.8h-.8v-.8h.8c2 0 3.1-1.2 3.1-2.9V.1zm-1.2 0h.8v4.6c0 1.7-1 2.5-2.7 2.5h-.8v-.8h.9c1.4 0 1.9-.5 1.9-1.6V.1zM30.3 8.6c-2.2 0-3.8-1.7-3.8-4.2S28.1.2 30.3.2h.3c2.2 0 3.8 1.7 3.8 4.2s-1.6 4.2-3.8 4.2h-.3zm0-.9h.3c1.8 0 3.1-1.3 3.1-3.4 0-2-1.3-3.4-3.1-3.4h-.3c-1.8 0-3.1 1.3-3.1 3.4 0 2.1 1.3 3.4 3.1 3.4zm0-.4c-1.5 0-2.6-1.1-2.6-2.9 0-1.8 1.2-2.9 2.6-2.9h.3c1.5 0 2.6 1.1 2.6 2.9 0 1.8-1.1 2.9-2.6 2.9h-.3zm.3-.9c1.1 0 1.9-.7 1.9-2.1 0-1.4-.8-2.1-1.9-2.1h-.3c-1.1 0-1.9.7-1.9 2.1 0 1.4.8 2.1 1.9 2.1h.3zM44.6 8.6V1.5l-2.9 7.1h-.4l-2.9-7.1v7.1h-1.1V.1h1.5l2.6 6.5L44 .1h1.5v8.5h-.9zM51.1 8.6v-.7c-.5.6-1.2.8-2 .8-1 0-2.1-.7-2.1-2 0-1.4 1.1-2 2.1-2 .8 0 1.5.3 2 .8V4.4c0-.8-.7-1.3-1.5-1.3-.7 0-1.3.3-1.9.8l-.4-.7c.7-.7 1.4-1 2.4-1 1.3 0 2.4.6 2.4 2.1v4.2h-1zm0-1.3V6.1c-.4-.5-1-.7-1.7-.7-.9 0-1.5.6-1.5 1.3.1.8.7 1.3 1.6 1.3.6 0 1.3-.2 1.6-.7zM53.7 8.6V2.5h.9v1c.5-.6 1.2-1.1 2-1.1v1h-.4c-.6 0-1.4.5-1.7 1v4.3h-.8zM62.5 8.6l-2.2-2.8-1 1v1.7h-.9V.1h.9v5.6l3.2-3.3h1.2L61 5.2l2.7 3.3h-1.2zM64.4 5.5c0-1.8 1.3-3.2 3-3.2 1.8 0 2.9 1.4 2.9 3.3v.2h-4.9c.1 1.2.9 2.1 2.2 2.1.7 0 1.4-.3 1.9-.8l.5.6c-.6.6-1.4.9-2.4.9-1.9.1-3.2-1.2-3.2-3.1zm3-2.4c-1.3 0-2 1.1-2 2h4c0-.9-.6-2-2-2zM72.4 7.3v-4h-1v-.8h1V.8h1v1.7h1.2v.8h-1.2v3.8c0 .5.2.8.6.8.3 0 .5-.1.6-.3l.3.7c-.2.2-.6.4-1.1.4-.9 0-1.4-.5-1.4-1.4zM77.3 7.6v3.3h-1V2.5h1v.9c.4-.6 1.2-1.1 2.1-1.1 1.6 0 2.7 1.2 2.7 3.2S81 8.7 79.4 8.7c-.9 0-1.6-.4-2.1-1.1zm3.8-2.1c0-1.4-.7-2.4-2-2.4-.7 0-1.5.4-1.8 1v2.8c.3.5 1.1 1 1.8 1 1.2 0 2-1 2-2.4zM83.5 8.6V.1h1v8.5h-1zM90.2 8.6v-.7c-.5.6-1.2.8-2 .8-1 0-2.1-.7-2.1-2 0-1.4 1.1-2 2.1-2 .8 0 1.5.3 2 .8V4.4c0-.8-.7-1.3-1.5-1.3-.7 0-1.3.3-1.9.8l-.4-.7c.7-.7 1.4-1 2.4-1 1.3 0 2.4.6 2.4 2.1v4.2h-1zm0-1.3V6.1c-.4-.5-1-.7-1.7-.7-.9 0-1.5.6-1.5 1.3 0 .8.6 1.3 1.5 1.3.7 0 1.3-.2 1.7-.7zM92.5 5.5c0-1.8 1.2-3.2 3.1-3.2 1.1 0 1.8.5 2.2 1.1l-.6.6c-.4-.6-.9-.8-1.6-.8-1.3 0-2.1 1-2.1 2.4S94.3 8 95.6 8c.6 0 1.2-.3 1.6-.8l.6.6c-.5.6-1.1 1.1-2.2 1.1-1.9-.2-3.1-1.6-3.1-3.4zM98.6 5.5c0-1.8 1.3-3.2 3-3.2 1.9 0 2.9 1.4 2.9 3.3v.2h-4.9c.1 1.2.9 2.1 2.2 2.1.7 0 1.4-.3 1.9-.8l.5.6c-.6.6-1.4.9-2.4.9-1.9.1-3.2-1.2-3.2-3.1zm3-2.4c-1.3 0-2 1.1-2 2h4c0-.9-.6-2-2-2z"/></g></svg>