<svg xmlns="http://www.w3.org/2000/svg" width="122.2" height="14.3" viewBox="0 0 122.2 14.3"><linearGradient id="a" gradientUnits="userSpaceOnUse" x1="13.31" y1="6.896" x2="13.481" y2="10.162"><stop offset="0" stop-color="#98CA41"/><stop offset="1" stop-color="#38793B"/></linearGradient><path fill="url(#a)" d="M11.7 7.2s.3.3.6.3 1-1.3 1-1.3l1.7 2s-1 1.4-1.7 1.4c-.8 0-1.4-.4-1.4-.4l-.2-2z"/><linearGradient id="b" gradientUnits="userSpaceOnUse" x1="13.569" y1="5.6" x2="13.253" y2="8.695"><stop offset="0" stop-color="#98CA41"/><stop offset="1" stop-color="#38793B"/></linearGradient><path fill="url(#b)" d="M15 8.2l-.2-.2c-.3.4-1 1.1-1.5 1.1h-.4c-.3-.3-.6-.8-.6-1.3v-.3c-.2 0-.4-.1-.5-.2l-.1-.1.1 2s.6.4 1.4.4h.2s.1 0 .1-.1c.8-.4 1.5-1.3 1.5-1.3zm-1.6-1.9z"/><linearGradient id="c" gradientUnits="userSpaceOnUse" x1="14.02" y1="5.429" x2="14.263" y2="8.019"><stop offset="0" stop-color="#98CA41"/><stop offset="1" stop-color="#38793B"/></linearGradient><path fill="url(#c)" d="M14.8 6.9c.4.6.4 1.2.1 1.4-.3.2-.9-.2-1.3-.8-.4-.6-.4-1.2-.1-1.4.4-.2.9.2 1.3.8z"/><radialGradient id="d" cx="13.518" cy="7.479" r="1.547" gradientUnits="userSpaceOnUse"><stop offset="0" stop-color="#3EB44A"/><stop offset="1" stop-color="#010101"/></radialGradient><path fill="url(#d)" d="M14.9 8.2c-.3.1-.9-.2-1.3-.8-.2-.4-.3-.8-.3-1.1-.1.3 0 .8.2 1.2.4.6.9 1 1.3.8.2-.1.3-.2.3-.3-.1 0-.1.1-.2.2z"/><linearGradient id="e" gradientUnits="userSpaceOnUse" x1="1.083" y1="9.366" x2="3.964" y2="14.284"><stop offset="0" stop-color="#98CA41"/><stop offset="1" stop-color="#38793B"/></linearGradient><path fill="url(#e)" d="M0 11.4s.8 2 2.9 1.8c1.3-.1 1.7-.8 1.7-.8l-.8-2.3s-.9 1.1-1.8 1.4c-1.1.3-2-.1-2-.1z"/><linearGradient id="f" gradientUnits="userSpaceOnUse" x1="-.58" y1="5.709" x2="3.053" y2="13.086"><stop offset="0" stop-color="#98CA41"/><stop offset="1" stop-color="#38793B"/></linearGradient><path fill="url(#f)" d="M3.8 10.1l-.1.1.5 1.7s-.4.7-1.7.8C1.2 12.7.4 12 0 11.4s.8 2 2.9 1.8c1.3-.1 1.7-.8 1.7-.8l-.8-2.3z"/><linearGradient id="g" gradientUnits="userSpaceOnUse" x1="7.285" y1="4.094" x2="8.089" y2="14.155"><stop offset="0" stop-color="#98CA41"/><stop offset="1" stop-color="#38793B"/></linearGradient><path fill="url(#g)" d="M11.7 4.2c.2 1.2.7 6.1.4 9.2-.1.7-2.4.9-3.2 0-.3-.3.1-1.4-.2-1.5-.2-.1-.4-.1-.6 0-.4.1-.7.2-.9.4-.2.2.1 1.5-.2 1.7-.7.5-2.9.3-3.3-.1-.6-.4-.1-9.2-.1-9.8 0-1.4 1.8-2.6 4-2.6 2.3.1 3.7.9 4.1 2.7z"/><linearGradient id="h" gradientUnits="userSpaceOnUse" x1="7.724" y1="4.598" x2="7.933" y2="11.7"><stop offset="0" stop-color="#9FCB40"/><stop offset="1" stop-color="#38793B"/></linearGradient><path fill="url(#h)" d="M11.7 4.2c-.3-1.7-1.8-2.6-4-2.6s-4 1.2-4 2.6c0 .6.1 1.1.1.6C3.7 3.4 5.2 2 7.4 2s4 1.1 4.3 2.8v.1c.1-.3 0-.5 0-.7zm-2.9 8.3c0 .3-.1.7 0 .8.1-.3.1-.7 0-.8z"/><linearGradient id="i" gradientUnits="userSpaceOnUse" x1="6.181" y1="2.405" x2="7.452" y2="9.734"><stop offset="0" stop-color="#9FCB40"/><stop offset="1" stop-color="#265E2F"/></linearGradient><path fill="url(#i)" d="M12.1 10.7c0 .8 0 1.6-.1 2.3-.1.6-2.7 1.1-3 0-.3-1 1.1-1.2.9-1.3-.2-.1-1.4-.2-1.6-.2-.4.1-.7.2-.8.4 0 0-.1.1-.1.2.2-.1.4-.2.6-.2h.6c.4.1 0 1.2.2 1.5.8.9 3.2.7 3.2 0 .1-.8.2-1.8.1-2.7zm-7.9 2.8c-1.3-1.8.5-1.2.5-3 0-.5-.6-.3-.6-.7 0-.1.3-.4.4-1.2 0-.2 0-.8-.1-1.2C4.3 7.1 4 7 4 7c.1-1.5.1-2.7.1-2.9 0-1.4 2.3-2.7 5.1-.6 0 0-1.5-1.9-1.6-1.9-2.2 0-4 1.2-4 2.6 0 .6-.5 9.3.1 9.8.5.3 2.6.5 3.3 0 .2-.1.1-.9.1-1.1-.8 1.6-2.4 1.3-2.9.6z"/><linearGradient id="j" gradientUnits="userSpaceOnUse" x1="3.151" y1="7.868" x2="2.683" y2="12.608"><stop offset="0" stop-color="#98CA41"/><stop offset="1" stop-color="#38793B"/></linearGradient><path fill="url(#j)" d="M3.8 7.1c-.4 0-.7.6-1.4 1.1-.6.5-1.2.9-1.2 1.4-.1 1 1.5 2 2.1 2.1.7.1 1.6-.7 1.4-1.4-.1-.4-.8-.7-.8-.7s.4-.6.5-.7c.3-.8-.2-1.8-.6-1.8z"/><linearGradient id="k" gradientUnits="userSpaceOnUse" x1="2.906" y1="7.613" x2="2.953" y2="11.929"><stop offset="0" stop-color="#9FCB40"/><stop offset="1" stop-color="#265E2F"/></linearGradient><path fill="url(#k)" d="M4.4 8.9c.1-.2.1-.3.1-.5v.1c0 .1-.5.7-.5.7s-.5.8.1.1c.1-.2.3-.3.3-.4zm.3 1.6c-.2.5-.8 1-1.3.9-.6-.1-2.1-1-2.1-2 0 .1-.1.2-.1.2-.1 1 1.5 2 2.1 2.1.6.1 1.4-.6 1.4-1.2z"/><linearGradient id="l" gradientUnits="userSpaceOnUse" x1="2.853" y1="9.191" x2="3.305" y2="13.448"><stop offset="0" stop-color="#9FCB40"/><stop offset="1" stop-color="#38793B"/></linearGradient><path fill="url(#l)" d="M4.1 9.3c.2-.2.3-.3.3-.4.3-.8-.1-1.8-.6-1.8-.4 0-.7.6-1.4 1.1-.6.5-1.2.9-1.2 1.4 0 .3.1.6.3.9-.1-.2-.1-.4-.1-.6 0-.5.6-.9 1.1-1.3.6-.5.8-1.1 1.1-1.1.4 0 .8 1 .5 1.8z"/><linearGradient id="m" gradientUnits="userSpaceOnUse" x1="3.784" y1="14.978" x2="3.818" y2="8.054"><stop offset="0" stop-color="#7FC342"/><stop offset="1" stop-color="#11713A"/></linearGradient><path fill="url(#m)" d="M3.8 9.6z"/><linearGradient id="n" gradientUnits="userSpaceOnUse" x1="8.817" y1="16.892" x2="8.313" y2="9.255"><stop offset="0" stop-color="#9FCB40"/><stop offset="1" stop-color="#265E2F"/></linearGradient><path opacity=".68" fill="url(#n)" d="M11.8 8.9c-.1-.5-.6-.8-1.1-.6 0 0-.3.1-.7.2-.5 0-1 .1-1.6.1h-.3c-.5.1-1.1 0-1.5-.1-.2 0-.4-.1-.5-.1H6c-.5-.1-.9.2-1 .7v.4c0 1.1 1.8 1.8 3.3 1.8 1.4 0 3.3-.6 3.7-1.8-.2-.2-.2-.4-.2-.6z"/><linearGradient id="o" gradientUnits="userSpaceOnUse" x1="7.22" y1="6.136" x2="8.056" y2="10.342"><stop offset="0" stop-color="#9FCB40"/><stop offset="1" stop-color="#265E2F"/></linearGradient><path fill="url(#o)" d="M9.4 11.7h.7c-.4-.2-.8-.3-1.4-.3-1.1 0-1.9.5-2.1 1.1.6-.5 1.6-.8 2.8-.8z"/><linearGradient id="p" gradientUnits="userSpaceOnUse" x1="9.153" y1="-.337" x2="9.454" y2="1.553"><stop offset="0" stop-color="#7FC342"/><stop offset="1" stop-color="#11713A"/></linearGradient><path fill="url(#p)" d="M10 .9v.4c0 .7-.4 1.4-1 1.9.1.1.2.2.2.3.6-.3.9-.9.9-1.6.1-.4 0-.7-.1-1z"/><linearGradient id="q" gradientUnits="userSpaceOnUse" x1="6.911" y1="-2.389" x2="6.793" y2="2.79"><stop offset="0" stop-color="#7FC342"/><stop offset="1" stop-color="#11713A"/></linearGradient><path fill="url(#q)" d="M9.9.9c0 .2-.2.4-.2.5-.1.2-.3.1-.3.1 0-.4-.2-.8-.5-1 .1.1.1.3.1.5v.6C8.8 1 8.5.5 8 .2v1.1C7.6 1 7.3.6 7.2.1c-.1.2-.1.5-.1.7-.2-.2-.3-.5-.4-.8-.2.9-.6 1.2-1.1 1.2-.3 0-.6-.1-.8-.4 0 .2.1.4.1.6v.3c-.1 0-.3-.1-.3-.3-.1.9-.3 1.5-.6 1.5 0 0-.4 0-.5-.1.2.3.2.4.4.6.3-.4.5-.6.9-.9.2-.3 0-.1.2-.3.4-.1.7-.2 1.1-.2 1.4 0 2.6.6 3.2 1.4.6-.3.9-.9.9-1.6 0-.3-.1-.6-.3-.9z"/><linearGradient id="r" gradientUnits="userSpaceOnUse" x1="6.755" y1=".301" x2="6.912" y2="6.936"><stop offset="0" stop-color="#7FC342"/><stop offset="1" stop-color="#11713A"/></linearGradient><path fill="url(#r)" d="M9.9.9c0 .2-.2.4-.2.5-.1.2-.3.1-.3.1 0-.4-.2-.8-.5-1 .1.1.1.3.1.5v.6C8.8 1 8.5.5 8 .2v1.1C7.6 1 7.3.6 7.2.1c-.1.2-.1.5-.1.7-.2-.2-.3-.5-.4-.8-.2.9-.6 1.2-1.1 1.2-.3 0-.6-.1-.8-.4 0 .1 0 .2.1.3.2.2.5.4.8.4.5 0 .9-.4 1.1-1.2.1.3.2.6.4.9 0-.3 0-.5.1-.7 0 .4.3.8.7 1.1V1 .5c.5.3.8.8.9 1.4v-.6-.5c.3.3.4.6.5 1 0 0 .1.1.2-.1.2-.2.3-.4.4-.5.1.2.2.4.2.6 0-.4-.1-.7-.3-.9zm-5 .5v.3c-.1 0-.3-.1-.3-.3-.1.9-.3 1.5-.6 1.5 0 0-.4 0-.5-.1 0 .1.1.2.1.3H4c.1-.2.3-.3.4-.5.1-.2.2-.6.2-.9.1.1.2.3.3.3v-.3c0-.2 0-.4-.1-.5.1.1.1.1.1.2z"/><linearGradient id="s" gradientUnits="userSpaceOnUse" x1="7.923" y1="-.872" x2="8.429" y2=".486"><stop offset="0" stop-color="#7FC342"/><stop offset="1" stop-color="#11713A"/></linearGradient><path fill="url(#s)" d="M9.1.8c0 .2.1.5.1.7 0 .5-.2 1-.4 1.4.4-.2.6-.7.6-1.2-.1-.4-.2-.7-.3-.9z"/><linearGradient id="t" gradientUnits="userSpaceOnUse" x1="-43.465" y1="-76.873" x2="-42.96" y2="-75.516" gradientTransform="rotate(-10.375 399.58 -315.398)"><stop offset="0" stop-color="#7FC342"/><stop offset="1" stop-color="#11713A"/></linearGradient><path fill="url(#t)" d="M8.2.5c.1.2.2.4.2.7.1.5 0 1-.2 1.4.3-.3.5-.8.4-1.3-.1-.4-.2-.6-.4-.8z"/><linearGradient id="u" gradientUnits="userSpaceOnUse" x1="6.283" y1="-1.334" x2="6.701" y2="1.883"><stop offset="0" stop-color="#7FC342"/><stop offset="1" stop-color="#11713A"/></linearGradient><path fill="url(#u)" d="M9.7 3.1l.2-1-.8.6.2-.9-.6.8V2l-.4.3V.9l-.5 1.2v-.5l-.3.4-.1-.9-.7.7V.6l-.6 1.2-.3-.4-.1.5-.5-.5.1.3-.3-.4V2l-.3-.2-.1.5-.1-.1c-.1.4-.3.8-.5.8 0 0-.2 0-.3-.1.2.3 0 .2.2.4.3-.4.5-.6.9-.9l.2-.2c.4-.1.7-.2 1.1-.2 1.4 0 2.6.6 3.2 1.4.1 0 .3-.1.4-.3z"/><linearGradient id="v" gradientUnits="userSpaceOnUse" x1="5.306" y1="10.093" x2="4.52" y2="15.543"><stop offset="0" stop-color="#98CA41"/><stop offset="1" stop-color="#38793B"/></linearGradient><path fill="url(#v)" d="M4.7 12.2c-.2 0-.3.2-.3.6 0 .3.1.6.3.6.2 0 .3-.3.3-.6s-.2-.6-.3-.6zm.2-1.1c-.1 0-.3.1-.3.3 0 .2 0 .4.2.4.1 0 .3-.1.3-.3-.1-.2-.1-.3-.2-.4zm.4.8c-.1 0-.2.2-.1.4s.2.4.3.3c.1 0 .1-.2.1-.4s-.2-.4-.3-.3zm.7.9c-.1 0-.2.2-.2.4s.1.4.2.4.2-.2.2-.4-.1-.4-.2-.4zm-1.5-3c.1 0 .2-.1.2-.3 0-.2-.1-.3-.2-.3s-.2.1-.2.3c0 .2.1.3.2.3zm-.7 1.9c-.1 0-.1.2-.1.4.1.2.2.4.3.3.1 0 .1-.2.1-.4-.1-.2-.2-.4-.3-.3zm1.6 1.6c-.1 0-.3.1-.4.3 0 .2 0 .4.1.5.1 0 .3-.1.3-.3.2-.2.2-.4 0-.5zm-1.5-.2c-.1 0-.1.1-.2.3 0 .2 0 .4.1.4s.1-.1.2-.3c0-.3-.1-.4-.1-.4zm1.2-2c.1 0 .1-.1.2-.3 0-.2 0-.4-.1-.4s-.1.1-.2.3c0 .2.1.4.1.4z"/><linearGradient id="w" gradientUnits="userSpaceOnUse" x1="2.564" y1="9.442" x2="2.87" y2="13.157"><stop offset="0" stop-color="#9CCB42"/><stop offset="1" stop-color="#38793B"/></linearGradient><path fill="url(#w)" d="M3.4 8.7c.1-.2.2-.4.1-.4-.1-.1-.3 0-.4.2-.2.1-.2.3-.1.4.1.1.3 0 .4-.2zm-1.5 1.8c-.1.1 0 .3.1.4.2.1.4.2.5.1.1-.1 0-.3-.1-.4-.2-.2-.4-.2-.5-.1zm.3-.3c.1 0 .3-.1.3-.3 0-.2 0-.4-.2-.4-.1 0-.3.1-.3.3 0 .2.1.4.2.4zm.4-1.6c.1-.1.1-.3.1-.3-.1 0-.2 0-.3.2-.1.1-.1.2-.1.3.1 0 .2-.1.3-.2zM1.5 9.8c-.1 0-.1.2 0 .3.1.1.2.2.3.1.1 0 .1-.2 0-.3-.1 0-.2-.1-.3-.1zm.3-.9c-.1 0-.2.1-.2.3 0 .2 0 .3.1.4.2 0 .3-.2.3-.3 0-.2-.1-.4-.2-.4zm.9.1c0-.1-.1 0-.2 0-.1.1-.1.2 0 .2s.2 0 .2-.1c.1 0 .1-.1 0-.1zm.7-1.1c.1-.1.1-.2 0-.2s-.2 0-.2.1c-.1 0-.1.1 0 .2 0 0 .1 0 .2-.1zm-.5 2.6c-.1 0-.1.2-.1.4s.2.3.3.3c.1 0 .1-.2.1-.4-.1-.3-.2-.4-.3-.3zm.6.7c-.1-.1-.2-.1-.3-.1 0 0 0 .2.1.3.1.1.2.1.3.1 0 0 0-.2-.1-.3z"/><linearGradient id="x" gradientUnits="userSpaceOnUse" x1="10.063" y1="10.904" x2="9.392" y2="14.661"><stop offset="0" stop-color="#98CA41"/><stop offset="1" stop-color="#38793B"/></linearGradient><path fill="url(#x)" d="M9.5 12.5c-.1 0-.2.2-.2.4s.1.4.2.4.2-.2.2-.4c0-.3-.1-.4-.2-.4zm.7-.4c0-.2-.1-.3-.2-.3s-.2.1-.2.3c0 .2.1.3.2.3.1.1.2-.1.2-.3zm-1 .2c.1 0 .2-.1.2-.2.1-.1.1-.3 0-.3s-.2.1-.2.2c-.1.1-.1.2 0 .3zm1.2 1c-.1-.2-.2-.3-.3-.3-.1 0-.1.2-.1.4.1.2.2.3.3.3.1-.1.1-.2.1-.4zM9 12.9c-.1 0-.1.2 0 .3 0 .2.1.3.2.2.1 0 .1-.2 0-.3l-.2-.2z"/><linearGradient id="y" gradientUnits="userSpaceOnUse" x1="4.45" y1="4.919" x2="4.136" y2="10.818"><stop offset="0" stop-color="#9FCB40"/><stop offset="1" stop-color="#38793B"/></linearGradient><path fill="url(#y)" d="M4.5 6.2c-.1 0-.2.1-.3.3 0 .2 0 .4.1.4s.2-.1.3-.3c0-.2 0-.4-.1-.4zm-.1-.6c0-.2-.1-.3-.2-.3s-.2.1-.2.3c0 .2.1.3.2.3s.2-.1.2-.3zm-.6.5c-.1 0-.1.1-.1.3 0 .1.1.3.1.3.1-.1.2-.2.2-.4 0-.1-.1-.2-.2-.2zm1.1.8c-.1-.1-.2.1-.3.3-.1.2 0 .4.1.4s.2-.1.3-.3c0-.2 0-.4-.1-.4z"/><linearGradient id="z" gradientUnits="userSpaceOnUse" x1="2.089" y1="11.974" x2="7.583" y2="21.834"><stop offset="0" stop-color="#98CA41"/><stop offset="1" stop-color="#38793B"/></linearGradient><path fill="url(#z)" d="M2.1 11.9c-.2 0-.3.1-.3.1 0 .1.1.1.3.1.2 0 .3-.1.3-.1-.1 0-.2-.1-.3-.1zm.7-.4c0-.1-.2-.1-.3 0l-.2.2c0 .1.2.1.3 0 .1 0 .2-.1.2-.2zm-1.4.2c-.1 0-.2.1-.2.1 0 .1.1.1.2.1s.2-.1.2-.1c0-.1 0-.1-.2-.1zm1.9.1c0-.1-.2-.1-.3-.1-.2 0-.3.1-.3.2s.2.1.3.1c.2 0 .3-.1.3-.2zm-2.4-.1c-.1 0-.2-.1-.2 0 0 0 0 .1.1.2.1 0 .2.1.2 0 .1-.1 0-.2-.1-.2z"/><linearGradient id="A" gradientUnits="userSpaceOnUse" x1="9.751" y1="11.256" x2="7.197" y2="4.325"><stop offset="0" stop-color="#9FCB40"/><stop offset="1" stop-color="#265E2F"/></linearGradient><path opacity=".68" fill="url(#A)" d="M11.5 3.6l-.1-.1c-.1.5-.7 1.7-2.8 2.6-.2-.5-.7-.8-1.3-.8-.8 0-1.5.6-1.5 1.4v.2c-.2 0-.5.1-.8.1-.5 0-1-.1-1.2-.2-.1 0-.1 0-.1-.1V7c.2.1.7.2 1.3.2.3 0 .6 0 .9-.1.2.6.8.9 1.4.9.8 0 1.5-.6 1.5-1.4v-.3c1.3-.6 2-1.2 2.4-1.8.2-.3.3-.6.4-.8l-.1-.1z"/><linearGradient id="B" gradientUnits="userSpaceOnUse" x1="6.314" y1="1.473" x2="8.388" y2="7.763"><stop offset="0" stop-color="#263D90"/><stop offset="1" stop-color="#010101"/></linearGradient><path fill="url(#B)" d="M11.4 3.3l-.1-.1c-.1.5-.6 1.7-2.8 2.7-.2-.5-.7-.9-1.3-.9-.8 0-1.4.7-1.4 1.4v.2c-.3.1-.6.1-.8.1-.6 0-1-.1-1.3-.2-.1 0-.1 0-.1-.1v.3c.2.1.7.3 1.4.3.3 0 .6 0 .9-.1.2.5.7.9 1.4.9.8 0 1.5-.6 1.5-1.4v-.3c1.3-.6 2-1.2 2.4-1.8.2-.3.3-.6.4-.8l-.2-.2z"/><linearGradient id="C" gradientUnits="userSpaceOnUse" x1="10.183" y1="4.805" x2="11.079" y2="8.571"><stop offset="0" stop-color="#9FCB40"/><stop offset="1" stop-color="#265E2F"/></linearGradient><ellipse fill="url(#C)" cx="10.6" cy="6.6" rx=".5" ry=".5"/><ellipse fill="#010101" cx="10.6" cy="6.5" rx=".4" ry=".4"/><linearGradient id="D" gradientUnits="userSpaceOnUse" x1="10.62" y1="6.585" x2="10.623" y2="6.148"><stop offset="0" stop-color="#010101"/><stop offset="1" stop-color="#265E2F"/></linearGradient><ellipse fill="url(#D)" cx="10.6" cy="6.4" rx=".2" ry=".2"/><linearGradient id="E" gradientUnits="userSpaceOnUse" x1="10.616" y1="6.44" x2="10.66" y2="6.048"><stop offset="0" stop-color="#010101"/><stop offset="1" stop-color="#3EB44A"/></linearGradient><ellipse fill="url(#E)" cx="10.6" cy="6.3" rx=".1" ry=".1"/><linearGradient id="F" gradientUnits="userSpaceOnUse" x1="10.606" y1="6.411" x2="10.636" y2="7.505"><stop offset="0" stop-color="#010101"/><stop offset="1" stop-color="#3EB44A"/></linearGradient><path fill="url(#F)" d="M10.3 6.6c0-.1.1-.2.3-.2.1 0 .3.1.2.2 0 .1-.1.2-.3.2-.1 0-.2-.1-.2-.2z"/><linearGradient id="G" gradientUnits="userSpaceOnUse" x1="8.259" y1="8.659" x2="8.607" y2="12.122"><stop offset="0" stop-color="#EE4823"/><stop offset="1" stop-color="#7A2117"/></linearGradient><path fill="url(#G)" d="M11.8 8.6c-.1-.5-.6-.8-1.1-.6 0 0-.3.1-.7.2-.5.1-1 .2-1.6.2h-.3c-.5 0-1.1-.1-1.5-.1-.2-.1-.4-.1-.6-.1h-.1c-.5-.1-.9.2-1 .7v.4c0 1.1 1.8 1.8 3.3 1.8 1.4 0 3.3-.6 3.7-1.8-.1-.3-.1-.5-.1-.7z"/><linearGradient id="H" gradientUnits="userSpaceOnUse" x1="8.249" y1="6.874" x2="8.326" y2="10.781"><stop offset="0" stop-color="#EE4823"/><stop offset="1" stop-color="#7A2117"/></linearGradient><path fill="url(#H)" d="M11.8 8.6c0 .2 0 .4-.1.5-.4 1.2-2.2 1.8-3.6 1.8-1.5 0-3.2-.6-3.2-1.7v-.4c0-.2.1-.3.2-.5-.1.2-.3.4-.3.6v.4c0 1.1 1.8 1.8 3.3 1.8 1.4 0 3.3-.6 3.7-1.8v-.7z"/><linearGradient id="I" gradientUnits="userSpaceOnUse" x1="8.205" y1="8.041" x2="8.569" y2="11.805"><stop offset="0" stop-color="#FFF"/><stop offset="1" stop-color="#EDF7FD"/></linearGradient><path fill="url(#I)" d="M11.3 8.8c-.1-.4-.5-.6-1-.5 0 0-.3.1-.6.1-.3.2-.8.2-1.3.3h-.3c-.4 0-.9 0-1.3-.1-.2 0-.4 0-.5-.1h-.1c-.4-.1-.8.2-.9.5v.3c0 .8 1.5 1.3 2.8 1.3 1.2 0 2.8-.5 3.2-1.4.1 0 .1-.2 0-.4z"/><linearGradient id="J" gradientUnits="userSpaceOnUse" x1="8.576" y1="10.286" x2="8.291" y2="9.023"><stop offset="0" stop-color="#FFF"/><stop offset="1" stop-color="#DBDBDB"/></linearGradient><path fill="url(#J)" d="M5.3 9.2c.1-.4.5-.6.9-.5h.1c.1 0 .3 0 .5.1.4 0 .9.1 1.3.1h.3c.5 0 1-.1 1.3-.2.4-.1.6-.1.6-.1.4-.1.8.1 1 .5V9c-.1-.4-.5-.6-1-.5 0 0-.3.1-.6.1s-.8 0-1.3.1h-.3c-.4 0-.9 0-1.3-.1-.2 0-.4 0-.5-.1h-.1c-.4-.1-.8.2-.9.5V9.2z"/><linearGradient id="K" gradientUnits="userSpaceOnUse" x1="8.337" y1="8.149" x2="8.51" y2="9.755"><stop offset="0" stop-color="#F48456"/><stop offset="1" stop-color="#010101"/></linearGradient><path fill="url(#K)" d="M9.5 8.4c0 .2-.9.2-1.2.2-.3 0-1.2.1-1.2-.1s.6 0 1.2 0c.7-.1 1.2-.2 1.2-.1z"/><linearGradient id="L" gradientUnits="userSpaceOnUse" x1="6.985" y1="8.295" x2="7.064" y2="9.034"><stop offset="0" stop-color="#F48456"/><stop offset="1" stop-color="#010101"/></linearGradient><ellipse fill="url(#L)" cx="7" cy="8.4" rx=".1" ry=".1"/><linearGradient id="M" gradientUnits="userSpaceOnUse" x1="8.387" y1="9.824" x2="8.792" y2="13.533"><stop offset="0" stop-color="#EE4823"/><stop offset="1" stop-color="#7A2117"/></linearGradient><path opacity=".24" fill="url(#M)" d="M11.3 8.8c0 .1 0 .2-.1.3-.1.2-.1.4-.3.6-.1.1-.3-.1-.5 0-.1.1-.3.4-.4.5-.2.1-.5-.1-.7-.1-.2 0-.3.4-.5.4-.3 0-.5-.2-.8-.2-.2 0-.3.3-.5.3s-.4-.2-.6-.3c-.2 0-.5.1-.7 0-.2-.1-.3-.4-.4-.5-.4 0-.6-.2-.6-.5v.1c0 .8 1.5 1.3 2.8 1.3 1.2 0 2.8-.5 3.2-1.4.2-.1.2-.3.1-.5z"/><path opacity=".61" fill="#C8C7D3" d="M5.3 9.2l.4-.4.3.5.5-.3.5.5.5-.5.7.7.5-.6.8.4.3-.6.7.4.4-.6.3.3.1-.1.1.1V8.8c0-.1 0-.1-.1-.1l-.1.1-.4-.3-.4.6-.6-.4-.4.6-.7-.4-.6.6-.6-.6-.5.5-.5-.6-.5.4-.3-.6-.4.4v.2z"/><linearGradient id="N" gradientUnits="userSpaceOnUse" x1="13.153" y1="8.697" x2="13.675" y2="11.216"><stop offset="0" stop-color="#98CA41"/><stop offset="1" stop-color="#38793B"/></linearGradient><ellipse fill="url(#N)" cx="13.3" cy="9.3" rx=".3" ry=".1"/><linearGradient id="O" gradientUnits="userSpaceOnUse" x1="391.173" y1="-960.477" x2="391.621" y2="-958.317" gradientTransform="rotate(-27.44 2186.98 297.386)"><stop offset="0" stop-color="#98CA41"/><stop offset="1" stop-color="#38793B"/></linearGradient><path fill="url(#O)" d="M14.1 8.8c0 .1 0 .1-.1.2s-.2.1-.2 0 0-.1.1-.2h.2z"/><linearGradient id="P" gradientUnits="userSpaceOnUse" x1="12.38" y1="8.16" x2="12.902" y2="10.678"><stop offset="0" stop-color="#98CA41"/><stop offset="1" stop-color="#38793B"/></linearGradient><ellipse fill="url(#P)" cx="12.5" cy="8.7" rx=".3" ry=".1"/><linearGradient id="Q" gradientUnits="userSpaceOnUse" x1="58.947" y1="836.163" x2="59.393" y2="838.316" gradientTransform="rotate(22.13 2151.244 304.022)"><stop offset="0" stop-color="#98CA41"/><stop offset="1" stop-color="#38793B"/></linearGradient><path fill="url(#Q)" d="M12.7 9.3c0 .1-.1.1-.2 0-.1 0-.2-.1-.2-.2s.1-.1.2 0c.2.1.3.2.2.2z"/><linearGradient id="R" gradientUnits="userSpaceOnUse" x1="390.944" y1="-960.793" x2="391.391" y2="-958.637" gradientTransform="rotate(-27.44 2186.98 297.386)"><stop offset="0" stop-color="#98CA41"/><stop offset="1" stop-color="#38793B"/></linearGradient><path fill="url(#R)" d="M13.7 8.7c0 .1 0 .1-.1.2s-.2.1-.2 0 0-.2.1-.2c.1-.1.2-.1.2 0z"/><g fill="#fff"><path d="M30 11.9h-.8V4.4c0-.2 0-.2-.2-.2-.1 0-.1 0-.2.1l-3.1 3.4V4.4c0-.2-.1-.2-.2-.2s-.1 0-.2.1l-6.9 7.6h-1.1l7.2-8.1c.3-.3.5-.5 1-.5s.8.4.8 1.1v1.2l1.6-1.8c.3-.3.5-.5 1-.5s.8.4.8 1.1v7.5zM25.4 5v6.9h-.7V7l-4.3 4.9h-1l6-6.9zm3.4 0v6.9H28V7l-1.4 1.6v3.3h-.8V8.3l3-3.3zM34.4 11.9c-2.2 0-3.8-1.7-3.8-4.2s1.6-4.2 3.8-4.2h.3c2.2 0 3.8 1.7 3.8 4.2s-1.6 4.2-3.8 4.2h-.3zm0-.9h.3c1.8 0 3.1-1.3 3.1-3.4 0-2-1.3-3.4-3.1-3.4h-.3c-1.8 0-3.1 1.3-3.1 3.4 0 2.1 1.3 3.4 3.1 3.4zm0-.5c-1.5 0-2.6-1.1-2.6-2.9 0-1.8 1.2-2.9 2.6-2.9h.3c1.5 0 2.6 1.1 2.6 2.9 0 1.8-1.1 2.9-2.6 2.9h-.3zm.3-.8c1.1 0 1.9-.7 1.9-2.1 0-1.4-.8-2.1-1.9-2.1h-.3c-1.1 0-1.9.7-1.9 2.1 0 1.4.8 2.1 1.9 2.1h.3zM42.6 3.4h.8V8c0 2.4-1.4 3.8-3.8 3.8h-.8V11h.8c2 0 3.1-1.2 3.1-2.9V3.4zm-1.2 0h.8V8c0 1.7-1 2.5-2.7 2.5h-.8v-.8h.8c1.4 0 1.9-.5 1.9-1.6V3.4zM47.9 11.9c-2.2 0-3.8-1.7-3.8-4.2s1.6-4.2 3.8-4.2h.3c2.2 0 3.8 1.7 3.8 4.2s-1.6 4.2-3.8 4.2h-.3zm0-.9h.3c1.8 0 3.1-1.3 3.1-3.4 0-2-1.3-3.4-3.1-3.4h-.3c-1.8 0-3.1 1.3-3.1 3.4 0 2.1 1.3 3.4 3.1 3.4zm0-.5c-1.5 0-2.6-1.1-2.6-2.9 0-1.8 1.2-2.9 2.6-2.9h.3c1.5 0 2.6 1.1 2.6 2.9 0 1.8-1.1 2.9-2.6 2.9h-.3zm.3-.8c1.1 0 1.9-.7 1.9-2.1 0-1.4-.8-2.1-1.9-2.1h-.3c-1.1 0-1.9.7-1.9 2.1 0 1.4.8 2.1 1.9 2.1h.3zM62.2 11.9V4.8l-2.9 7.1h-.4L56 4.8v7.1h-1V3.4h1.5l2.6 6.5 2.6-6.5h1.5v8.5h-1zM68.7 11.9v-.7c-.5.6-1.2.8-2 .8-1 0-2.1-.7-2.1-2 0-1.4 1.1-2 2.1-2 .8 0 1.5.3 2 .8V7.7c0-.8-.7-1.3-1.5-1.3-.7 0-1.3.3-1.9.8l-.4-.7c.7-.7 1.4-1 2.4-1 1.3 0 2.4.6 2.4 2.1v4.2h-1zm0-1.3V9.4c-.4-.5-1-.7-1.7-.7-.9 0-1.5.6-1.5 1.3 0 .8.6 1.3 1.5 1.3.7 0 1.4-.2 1.7-.7zM71.3 11.9V5.7h.9v1c.5-.6 1.2-1.1 2-1.1v1h-.4c-.6 0-1.4.5-1.7 1v4.3h-.8zM80 11.9l-2.2-2.8-1 1v1.7h-.9V3.4h.9V9L80 5.7h1.2l-2.7 2.8 2.7 3.3H80zM82 8.8c0-1.8 1.3-3.2 3-3.2 1.8 0 2.9 1.4 2.9 3.3v.2H83c.1 1.2.9 2.1 2.2 2.1.7 0 1.4-.3 1.9-.8l.5.6c-.6.6-1.4.9-2.4.9-1.9.1-3.2-1.2-3.2-3.1zm3-2.4c-1.3 0-2 1.1-2 2h4c0-.9-.6-2-2-2zM90 10.6v-4h-1v-.9h1V4.1h1v1.7h1.2v.8H91v3.8c0 .5.2.8.6.8.3 0 .5-.1.6-.3l.3.7c-.2.2-.6.4-1.1.4-.9 0-1.4-.5-1.4-1.4zM94.9 10.9v3.3h-1V5.7h1v.9c.4-.6 1.2-1.1 2.1-1.1 1.6 0 2.7 1.2 2.7 3.2s-1.1 3.2-2.7 3.2c-.9.1-1.6-.3-2.1-1zm3.8-2.1c0-1.4-.7-2.4-2-2.4-.7 0-1.5.4-1.8 1v2.8c.3.5 1.1 1 1.8 1 1.2 0 2-1 2-2.4zM101.1 11.9V3.4h1v8.5h-1zM107.8 11.9v-.7c-.5.6-1.2.8-2 .8-1 0-2.1-.7-2.1-2 0-1.4 1.1-2 2.1-2 .8 0 1.5.3 2 .8V7.7c0-.8-.7-1.3-1.5-1.3-.7 0-1.3.3-1.9.8l-.4-.7c.7-.7 1.4-1 2.4-1 1.3 0 2.4.6 2.4 2.1v4.2h-1zm0-1.3V9.4c-.4-.5-1-.7-1.7-.7-.9 0-1.5.6-1.5 1.3 0 .8.6 1.3 1.5 1.3.7 0 1.3-.2 1.7-.7zM110.1 8.8c0-1.8 1.2-3.2 3.1-3.2 1.1 0 1.8.5 2.2 1.1l-.6.6c-.4-.6-.9-.8-1.6-.8-1.3 0-2.1 1-2.1 2.4s.8 2.4 2.1 2.4c.6 0 1.2-.3 1.6-.8l.6.6c-.5.6-1.1 1.1-2.2 1.1-1.9-.2-3.1-1.6-3.1-3.4zM116.2 8.8c0-1.8 1.3-3.2 3-3.2 1.9 0 2.9 1.4 2.9 3.3v.2h-4.9c.1 1.2.9 2.1 2.2 2.1.7 0 1.4-.3 1.9-.8l.5.6c-.6.6-1.4.9-2.4.9-1.9.1-3.2-1.2-3.2-3.1zm3-2.4c-1.3 0-2 1.1-2 2h4c0-.9-.6-2-2-2z"/></g></svg>