<svg
  width="24"
  height="24"
  viewBox="0 0 24 24"
  fill="none"
  stroke-width="1.5"
  xmlns="http://www.w3.org/2000/svg"
>
  <path
    d="M22.75 20.5952V12.0586C22.75 6.12153 17.9371 1.30859 12 1.30859C6.06294 1.30859 1.25 6.12153 1.25 12.0586C1.25 17.9957 6.06294 22.8086 12 22.8086H20.5366C21.759 22.8086 22.75 21.8176 22.75 20.5952Z"
    stroke="currentColor"
    stroke-width="1.5"
  ></path>
  <path
    d="M11.128 13.4006C11.128 12.9526 11.2213 12.5653 11.408 12.2386C11.604 11.9119 11.94 11.5386 12.416 11.1186C12.696 10.8666 12.8967 10.6473 13.018 10.4606C13.1487 10.2739 13.214 10.0593 13.214 9.81659C13.214 9.52726 13.1067 9.28459 12.892 9.08859C12.6773 8.88326 12.3927 8.78059 12.038 8.78059C11.6647 8.78059 11.3567 8.89259 11.114 9.11659C10.8807 9.33126 10.7127 9.60193 10.61 9.92859L9 9.25659C9.17733 8.65926 9.52267 8.14593 10.036 7.71659C10.5587 7.27793 11.212 7.05859 11.996 7.05859C12.584 7.05859 13.1067 7.17526 13.564 7.40859C14.0213 7.64193 14.376 7.96393 14.628 8.37459C14.8893 8.77593 15.02 9.22393 15.02 9.71859C15.02 10.2039 14.9173 10.6193 14.712 10.9646C14.5067 11.3099 14.2033 11.6739 13.802 12.0566C13.4847 12.3553 13.2653 12.6119 13.144 12.8266C13.032 13.0413 12.976 13.3119 12.976 13.6386V13.8626H11.128V13.4006ZM12.038 17.3906C11.702 17.3906 11.4127 17.2739 11.17 17.0406C10.9367 16.7979 10.82 16.5086 10.82 16.1726C10.82 15.8366 10.9367 15.5519 11.17 15.3186C11.4127 15.0853 11.702 14.9686 12.038 14.9686C12.374 14.9686 12.6587 15.0853 12.892 15.3186C13.1253 15.5519 13.242 15.8366 13.242 16.1726C13.242 16.5086 13.1253 16.7979 12.892 17.0406C12.6587 17.2739 12.374 17.3906 12.038 17.3906Z"
    fill="currentColor"
  ></path>
</svg>