<?xml version="1.0" encoding="UTF-8" standalone="no"?>
<svg width="50px" height="40px" viewBox="0 0 50 40" version="1.1" xmlns="http://www.w3.org/2000/svg" xmlns:xlink="http://www.w3.org/1999/xlink">
    <!-- Generator: Sketch 40.3 (33839) - http://www.bohemiancoding.com/sketch -->
    <title>1477523100_Advertising_icons-07</title>
    <desc>Created with Sketch.</desc>
    <defs></defs>
    <g id="Welcome" stroke="none" stroke-width="1" fill="none" fill-rule="evenodd">
        <g id="Desktop-Copy-4" transform="translate(-42.000000, -809.000000)" fill="#3875D0">
            <g id="1477523100_Advertising_icons-07" transform="translate(42.000000, 809.000000)">
                <g id="Layer_1">
                    <g id="Group">
                        <path d="M48.0769231,0 L1.92307692,0 C0.865384615,0 0,0.857142857 0,1.9047619 L0,38.0952381 C0,39.1428571 0.865384615,40 1.92307692,40 L48.0769231,40 C49.1346154,40 50,39.1428571 50,38.0952381 L50,1.9047619 C50,0.857142857 49.1346154,0 48.0769231,0 L48.0769231,0 Z M38.4615385,3.01587302 C39.5230769,3.01587302 40.3846154,3.86857143 40.3846154,4.92063492 C40.3846154,5.97269841 39.5230769,6.82539683 38.4615385,6.82539683 C37.4,6.82539683 36.5384615,5.97269841 36.5384615,4.92063492 C36.5384615,3.86857143 37.4,3.01587302 38.4615385,3.01587302 L38.4615385,3.01587302 Z M32.6923077,3.01587302 C33.7538462,3.01587302 34.6153846,3.86857143 34.6153846,4.92063492 C34.6153846,5.97269841 33.7538462,6.82539683 32.6923077,6.82539683 C31.6307692,6.82539683 30.7692308,5.97269841 30.7692308,4.92063492 C30.7692308,3.86857143 31.6307692,3.01587302 32.6923077,3.01587302 L32.6923077,3.01587302 Z M46.1538462,36.1904762 L3.84615385,36.1904762 L3.84615385,9.52380952 L46.1538462,9.52380952 L46.1538462,36.1904762 L46.1538462,36.1904762 Z M44.2307692,6.82539683 C43.1692308,6.82539683 42.3076923,5.97269841 42.3076923,4.92063492 C42.3076923,3.86857143 43.1692308,3.01587302 44.2307692,3.01587302 C45.2923077,3.01587302 46.1538462,3.86857143 46.1538462,4.92063492 C46.1538462,5.97269841 45.2923077,6.82539683 44.2307692,6.82539683 L44.2307692,6.82539683 Z" id="Shape"></path>
                        <path d="M26.9230769,16.5079365 L26.9230769,22.2222222 C26.924359,22.9238095 27.4974359,23.4920635 28.2051282,23.4926984 L33.974359,23.4920635 C34.6820513,23.4920635 35.2570513,24.0609524 35.2564103,24.7619048 L35.2564103,27.8095238 C35.2576923,28.1606349 34.9717949,28.4450794 34.6166667,28.4450794 L32.5653846,28.4444444 C32.2102564,28.4444444 31.9237179,28.7288889 31.9237179,29.08 L31.924359,31.1111111 C31.9237179,31.4615873 32.2102564,31.7460317 32.5647436,31.7460317 L34.6153846,31.7460317 C34.9698718,31.7466667 35.2564103,31.4615873 35.2564103,31.1104762 L35.2576923,29.0793651 C35.2570513,28.728254 35.5429487,28.4450794 35.8987179,28.4444444 L39.2955128,28.4444444 C39.8262821,28.4450794 40.2570513,28.0184127 40.2570513,27.4920635 L40.2570513,24.4444444 C40.2570513,23.9180952 39.8262821,23.4920635 39.2955128,23.4920635 L36.5384615,23.4920635 C35.8314103,23.4920635 35.2576923,22.9231746 35.2564103,22.2222222 L35.2570513,16.5079365 C35.2570513,15.8069841 34.6833333,15.2380952 33.974359,15.2380952 L28.2051282,15.2380952 C27.4974359,15.2387302 26.9237179,15.8069841 26.9230769,16.5079365 L26.9230769,16.5079365 Z" id="Shape"></path>
                        <rect id="Rectangle-path" x="7.69230769" y="15.2380952" width="11.5384615" height="1.9047619"></rect>
                        <rect id="Rectangle-path" x="7.69230769" y="19.6831746" width="11.5384615" height="1.9047619"></rect>
                        <rect id="Rectangle-path" x="7.69230769" y="24.1269841" width="11.5384615" height="1.9047619"></rect>
                    </g>
                </g>
            </g>
        </g>
    </g>
</svg>