<?xml version="1.0" encoding="UTF-8" standalone="no"?>
<svg width="51px" height="41px" viewBox="0 0 51 41" version="1.1" xmlns="http://www.w3.org/2000/svg" xmlns:xlink="http://www.w3.org/1999/xlink">
    <!-- Generator: Sketch 40.3 (33839) - http://www.bohemiancoding.com/sketch -->
    <title>1477523062_object</title>
    <desc>Created with Sketch.</desc>
    <defs></defs>
    <g id="Welcome" stroke="none" stroke-width="1" fill="none" fill-rule="evenodd">
        <g id="Desktop-Copy-4" transform="translate(-136.000000, -807.000000)" fill="#3875D0">
            <g id="1477523062_object" transform="translate(136.000000, 807.000000)">
                <g id="Layer_1">
                    <g id="Group">
                        <path d="M1.5625,9.43884892 C2.42617187,9.43884892 3.125,8.73526139 3.125,7.86570743 L3.125,3.14628297 L7.8125,3.14628297 C8.67617187,3.14628297 9.375,2.44269544 9.375,1.57314149 C9.375,0.70358753 8.67617187,0 7.8125,0 L1.5625,0 C0.698828125,0 0,0.70358753 0,1.57314149 L0,7.86570743 C0,8.73526139 0.698828125,9.43884892 1.5625,9.43884892 L1.5625,9.43884892 Z" id="Shape"></path>
                        <path d="M48.8125,31 C47.9488281,31 47.25,31.7035875 47.25,32.5731415 L47.25,37.2925659 L42.5625,37.2925659 C41.6988281,37.2925659 41,37.9961535 41,38.8657074 C41,39.7352614 41.6988281,40.4388489 42.5625,40.4388489 L48.8125,40.4388489 C49.6761719,40.4388489 50.375,39.7352614 50.375,38.8657074 L50.375,32.5731415 C50.375,31.7035875 49.6761719,31 48.8125,31 L48.8125,31 Z" id="Shape"></path>
                        <path d="M7.8125,37.2925659 L3.125,37.2925659 L3.125,32.5731415 C3.125,31.7035875 2.42617187,31 1.5625,31 C0.698828125,31 0,31.7035875 0,32.5731415 L0,38.8657074 C0,39.7352614 0.698828125,40.4388489 1.5625,40.4388489 L7.8125,40.4388489 C8.67617187,40.4388489 9.375,39.7352614 9.375,38.8657074 C9.375,37.9961535 8.67617187,37.2925659 7.8125,37.2925659 L7.8125,37.2925659 Z" id="Shape"></path>
                        <path d="M48.8125,0 L42.5625,0 C41.6988281,0 41,0.70358753 41,1.57314149 C41,2.44269544 41.6988281,3.14628297 42.5625,3.14628297 L47.25,3.14628297 L47.25,7.86570743 C47.25,8.73526139 47.9488281,9.43884892 48.8125,9.43884892 C49.6761719,9.43884892 50.375,8.73526139 50.375,7.86570743 L50.375,1.57314149 C50.375,0.70358753 49.6761719,0 48.8125,0 L48.8125,0 Z" id="Shape"></path>
                        <rect id="Rectangle-path" x="6" y="6" width="37.5" height="28.3165468"></rect>
                    </g>
                </g>
            </g>
        </g>
    </g>
</svg>