<svg xmlns="http://www.w3.org/2000/svg" fill="none" viewBox="0 0 24 21">
    <path fill="white" d="M10.87 14.97 5.98 9.7a.26.26 0 0 0-.26-.08.26.26 0 0 0-.15.23l-.26 4.97a.26.26 0 0 0 .2.26l5.15.31a.26.26 0 0 0 .26-.29.24.24 0 0 0-.05-.13Zm-2.17-.13a.26.26 0 1 1-.47-.13l.13-.52-1.1-.29-.15.5a.26.26 0 0 1-.47-.16l.15-.5-.78-.2a.26.26 0 0 1-.14-.5c.04-.02.08-.03.13-.02a.2.2 0 0 1 .12.05l.78.2.34-1.07a.26.26 0 0 1 .29-.18c.13.05.2.18.18.31l-.32 1.1 1.13.31.02-.18a.26.26 0 0 1 .5.13l-.34 1.15Zm5.05-7.38-1.12-.31-.34 1.15 1.12.3.34-1.14Zm.47-1.66-1.1-.32-.34 1.16 1.1.32.34-1.16Zm-.92 3.28-1.12-.31-.34 1.15 1.13.31.34-1.15Zm-.2-5.35L12 3.41l-.34 1.16 1.1.32.35-1.16Zm-.47 1.66-1.1-.32-.35 1.16 1.11.32.34-1.16Zm2.07-1.21-1.12-.31-.33 1.15 1.12.3.34-1.14Zm1.6.48-1.12-.32-.34 1.15 1.12.32.34-1.15Zm-.49 1.62-1.1-.32-.34 1.16 1.1.32.34-1.16Zm-.47 1.62-1.11-.32-.34 1.16 1.1.32.35-1.15Zm-.44 1.63-1.12-.31-.34 1.15 1.12.3.34-1.14Zm-3.85-4.62L9.92 4.6l-.34 1.15 1.13.31.34-1.15ZM8.33 2.37l-1.1-.33-.34 1.16 1.1.32.34-1.15Zm-1.59-.48-1.11-.32-.34 1.15 1.11.32.34-1.15Z"/>
    <path fill="white" d="M21.7.82a5.48 5.48 0 0 0-2.87-.18.26.26 0 0 0-.15.15l-.87 2.98L4.73.01a.26.26 0 0 0-.31.16l-.65 2.35-.74-.79a.26.26 0 0 0-.26-.05.26.26 0 0 0-.15.21l-.34 5.8L0 15.57c-.03.13.05.26.18.32l1.56.44-.07 1.57a.26.26 0 0 0 .26.26l7.65.39 6.45 1.83c2.84.88 3.26-.58 3.47-1.33L23.38 5.6l.57-1.99c.26-.99-.5-2.3-2.25-2.8Zm-16.47.42a.26.26 0 0 1 .28-.19l11.13 3.19c.13.05.2.18.16.31l-2.49 8.62a.26.26 0 0 1-.28.16.26.26 0 0 1-.19-.29l.55-1.9-1.1-.35-.28.97a.26.26 0 0 1-.33.28.26.26 0 0 1-.14-.41l.26-.97-1.33-.39a.26.26 0 0 1-.18-.29l.41-1.38-1.12-.34-.2.73a.26.26 0 1 1-.48-.13l.21-.68-1.36-.39a.26.26 0 0 1-.15-.29l.39-1.38-1.13-.34-.13.44a.26.26 0 1 1-.47-.13l.6-2.06-1.12-.31-.29 1.1a.26.26 0 1 1-.47-.14l.32-1.12-1.3-.4h-.06a.26.26 0 0 1-.16-.28l.47-1.64h-.02ZM1.75 15a.26.26 0 1 1-.47-.13l.27-.92a.26.26 0 0 1 .47.13l-.27.92Zm.42 2.64.86-15.15L4.91 4.5l-.57.47a.26.26 0 1 0 .34.37l.55-.5.62.7-.52.5a.26.26 0 1 0 .32.37l.54-.53.63.71-.55.5a.26.26 0 0 0 .34.36l.55-.52.63.7-.55.5a.26.26 0 0 0 .08.42c.07 0 .18 0 .26-.05l.52-.53.7.76-.57.5a.26.26 0 0 0 .1.41c.08 0 .16 0 .24-.05l.57-.52.63.7-.57.53a.26.26 0 0 0 .34.34l.57-.53.63.71-.58.52a.26.26 0 0 0 .34.34l.55-.52.63.7-.58.53a.26.26 0 0 0-.12.43.26.26 0 0 0 .44-.1l.57-.52.63.7-.58.53a.26.26 0 1 0 .34.37l.58-.53.62.68-.57.53a.26.26 0 0 0 .1.41c.08 0 .16 0 .24-.05l.57-.52.68.73-.34 1.18c-.02.07 0 .18.05.26.06.05.16.07.27.05 0 0 .5-.13 1.35-.05l1.91 2.09-15.67-.9v-.04Zm17.16.1c-.32-.65-1.02-1.23-2.1-1.57a6.42 6.42 0 0 0-2.42-.26l4.26-14.88c.31-.03 1.2-.13 2.48.26 1.59.44 2.09 1.54 1.88 2.17l-4.08 14.3-.02-.02Z"/>
    <path fill="white" d="m9.44 4.43-1.1-.32L8 5.27l1.1.32.34-1.16Zm.49-1.59-1.12-.31-.34 1.15 1.12.31.34-1.15Zm1.59.45-1.12-.32-.34 1.15 1.12.32.34-1.15Zm.64 3.69-1.12-.31-.34 1.15 1.12.31.34-1.15Zm-1.6-.44-1.1-.33-.35 1.16 1.11.32.34-1.15Z"/>
</svg>