<svg height="39px" viewBox="0 0 281 50" fill="none" xmlns="http://www.w3.org/2000/svg">
    <g clip-path="url(#clip0_2_5)">
        <g clip-path="url(#clip1_2_5)">
            <path fill-rule="evenodd" clip-rule="evenodd"
                d="M12 1C18.6274 1 24 6.37258 24 13V1H36C42.6274 1 48 6.37258 48 13C48 19.6274 42.6274 25 36 25C42.6274 25 48 30.3726 48 37C48 40.2908 46.6753 43.2722 44.5302 45.4401L44.4853 45.4853L44.4455 45.5249C42.2771 47.6732 39.2935 49 36 49C32.7289 49 29.7635 47.6912 27.5988 45.5686C27.5707 45.541 27.5426 45.5132 27.5147 45.4853C27.4884 45.459 27.4622 45.4326 27.4362 45.4061C25.3109 43.2411 24 40.2736 24 37C24 43.6274 18.6274 49 12 49C5.37258 49 0 43.6274 0 37V25H12C5.37258 25 0 19.6274 0 13C0 6.37258 5.37258 1 12 1ZM21.6 13C21.6 18.302 17.302 22.6 12 22.6V3.4C17.302 3.4 21.6 7.69806 21.6 13ZM45.6 37C45.6 31.698 41.302 27.4 36 27.4C30.698 27.4 26.4 31.698 26.4 37H45.6ZM2.4 27.4V37C2.4 42.302 6.69806 46.6 12 46.6C17.302 46.6 21.6 42.302 21.6 37V27.4H2.4ZM26.4 22.6V3.4H36C41.302 3.4 45.6 7.69806 45.6 13C45.6 18.302 41.302 22.6 36 22.6H26.4Z"
                fill="#F15A2B" />
        </g>
        <path
            d="M103.706 11.285L94.361 41H92.429L83.651 15.212C83.539 14.862 83.441 14.498 83.357 14.12C83.273 14.498 83.175 14.862 83.063 15.212L74.264 41H72.353L62.987 11.285H64.772C65.178 11.285 65.437 11.474 65.549 11.852L73.046 36.275C73.2 36.835 73.34 37.472 73.466 38.186C73.536 37.822 73.606 37.486 73.676 37.178C73.746 36.856 73.83 36.555 73.928 36.275L82.328 11.852C82.384 11.698 82.482 11.565 82.622 11.453C82.762 11.341 82.93 11.285 83.126 11.285H83.714C83.91 11.285 84.071 11.341 84.197 11.453C84.323 11.551 84.421 11.684 84.491 11.852L92.891 36.275C92.989 36.541 93.073 36.835 93.143 37.157C93.227 37.479 93.304 37.815 93.374 38.165C93.444 37.815 93.507 37.486 93.563 37.178C93.633 36.856 93.703 36.555 93.773 36.275L101.27 11.852C101.312 11.698 101.403 11.565 101.543 11.453C101.697 11.341 101.872 11.285 102.068 11.285H103.706ZM114.042 27.308C115.344 27.308 116.513 27.126 117.549 26.762C118.585 26.398 119.46 25.894 120.174 25.25C120.902 24.606 121.455 23.85 121.833 22.982C122.225 22.1 122.421 21.141 122.421 20.105C122.421 17.823 121.721 16.066 120.321 14.834C118.921 13.602 116.828 12.986 114.042 12.986H108.519V27.308H114.042ZM114.042 11.285C117.528 11.285 120.153 12.048 121.917 13.574C123.695 15.1 124.584 17.277 124.584 20.105C124.584 21.407 124.339 22.604 123.849 23.696C123.359 24.788 122.659 25.733 121.749 26.531C120.839 27.315 119.733 27.931 118.431 28.379C117.129 28.813 115.666 29.03 114.042 29.03H108.519V41H106.356V11.285H114.042ZM145.842 37.115C146.948 37.115 147.879 36.989 148.635 36.737C149.405 36.471 150.028 36.114 150.504 35.666C150.994 35.218 151.344 34.693 151.554 34.091C151.778 33.475 151.89 32.817 151.89 32.117C151.89 30.689 151.4 29.569 150.42 28.757C149.454 27.931 147.921 27.518 145.821 27.518H139.752V37.115H145.842ZM139.752 14.603V24.053H144.666C146.766 24.053 148.334 23.647 149.37 22.835C150.406 22.023 150.924 20.854 150.924 19.328C150.924 17.662 150.434 16.458 149.454 15.716C148.488 14.974 146.969 14.603 144.897 14.603H139.752ZM144.897 10.76C146.829 10.76 148.481 10.949 149.853 11.327C151.225 11.691 152.352 12.216 153.234 12.902C154.116 13.588 154.76 14.428 155.166 15.422C155.586 16.402 155.796 17.508 155.796 18.74C155.796 19.454 155.684 20.147 155.46 20.819C155.25 21.477 154.914 22.1 154.452 22.688C154.004 23.262 153.437 23.78 152.751 24.242C152.065 24.704 151.253 25.089 150.315 25.397C154.599 26.307 156.741 28.582 156.741 32.222C156.741 33.51 156.496 34.693 156.006 35.771C155.53 36.835 154.83 37.759 153.906 38.543C152.996 39.313 151.869 39.915 150.525 40.349C149.181 40.783 147.648 41 145.926 41H134.838V10.76H144.897ZM162.897 9.92V41H158.382V9.92H162.897ZM183.8 19.58V41H181.07C180.468 41 180.083 40.713 179.915 40.139L179.579 38.144C179.131 38.62 178.655 39.054 178.151 39.446C177.661 39.838 177.136 40.174 176.576 40.454C176.016 40.734 175.414 40.951 174.77 41.105C174.14 41.259 173.461 41.336 172.733 41.336C171.557 41.336 170.521 41.14 169.625 40.748C168.729 40.356 167.973 39.803 167.357 39.089C166.755 38.375 166.3 37.521 165.992 36.527C165.684 35.519 165.53 34.413 165.53 33.209V19.58H170.045V33.209C170.045 34.651 170.374 35.771 171.032 36.569C171.704 37.367 172.719 37.766 174.077 37.766C175.071 37.766 175.995 37.542 176.849 37.094C177.717 36.632 178.529 36.002 179.285 35.204V19.58H183.8ZM200.602 27.875C200.602 27.119 200.49 26.419 200.266 25.775C200.056 25.117 199.741 24.55 199.321 24.074C198.901 23.584 198.376 23.206 197.746 22.94C197.13 22.66 196.416 22.52 195.604 22.52C193.966 22.52 192.678 22.989 191.74 23.927C190.802 24.865 190.207 26.181 189.955 27.875H200.602ZM189.829 30.647C189.885 31.865 190.074 32.922 190.396 33.818C190.718 34.7 191.145 35.435 191.677 36.023C192.223 36.611 192.867 37.052 193.609 37.346C194.365 37.626 195.205 37.766 196.129 37.766C197.011 37.766 197.774 37.668 198.418 37.472C199.062 37.262 199.622 37.038 200.098 36.8C200.574 36.548 200.98 36.324 201.316 36.128C201.652 35.918 201.96 35.813 202.24 35.813C202.604 35.813 202.884 35.953 203.08 36.233L204.361 37.892C203.829 38.522 203.227 39.054 202.555 39.488C201.883 39.922 201.169 40.279 200.413 40.559C199.657 40.825 198.88 41.014 198.082 41.126C197.284 41.252 196.507 41.315 195.751 41.315C194.267 41.315 192.888 41.07 191.614 40.58C190.354 40.076 189.255 39.341 188.317 38.375C187.393 37.409 186.665 36.212 186.133 34.784C185.615 33.356 185.356 31.711 185.356 29.849C185.356 28.365 185.587 26.979 186.049 25.691C186.525 24.403 187.197 23.283 188.065 22.331C188.947 21.379 190.011 20.63 191.257 20.084C192.517 19.524 193.938 19.244 195.52 19.244C196.836 19.244 198.054 19.461 199.174 19.895C200.294 20.315 201.26 20.938 202.072 21.764C202.884 22.59 203.514 23.605 203.962 24.809C204.424 25.999 204.655 27.357 204.655 28.883C204.655 29.583 204.578 30.052 204.424 30.29C204.27 30.528 203.99 30.647 203.584 30.647H189.829ZM210.65 35.624C211.28 36.436 211.966 37.01 212.708 37.346C213.464 37.668 214.297 37.829 215.207 37.829C216.971 37.829 218.343 37.185 219.323 35.897C220.317 34.609 220.814 32.691 220.814 30.143C220.814 28.827 220.702 27.707 220.478 26.783C220.254 25.845 219.932 25.082 219.512 24.494C219.092 23.906 218.581 23.479 217.979 23.213C217.377 22.947 216.698 22.814 215.942 22.814C214.794 22.814 213.8 23.066 212.96 23.57C212.134 24.06 211.364 24.767 210.65 25.691V35.624ZM210.419 22.688C211.315 21.638 212.33 20.791 213.464 20.147C214.612 19.503 215.942 19.181 217.454 19.181C218.658 19.181 219.75 19.426 220.73 19.916C221.71 20.392 222.55 21.092 223.25 22.016C223.95 22.94 224.489 24.088 224.867 25.46C225.259 26.818 225.455 28.379 225.455 30.143C225.455 31.725 225.238 33.202 224.804 34.574C224.384 35.932 223.775 37.115 222.977 38.123C222.179 39.117 221.213 39.901 220.079 40.475C218.945 41.035 217.664 41.315 216.236 41.315C214.976 41.315 213.905 41.112 213.023 40.706C212.155 40.3 211.364 39.74 210.65 39.026V48.119H206.135V19.58H208.865C209.481 19.58 209.873 19.867 210.041 20.441L210.419 22.688ZM231.375 23.549C232.047 22.191 232.859 21.127 233.811 20.357C234.763 19.573 235.904 19.181 237.234 19.181C237.696 19.181 238.13 19.237 238.536 19.349C238.942 19.447 239.306 19.601 239.628 19.811L239.313 23.213C239.257 23.451 239.166 23.619 239.04 23.717C238.928 23.801 238.774 23.843 238.578 23.843C238.368 23.843 238.067 23.808 237.675 23.738C237.283 23.654 236.87 23.612 236.436 23.612C235.806 23.612 235.246 23.703 234.756 23.885C234.28 24.067 233.846 24.333 233.454 24.683C233.076 25.033 232.74 25.46 232.446 25.964C232.152 26.468 231.879 27.042 231.627 27.686V41H227.112V19.58H229.737C230.213 19.58 230.542 19.671 230.724 19.853C230.906 20.021 231.032 20.322 231.102 20.756L231.375 23.549ZM244.59 19.58V41H240.075V19.58H244.59ZM245.346 13.112C245.346 13.518 245.262 13.903 245.094 14.267C244.94 14.631 244.723 14.953 244.443 15.233C244.163 15.499 243.834 15.716 243.456 15.884C243.092 16.038 242.7 16.115 242.28 16.115C241.874 16.115 241.489 16.038 241.125 15.884C240.775 15.716 240.467 15.499 240.201 15.233C239.935 14.953 239.718 14.631 239.55 14.267C239.396 13.903 239.319 13.518 239.319 13.112C239.319 12.692 239.396 12.3 239.55 11.936C239.718 11.572 239.935 11.257 240.201 10.991C240.467 10.711 240.775 10.494 241.125 10.34C241.489 10.172 241.874 10.088 242.28 10.088C242.7 10.088 243.092 10.172 243.456 10.34C243.834 10.494 244.163 10.711 244.443 10.991C244.723 11.257 244.94 11.572 245.094 11.936C245.262 12.3 245.346 12.692 245.346 13.112ZM251.754 22.415C252.216 21.939 252.692 21.512 253.182 21.134C253.686 20.742 254.218 20.406 254.778 20.126C255.338 19.846 255.933 19.629 256.563 19.475C257.193 19.321 257.879 19.244 258.621 19.244C259.797 19.244 260.826 19.44 261.708 19.832C262.604 20.224 263.353 20.777 263.955 21.491C264.571 22.205 265.033 23.066 265.341 24.074C265.649 25.068 265.803 26.167 265.803 27.371V41H261.309V27.371C261.309 25.929 260.973 24.809 260.301 24.011C259.643 23.213 258.635 22.814 257.277 22.814C256.269 22.814 255.331 23.045 254.463 23.507C253.609 23.969 252.804 24.599 252.048 25.397V41H247.533V19.58H250.263C250.879 19.58 251.271 19.867 251.439 20.441L251.754 22.415ZM274.926 41.336C273.148 41.336 271.776 40.839 270.81 39.845C269.858 38.837 269.382 37.423 269.382 35.603V23.129H267.03C266.778 23.129 266.561 23.052 266.379 22.898C266.197 22.73 266.106 22.485 266.106 22.163V20.336L269.571 19.832L270.558 13.637C270.628 13.399 270.747 13.21 270.915 13.07C271.083 12.916 271.307 12.839 271.587 12.839H273.897V19.874H279.84V23.129H273.897V35.288C273.897 36.058 274.086 36.646 274.464 37.052C274.842 37.458 275.346 37.661 275.976 37.661C276.326 37.661 276.627 37.619 276.879 37.535C277.131 37.437 277.348 37.339 277.53 37.241C277.712 37.129 277.866 37.031 277.992 36.947C278.132 36.849 278.265 36.8 278.391 36.8C278.643 36.8 278.846 36.94 279 37.22L280.344 39.425C279.644 40.041 278.818 40.517 277.866 40.853C276.914 41.175 275.934 41.336 274.926 41.336Z"
            fill="#344157" />
    </g>
    <defs>
        <clipPath id="clip0_2_5">
            <rect width="281" height="50" fill="white" />
        </clipPath>
        <clipPath id="clip1_2_5">
            <rect width="48" height="48" fill="white" transform="translate(0 1)" />
        </clipPath>
    </defs>
</svg>
