<svg xmlns="http://www.w3.org/2000/svg" xmlns:xlink="http://www.w3.org/1999/xlink" width="360" height="229" viewBox="0 0 360 229">
    <defs>
        <path id="a" d="M275.21 191.202l-268.347.555c-3.58.007-6.488-2.896-6.496-6.485L0 7.066C-.007 3.478 2.889.562 6.47.554L274.815 0c3.58-.007 6.488 2.896 6.496 6.484l.367 178.206c.007 3.589-2.89 6.504-6.47 6.512"/>
    </defs>
    <g fill="none" fill-rule="evenodd">
        <path fill="#74AAD7" d="M318.22 220.392l-268.346.555c-3.58.008-6.489-2.895-6.496-6.485L43.01 36.257c-.008-3.588 2.89-6.504 6.469-6.512l268.347-.555c3.58-.007 6.488 2.896 6.496 6.485l.366 178.206c.008 3.588-2.889 6.504-6.468 6.511"/>
        <g transform="translate(38.648 26.551)">
            <mask id="b" fill="#fff">
                <use xlink:href="#a"/>
            </mask>
            <use fill="#9CD2FE" xlink:href="#a"/>
            <path fill="#FFF" d="M248.665 146.856A27.552 27.552 0 0 1 255.5 146c15.188 0 27.5 12.312 27.5 27.5S270.688 201 255.5 201c-8.396 0-15.912-3.762-20.957-9.693A37.825 37.825 0 0 1 213 198c-12.82 0-24.158-6.35-31.04-16.075C175.4 193.325 163.095 201 149 201c-17.653 0-32.495-12.038-36.765-28.353C105.374 182.53 93.942 189 81 189c-7.98 0-15.386-2.46-21.5-6.663A37.824 37.824 0 0 1 38 189c-20.987 0-38-17.013-38-38s17.013-38 38-38c7.98 0 15.386 2.46 21.5 6.663a37.783 37.783 0 0 1 16.5-6.337C76.095 99.876 87.028 89 100.5 89c12.833 0 23.362 9.867 24.414 22.428A22.892 22.892 0 0 1 137 108c11.157 0 20.46 7.945 22.557 18.486 8.379 2.418 15.568 7.642 20.484 14.589C186.6 129.675 198.904 122 213 122c16.367 0 30.316 10.347 35.665 24.856z" mask="url(#b)" opacity=".4"/>
            <circle cx="61" cy="76" r="38" fill="#FFF" mask="url(#b)" opacity=".2"/>
            <circle cx="113.5" cy="89.5" r="22.5" fill="#FFF" mask="url(#b)" opacity=".2"/>
            <circle cx="45" cy="20" r="10" fill="#FFF" mask="url(#b)" opacity=".3"/>
            <circle cx="18" cy="112" r="10" fill="#FFF" mask="url(#b)" opacity=".3"/>
            <circle cx="249" cy="122" r="20" fill="#FFF" mask="url(#b)" opacity=".3"/>
            <circle cx="237" cy="104" r="8" fill="#FFF" mask="url(#b)" opacity=".3"/>
            <circle cx="205.5" cy="51.5" r="13.5" fill="#FFF" mask="url(#b)" opacity=".3"/>
            <path fill="#F0F0F5" d="M120.054 80.89l25.785-2.81 8.784 70.274-45.109 1.157z" mask="url(#b)" transform="rotate(30 132.069 113.795)"/>
            <path fill="#FFF" d="M248.665 179.856A27.552 27.552 0 0 1 255.5 179c15.188 0 27.5 12.312 27.5 27.5S270.688 234 255.5 234c-8.396 0-15.912-3.762-20.957-9.693A37.825 37.825 0 0 1 213 231c-12.82 0-24.158-6.35-31.04-16.075C175.4 226.325 163.095 234 149 234c-17.653 0-32.495-12.038-36.765-28.353C105.374 215.53 93.942 222 81 222c-7.98 0-15.386-2.46-21.5-6.663A37.824 37.824 0 0 1 38 222c-20.987 0-38-17.013-38-38s17.013-38 38-38c7.98 0 15.386 2.46 21.5 6.663a37.783 37.783 0 0 1 16.5-6.337C76.095 132.876 87.028 122 100.5 122c12.833 0 23.362 9.867 24.414 22.428A22.892 22.892 0 0 1 137 141c11.157 0 20.46 7.945 22.557 18.486 8.379 2.418 15.568 7.642 20.484 14.589C186.6 162.675 198.904 155 213 155c16.367 0 30.316 10.347 35.665 24.856z" mask="url(#b)"/>
            <path fill="#FFF" d="M122.862 74.59l18.725-1.046 7.646 80.037-32.858-1.618z" mask="url(#b)" transform="rotate(30 132.804 113.562)"/>
            <path fill="#F0F0F5" d="M159.557 182.486c8.379 2.418 15.568 7.642 20.484 14.589C186.6 185.675 198.904 178 213 178c20.987 0 38 17.013 38 38s-17.013 38-38 38c-12.82 0-24.158-6.35-31.04-16.075C175.4 249.325 163.095 257 149 257c-17.653 0-32.495-12.038-36.765-28.353C105.374 238.53 93.942 245 81 245c-7.98 0-15.386-2.46-21.5-6.663A37.824 37.824 0 0 1 38 245c-20.987 0-38-17.013-38-38s17.013-38 38-38c7.98 0 15.386 2.46 21.5 6.663a37.783 37.783 0 0 1 16.5-6.337C76.095 155.876 87.028 145 100.5 145c12.833 0 23.362 9.867 24.414 22.428A22.892 22.892 0 0 1 137 164c11.157 0 20.46 7.945 22.557 18.486z" mask="url(#b)"/>
        </g>
        <path fill="#FFF" d="M313.477 26.717h-.014l-268.345.555c-3.58.007-6.477 2.923-6.47 6.512l.367 178.205c.008 3.585 2.908 6.485 6.482 6.485h.014l268.346-.555c3.58-.007 6.477-2.922 6.47-6.511l-.367-178.206c-.008-3.585-2.908-6.485-6.483-6.485m.001 1.788c2.585 0 4.693 2.109 4.698 4.7l.367 178.206a4.683 4.683 0 0 1-1.369 3.333 4.667 4.667 0 0 1-3.32 1.387l-268.357.555c-2.585 0-4.693-2.108-4.699-4.7L40.432 33.78a4.688 4.688 0 0 1 1.369-3.333 4.665 4.665 0 0 1 3.32-1.387l268.342-.555h.015"/>
        <path fill="#74AAD7" d="M.916 218.08h358.168c.506 0 .916.41.916.916v4.726c0 .38-.235.72-.59.855-1.477.564-5.127 1.36-10.952 2.39-6.881 1.215-14.3 1.837-22.254 1.865H34.094c-13.492-.332-22.028-.954-25.606-1.866-3.257-.83-5.893-1.642-7.908-2.437a.916.916 0 0 1-.58-.852v-4.68c0-.506.41-.916.916-.916z"/>
        <path fill="#FBC72F" d="M193.942 102.091c6.431 3.713 8.664 12.046 4.951 18.478-3.713 6.431-16.887 17.048-23.318 13.335-6.431-3.713-3.824-20.43-.11-26.862 3.713-6.431 11.955-8.64 18.477-4.951z"/>
        <path fill="#E2B225" d="M178.16 103.698l.146.544c2.524 9.42 12.286 15.056 21.706 12.532l.362-.097c1.226-5.57-1.24-11.512-6.523-14.562-5.077-3.008-11.455-2.173-15.69 1.583z"/>
        <path fill="#9E63CD" d="M212.951 66.514c19.64 11.339 28.616 32.524 17.874 51.13l-5.105 8.842c-10.742 18.606-10.038-19.347-29.677-30.686-19.64-11.338-52.222 8.362-41.414-10.358l5.106-8.843c10.742-18.605 33.577-21.423 53.216-10.085z"/>
        <path fill="#FFF" d="M250.481 1.51c5.972 3.448 11.898 33.897-9.23 70.624-13.816 23.798-23.91 33.59-23.91 33.59-10.309 11.887-17.93 7.716-28.037 1.881s-17.62-10.326-12.39-25.222c0 0 3.5-13.752 17.201-37.616C215.267 8.13 244.485-2.028 250.481 1.51z"/>
        <path fill="#F0F0F5" d="M221.23 100.313c-10.779 12.305-18.721 8.026-29.172 1.992-10.566-6.1-18.31-10.724-12.862-26.261l.777-2.538c-2.247 5.747-3.058 8.877-3.058 8.877-5.232 14.896 2.282 19.387 12.389 25.222 10.106 5.836 17.704 9.916 28.037-1.882 0 0 4.766-4.675 12.298-15.333-5.253 6.844-8.408 9.923-8.408 9.923z"/>
        <path fill="#FFF" d="M216.464 59.875c-5.478-3.163-7.384-10.16-4.246-15.594 3.137-5.434 10.15-7.283 15.628-4.12 5.478 3.163 7.386 10.156 4.246 15.595-3.142 5.43-10.155 7.28-15.628 4.12z"/>
        <path fill="#1388BD" d="M213.414 44.978c-1.979 3.426-1.682 7.553.421 10.64l2.373-13.74a10.095 10.095 0 0 0-2.794 3.1zM228.3 52.99c.618-1.072.656-2.035.66-2.81-.027-.968-.094-1.815.315-2.525.462-.8 1.502-1.189 2.36-.694.038.022.073.049.106.068a10.11 10.11 0 0 0-4.586-5.681 10.1 10.1 0 0 0-9.558-.31c.206.125.39.244.556.34.914.527 2.389 1.235 2.389 1.235.482.247.146.961-.356.747 0 0-.506-.217-1.049-.493l-2.237 11.23 5.196-4.59.77-4.487c-.455-.294-.865-.612-.865-.612-.456-.295.012-.984.465-.685 0 0 1.378.94 2.236 1.435.914.529 2.389 1.236 2.389 1.236.487.25.146.961-.356.747 0 0-.506-.217-1.049-.493l-2.225 11.144 2.538-2.383c1.094-.986 1.875-1.682 2.3-2.42z"/>
        <path fill="#1388BD" d="M221.87 50.863l-6.982 6.04a10.232 10.232 0 0 0 5.453 2.966c-.003-.05-.005-.102.004-.16l1.525-8.846zM232.224 50.285c-.122.3-.274.606-.456.921-.505.875-1.241 1.778-2.457 2.724l-7.09 6.117c3.464 0 6.824-1.783 8.67-4.979a9.982 9.982 0 0 0 1.333-4.783z"/>
        <path fill="#1388BD" fill-rule="nonzero" d="M227.987 39.917c-5.62-3.245-12.805-1.351-16.023 4.224-3.216 5.57-1.267 12.743 4.353 15.988 5.616 3.242 12.805 1.351 16.024-4.224 3.214-5.577 1.262-12.746-4.354-15.988zm-11.398 19.742c-5.36-3.094-7.223-9.936-4.153-15.252 3.069-5.317 9.928-7.129 15.288-4.034 5.36 3.094 7.222 9.936 4.153 15.252-3.077 5.318-9.933 7.126-15.288 4.034z"/>
        <path fill="#9E63CD" d="M209.615 75.077c2.871 1.658.684 10.884-7.406 24.896s-13.991 18.796-16.887 17.048c-2.871-1.657-1.769-9.137 6.32-23.148 8.18-14.036 14.987-20.52 17.973-18.796zM223.371 11.201c2.442 5.85 7.425 11.408 14.201 15.32 5.948 3.358 12.208 4.981 17.892 4.817 1.998-16.457-1.513-27.748-4.983-29.828-3.355-2.013-14.345.446-27.11 9.691z"/>
    </g>
</svg>
