<svg height="229" viewBox="0 0 360 229" width="360" xmlns="http://www.w3.org/2000/svg" xmlns:xlink="http://www.w3.org/1999/xlink"><defs><path id="a" d="m275.21 191.202-268.347.555c-3.58.007-6.488-2.896-6.496-6.485l-.367-178.206c-.007-3.588 2.889-6.504 6.47-6.512l268.345-.554c3.58-.007 6.488 2.896 6.496 6.484l.367 178.206c.007 3.589-2.89 6.504-6.47 6.512"/><mask id="b" fill="#fff"><use fill="#fff" fill-rule="evenodd" xlink:href="#a"/></mask></defs><g fill="none" fill-rule="evenodd"><path d="m318.22 220.392-268.346.555c-3.58.008-6.489-2.895-6.496-6.485l-.368-178.205c-.008-3.588 2.89-6.504 6.469-6.512l268.347-.555c3.58-.007 6.488 2.896 6.496 6.485l.366 178.206c.008 3.588-2.889 6.504-6.468 6.511" fill="#74aad7"/><g transform="translate(38.648 26.551)"><use fill="#9cd2fe" xlink:href="#a"/><g fill="#fff"><path d="m248.665 146.856a27.552 27.552 0 0 1 6.835-.856c15.188 0 27.5 12.312 27.5 27.5s-12.312 27.5-27.5 27.5c-8.396 0-15.912-3.762-20.957-9.693a37.825 37.825 0 0 1 -21.543 6.693c-12.82 0-24.158-6.35-31.04-16.075-6.56 11.4-18.865 19.075-32.96 19.075-17.653 0-32.495-12.038-36.765-28.353-6.861 9.883-18.293 16.353-31.235 16.353-7.98 0-15.386-2.46-21.5-6.663a37.824 37.824 0 0 1 -21.5 6.663c-20.987 0-38-17.013-38-38s17.013-38 38-38c7.98 0 15.386 2.46 21.5 6.663a37.783 37.783 0 0 1 16.5-6.337c.095-13.45 11.028-24.326 24.5-24.326 12.833 0 23.362 9.867 24.414 22.428a22.892 22.892 0 0 1 12.086-3.428c11.157 0 20.46 7.945 22.557 18.486 8.379 2.418 15.568 7.642 20.484 14.589 6.559-11.4 18.863-19.075 32.959-19.075 16.367 0 30.316 10.347 35.665 24.856z" mask="url(#b)" opacity=".4"/><circle cx="61" cy="76" mask="url(#b)" opacity=".2" r="38"/><circle cx="113.5" cy="89.5" mask="url(#b)" opacity=".2" r="22.5"/><circle cx="45" cy="20" mask="url(#b)" opacity=".3" r="10"/><circle cx="18" cy="112" mask="url(#b)" opacity=".3" r="10"/><circle cx="249" cy="122" mask="url(#b)" opacity=".3" r="20"/><circle cx="237" cy="104" mask="url(#b)" opacity=".3" r="8"/><circle cx="205.5" cy="51.5" mask="url(#b)" opacity=".3" r="13.5"/></g><path d="m120.054 80.89 25.785-2.81 8.784 70.274-45.109 1.157z" fill="#f0f0f5" mask="url(#b)" transform="matrix(.8660254 .5 -.5 .8660254 74.591391 -50.788861)"/><path d="m248.665 179.856a27.552 27.552 0 0 1 6.835-.856c15.188 0 27.5 12.312 27.5 27.5s-12.312 27.5-27.5 27.5c-8.396 0-15.912-3.762-20.957-9.693a37.825 37.825 0 0 1 -21.543 6.693c-12.82 0-24.158-6.35-31.04-16.075-6.56 11.4-18.865 19.075-32.96 19.075-17.653 0-32.495-12.038-36.765-28.353-6.861 9.883-18.293 16.353-31.235 16.353-7.98 0-15.386-2.46-21.5-6.663a37.824 37.824 0 0 1 -21.5 6.663c-20.987 0-38-17.013-38-38s17.013-38 38-38c7.98 0 15.386 2.46 21.5 6.663a37.783 37.783 0 0 1 16.5-6.337c.095-13.45 11.028-24.326 24.5-24.326 12.833 0 23.362 9.867 24.414 22.428a22.892 22.892 0 0 1 12.086-3.428c11.157 0 20.46 7.945 22.557 18.486 8.379 2.418 15.568 7.642 20.484 14.589 6.559-11.4 18.863-19.075 32.959-19.075 16.367 0 30.316 10.347 35.665 24.856z" fill="#fff" mask="url(#b)"/><path d="m122.862 74.59 18.725-1.046 7.646 80.037-32.858-1.618z" fill="#fff" mask="url(#b)" transform="matrix(.8660254 .5 -.5 .8660254 74.573362 -51.187577)"/><path d="m159.557 182.486c8.379 2.418 15.568 7.642 20.484 14.589 6.559-11.4 18.863-19.075 32.959-19.075 20.987 0 38 17.013 38 38s-17.013 38-38 38c-12.82 0-24.158-6.35-31.04-16.075-6.56 11.4-18.865 19.075-32.96 19.075-17.653 0-32.495-12.038-36.765-28.353-6.861 9.883-18.293 16.353-31.235 16.353-7.98 0-15.386-2.46-21.5-6.663a37.824 37.824 0 0 1 -21.5 6.663c-20.987 0-38-17.013-38-38s17.013-38 38-38c7.98 0 15.386 2.46 21.5 6.663a37.783 37.783 0 0 1 16.5-6.337c.095-13.45 11.028-24.326 24.5-24.326 12.833 0 23.362 9.867 24.414 22.428a22.892 22.892 0 0 1 12.086-3.428c11.157 0 20.46 7.945 22.557 18.486z" fill="#f0f0f5" mask="url(#b)"/></g><path d="m313.477 26.717h-.014l-268.345.555c-3.58.007-6.477 2.923-6.47 6.512l.367 178.205c.008 3.585 2.908 6.485 6.482 6.485h.014l268.346-.555c3.58-.007 6.477-2.922 6.47-6.511l-.367-178.206c-.008-3.585-2.908-6.485-6.483-6.485m.001 1.788c2.585 0 4.693 2.109 4.698 4.7l.367 178.206a4.683 4.683 0 0 1 -1.369 3.333 4.667 4.667 0 0 1 -3.32 1.387l-268.357.555c-2.585 0-4.693-2.108-4.699-4.7l-.366-178.206a4.688 4.688 0 0 1 1.369-3.333 4.665 4.665 0 0 1 3.32-1.387l268.342-.555h.015" fill="#fff"/><path d="m.916 218.08h358.168c.506 0 .916.41.916.916v4.726c0 .38-.235.72-.59.855-1.477.564-5.127 1.36-10.952 2.39-6.881 1.215-14.3 1.837-22.254 1.865h-292.11c-13.492-.332-22.028-.954-25.606-1.866-3.257-.83-5.893-1.642-7.908-2.437a.916.916 0 0 1 -.58-.852v-4.68c0-.506.41-.916.916-.916z" fill="#74aad7"/><path d="m193.942 102.091c6.431 3.713 8.664 12.046 4.951 18.478-3.713 6.431-16.887 17.048-23.318 13.335s-3.824-20.43-.11-26.862c3.713-6.431 11.955-8.64 18.477-4.951z" fill="#fbc72f"/><path d="m178.16 103.698.146.544c2.524 9.42 12.286 15.056 21.706 12.532l.362-.097c1.226-5.57-1.24-11.512-6.523-14.562-5.077-3.008-11.455-2.173-15.69 1.583z" fill="#e2b225"/><path d="m212.951 66.514c19.64 11.339 28.616 32.524 17.874 51.13l-5.105 8.842c-10.742 18.606-10.038-19.347-29.677-30.686-19.64-11.338-52.222 8.362-41.414-10.358l5.106-8.843c10.742-18.605 33.577-21.423 53.216-10.085z" fill="#9e63cd"/><path d="m250.481 1.51c5.972 3.448 11.898 33.897-9.23 70.624-13.816 23.798-23.91 33.59-23.91 33.59-10.309 11.887-17.93 7.716-28.037 1.881s-17.62-10.326-12.39-25.222c0 0 3.5-13.752 17.201-37.616 21.152-36.637 50.37-46.795 56.366-43.257z" fill="#fff"/><path d="m221.23 100.313c-10.779 12.305-18.721 8.026-29.172 1.992-10.566-6.1-18.31-10.724-12.862-26.261l.777-2.538c-2.247 5.747-3.058 8.877-3.058 8.877-5.232 14.896 2.282 19.387 12.389 25.222 10.106 5.836 17.704 9.916 28.037-1.882 0 0 4.766-4.675 12.298-15.333-5.253 6.844-8.408 9.923-8.408 9.923z" fill="#f0f0f5"/><path d="m216.464 59.875c-5.478-3.163-7.384-10.16-4.246-15.594 3.137-5.434 10.15-7.283 15.628-4.12s7.386 10.156 4.246 15.595c-3.142 5.43-10.155 7.28-15.628 4.12z" fill="#fff"/><g fill="#1388bd"><path d="m213.414 44.978c-1.979 3.426-1.682 7.553.421 10.64l2.373-13.74a10.095 10.095 0 0 0 -2.794 3.1zm14.886 8.012c.618-1.072.656-2.035.66-2.81-.027-.968-.094-1.815.315-2.525.462-.8 1.502-1.189 2.36-.694.038.022.073.049.106.068a10.11 10.11 0 0 0 -4.586-5.681 10.1 10.1 0 0 0 -9.558-.31c.206.125.39.244.556.34.914.527 2.389 1.235 2.389 1.235.482.247.146.961-.356.747 0 0-.506-.217-1.049-.493l-2.237 11.23 5.196-4.59.77-4.487c-.455-.294-.865-.612-.865-.612-.456-.295.012-.984.465-.685 0 0 1.378.94 2.236 1.435.914.529 2.389 1.236 2.389 1.236.487.25.146.961-.356.747 0 0-.506-.217-1.049-.493l-2.225 11.144 2.538-2.383c1.094-.986 1.875-1.682 2.3-2.42z"/><path d="m221.87 50.863-6.982 6.04a10.232 10.232 0 0 0 5.453 2.966c-.003-.05-.005-.102.004-.16zm10.354-.578c-.122.3-.274.606-.456.921-.505.875-1.241 1.778-2.457 2.724l-7.09 6.117c3.464 0 6.824-1.783 8.67-4.979a9.982 9.982 0 0 0 1.333-4.783z"/><path d="m227.987 39.917c-5.62-3.245-12.805-1.351-16.023 4.224-3.216 5.57-1.267 12.743 4.353 15.988 5.616 3.242 12.805 1.351 16.024-4.224 3.214-5.577 1.262-12.746-4.354-15.988zm-11.398 19.742c-5.36-3.094-7.223-9.936-4.153-15.252 3.069-5.317 9.928-7.129 15.288-4.034 5.36 3.094 7.222 9.936 4.153 15.252-3.077 5.318-9.933 7.126-15.288 4.034z" fill-rule="nonzero"/></g><path d="m209.615 75.077c2.871 1.658.684 10.884-7.406 24.896s-13.991 18.796-16.887 17.048c-2.871-1.657-1.769-9.137 6.32-23.148 8.18-14.036 14.987-20.52 17.973-18.796zm13.756-63.876c2.442 5.85 7.425 11.408 14.201 15.32 5.948 3.358 12.208 4.981 17.892 4.817 1.998-16.457-1.513-27.748-4.983-29.828-3.355-2.013-14.345.446-27.11 9.691z" fill="#9e63cd"/></g></svg>