<svg height="208" viewBox="0 0 310 208" width="310" xmlns="http://www.w3.org/2000/svg" xmlns:xlink="http://www.w3.org/1999/xlink"><mask id="a" fill="#fff"><path d="m0 .11h304.033v165.357h-304.033z" fill="#fff" fill-rule="evenodd"/></mask><g fill="none" fill-rule="evenodd" transform="translate(0 -.913)"><path d="m11.182 208.65c-3.884.008-7.04-2.496-7.047-5.591l-.398-153.67c-.008-3.094 3.134-5.61 7.017-5.615l291.085-.479c3.882-.006 7.397 2.497 7.405 5.592l.038 153.67c.01 3.094-3.133 5.609-7.016 5.615l-291.084.479z" fill="#74aad7"/><path d="m7.407 165.467c-3.864.006-7.003-3.846-7.01-6.941l-.397-152.322c-.008-3.094 3.118-5.608 6.983-5.615l289.643-.479c3.864-.007 7.003 2.497 7.012 5.591l.395 153.67c.008 3.095-3.117 5.609-6.982 5.616l-289.644.479z" fill="#9cd2fe" mask="url(#a)" transform="translate(0 41.02)"/><path d="m298.02 41-291.004.48c-3.882.006-7.024 2.525-7.016 5.625l.308 152.06c.009 3.096 3.243 7 7.12 7h291.02c3.882-.007 7.023-4.386 7.015-7.487l-.397-152.076c-.009-3.097-3.154-5.602-7.03-5.602zm-1.527 4.538c2.773 0 5.035 1.755 5.04 3.911l.394 148.268c.003 1.046-.519 2.031-1.469 2.773-.951.741-2.216 1.151-3.562 1.154l-287.924.461c-2.774 0-5.036-1.753-5.042-3.91l-.393-148.269c-.003-1.047.52-2.032 1.468-2.773.952-.742 2.216-1.152 3.563-1.154l287.908-.462h.017" fill="#fff"/><path d="m8.603 206.464c-8.303-.022-8.303-4.652-8.294-10.124v-8.34h305.14v10.464c-.006 4-1.35 7.698-5.557 7.687l-291.29.313z" fill="#fff"/><g fill="#f0f0f5"><ellipse cx="152.671" cy="197.673" rx="5.671" ry="5.673"/><ellipse cx="250.671" cy="197.673" rx="5.671" ry="5.673"/><ellipse cx="53.671" cy="197.673" rx="5.671" ry="5.673"/></g><path d="m7.622 41c-4.218.007-7.63 3.22-7.622 6.59l.014 4.801h305.151l-.013-5.304c-.01-4.013-3.436-6.094-7.654-6.087zm279.548 97.483-126.155.158a2.987 2.987 0 0 1 -2.99-2.977 2.974 2.974 0 0 1 2.97-2.984l126.154-.156a2.987 2.987 0 0 1 2.99 2.976 2.973 2.973 0 0 1 -2.969 2.983zm0 12.102-126.155.158a2.987 2.987 0 0 1 -2.99-2.977 2.974 2.974 0 0 1 2.97-2.984l126.154-.156a2.987 2.987 0 0 1 2.99 2.976 2.973 2.973 0 0 1 -2.969 2.983zm0 12.102-126.155.157a2.987 2.987 0 0 1 -2.99-2.976 2.974 2.974 0 0 1 2.97-2.984l126.154-.156a2.987 2.987 0 0 1 2.99 2.976 2.973 2.973 0 0 1 -2.969 2.983zm-208.844 13.609-60.417.167c-1.923.006-3.486-2.078-3.49-4.654l-.053-34.752c-.004-2.576 1.551-4.669 3.475-4.674l60.417-.167c1.924-.005 3.486 2.079 3.49 4.655l.054 34.751c.004 2.576-1.552 4.669-3.476 4.674m72.585 0-60.417.167c-1.923.006-3.486-2.078-3.49-4.654l-.053-34.752c-.004-2.576 1.552-4.669 3.476-4.674l60.417-.167c1.923-.005 3.486 2.079 3.49 4.655l.053 34.751c.004 2.576-1.552 4.669-3.476 4.674m-54.834-116.386-75.752.125c-3.298.006-5.966 2.172-5.96 4.84l.144 56.019c.007 2.663 2.68 4.819 5.971 4.819h.013l263.89-.126c3.297-.006 5.965-2.173 5.958-4.84l-.143-56.019c-.007-2.664-2.679-4.819-5.97-4.819h-188.152z" fill="#fff"/><path d="m94.583 83.368a2.966 2.966 0 0 1 2.857-3.084l163.198-5.827a2.994 2.994 0 0 1 3.098 2.872 2.966 2.966 0 0 1 -2.857 3.083l-163.199 5.828a2.994 2.994 0 0 1 -3.098-2.871zm-.054 9.147a2.965 2.965 0 0 1 2.963-2.982l163.302-.125a2.994 2.994 0 0 1 2.996 2.977 2.966 2.966 0 0 1 -2.963 2.983l-163.302.124a2.994 2.994 0 0 1 -2.996-2.977zm-.007 12.103a2.973 2.973 0 0 1 2.97-2.984l98.284-.122a2.986 2.986 0 0 1 2.99 2.976 2.974 2.974 0 0 1 -2.97 2.984l-98.284.122a2.986 2.986 0 0 1 -2.99-2.976z" fill="#f0f0f5"/><g opacity=".3"><path d="m40.11 102.194c5.013 0 9.078-4.032 9.078-9.005s-4.065-9.005-9.078-9.005c-5.014 0-9.078 4.032-9.078 9.005s4.064 9.005 9.078 9.005z" stroke="#1487bc" stroke-dasharray="1.267575 .316892" stroke-width=".5"/><g fill="#1487bc" fill-rule="nonzero"><path d="m40.103 85.318c-.006 0-.006 0 0 0h-.006-.006-.007-.006-.006-.007-.006-.007-.006-.006-.007-.006-.006-.007-.006-.008-.006-.006-.007-.006-.007-.006-.006-.007-.006-.006-.007-.006-.007-.006-.006-.007-.006-.007-.006-.006-.007-.006-.006-.007-.006-.007-.006-.006-.007-.006-.007-.006-.006-.007-.006-.006-.007-.006-.007-.006-.006-.007-.006-.007-.006-.006-.007-.006-.006-.007-.006-.007-.006-.006-.007-.006-.007-.006-.006-.007-.006-.006-.007-.006-.007-.006-.006-.007-.006-.007-.006-.006-.007-.006-.006-.007-.006-.007-.006-.025a4.635 4.635 0 0 0 -.427.057l.032.19a8.095 8.095 0 0 1 1.238-.095v-.152h-.21zm-1.583.158a4.715 4.715 0 0 0 -.319.07h-.006-.007-.006-.006-.007-.006-.007-.006-.006-.007-.006-.007-.006-.006-.007-.006-.006-.007-.006-.007-.006-.006-.007-.006-.007-.006-.006-.007-.006-.006c-.007 0-.007 0-.013.006h-.007-.006-.006c-.013.007-.02.007-.032.013-.16.05-.313.101-.466.158l.07.178c.39-.146.792-.26 1.194-.342zm-1.525.469c-.288.12-.569.26-.843.418 0 0-.007 0-.007.006 0 0-.006 0-.006.006 0 0-.006 0-.006.007-.007 0-.007.006-.013.006 0 0-.006 0-.006.006 0 0-.007 0-.007.007h-.006c-.007 0-.007.006-.013.006s-.006.006-.013.006c0 0-.006 0-.006.007 0 0-.007 0-.007.006 0 0-.006 0-.006.006 0 0-.006 0-.006.007a.049.049 0 0 1 -.026.012h-.006c-.007 0-.007.007-.013.007 0 0-.006 0-.006.006 0 0-.007 0-.007.006-.044.026-.09.051-.127.083l.102.158a7.935 7.935 0 0 1 1.104-.576zm-1.392.766c-.032.025-.064.044-.102.07 0 0-.007 0-.007.006h-.006-.006s-.007 0-.007.006c0 0-.006 0-.006.007 0 0-.007 0-.007.006-.006.006-.012.006-.019.013a8.469 8.469 0 0 0 -.523.424l-.013.013-.006.006s-.007 0-.007.006c0 0-.006 0-.006.007 0 0-.007 0-.007.006 0 0-.006 0-.006.006 0 0-.006 0-.006.007 0 0-.007 0-.007.006 0 0-.006 0-.006.006h-.006s-.007 0-.007.007l-.006.006.134.14c.3-.286.625-.545.964-.78zm-1.213 1.02c-.115.12-.224.24-.332.36l-.006.007s0 .006-.007.006l-.006.007s0 .006-.007.006c0 0 0 .006-.006.006 0 0 0 .007-.006.007v.019s0 .006-.007.006c0 0 0 .006-.006.006 0 0 0 .007-.007.007 0 0 0 .006-.006.006 0 0 0 .006-.006.006 0 0 0 .007-.007.007 0 0 0 .006-.006.006 0 0 0 .006-.006.006 0 0 0 .007-.007.007 0 0 0 .006-.006.006 0 0 0 .006-.007.006 0 0 0 .007-.006.007 0 0 0 .006-.006.006 0 0 0 .006-.007.006 0 0 0 .007-.006.007 0 0 0 .006-.007.006-.012.013-.019.025-.031.038 0 .006-.007.006-.007.013 0 0 0 .006-.006.006 0 0 0 .006-.007.006 0 0 0 .007-.006.007 0 0 0 .006-.006.006 0 0 0 .006-.007.006 0 0 0 .007-.006.007 0 0 0 .006-.007.006 0 0 0 .006-.006.006 0 0 0 .007-.006.007 0 0 0 .006-.007.006 0 0 0 .006-.006.006 0 0 0 .007-.006.007v.006s0 .006-.007.006v.063s0 .007-.006.007v.006l.032.02-.007.138h.032c.109.007.205.007.3.007h.083c.25 0 .524-.013.792-.026l-.007-.19c-.35.02-.65.026-.887.026h-.153c.21-.291.447-.564.696-.823l-.281.114zm1.73.854h-.032c-.006 0-.402.032-.894.057l.013.19c.109-.006.217-.012.313-.019.287-.019.498-.031.555-.038h.032a.302.302 0 0 1 .236.165l.173-.082c-.02-.165-.192-.273-.396-.273zm.294.672a.309.309 0 0 1 -.224.164s-.428.051-.906.076l.063.19c.46-.025.85-.07.869-.076a.522.522 0 0 0 .408-.278zm-.875.525-.179.064.409 1.203.179-.064zm.51 1.501-.178.063.14.425v.006l.007.013v.006l.013.032.006.019v.019l.013.031.025.076v.07c0 .006.007.013.007.019v.006c0 .007 0 .007.006.013 0 .006 0 .006.006.013 0 .006.007.019.007.025.006.019.013.032.019.05.006.02.013.032.02.051.005.02.012.032.012.045a.117.117 0 0 1 .013.044l.063.19.18-.063-.358-1.153zm.505 1.5-.179.064.409 1.203.179-.063-.409-1.203zm.51 1.495-.178.064.409 1.203.178-.064-.408-1.203zm.511 1.501-.178.063.23.678.006.013.013.031v.013l.006.019v.006l.006.013v.013c0 .006 0 .006.007.012v.02c0 .007 0 .007.006.013v.017c0 .006 0 .006.007.013v.006c0 .006 0 .006.006.013 0 .006 0 .006.006.012 0 .007 0 .007.007.013 0 .006 0 .006.006.013 0 .006.007.012.007.012 0 .007.006.013.006.02.006.012.006.025.013.037a.293.293 0 0 0 .019.057l.019.05.179-.062-.37-1.096zm.511 1.5-.179.064s.07.203.128.386l.102.298.102-.298c.039-.114.07-.215.07-.215l-.165-.057-.058-.177zm.543-1.329-.402 1.203.178.057.045-.127v-.006-.006c.109-.317.358-1.058.358-1.058l-.18-.063zm.504-1.5-.402 1.202.179.057.025-.076v-.006-.006-.007c.096-.29.37-1.101.37-1.101l-.172-.064zm.504-1.502-.402 1.204.179.057v-.007l.006-.019c.07-.202.39-1.165.39-1.165zm-.268-1.43-.178.063.44 1.19.179-.063-.275-.747v-.019a14.986 14.986 0 0 1 -.166-.425zm-.542-1.489-.179.064.44 1.19.18-.063-.441-1.19zm-1.207-.665-.115.152a.519.519 0 0 0 .281.102c.051.006.358.044.715.07l.045.113.179-.063-.07-.19-.013-.038c-.428-.025-.83-.076-.83-.076a1.771 1.771 0 0 1 -.192-.07zm.204-.779a.51.51 0 0 0 -.51.482l.191.012a.522.522 0 0 1 .039-.133v-.006-.006h.006s.006 0 .006-.007h.045s.332.026.76.051l.012-.19c-.42-.025-.753-.05-.76-.05.23-.153.218-.153.211-.153zm1.111.07-.013.19c.275.013.569.025.824.032h.294l-.007-.19h-.268c-.083 0-.421-.013-.83-.032zm2.847-.05c-.261.018-.778.05-1.27.07l.006.19c.473-.02.958-.045 1.252-.07h.025zm.358-.013-.026.19a.3.3 0 0 1 .256.196v.006c.013.032.013.07.013.102 0 .145-.09.291-.275.323h-.006c-.013 0-.096.012-.23.025-.026 0-.058.006-.083.006l.019.19.326-.031a.511.511 0 0 0 .466-.513.529.529 0 0 0 -.46-.494zm-.683.893-.268.019.064.19c.095.278.255.76.255.76l.179-.064-.243-.709h.026zm.338 1.203-.179.063.41 1.203.178-.063zm.505 1.5-.18.064.41 1.203.178-.063-.408-1.203zm.51 1.501-.178.064.408 1.203.179-.064zm.511 1.501-.179.063s.102.292.198.59l.204.607.18-.063zm1.002 1.216-.28.93-.218-.645-.178.063.408 1.203h.007l.446-1.488zm.466-1.52c-.025.089-.057.177-.09.272l-.037.127-.243.81.185.058.217-.716v-.006-.007-.012-.007l.013-.031c.02-.07.045-.133.064-.203s.045-.133.064-.196zm.422-1.5c-.07.38-.198.804-.32 1.203l.186.057c.083-.273.16-.52.217-.748v-.006c0-.013.006-.019.006-.032 0-.006 0-.006.006-.012v-.007c0-.012.007-.019.007-.031v-.007c.019-.082.038-.164.05-.24l-.152-.178zm.127-1.54-.185.051c.077.292.115.583.115.893 0 .095-.006.19-.02.291l.192.02c.007-.032.007-.064.007-.096v-.005-.006-.007-.006-.006-.007-.006-.006-.007-.006-.006-.007-.006-.006-.007-.006-.006-.007-.006-.006-.007a3.347 3.347 0 0 0 -.07-.462v-.006-.006-.007-.006-.006-.007-.006-.006c-.032-.488-.032-.5-.039-.513zm-.657-1.43-.166.1.032.051.095.152c.14.247.307.545.428.893l.179-.063a5.95 5.95 0 0 0 -.223-.526s0-.006-.007-.006v-.006s0-.007-.006-.007v-.006-.006-.007a10.05 10.05 0 0 0 -.147-.266v-.006c-.006-.013-.02-.025-.026-.044v-.007c-.019-.038-.044-.07-.063-.1-.007-.007-.007-.013-.013-.02a1.127 1.127 0 0 1 -.083-.126zm-.645-1.438-.192.025c.058.45.275.862.498 1.242l.166-.095c-.23-.4-.42-.767-.472-1.172zm.498-1.539a1.612 1.612 0 0 0 -.696 1.21l.192.012c.032-.43.261-.83.612-1.063zm.364-.519-.115.152c.07.05.14.108.21.165l-.133.038.063.177c.083-.032.166-.05.256-.063.057-.007.121-.013.178-.013.039 0 .07.006.103.006a6.55 6.55 0 0 0 -.32-.272l-.012-.013-.007-.006c-.14-.108-.185-.14-.223-.17zm-1.36-.823-.083.17c.37.178.734.387 1.073.621l.108-.158c-.032-.025-.064-.044-.102-.07l-.006-.006s-.007 0-.007-.006c0 0-.006 0-.006-.007h-.007-.006-.006-.007s-.006 0-.006-.006c0 0-.007 0-.007-.006 0 0-.006 0-.006-.007 0 0-.006 0-.006-.006l-.007-.006-.006-.007c-.006 0-.006-.006-.006-.006-.007 0-.007-.006-.007-.006-.006 0-.006-.007-.013-.007-.006 0-.006-.006-.012-.006-.007 0-.007-.006-.013-.006s-.006-.007-.006-.007-.007 0-.007-.006c0 0-.006 0-.006-.006 0 0-.007 0-.007-.007 0 0-.006 0-.006-.006h-.006-.007-.006s-.007 0-.007-.006c0 0-.006 0-.006-.007-.006 0-.013-.006-.013-.006-.562-.316-.67-.373-.785-.424zm-1.5-.538-.045.183c.402.102.798.235 1.181.4l.077-.178a6.968 6.968 0 0 0 -.639-.24c-.006 0-.006 0-.012-.007h-.007-.006-.007-.006c-.006 0-.006 0-.013-.006-.006 0-.012-.007-.019-.007-.128-.038-.255-.076-.39-.107h-.012c-.096-.038-.096-.038-.102-.038zm-1.577-.228-.006.19c.415.019.83.07 1.232.152l.038-.184a7.965 7.965 0 0 0 -.779-.12h-.006-.007-.006-.006-.007-.006a3.429 3.429 0 0 0 -.447-.038zm-.35-.013v.19h.06v-.19h-.06c.01 0 .01 0 0 0z"/><path d="m32.366 91.486c-.045.209-.083.424-.115.64v.169c0 .026 0 .045-.006.07l.191.013c.026-.412.083-.824.173-1.223l-.243.33zm-.185 1.57v.172c0 .024.006.056.006.081v.013c.013.165.032.33.058.488l.191-.026a7.923 7.923 0 0 1 -.076-1.101v-.133zm.32 1.539-.186.032v.025c.051.26.115.513.185.76 0 .006.007.012.007.019.006.012.006.019.012.031 0 .007 0 .013.007.013 0 .006.006.013.006.02 0 .005 0 .005.007.012 0 .006 0 .006.006.012 0 .007 0 .007.006.013v.013c0 .006 0 .006.007.012 0 .007 0 .007.006.013 0 .006 0 .006.006.013v.025c0 .006 0 .006.007.013 0 .006 0 .006.006.012 0 .007.007.007.007.013s0 .006.006.013c0 .006 0 .006.006.012v.007c.007.006.007.019.013.025l.179-.063a4.787 4.787 0 0 1 -.294-1.045zm.433 1.482-.178.07c.012.031.025.069.044.1 0 0 0 .007.007.007 0 0 0 .006.006.006v.045s0 .006.006.006c0 0 0 .006.007.006 0 0 0 .007.006.007 0 0 0 .006.007.006 0 .006.006.006.006.013 0 .006 0 .006.006.006 0 .006 0 .006.007.013 0 .006.006.006.006.012 0 .007 0 .007.006.013 0 .006.007.006.007.013 0 .006.006.006.006.012 0 .007.007.007.007.013s.006.006.006.013c0 .006.006.006.006.012 0 .007.007.007.007.013s0 .006.006.006c0 .007 0 .007.007.007 0 .006.006.006.006.012 0 .007 0 .007.006.007 0 0 0 .006.007.006 0 0 0 .006.006.006 0 0 0 .007.006.007 0 0 0 .006.007.006v.063s0 .007.006.007l.007.006.006.006c0 .007.006.007.006.013s.007.006.007.013c.032.057.07.114.102.17l.166-.1c.02.126-.172-.241-.326-.621zm.728 1.361-.16.108c.083.126.173.247.262.367l.007.006s0 .007.006.007c0 0 0 .006.006.006 0 0 0 .006.007.006v.007l.006.006.007.006.006.007c0 .006.006.006.006.012.134.165.275.33.415.482l.14-.127a6.564 6.564 0 0 1 -.708-.893zm.983 1.19-.134.134c.198.196.402.38.62.55l.006.007h.006l.007.006c.095.076.191.146.293.215l.109-.152a7.805 7.805 0 0 1 -.907-.76zm1.207.976-.109.158c.147.095.3.19.454.279 0 0 .006 0 .006.006h.006c.007 0 .007.006.013.006.006.007.013.007.02.013.018.013.044.025.063.038.083.044.166.082.249.127l-.096-.26c-.147-.089-.376-.222-.606-.367zm.166-1.051-.179.063.44 1.19.18-.063-.333-.9v-.005c-.064-.165-.108-.285-.108-.285zm-.55-1.482-.178.063.44 1.19.18-.063-.09-.247v-.006-.006c-.14-.361-.351-.931-.351-.931zm-.548-1.488-.179.063.44 1.19.18-.063-.122-.335-.32-.855zm-.543-1.488-.179.063.44 1.19.18-.063-.326-.886v-.013zm-.549-1.488-.179.063.44 1.19.18-.063-.345-.937v-.007-.012c-.064-.14-.096-.234-.096-.234zm-.549-1.489-.179.064.44 1.19.18-.063-.109-.298v-.006c-.14-.361-.332-.887-.332-.887zm-.421-1.133a8.63 8.63 0 0 0 -.409 1.152v.019l.185.051c.064-.24.14-.481.23-.715l.14.373.18-.063s-.122-.33-.211-.576zm6.869 5.389s-.179.513-.3.867v.013l-.102.304.178.063.415-1.197zm-.517 1.494-.007.02v.006c0 .006 0 .006-.006.012-.09.266-.39 1.121-.39 1.121l.18.063.414-1.196zm-.524 1.495-.28.81v.006l-.128.368.178.063.415-1.197zm-.517 1.5-.23.653v.025l-.063.177c.063.02.12.032.185.05.012 0 .019.007.032.007h.019l.07.02.045-.184c-.045-.013-.09-.026-.134-.032l.236-.678zm.39.843-.039.183c.358.07.722.12 1.092.146h.077l.006-.19a6.831 6.831 0 0 1 -1.136-.14zm2.783.057a8.074 8.074 0 0 1 -1.232.095h-.007v.19h.218a5.1 5.1 0 0 0 .306-.045zm1.321-.33c-.332.114-.67.21-1.015.273l.039.183.178-.038h.077c.243-.057.472-.126.702-.209-.025-.038-.038-.07-.057-.114zm-.542-1.475-.179.063.44 1.19.18-.063zm-.55-1.482-.178.063.44 1.19.18-.062-.441-1.19zm-.548-1.488-.179.063.44 1.19.18-.063s-.026-.076-.07-.183zm-.55-1.488-.178.063.44 1.19.18-.063s-.25-.67-.371-1v-.006-.026l-.07-.158zm-.23-.627-.095.285c-.121.355-.319.912-.319.912l.179.063.319-.918.038-.013-.121-.329zm6.832-2.888c-.007.064-.013.12-.026.184v.044c-.038.228-.09.463-.153.703 0 .007 0 .013-.006.013v.025c0 .007 0 .007-.007.013-.006.032-.019.063-.025.095l.185.057a7.4 7.4 0 0 0 .274-1.267zm-.364 1.54c-.007.012-.007.018-.013.03v.045c-.025.07-.057.146-.083.222v.006l-.236.684.179.063.236-.677c.07-.171.134-.348.191-.513zm-.53 1.494-.038.1c-.102.299-.377 1.09-.377 1.09l.179.063.415-1.196zm-.523 1.494-.415 1.197.178.063.415-1.197zm-.524 1.5-.172.495c-.115.323-.237.684-.237.684l.18.063.414-1.197-.185-.044zm-.523 1.495-.122.349v.019c-.121.354-.287.83-.287.83h-.006l-.09.259.007.012c.37-.215.715-.456 1.047-.722l-.122-.145a6.541 6.541 0 0 1 -.58.43l.338-.968zm1.519-.494a8.11 8.11 0 0 1 -.856.893l.128.14c.058-.051.115-.102.173-.159l.006-.006.006-.006.007-.007.006-.006.006-.006c.23-.222.44-.45.645-.697zm.855-1.291c-.191.36-.415.715-.664 1.044l.154.114c.255-.335.478-.696.676-1.07zm.575-1.432a8.453 8.453 0 0 1 -.434 1.16l.172.082c.038-.09.083-.178.121-.266 0 0 0-.007.007-.007v-.006-.006-.007-.006-.006-.007-.006s0-.006.006-.006v-.007-.006s0-.006.007-.006v-.007s0-.006.006-.006v-.006-.007-.006-.006-.007s0-.006.006-.006v-.006-.007c0-.006.007-.012.007-.019v-.006-.006-.007-.006-.006-.007-.006-.006-.007-.006-.006-.007-.006-.006-.007c.038-.114.076-.234.108-.354l-.006-.368zm.268-1.52a7.856 7.856 0 0 1 -.191 1.223l.185.044c.038-.158.07-.31.102-.475v-.006-.006-.007-.006c.038-.228.07-.462.083-.703l-.179-.063zm.153-1.563-.191.025c.038.317.064.64.064.956 0 .089 0 .184-.007.272l.192.007c0-.038 0-.083.006-.12v-.007-.013-.006a9.88 9.88 0 0 0 -.025-.62c-.02-.298-.026-.4-.039-.494zm-.357-1.546-.179.064c.134.386.236.791.3 1.197l.192-.032a6.468 6.468 0 0 0 -.103-.507v-.006-.006-.007-.006-.006-.007c-.083-.272-.14-.475-.21-.684zm-.556-1.253c.026.164.039.335.045.513.006.095.006.196.006.297v.076c0 .102-.006.197-.012.304l.191.013c.007-.101.013-.21.013-.317.006.02.02.045.025.064l.18-.07a6.779 6.779 0 0 0 -.192-.45c-.077-.095-.16-.266-.256-.43z"/></g></g><g transform="translate(39.171 81.474)"><ellipse cx="11.842" cy="11.715" fill="#fff" rx="11.81" ry="11.715"/><g fill="#1388bd"><path d="m18.8 11.196c0-1.267-.459-2.14-.848-2.825-.524-.842-1.015-1.557-1.015-2.4 0-.943.721-1.817 1.736-1.817.045 0 .09.006.128.006a10.334 10.334 0 0 0 -6.965-2.685 10.349 10.349 0 0 0 -8.625 4.61c.243.007.466.013.67.013 1.08 0 2.746-.127 2.746-.127.555-.031.619.78.07.843 0 0-.562.07-1.181.1l3.76 11.089 2.253-6.719-1.608-4.37c-.556-.03-1.08-.1-1.08-.1-.555-.032-.49-.874.065-.843 0 0 1.704.127 2.72.127 1.078 0 2.744-.127 2.744-.127.562-.031.62.78.07.843 0 0-.561.07-1.18.1l3.728 11.007 1.027-3.414c.454-1.424.786-2.438.786-3.311z" opacity=".3"/><path d="m1.526 11.715c0 4.046 2.368 7.548 5.816 9.207l-4.929-13.38a10.258 10.258 0 0 0 -.887 4.173zm10.495.893-3.09 8.922c.92.266 1.903.418 2.918.418 1.206 0 2.355-.203 3.428-.576-.032-.045-.051-.089-.077-.146zm8.88-5.813c.045.329.07.677.07 1.05 0 1.033-.191 2.21-.785 3.667l-3.154 9.043c3.071-1.773 5.133-5.072 5.133-8.846a10.251 10.251 0 0 0 -1.264-4.914z" opacity=".3"/></g></g><g opacity=".5"><path d="m51.014 104.904c6.522 0 11.81-5.245 11.81-11.715s-5.288-11.715-11.81-11.715c-6.523 0-11.81 5.245-11.81 11.715s5.287 11.715 11.81 11.715z" stroke="#1388bd" stroke-dasharray="1.263132 .315781" stroke-width=".5"/><g fill="#1388bd" fill-rule="nonzero"><path d="m51.007 82.95s-.006 0 0 0h-.006-.007-.006-.006-.007-.006-.006-.007-.006-.007-.031-.007-.006-.007-.006-.006-.007-.006-.007-.006-.006-.007-.006-.006-.007-.006-.007-.038-.006-.007-.006-.006-.007-.006-.007-.006-.006-.007-.006-.007-.006-.006c-.02 0-.039 0-.058.006h-.006-.007-.006-.006-.007-.006-.006-.007-.006c-.026 0-.058.006-.083.006h-.007-.006-.006-.007c-.172.013-.344.032-.51.051l.025.19c.415-.05.83-.076 1.251-.076v-.177h-.217zm-1.59.12a9.86 9.86 0 0 0 -1.244.272l.05.184c.403-.114.812-.203 1.227-.266l-.032-.19zm-1.55.367c-.358.114-.703.247-1.048.393h-.006-.006-.007-.006-.007-.006-.006-.007-.006-.006-.007-.006-.007-.006-.006-.007-.006-.007l.083.17c.377-.17.773-.322 1.169-.449l-.09-.114zm-1.475.596c-.14.07-.281.145-.422.221h-.006-.006-.007-.006-.007-.006-.006-.007-.006-.007-.006-.006-.007-.006-.006-.007-.006a21.35 21.35 0 0 0 -.498.31l.108.159c.345-.228.709-.437 1.086-.627zm-1.366.816c-.064.045-.122.089-.186.133h-.006-.006-.007-.006-.007-.006-.006l-.09.07h-.006-.006-.007-.006-.007-.006-.006-.007l-.006.006h-.007-.006-.006-.007-.006-.006-.007-.006-.007-.006-.006c-.096.083-.192.165-.281.247l.127.14c.307-.279.632-.545.97-.786l-.37.19zm-1.226 1.014a9.885 9.885 0 0 0 -.856.937l.147.12c.262-.323.543-.633.843-.918l-.134-.14zm-1.054 1.19a9.367 9.367 0 0 0 -.363.513c.076 0 .153.006.223.006.147.007.287.007.415.007v-.19c-.09 0-.185 0-.287-.007.05-.076.108-.145.16-.221zm1.865.285c-.492.025-.913.044-1.27.05l.006.19c.127 0 .255-.006.389-.012h.14c.217-.006.435-.019.639-.032zm1.219-.076h-.038l-.856.057.013.19c.025 0 .051-.006.083-.006h.013c.427-.026.734-.051.76-.051h.044a.376.376 0 0 1 .243.152l.153-.114c-.045-.146-.217-.228-.415-.228zm.415.646a.404.404 0 0 1 -.351.38h-.007-.006a3.186 3.186 0 0 1 -.294.032h-.006-.006c-.103.012-.224.019-.358.031l.013.19c.39-.032.676-.063.69-.07a.611.611 0 0 0 .548-.563zm-1.36.475c-.064.006-.134.006-.198.013l.064.19.287.842.179-.064zm.428 1.279-.179.063.37 1.09v.012l.032.089.179-.064zm.51 1.5-.178.064s.09.253.179.532l.223.665.179-.063-.402-1.197zm.511 1.502-.179.063.032.088.007.02.006.012v.013c.102.31.364 1.07.364 1.07l.179-.063zm.51 1.5-.178.064.23.677v.038c0 .006 0 .006.006.013 0 .006.007.019.007.025.076.234.147.43.147.43l.178-.063zm.505 1.501-.178.063s.408 1.197.408 1.204l.179-.064zm.511 1.5-.179.064.051.146v.006l.351 1.039.18-.064-.403-1.19zm.51 1.495-.178.064.013.044.006.013.032.095v.019l.006.012v.013l.007.013v.006l.006.013v.006l.007.013v.057l.006.019v.057l.102.297.102-.297c.026-.076.045-.14.045-.14l-.109-.038-.044-.266zm.543-1.178-.402 1.204.179.057.128-.374v-.006-.007-.006c.114-.348.268-.792.268-.792zm.505-1.5-.403 1.203.18.057.401-1.203zm.504-1.507-.402 1.203.179.057s.07-.203.146-.444v-.006l.25-.74zm.504-1.501-.402 1.203.179.057.338-1.013v-.013l.051-.158zm-.172-1.431-.179.063.44 1.19.18-.063zm-.55-1.482-.178.063.44 1.19.18-.063-.441-1.19zm-.548-1.488-.179.063.44 1.19.18-.063zm-1.43-.405-.14.126a.592.592 0 0 0 .408.19c.057.006.485.063.958.089l.012-.19h-.057-.006-.032-.026-.006-.007-.019-.032-.006-.026-.006-.006-.007-.019-.026-.006c-.019 0-.038-.006-.057-.006-.026 0-.045-.007-.064-.007h-.038c-.02 0-.045-.006-.064-.006h-.071-.006c-.013 0-.032 0-.045-.006-.012 0-.025 0-.032-.007h-.025-.019-.058-.032-.019-.006-.007-.006-.006-.007-.006-.006-.007-.006-.007-.006c-.3-.133-.332-.158-.351-.183zm.313-.906c-.39 0-.607.317-.607.614l.192.007c0-.057.013-.12.032-.171v-.007s0-.006.006-.006c0-.006.006-.006.006-.013 0-.006.007-.006.007-.012v-.007c.006-.012.019-.019.025-.031l.013-.013c.007 0 .007-.006.013-.006 0 0 .006 0 .006-.007 0 0 .007 0 .007-.006h.038s.236.019.575.038l.012-.19a26.408 26.408 0 0 1 -.574-.038c.274-.152.261-.152.249-.152zm.938.057-.013.19c.39.025.85.044 1.277.063l.007-.19a40.507 40.507 0 0 1 -1.27-.063zm2.847.044c-.408.02-.76.026-1.04.026h-.224v.19h.25c.275 0 .575-.013.875-.026l.14-.19zm1.59-.095c-.192.013-.702.051-1.27.083l.012.19c.039 0 .077-.007.115-.007h.071c.057-.006.114-.006.172-.012h.121c.339-.02.613-.038.753-.051zm.402.045-.076.177c.114.05.191.146.223.253a.42.42 0 0 1 -.28.526h-.007-.007c-.012 0-.07.006-.153.019l.02.19.159-.02a.602.602 0 0 0 .543-.518c-.026-.254-.173-.526-.422-.627zm-.69 1.032c-.14.013-.3.025-.472.038h-.038c-.064.006-.134.006-.198.013l.179.531.179-.063-.103-.298c.147-.012.307-.019.466-.038l-.012-.183zm-.242.823-.179.063.186.551v.007l.006.012.21.627.18-.063zm.51 1.5-.178.064.307.9v.012l.095.272.179-.063-.402-1.184zm.505 1.502-.179.063.377 1.108v.006a.865.865 0 0 0 .026.076l.178-.063zm.51 1.5-.178.064.236.69v.013c0 .006 0 .006.007.012.09.254.16.481.16.481l.178-.063-.402-1.197zm.505 1.501-.179.063.396 1.166v.012l.007.013.178-.063-.402-1.19zm.51 1.5-.178.064.256.754v.006l.153.443.179-.063-.41-1.203zm1.01 1.128-.294.975-.204-.601-.18.063.397 1.171.095-.316-.006-.025.013.006s.083-.285.172-.576l.192-.634zm.453-1.52-.364 1.216.185.057.364-1.216zm.479-1.513c-.096.31-.205.64-.313.994l-.051.165-.02.05.186.057.013-.031c.006-.026.012-.045.019-.07.006-.019.012-.044.019-.063.006-.013.006-.026.013-.038.032-.089.057-.178.083-.266.006-.013.006-.02.012-.032v-.006-.007-.006-.006c0-.007 0-.007.007-.013 0-.013.006-.019.006-.032v-.006-.006-.007-.006-.006-.007-.006-.006-.007-.006-.006-.007-.006l.096-.304c0-.006 0-.013.006-.013v-.006-.006-.007c.013-.044.026-.088.045-.133zm.37-1.507c-.051.329-.14.715-.281 1.21l.185.05c.02-.063.038-.127.051-.184 0-.006 0-.006.007-.012 0-.007 0-.007.006-.013v-.013-.012-.007-.006-.006-.007-.006-.006-.007-.006-.006-.007-.006-.006-.007-.006-.006-.013-.013-.006c.051-.222.096-.43.128-.633zm.147-1.545-.185.038c.057.297.089.608.089.924 0 .089-.006.19-.013.285l.192.013v-.032-.006-.007-.012-.02-.044-.012-.013-.006-.007-.006-.006-.007-.006-.006-.007-.006-.006-.007-.006-.006-.007-.006-.006-.007-.006-.006-.007-.006-.006-.006-.007-.006-.006-.007-.006-.006-.007-.006-.006-.007-.006-.02-.018c-.032-.551-.051-.71-.083-.861zm-.55-1.482-.172.089c.211.405.358.766.46 1.133l.185-.05c-.032-.127-.076-.254-.115-.368v-.006c0-.007-.006-.013-.006-.02 0-.006-.007-.012-.007-.012 0-.006 0-.006-.006-.013 0-.006-.006-.006-.006-.012 0-.007 0-.007-.007-.013 0-.006-.006-.006-.006-.013 0-.006-.006-.006-.006-.012 0-.007-.007-.013-.007-.02 0-.006-.006-.012-.006-.018v-.007c0-.006-.007-.012-.007-.019a4.842 4.842 0 0 0 -.293-.64zm-.804-1.368-.166.089c.14.26.3.519.473.791.038.064.083.133.121.197.02.031.038.07.058.1l.166-.094c-.013-.02-.02-.038-.032-.057v-.006c-.007-.007-.007-.02-.013-.026 0 0 0-.006-.007-.006-.217-.348-.427-.671-.6-.988zm-.606-1.52v.102c0 .386.096.772.3 1.21l.172-.083a4.726 4.726 0 0 1 -.153-.38c-.006-.013-.006-.025-.013-.032 0-.006 0-.006-.006-.012v-.007-.006-.006-.007-.076zm.772-1.507a2.03 2.03 0 0 0 -.727 1.165l.185.038.038-.152v-.006-.006-.007-.006-.006s0-.007.006-.007c.051-.126.115-.253.192-.367 0-.006.006-.006.006-.013l.007-.006.006-.006s0-.007.006-.007c0 0 0-.006.007-.006v-.006l.006-.007s0-.006.007-.006l.006-.006.006-.007.007-.006c.057-.063.121-.12.185-.17zm1.015-.43-.038.044a1.842 1.842 0 0 0 -.683.196l.09.171c.031-.012.063-.031.095-.044.007 0 .007 0 .013-.006h.032c.05-.007.102-.007.16-.007.044 0 .089.007.127.007-.07-.064-.147-.133-.223-.197.46-.139.44-.152.427-.164zm-1.29-.931-.101.164c.35.216.696.456 1.021.716l.121-.146h-.006-.006-.007-.006-.006-.007-.006-.007-.006-.006-.007l-.006-.006h-.007-.006-.006-.007-.006-.006-.007l-.006-.006h-.007l-.006-.007h-.006l-.007-.006-.006-.006h-.007l-.006-.007h-.006l-.007-.006c-.006 0-.006-.006-.012-.006-.007 0-.007-.007-.013-.007-.415-.418-.62-.55-.83-.677zm-1.416-.728-.077.177c.383.158.76.348 1.124.55l.095-.164c-.083-.044-.16-.089-.242-.133l-.007-.006s-.006 0-.006-.007c0 0-.006 0-.006-.006 0 0-.007 0-.007-.006h-.006-.007-.006-.006-.007-.006-.006s-.007 0-.007-.007h-.006-.007-.006-.006-.007-.006s-.007 0-.007-.006h-.006s-.006 0-.006-.006h-.007s-.006 0-.006-.006c-.128-.064-.262-.127-.396-.19-.006 0-.006-.007-.013-.007-.006 0-.006-.006-.012-.006 0 0-.007 0-.007-.006h-.006s-.007 0-.007-.007h-.006s-.006 0-.006-.006h-.007-.006-.007-.006-.006-.007-.006-.006-.007-.006-.007c-.006 0-.006 0-.006-.006-.147-.12-.185-.133-.223-.152zm-1.513-.494-.045.183c.402.102.804.222 1.194.374l.07-.177-.153-.057h-.007c-.006 0-.006 0-.012-.007-.007 0-.007 0-.007-.006 0 0-.006 0-.006-.006h-.007-.006-.006-.007-.006-.006-.007-.006-.007-.006-.006-.007-.006-.007-.006-.006-.007-.006-.006-.007-.006-.007-.006-.006-.007-.006-.007-.006-.006-.007-.006-.006-.007-.006-.007-.006-.006-.007-.006-.007-.006-.006-.007-.006-.006-.007-.006-.007-.006-.019-.007c-.006 0-.006 0-.012-.007-.007 0-.007 0-.013-.006-.006 0-.006 0-.013-.006-.306-.197-.479-.247-.657-.285zm-1.57-.26-.02.19c.415.038.83.101 1.238.184l.039-.184c-.326-.07-.664-.127-1.002-.165h-.02-.019-.006-.007-.006-.006-.007-.006-.006-.007-.006-.007-.006-.019a.35.35 0 0 0 -.128-.025zm-.914-.044v.19c.192 0 .39.006.581.019l.013-.19c-.045 0-.09-.007-.134-.007h-.006-.02-.006-.006-.007-.006-.007-.006-.006-.007-.006-.006-.007-.006-.007-.006-.006-.007-.019-.006-.019-.007-.026-.006-.019-.006-.019-.007-.006-.007-.006-.006-.007-.006-.007-.006-.006-.007-.006-.006-.007-.006-.007-.006-.006-.007-.006-.007-.006-.006-.007-.006-.006c-.032-.012-.032-.012-.039-.012z"/><path d="m41.585 89.016s0 .006 0 0c0 .006 0 .006 0 0v.057c0 .006 0 .006-.007.013 0 .006 0 .006-.006.012 0 .007 0 .007-.007.013-.127.31-.249.627-.344.95v.038l.185.057c.076-.24.16-.481.249-.716l.35.95.18-.063-.422-1.153zm-.53 1.495a.184.184 0 0 0 -.013.056v.07c-.038.152-.077.304-.109.462v.141a5.371 5.371 0 0 0 -.076.462l.191.025c.058-.405.14-.817.25-1.215h-.243zm-.3 1.55v.211a10.34 10.34 0 0 0 -.032.443v.385h.191v-.133c0-.367.02-.74.064-1.108l-.223.203zm.14 1.578-.191.006c.019.393.057.779.114 1.159v.05l.192-.031c-.051-.361-.096-.773-.115-1.184zm.192 1.538-.192.038v.026c0 .006 0 .012.006.019.02.082.039.164.058.253 0 .006 0 .013.006.02v.043c0 .007 0 .013.007.013.064.24.134.481.21.716l.18-.064a7.926 7.926 0 0 1 -.275-1.064zm.421 1.495-.179.063c.07.184.14.361.217.538 0 .007.007.007.007.013v.014s0 .006.006.006a7.606 7.606 0 0 0 .255.526l.173-.089c-.16-.304-.332-.684-.479-1.07zm.658 1.406-.166.095c.031.05.057.107.089.158 0 .006.006.006.006.013v.019s0 .006.007.006v.108l.006.006v.013c.153.247.313.48.485.715l.153-.114c-.153-.304-.376-.658-.58-1.02zm.868 1.291-.153.114c.063.083.127.159.191.241v.006c0 .007.006.007.006.013v.013c0 .006.007.006.007.012v.013l.006.006v.103l.007.006v.006l.006.007.006.006.007.006c.038.045.083.083.121.12l.134-.132c.198.101-.083-.21-.338-.539zm1.053 1.147-.134.139c.16.146.32.291.485.424l.007.007.006.006h.019l.006.006h.045l.007.007h.012c.115.088.23.177.351.265l.115-.151c-.287-.152-.612-.418-.919-.703zm1.96.62-.179.064.3.804c-.293-.159-.58-.336-.855-.52l-.109.159h.83s.007 0 .007.006h.012c.007 0 .007.006.013.006h.014c.05.026.102.051.153.076l.07-.025-.255-.57zm-.55-1.488-.178.063.44 1.19.18-.062-.441-1.19zm-.548-1.488-.179.063.44 1.19.18-.063-.186-.5zm-.55-1.488-.178.063.44 1.19.18-.063-.441-1.19zm-.542-1.488-.179.063.441 1.19.179-.063-.44-1.19zm-.549-1.482-.179.063.441 1.19.179-.063-.44-1.19zm-.549-1.488-.179.063.441 1.19.179-.063-.44-1.19zm-.549-1.488-.179.063.44 1.19.18-.063-.44-1.19zm8.982 3.356s-.006.019-.019.05c-.013.032-.025.083-.044.134v.006l-.032.089c-.013.031-.02.063-.032.095l-.039.107-.019.057c-.006.007-.006.02-.013.026 0 .006 0 .006-.006.012v.013c0 .006 0 .006-.006.013 0 .006-.007.006-.007.012-.006.007-.006.02-.012.026-.007.006-.007.019-.013.025-.007.006-.007.019-.007.025-.006.026-.019.057-.025.082 0 .007-.006.02-.006.026l-.02.05c-.006.02-.012.032-.019.051a.307.307 0 0 1 -.019.044c-.006.013-.013.026-.013.038 0 .007-.006.013-.006.02 0 .006-.006.012-.006.018 0 .007-.007.013-.007.02 0 .006-.006.012-.006.018-.007.013-.007.02-.013.032 0 .006-.006.013-.006.013v.006c0 .006 0 .006-.007.013 0 .006 0 .006-.006.012v.013l.179.063.242-.69.307.836.178-.063s-.236-.64-.364-.982c0-.006 0-.006-.006-.012zm-.517 1.494-.415 1.197.18.064.414-1.197zm-.523 1.495-.415 1.197.179.063.415-1.197-.18-.063zm-.517 1.5-.415 1.197.179.064.414-1.197-.178-.063zm-.517 1.495-.186.545v.006l-.223.64.179.063.415-1.197zm-.524 1.5-.338.982v.026l-.064.177.179.063.415-1.197-.192-.05zm-.377 1.267-.05.184c.274.076.548.146.83.203h.031l.313.057.032-.19a8.362 8.362 0 0 1 -1.156-.254zm1.533.317-.026.19c.415.05.843.082 1.27.082v-.19a11.85 11.85 0 0 1 -1.244-.082zm2.809-.038c-.409.063-.83.101-1.245.114l.006.19c.064 0 .134-.007.198-.007h.191c.23-.018.454-.044.677-.082zm1.525-.355a9.986 9.986 0 0 1 -1.213.304l.032.184c.422-.076.837-.177 1.239-.304zm-.095-1.095-.18.063.384 1.032v.013c.019.05.045.095.064.133.064-.02.121-.044.185-.063-.032-.045-.051-.09-.077-.146l-.013-.032v-.019zm-.55-1.488-.178.063.44 1.19.179-.063-.44-1.19zm-.548-1.482-.18.063.441 1.19.179-.063zm-.55-1.488-.178.063.44 1.19.179-.063-.44-1.19zm-.549-1.488-.178.063.44 1.19.179-.063s-.147-.392-.268-.728v-.006zm8.332-5.864c0 .025-.007.05-.007.076a9.072 9.072 0 0 1 -.128.95v.019c-.012.05-.019.101-.031.152l.185.038c.095-.437.153-.855.178-1.28zm-.25 1.564a11.57 11.57 0 0 1 -.185.652v.019c-.05.165-.108.33-.172.5l.179.064c.153-.418.287-.83.383-1.229l-.204-.006zm-.491 1.5c-.013.026-.02.051-.032.07v.007l-.006.012c-.07.21-.377 1.083-.377 1.083l.179.064.39-1.121c.006-.026.018-.045.025-.07l-.179-.044zm-.523 1.495-.415 1.197.178.063.415-1.196zm-.524 1.501c0 .006 0 .006 0 0v.013l-.006.025-.396 1.127.179.063.415-1.196zm-.517 1.494-.415 1.197.179.064.415-1.197-.18-.064zm-.524 1.495-.415 1.197.18.063.414-1.197zm-.523 1.494-.396 1.14v.019l-.006.02.127.043c-.063.038-.12.076-.185.114l-.095.279c.057-.032.114-.063.166-.101.268-.159.523-.336.772-.513l-.115-.152a7.767 7.767 0 0 1 -.472.323l.395-1.134zm1.443-.145c-.294.29-.607.57-.932.83l.121.151c.28-.221.549-.456.804-.703l.007-.006.006-.006.006-.007.007-.006.006-.006.007-.007.012-.012.007-.007.006-.006h.007l.006-.006-.07-.21zm1.015-1.184c-.243.335-.51.658-.798.956l.14.126v-.006-.006-.007-.006l.007-.006.012-.013.007-.006v-.007-.006-.006-.007-.006-.006l.006-.007.007-.006c.146-.158.287-.33.42-.5v-.007-.006-.006-.007-.006-.006-.007-.006-.006-.007-.006-.006-.007-.006-.006-.007-.006-.006-.007l.154-.209zm.817-1.324c-.192.367-.402.728-.638 1.07l.16.108c.165-.247.325-.5.472-.766v-.007-.006-.006-.007-.006-.006c0-.007.006-.013.006-.013v-.006-.007-.006-.006-.007-.006-.006-.007-.006-.006-.007-.006-.006-.007-.006-.006-.007-.006-.006-.007-.006s0-.006.006-.006v-.007-.006-.006-.007-.006-.006c.013-.026.026-.045.039-.07l-.045-.114zm.6-1.431a9.468 9.468 0 0 1 -.466 1.152l.172.083c.18-.38.339-.773.473-1.178zm.37-1.507c-.064.405-.16.817-.274 1.21l.185.05c.006-.019.013-.044.019-.07v-.012c0-.007.006-.013.006-.02.026-.1.058-.202.083-.303 0-.007 0-.013.007-.02v-.006-.012c.05-.216.096-.437.127-.659zm.128-1.545c0 .411-.032.83-.083 1.24l.191.026c.052-.411.083-.836.09-1.26zm.077-1.577-.192.025c.064.406.096.824.109 1.241l.191-.006c-.006-.12-.006-.24-.02-.36v-.007-.044-.02-.006-.006-.02-.03-.013c-.037-.355-.057-.558-.088-.754zm-.358-1.545-.185.057c.121.392.223.798.3 1.21l.191-.032a9.456 9.456 0 0 0 -.248-1.058v-.006-.006c-.052-.14-.052-.152-.058-.165zm-.792-1.868.02.14c.012.107.025.22.032.335v.044c.012.171.019.355.019.538v.14l.191.006v-.215-.083c.096.216.179.437.256.659l.178-.063c-.006-.013-.006-.02-.012-.032v-.006-.007-.006-.006-.007-.006-.006-.007-.006-.006-.007-.006-.006-.007-.006-.006-.007-.006-.006-.007-.006-.006-.007-.006-.006-.007-.006-.006-.007-.006-.006-.007-.006-.006-.007-.006-.006-.007-.006-.006-.007-.006-.006-.007-.006-.006-.007-.006-.006-.007-.006-.006-.007-.006-.006-.007-.006-.006-.007-.006-.006-.007-.006-.006-.007-.006-.006-.007-.006-.006-.007-.006-.006-.007-.006-.006-.007-.006-.006-.007-.006-.006-.007c-.09-.228-.192-.456-.3-.684-.224.051-.3-.1-.384-.26z"/></g></g><path d="m65.62 106.462c-7.38 0-13.387-5.959-13.387-13.28 0-7.32 6.007-13.278 13.387-13.278s13.387 5.952 13.387 13.279c-.006 7.32-6.013 13.279-13.387 13.279z" fill="#fff"/><path d="m53.848 93.19c0 4.615 2.707 8.611 6.633 10.504l-5.618-15.267a11.778 11.778 0 0 0 -1.015 4.762zm19.714-.59c0-1.444-.524-2.438-.97-3.223-.594-.962-1.156-1.78-1.156-2.736 0-1.076.823-2.077 1.979-2.077.051 0 .102.007.147.007a11.795 11.795 0 0 0 -7.948-3.065c-4.112 0-7.731 2.09-9.838 5.262.281.006.536.02.76.02 1.232 0 3.134-.147 3.134-.147.632-.031.709.887.077.963 0 0-.639.076-1.347.114l4.29 12.652 2.573-7.669-1.839-4.983c-.632-.032-1.232-.114-1.232-.114-.632-.032-.562-1 .07-.963 0 0 1.94.146 3.096.146 1.232 0 3.135-.146 3.135-.146.638-.031.708.887.076.963 0 0-.638.076-1.347.114l4.252 12.557 1.175-3.888c.53-1.634.913-2.793.913-3.787z" fill="#1388bd"/><path d="m65.824 94.202-3.53 10.176a11.937 11.937 0 0 0 7.24-.184c-.032-.05-.064-.1-.09-.164zm10.126-6.623c.05.373.076.772.076 1.196 0 1.178-.217 2.52-.894 4.186l-3.594 10.316c3.498-2.02 5.854-5.782 5.854-10.088a11.646 11.646 0 0 0 -1.443-5.61z" fill="#1388bd"/><path d="m65.62 79.575c-7.571 0-13.725 6.104-13.725 13.614 0 7.504 6.154 13.615 13.725 13.615 7.565 0 13.726-6.105 13.726-13.615-.007-7.51-6.16-13.614-13.726-13.614zm0 26.595c-7.22 0-13.093-5.825-13.093-12.987s5.873-12.994 13.093-12.994 13.094 5.826 13.094 12.987c-.007 7.169-5.88 12.994-13.094 12.994z" fill="#1388bd" fill-rule="nonzero"/><path d="m140.848 78.927c-.232 3.362 2.898-1.62 2.898-1.62 3.65-29.56 10.729-32.956 22.317-32.85l27.185-.056c6.718.994 19.65 3.17 21.484 26.83l5.073-.733c.526-17.092-2.622-43.347-38.58-44.726-21.918-.841-51.08 13.398-40.377 53.155z" fill="#bf951b"/><path d="m181.225 22.31c-21.918-.842-52.091 15.419-41.387 55.175l4.161-1.924c3.65-29.559 10.476-34.673 22.064-34.566l27.185-.057c6.718.994 19.258 6.975 21.09 30.638l6.442-.014c.526-17.093-3.597-47.874-39.555-49.253" fill="#fbc72f"/><path d="m176.742 22.956-3.255 7.178s.388 4.042 4.343 3.958c3.954-.084 4.484-1.917 4.484-1.917l.514-8.24z" fill="#ffb9a3"/><path d="m193.476 16.97c-3.71 6.581-5.355 8.63-10.208 9.618-6.284 1.282-13.33-2.97-10.054-13.447 2.67-8.545 6.713-7.229 10.672-6.906 3.96.323 13.6 3.625 9.59 10.735" fill="#ffb9a3"/><path d="m178.725 11.778c-.986-.515-2.255-.077-3.02.731-.787.832-1.168 2.077-.833 3.174-1.519.022-2.852 1.515-2.707 3.033-1.038-2.429-.476-4.955-.682-7.44-.205-2.486.066-5.188 1.672-7.091.659-.782 1.507-1.382 2.407-1.862 3.418-1.823 7.712-1.883 11.18-.159.72.358 2.52 1.495 5.03.886 4.788-1.162 7.59 2.086 4.713 5.128.923.335 1.936.748 2.354 1.639.108.228.164.513.02.72-.1.145-.272.218-.438.273a5.203 5.203 0 0 1 -2.52.201c.323.277 2.1.383 2.635 1.42 1.428 2.76-4.228 1.366-5.09 1.089.985.186 3.568 2.253 2.74 3.672-.162.28-3.65 2.318-7.315-1.953-.853-.993-1.916-1.91-3.178-2.248-.99-.265-2.027.102-2.987.464-.7.265-2.488 1.355-3 .706-.564-.714.162-1.814-.98-2.383" fill="#0c2340"/><path d="m213.365 80.189c2.307 0 3.441-4.116 3.441-4.116l5.385-.223c0-1.085-1.594-3.85-2.451-4.28-.857-.426-4.708.01-4.708.01-.508 1.757-1.339 2.575-.95 4.493.355 1.755-1.333 4.116-.717 4.116zm-69.366-4.627c.71 1.769.906 1.78 1.895 3.908 1.892 4.065-2.539 10.494-5.29 3.475-.753-1.924-.767-5.46-.767-5.46l4.163-1.923z" fill="#ffb9a3"/></g></svg>