<svg xmlns="http://www.w3.org/2000/svg" xmlns:xlink="http://www.w3.org/1999/xlink" width="309" height="206" viewBox="0 0 309 206">
    <defs>
        <path id="a" d="M0 .11h241.277v165.162H0z"/>
        <path id="c" d="M0 .11h241.277v165.162H0z"/>
    </defs>
    <g fill="none" fill-rule="evenodd">
        <path fill="#74AAD7" d="M303.026 166.976l-229.857.478c-3.067.007-5.558-2.494-5.565-5.586L67.291 8.38c-.007-3.09 2.474-5.602 5.54-5.609l229.859-.478c3.065-.006 5.557 2.494 5.563 5.586l.314 153.49c.007 3.09-2.474 5.601-5.54 5.608" opacity=".5"/>
        <g transform="translate(63.553 .02)">
            <mask id="b" fill="#fff">
                <use xlink:href="#a"/>
            </mask>
            <path fill="#C6E4FD" d="M235.736 164.794l-229.858.478c-3.066.006-5.557-2.494-5.563-5.586L0 6.196C-.006 3.107 2.474.596 5.54.589L235.4.11c3.066-.006 5.558 2.495 5.564 5.585l.314 153.49c.006 3.09-2.474 5.602-5.541 5.609" mask="url(#b)"/>
        </g>
        <path fill="#9CD2FE" d="M299.02.13h-.013L69.151.608c-3.067.007-5.548 2.518-5.542 5.61l.314 153.488c.007 3.088 2.491 5.586 5.553 5.586h.011l229.858-.478c3.066-.006 5.548-2.517 5.541-5.608l-.313-153.49C304.566 2.628 302.08.13 299.02.13m0 1.54c2.214 0 4.02 1.817 4.025 4.05l.314 153.489a4.045 4.045 0 0 1-1.173 2.87 3.987 3.987 0 0 1-2.844 1.195l-229.866.478c-2.215 0-4.02-1.816-4.025-4.049L65.137 6.214a4.049 4.049 0 0 1 1.173-2.871 3.985 3.985 0 0 1 2.844-1.194l229.853-.479h.013" opacity=".5"/>
        <path fill="#FFF" d="M298.578.131L69.704.607c-3.339.007-6.04 2.74-6.032 6.106l.011 5.297 240.963-.5-.01-5.299c-.008-3.365-2.72-6.087-6.058-6.08M288.171 118.282l-63.003.165c-1.224.003-2.218-1.25-2.22-2.798l-.001-.347c-.003-1.548.987-2.805 2.211-2.81l63.003-.162c1.224-.004 2.218 1.249 2.22 2.796l.001.348c.003 1.547-.987 2.805-2.211 2.808M94.838 24.588a2.96 2.96 0 0 1 2.957-2.978l189.77-.126a2.994 2.994 0 0 1 2.995 2.974 2.96 2.96 0 0 1-2.957 2.979l-189.77.125a2.993 2.993 0 0 1-2.995-2.974zM288.17 130.56l-63.002.164c-1.224.003-2.218-1.25-2.22-2.798l-.001-.347c-.003-1.548.987-2.806 2.211-2.809l63.003-.164c1.224-.003 2.218 1.249 2.22 2.797l.001.348c.003 1.547-.987 2.805-2.212 2.808M288.17 142.835l-63.002.165c-1.224.003-2.219-1.25-2.22-2.797l-.001-.347c-.003-1.549.987-2.806 2.211-2.81l63.003-.163c1.223-.004 2.218 1.248 2.22 2.796l.001.348c.003 1.547-.987 2.805-2.212 2.808" opacity=".5"/>
        <path fill="#F0F0F5" d="M142.227 150.834L81.81 151c-1.924.006-3.487-2.076-3.491-4.649l-.053-34.71c-.004-2.574 1.552-4.664 3.476-4.67l60.417-.166c1.923-.004 3.486 2.076 3.49 4.65l.053 34.71c.004 2.573-1.552 4.663-3.475 4.669M214.567 150.834L154.15 151c-1.924.006-3.487-2.076-3.49-4.649l-.054-34.71c-.004-2.574 1.552-4.664 3.476-4.67l60.417-.166c1.923-.004 3.486 2.076 3.49 4.65l.053 34.71c.004 2.573-1.552 4.663-3.475 4.669"/>
        <path fill="#FFF" d="M76.889 6.187a1.954 1.954 0 0 1-1.944 1.967 1.955 1.955 0 0 1-1.95-1.958 1.955 1.955 0 0 1 1.942-1.968 1.955 1.955 0 0 1 1.952 1.96M85.132 6.17a1.955 1.955 0 0 1-1.943 1.967 1.955 1.955 0 0 1-1.951-1.959 1.955 1.955 0 0 1 1.943-1.966 1.955 1.955 0 0 1 1.951 1.958M93.376 6.153a1.955 1.955 0 0 1-1.943 1.967 1.955 1.955 0 0 1-1.951-1.96 1.955 1.955 0 0 1 1.943-1.966 1.955 1.955 0 0 1 1.951 1.96" opacity=".8"/>
        <path fill="#F0F0F5" d="M89.527 24.692c.007 3.135-2.51 5.68-5.618 5.687-3.11.007-5.637-2.53-5.643-5.664-.007-3.135 2.51-5.68 5.619-5.686 3.11-.007 5.636 2.528 5.642 5.663"/>
        <path fill="#FFF" d="M141.103 36.216l-58.254.12c-2.536.006-4.588 2.083-4.583 4.639l.11 53.699c.006 2.553 2.06 4.619 4.592 4.619h.01l202.935-.12c2.536-.006 4.588-2.083 4.582-4.64l-.11-53.698c-.005-2.553-2.06-4.62-4.592-4.62h-144.69z" opacity=".5"/>
        <g>
            <path fill="#74AAD7" d="M271.148 193.984l-229.858.478c-3.067.007-5.558-2.494-5.564-5.586l-.314-153.489c-.007-3.09 2.474-5.602 5.54-5.608l229.859-.479c3.065-.006 5.557 2.495 5.563 5.586l.314 153.49c.007 3.09-2.474 5.602-5.54 5.608"/>
            <g transform="translate(31.674 27.027)">
                <mask id="d" fill="#fff">
                    <use xlink:href="#c"/>
                </mask>
                <path fill="#9CD2FE" d="M235.736 164.794l-229.858.478c-3.066.006-5.557-2.494-5.563-5.586L0 6.196C-.006 3.107 2.474.596 5.54.589L235.4.11c3.066-.006 5.558 2.495 5.564 5.585l.314 153.49c.006 3.09-2.474 5.602-5.541 5.609" mask="url(#d)"/>
            </g>
            <path fill="#FFF" d="M267.14 27.139h-.011l-229.857.478c-3.067.006-5.548 2.518-5.542 5.608l.314 153.49c.007 3.087 2.491 5.585 5.553 5.585h.012l229.857-.478c3.067-.006 5.548-2.517 5.542-5.608l-.314-153.49c-.007-3.088-2.491-5.585-5.553-5.585m0 1.54c2.214 0 4.02 1.816 4.025 4.048l.314 153.49a4.045 4.045 0 0 1-1.173 2.87 3.987 3.987 0 0 1-2.844 1.195l-229.866.478c-2.214 0-4.02-1.816-4.025-4.049l-.314-153.489a4.049 4.049 0 0 1 1.173-2.871 3.985 3.985 0 0 1 2.844-1.194l229.854-.478h.013"/>
            <path fill="#FFF" d="M266.7 27.14l-228.875.475c-3.338.007-6.039 2.741-6.032 6.106l.011 5.298 240.963-.502-.01-5.297c-.007-3.365-2.72-6.087-6.058-6.08M256.292 145.29l-63.003.165c-1.224.003-2.218-1.25-2.22-2.798l-.001-.347c-.003-1.548.987-2.805 2.211-2.809l63.003-.163c1.224-.004 2.219 1.249 2.221 2.796v.348c.003 1.548-.987 2.805-2.21 2.808M62.96 51.596a2.96 2.96 0 0 1 2.956-2.978l189.77-.126a2.994 2.994 0 0 1 2.995 2.974 2.96 2.96 0 0 1-2.957 2.979l-189.77.125a2.993 2.993 0 0 1-2.995-2.974zM256.292 157.567l-63.003.165c-1.224.003-2.218-1.25-2.22-2.797l-.001-.348c-.003-1.548.987-2.806 2.211-2.809l63.003-.164c1.224-.003 2.219 1.25 2.221 2.797v.348c.003 1.547-.987 2.805-2.211 2.808M256.292 169.843l-63.003.165c-1.224.003-2.219-1.25-2.22-2.797l-.001-.347c-.003-1.549.987-2.806 2.211-2.81l63.003-.163c1.224-.003 2.219 1.249 2.221 2.796v.348c.003 1.547-.987 2.805-2.211 2.808M110.348 177.842l-60.417.167c-1.924.005-3.487-2.076-3.49-4.65l-.053-34.71c-.004-2.573 1.551-4.664 3.475-4.669l60.417-.167c1.923-.004 3.486 2.077 3.49 4.65l.053 34.71c.004 2.574-1.552 4.664-3.475 4.669M182.688 177.842l-60.417.167c-1.923.005-3.486-2.076-3.49-4.65l-.053-34.71c-.004-2.573 1.551-4.664 3.475-4.669l60.417-.167c1.924-.004 3.486 2.077 3.49 4.65l.053 34.71c.005 2.574-1.552 4.664-3.475 4.669"/>
            <path fill="#F0F0F5" d="M45.01 33.196a1.954 1.954 0 0 1-1.943 1.966 1.955 1.955 0 0 1-1.951-1.958 1.955 1.955 0 0 1 1.942-1.967 1.955 1.955 0 0 1 1.952 1.959M53.254 33.179a1.955 1.955 0 0 1-1.944 1.966 1.955 1.955 0 0 1-1.95-1.959 1.955 1.955 0 0 1 1.943-1.966 1.955 1.955 0 0 1 1.95 1.959M61.498 33.161a1.955 1.955 0 0 1-1.944 1.967 1.955 1.955 0 0 1-1.95-1.959 1.955 1.955 0 0 1 1.943-1.967 1.955 1.955 0 0 1 1.95 1.96" opacity=".8"/>
            <path fill="#FFF" d="M57.649 51.7c.006 3.135-2.51 5.68-5.619 5.688-3.11.006-5.636-2.53-5.642-5.665-.007-3.134 2.508-5.68 5.618-5.686 3.11-.007 5.637 2.528 5.643 5.663M109.225 63.224l-58.255.12c-2.536.006-4.588 2.083-4.582 4.64l.11 53.698c.005 2.553 2.06 4.62 4.592 4.62h.01l202.934-.122c2.536-.005 4.588-2.082 4.583-4.638l-.11-53.699c-.006-2.553-2.06-4.62-4.592-4.62h-144.69z"/>
        </g>
        <g>
            <path fill="#FFB9A3" d="M290.985 133.935l-1.395 2.48 3.018 1.427.483-2.914z"/>
            <path fill="#FFB9A3" d="M293.282 125.744c-7.156 2.689-4.678 10.244-.374 9.598 2.095-.315 3.496-6.956 3.496-6.956l-3.122-2.642z"/>
            <path fill="#0C2340" d="M295.661 124.812c-.207-.442-.401-.91-.764-1.236-.363-.325-.959-.454-1.332-.14-.493.414-.261 1.25.193 1.708-.413.028-.885-.281-1.203-.014-.24.202-.18.586-.064.878a3.918 3.918 0 0 0 1.347 1.724c-.365.184-.797.553-.603.914.055.1.15.172.203.272.123.234-.023.515-.171.735-.24.353-.497.696-.769 1.025.258-.319.837-.152.993.227.158.379-.02.827-.308 1.117-.16.162-.36.293-.583.332-.195.035-1.18 2.62-.546 3.17.784.68 3.593.273 4.033-.425.38.458.95.82 1.54.735.587-.085 1.069-.782.782-1.304a1.68 1.68 0 0 0 1.849-.393c.456-.495.56-1.284.249-1.88.349-.086.442-.548.372-.901a2.12 2.12 0 0 0-1.37-1.568c.355.024.655-.319.69-.673.036-.354-.13-.699-.34-.986-.614-.847-1.38-1.106-2.344-1.28-.975-.175-1.463-1.205-1.854-2.037"/>
            <path fill="#484848" d="M286.317 199.815s-4.728 1.386-4.779 2.343c-.05.957 8.036.786 8.686.437.65-.348-1.155-2.642-1.155-2.642l-2.752-.138zM300.513 198.176s-4.455 2.345-4.192 3.285c.263.94 8.559-.82 8.588-1.376.029-.557-1.675-2.345-1.675-2.345l-2.721.436z"/>
            <path fill="#78479F" d="M289.289 160.834c-.196.827-5.131 23.636 10.207 37.785 3.122-.323 4.69-.599 4.701-.825.018-.34-5.013-5.478-7.207-14.66-1.394-8.41.002-9.532 1.697-14.224 1.876-5.194.887-9.088.887-9.088l-10.285 1.012z"/>
            <path fill="#9E63CD" d="M283.46 161.268c-2.861 5.963-5.323 27.025 2.573 39.43 2.314-.18 3.474-.33 3.48-.451.01-.18-1.288-4.1-2.21-13.487.458-8.86 2.58-13.099 4.452-16.159 1.871-3.06 5.757-9.507 5.757-9.507l-14.052.174z"/>
            <path fill="#BF951B" d="M274.377 152.723c5.156-.455 15.8-3.423 16.702-11.42l-2.788-4.05s-2.923 10.633-14.138 12.967l.224 2.503z"/>
            <path fill="#FBC72F" d="M273.699 123.217s-.96 10.772 14.905 12.772c12.11 1.526 11.867 24.466 11.867 24.466-4.059 2.442-10.68 2.9-19.077 1.851 0 0 1.395-16.302.29-20.842 0 0-11.417-2.832-11.29-18.012l3.305-.235z"/>
            <path fill="#FFB9A3" d="M270.704 123.455l2.613-.217s-.156-.446-.267-.635a30.148 30.148 0 0 1-.628-1.26c-1.153-1.92-2.027-2.812-2.623-2.68-.894.2-.316 3.396.905 4.792zM274.34 152.028c-.208.507-1.388 1.6-1.35 1.681l-.107-3.04s-1.438-.635-1.503-1.234c-.065-.6 1.101.415 1.512.159.41-.257 1.33.727 1.33.727l.118 1.707z"/>
        </g>
        <g>
            <path fill="#BF951B" d="M12.178 143.95c6.276 1.768 10.13.047 14.004-2.233 4.28-2.52 6.104-10.216 6.104-10.216l-1.896-2.396s-2.878 7.778-6.533 8.921c-3.655 1.144-6.653 1.278-6.653 1.278l-5.026 4.646z"/>
            <path fill="#FFB9A3" d="M32.17 131.372v-2.447s1.093-1.283.882-1.867c-.21-.583-.915.723-1.403.895-.489.173-1.11 1.389-1.11 1.389l1.632 2.03z"/>
            <path fill="#484848" d="M28.665 202.954s4.088 1.102 4.7 2.366c.613 1.264-7.095.39-7.448-.014-.235-.27-.234-1.056.005-2.358l2.743.006zM11.729 202.948s-.396 1.859 0 2.467c.396.608 7.207.923 7.494 0 .287-.923-3.605-1.952-4.623-2.461l-2.871-.006z"/>
            <path fill="#78479F" d="M11.485 203.117l3.47.005c-.07-4.071.774-17.949 1.588-28.323.479-6.085.952-10.973 1.23-11.963l-1.86-.408-7.014-1.553c-1.2 5.464 1.57 30.55 2.586 42.242"/>
            <path fill="#9E63CD" d="M24.353 162.548c2.705 4.248 3.406 34.934 4.538 40.622l-3.29.185s-3.78-19.347-11.829-41.096l10.58.29z"/>
            <path fill="#FFB9A3" d="M22.452 128.499s2.107 7.996-3.156 7.986l.313 2.043-3.997.436.864-2.848s-.79-5.028-.843-5.935c-.099-1.696 4.67-4.684 6.82-1.682M37.07 156.135c1.442-.344 6.024-.648 6.185-1.76.227-1.572-3.554-2.069-4.456-1.427a44.603 44.603 0 0 0-2.058 1.595l.33 1.592z"/>
            <path fill="#FBC72F" d="M26.212 145.455c2.257 5.93 5.942 8.78 11.056 8.554l.537 2.522s-12.476 3.598-15.878-8.051c.68 3.848.011 6.777 4.285 14.403-6.728 1.82-13.006 2.267-18.382-.036.942-1.263-1.929-14.025 3.692-23.212 1.097-1.793 7.002-1.492 7.578-1.455 5.095.517 5.97 4.274 7.112 7.275z"/>
            <path fill="#412F2F" d="M20.261 130.087c-.513.13-1.11.228-1.384.662-.179.283-.166.633-.149.961-.094-.343-.476-.591-.845-.549-.37.043-.679.37-.686.725-.002.167.053.33.115.486.153.387.35.76.585 1.109-.643.236-1.181 2.108-1.503 2.69-1.081-.269-3.485-1.194-3.695-5.008-.098-1.777.446-3.903 2.38-5.087 1.367-.835 3.634-.847 5.198-.449 1.269.324 3.292 1.585 2.349 3.06-.476.745-1.518 1.184-2.365 1.4"/>
            <path fill="#412F2F" d="M19.017 125.303c-.314-.689-5.738-1.188-8.288 2.998-.327.537-2.298 1.17-3.341 1.973-1.043.802-1.175 1.703-2.28 2.044-4.385 1.355-7.16 9.705 1.568 10.447 10.922.93 14.023-1.239 12.46-5.623-1.114-3.128-.119-5.347-.119-5.347v-6.492z"/>
            <path fill="#412F2F" d="M15.36 133.069c.555.017.978.268 1.27.753.436.727.586-.6.444-1.325-.533-1.726.606-1.926.606-1.926s5.093 1.231 6.22-1.866c.889-2.445-3.281-4.093-6.74-3.29l-3.13 3.937 1.33 3.717z"/>
            <path fill="#FFB9A3" d="M19.506 133.098a1.289 1.289 0 0 1-1.43 1.135 1.297 1.297 0 0 1-1.121-1.447 1.289 1.289 0 0 1 1.43-1.135 1.297 1.297 0 0 1 1.121 1.447"/>
        </g>
    </g>
</svg>
