<svg xmlns="http://www.w3.org/2000/svg" xmlns:xlink="http://www.w3.org/1999/xlink" width="300" height="224" viewBox="0 0 300 224">
    <defs>
        <path id="a" d="M0 .135h295.176V202.39H0z"/>
        <path id="d" d="M147.543 70.656l93.021.03c1.13 0 2.044.914 2.045 2.043l.05 51.863a2.045 2.045 0 0 1-2.043 2.047h-.003l-93.021-.03a2.045 2.045 0 0 1-2.045-2.043l-.05-51.863a2.045 2.045 0 0 1 2.046-2.047z"/>
        <filter id="c" width="104.1%" height="107.2%" x="-2.1%" y="-1.8%" filterUnits="objectBoundingBox">
            <feOffset dy="1" in="SourceAlpha" result="shadowOffsetOuter1"/>
            <feGaussianBlur in="shadowOffsetOuter1" result="shadowBlurOuter1" stdDeviation=".5"/>
            <feColorMatrix in="shadowBlurOuter1" values="0 0 0 0 0 0 0 0 0 0 0 0 0 0 0 0 0 0 0.103940217 0"/>
        </filter>
    </defs>
    <g fill="none" fill-rule="evenodd">
        <path fill="#74AAD7" d="M292.969 204.476l-281.205.585c-3.752.009-6.8-3.054-6.808-6.84l-.384-187.96c-.008-3.785 3.027-6.86 6.779-6.868l281.205-.586c3.75-.007 6.8 3.054 6.807 6.84l.384 187.961c.009 3.784-3.027 6.86-6.778 6.868"/>
        <g transform="translate(0 .023)">
            <mask id="b" fill="#fff">
                <use xlink:href="#a"/>
            </mask>
            <path fill="#9CD2FE" d="M288.396 201.804l-281.205.586c-3.75.007-6.799-3.055-6.806-6.84L0 7.587C-.008 3.803 3.027.728 6.78.72L287.983.135c3.751-.007 6.8 3.055 6.807 6.84l.385 187.96c.007 3.786-3.027 6.86-6.78 6.869" mask="url(#b)"/>
        </g>
        <g fill="#F0F0F5">
            <path d="M50.25 151.087a3.755 3.755 0 0 1-3.75 3.759 3.755 3.755 0 0 1-3.75-3.759 3.755 3.755 0 0 1 3.75-3.758c2.07 0 3.75 1.683 3.75 3.758zM71.874 159.411L81 168.376H38.25l4.329-3.842 6.658-6.403 3.329 3.201 10.652-10.245z"/>
        </g>
        <g fill="#F0F0F5">
            <path d="M138.75 151.087a3.755 3.755 0 0 1-3.75 3.759 3.755 3.755 0 0 1-3.75-3.759 3.755 3.755 0 0 1 3.75-3.758c2.07 0 3.75 1.683 3.75 3.758zM160.374 159.411l9.126 8.965h-42.75l4.329-3.842 6.658-6.403 3.329 3.201 10.652-10.245z"/>
        </g>
        <path fill="#FFF" d="M288.067.16h-.015L6.848.745C3.097.753.06 3.83.068 7.614l.385 187.96c.008 3.78 3.047 6.84 6.793 6.84h.014l281.205-.586c3.751-.007 6.787-3.081 6.78-6.867L294.86 7c-.008-3.781-3.048-6.84-6.793-6.84m0 1.885c2.709 0 4.918 2.225 4.924 4.959l.384 187.96a4.956 4.956 0 0 1-1.435 3.516 4.875 4.875 0 0 1-3.479 1.462l-281.215.586c-2.71 0-4.919-2.224-4.924-4.958L1.938 7.61a4.96 4.96 0 0 1 1.434-3.516 4.873 4.873 0 0 1 3.48-1.463l281.2-.586h.016"/>
        <path fill="#FFF" d="M287.526.16L7.524.745C3.44.752.137 4.1.145 8.22l.014 6.488 294.79-.614-.012-6.488c-.009-4.12-3.327-7.454-7.41-7.445"/>
        <path fill="#F0F0F5" d="M274.795 144.846l-77.078.202c-1.497.004-2.713-1.53-2.716-3.426l-.001-.425c-.003-1.895 1.208-3.435 2.705-3.44l77.077-.2c1.498-.005 2.714 1.53 2.717 3.424l.001.426c.003 1.895-1.208 3.435-2.705 3.44"/>
        <path fill="#FFF" d="M38.273 30.11a3.624 3.624 0 0 1 3.622-3.647l232.154-.154a3.666 3.666 0 0 1 3.669 3.642 3.624 3.624 0 0 1-3.622 3.648l-232.155.153a3.666 3.666 0 0 1-3.668-3.642z"/>
        <path fill="#F0F0F5" d="M274.794 159.88l-77.077.202c-1.497.004-2.713-1.53-2.716-3.425l-.001-.426c-.003-1.896 1.208-3.436 2.705-3.44l77.077-.2c1.498-.004 2.714 1.53 2.717 3.424l.001.427c.003 1.894-1.208 3.435-2.706 3.439M274.794 174.913l-77.077.202c-1.497.004-2.714-1.53-2.716-3.425l-.001-.425c-.004-1.896 1.208-3.436 2.705-3.44l77.077-.2c1.497-.005 2.714 1.529 2.717 3.424l.001.426c.003 1.895-1.208 3.434-2.706 3.438"/>
        <path stroke="#F0F0F5" stroke-dasharray="6" stroke-linecap="round" stroke-linejoin="round" stroke-width="1.5" d="M96.248 184.709l-73.913.204c-2.353.006-4.266-2.543-4.27-5.693L18 136.714c-.005-3.152 1.898-5.711 4.252-5.718l73.913-.204c2.353-.006 4.265 2.542 4.27 5.694l.065 42.506c.005 3.15-1.899 5.71-4.252 5.717M184.748 184.709l-73.913.204c-2.353.006-4.266-2.543-4.27-5.693l-.065-42.506c-.005-3.152 1.898-5.711 4.252-5.718l73.913-.204c2.353-.006 4.265 2.542 4.27 5.694l.065 42.506c.005 3.15-1.899 5.71-4.252 5.717"/>
        <path fill="#F0F0F5" d="M16.315 7.577a2.392 2.392 0 0 1-2.378 2.408 2.392 2.392 0 0 1-2.387-2.398 2.393 2.393 0 0 1 2.377-2.409 2.393 2.393 0 0 1 2.388 2.399M26.4 7.556a2.393 2.393 0 0 1-2.378 2.409 2.393 2.393 0 0 1-2.387-2.4 2.393 2.393 0 0 1 2.378-2.408 2.393 2.393 0 0 1 2.387 2.4M36.485 7.535a2.393 2.393 0 0 1-2.377 2.408 2.393 2.393 0 0 1-2.387-2.399 2.393 2.393 0 0 1 2.378-2.408 2.393 2.393 0 0 1 2.386 2.399" opacity=".8"/>
        <path fill="#FFF" d="M31.777 30.237c.007 3.84-3.07 6.957-6.874 6.965-3.805.009-6.896-3.098-6.903-6.936-.008-3.839 3.07-6.956 6.874-6.964 3.805-.008 6.895 3.097 6.903 6.935"/>
        <path fill="#F0F0F5" fill-opacity=".4" stroke="#F0F0F5" stroke-dasharray="6" stroke-linecap="round" stroke-linejoin="round" stroke-width="1.5" d="M94.874 44.349l-71.267.148c-3.103.007-5.614 2.55-5.607 5.68l.135 65.759c.006 3.127 2.52 5.657 5.617 5.657h.012l248.268-.148c3.103-.007 5.613-2.55 5.606-5.68l-.134-65.76c-.007-3.126-2.52-5.656-5.618-5.656H94.874z"/>
        <g>
            <use fill="#000" filter="url(#c)" xlink:href="#d"/>
            <use fill="#FFF" xlink:href="#d"/>
        </g>
        <path fill="#FFB9A3" d="M148.4 139.277l1.547 3.122-3.78 1.551-.403-3.594z"/>
        <path fill="#FFB9A3" d="M146.119 129.112c8.571 3.747 5.06 12.828-.158 11.761-2.54-.519-3.825-8.73-3.825-8.73l3.983-3.03z"/>
        <path fill="#0C2340" d="M143.272 127.82c.282-.527.549-1.088 1.013-1.463.464-.374 1.2-.493 1.636-.086.576.538.24 1.546-.345 2.077.503.06 1.1-.287 1.47.06.28.262.184.728.022 1.078a4.797 4.797 0 0 1-1.756 2.022c.435.248.94.727.678 1.156-.072.118-.193.2-.264.32-.167.278-.006.631.161.909.27.448.562.883.874 1.303-.294-.406-1.013-.24-1.228.214-.216.453-.028 1.012.305 1.386.185.208.421.381.692.444.236.055 1.273 3.28.463 3.911-1 .78-4.407.103-4.9-.779-.492.537-1.214.943-1.927.8-.713-.141-1.257-1.024-.873-1.644a2.055 2.055 0 0 1-2.234-.6 2.075 2.075 0 0 1-.184-2.315c-.42-.127-.505-.698-.397-1.125a2.594 2.594 0 0 1 1.774-1.83c-.435.007-.78-.431-.8-.867-.02-.435.205-.846.479-1.184.805-.997 1.757-1.263 2.946-1.414 1.202-.152 1.864-1.381 2.395-2.373"/>
        <path fill="#484848" d="M149.886 220.14s5.688 1.999 5.688 3.172c0 1.174-9.867.446-10.64-.022-.772-.468 1.58-3.157 1.58-3.157l3.372.007zM132.648 217.226s5.292 3.153 4.91 4.286c-.382 1.133-10.403-1.551-10.403-2.233 0-.683 2.196-2.76 2.196-2.76l3.297.707z"/>
        <path fill="#78479F" d="M148.751 172.28c.186 1.024 4.755 29.233-14.89 45.553-3.793-.596-5.69-1.032-5.69-1.31 0-.418 6.475-6.378 9.744-17.465 2.242-10.197.607-11.657-1.163-17.505-1.96-6.471-.502-11.17-.502-11.17l12.501 1.897z"/>
        <path fill="#9E63CD" d="M155.844 173.184c3.114 7.475 4.773 33.39-5.668 48.054-2.815-.368-4.223-.627-4.223-.774 0-.222 1.837-4.93 3.564-16.352.008-10.864-2.314-16.184-4.405-20.046-2.09-3.863-6.424-11.995-6.424-11.995l17.156 1.113z"/>
        <path fill="#BF951B" d="M159.95 126.845c1.546 5.474 2.055 15.587-5.689 19.661l-5.183-1.268s9.343-4.92 7.342-17.354l3.53-1.039z"/>
        <path fill="#FBC72F" d="M170.206 127.277s.483 13.234-19.028 14.663c-14.893 1.09-16.064 29.16-16.064 29.16 4.802 3.247 12.861 4.23 23.187 3.486 0 0-.66-20.025.98-25.507 0 0 14.13-2.731 14.947-21.303l-4.022-.5z"/>
        <path fill="#FFB9A3" d="M174.228 128.042l-3.53-.437s.192-.814.34-1.038a.452.452 0 0 1 .395-.224c1.535.091 2.583-.056 3.144-.44.841-.58 3.89-1.733 4.57-.94.681.792-2.161 1.797-4.919 3.08zM159.95 126.845c.611-.277.69-.502.69-.502h-3.717s-.836-1.736-1.57-1.79c-.736-.054.553 1.332.258 1.847-.296.513.809 1.484.809 1.484l3.53-1.039z"/>
        <g>
            <path fill="#BF951B" d="M242.669 145.617c-6.86 1.934-16.078-.855-18.283-6.134-2.489-5.963-.57-11.708-.57-11.708l2.723.294s-.345 8.483 2.013 10.262c2.952 2.226 8.624 2.207 8.624 2.207l5.493 5.08z"/>
            <path fill="#FFB9A3" d="M223.742 128.018c-.472-.319-.745-.779-.82-1.379h2.991s.24-1.843.884-2.054c.644-.21.036 1.037.216 1.574.18.538-.492 1.933-.492 1.933l-2.779-.074z"/>
            <path fill="#484848" d="M225.02 211.382s-4.468 1.205-5.137 2.587c-.67 1.382 7.755.427 8.14-.016.257-.294.255-1.154-.006-2.578l-2.997.007zM243.53 211.375s.432 2.033 0 2.698c-.434.665-7.877 1.009-8.19 0-.315-1.01 3.939-2.135 5.052-2.691l3.137-.007z"/>
            <path fill="#78479F" d="M243.795 211.56l-3.792.006c.076-4.452-.845-19.625-1.735-30.968-.524-6.653-1.041-11.998-1.344-13.08l2.032-.446 7.666-1.698c1.312 5.974-1.717 33.402-2.827 46.186"/>
            <path fill="#9E63CD" d="M229.733 167.204c-2.958 4.643-3.723 38.195-4.96 44.414l3.596.203s4.13-21.154 12.927-44.934l-11.563.317z"/>
            <path fill="#FFB9A3" d="M231.81 129.974s-2.303 8.744 3.448 8.732l-.341 2.235 4.368.476-.944-3.114s.863-5.497.921-6.49c.108-1.853-5.103-5.12-7.452-1.839M213.995 129.516c-.046-1.619-1.128-6.26 0-6.744 1.595-.683 3.193 3.17 2.772 4.303-.421 1.132-.907 2.923-.907 2.923l-1.865-.482z"/>
            <path fill="#FBC72F" d="M224.144 142.15c-5.567-1.024-7.904-9.797-7.2-13.577l-3.402.006s-4.466 20.33 14.756 19.576c-.744 4.207 4.073 11.076-.597 19.414 7.353 1.99 14.214 2.48 20.089-.04-1.03-1.38 2.108-15.334-4.035-25.379-1.199-1.96-7.652-1.631-8.282-1.59-8.6.568-7.508 2.293-11.329 1.59z"/>
            <path fill="#412F2F" d="M234.204 131.71c.56.143 1.213.25 1.513.725.195.309.182.692.162 1.05.103-.375.52-.646.924-.6.404.047.742.405.75.793.003.182-.058.36-.125.53a6.374 6.374 0 0 1-.64 1.214c.703.258 1.29 2.305 1.642 2.942 1.182-.295 3.81-1.307 4.039-5.477.107-1.942-.487-4.268-2.602-5.562-1.493-.913-3.97-.925-5.68-.49-1.387.353-3.598 1.732-2.567 3.345.52.814 1.658 1.295 2.584 1.53"/>
            <path fill="#412F2F" d="M241.774 129.203c.8-.265 1.816-.124 2.296.542.376.52.342 1.202.464 1.823.058.299.164.605.397.811.279.247.683.306 1.062.326.926.05 1.863-.067 2.775.087.913.155 1.847.668 2.107 1.518.143.47.065.987.237 1.449.26.691.999 1.085 1.643 1.487 1.37.855 2.534 2.01 3.377 3.35.535.85.945 1.792 1.01 2.78.065.988.78 2.293.59 3.266-.206 1.05-1.241 2.469-3.288 3.125-3.535 1.134-4.655 1.625-8.042-.381-.408-.242-1.207-1.066-1.576-1.36-.29-.23-.473-.565-.574-.913-.283-.969.044-2.012.551-2.893.508-.882 1.192-1.661 1.709-2.537.31-.527.564-1.112.534-1.716-.01-.226-.068-.462-.233-.624-.142-.141-.347-.207-.547-.247-.744-.144-1.562.009-2.237-.324-.655-.324-1.014-1.113-.815-1.792.132-.454.477-.835.575-1.297.141-.663-.276-1.346-.856-1.735-.58-.388-1.295-.54-1.994-.654-.344-.056-.704-.112-.984-.312-.345-.247-.504-.679-.5-1.091.016-1.303 1.082-2.277 2.319-2.688"/>
        </g>
        <g fill="#F0F0F5">
            <path d="M182.25 89.826a4.882 4.882 0 0 1-4.875 4.885 4.882 4.882 0 0 1-4.875-4.885 4.882 4.882 0 0 1 4.875-4.886 4.882 4.882 0 0 1 4.875 4.886zM209.562 100.307L221.25 112H166.5l5.544-5.011 8.527-8.352 4.263 4.176 13.643-13.363z"/>
        </g>
    </g>
</svg>
