<?xml version="1.0" encoding="UTF-8"?>
<svg width="24px" height="24px" viewBox="0 0 24 24" version="1.1" xmlns="http://www.w3.org/2000/svg" xmlns:xlink="http://www.w3.org/1999/xlink">
    <!-- Generator: Sketch 55.2 (78181) - https://sketchapp.com -->
    <title>Icon / 24px / search-regular</title>
    <desc>Created with Sketch.</desc>
    <g id="Icon-/-24px-/-search-regular" stroke="none" stroke-width="1" fill="none" fill-rule="evenodd">
        <path d="M21.8245615,20.2807018 L17.091618,15.5477583 C17.0019493,15.4580897 16.8849903,15.4113061 16.7602339,15.4113061 L16.2456141,15.4113061 C17.4736842,13.9883041 18.2183236,12.1364522 18.2183236,10.1091618 C18.2183236,5.6296296 14.588694,1.99999995 10.1091618,1.99999995 C5.6296296,1.99999995 1.99999995,5.6296296 1.99999995,10.1091618 C1.99999995,14.588694 5.6296296,18.2183236 10.1091618,18.2183236 C12.1364522,18.2183236 13.9883041,17.4736842 15.4113061,16.2456141 L15.4113061,16.7602339 C15.4113061,16.8849903 15.4619883,17.0019493 15.5477583,17.091618 L20.2807018,21.8245615 C20.4639377,22.0077973 20.760234,22.0077973 20.9434698,21.8245615 L21.8245615,20.9434698 C22.0077973,20.760234 22.0077973,20.4639377 21.8245615,20.2807018 Z M10.1091618,16.3469786 C6.662768,16.3469786 3.87134499,13.5555556 3.87134499,10.1091618 C3.87134499,6.662768 6.662768,3.87134499 10.1091618,3.87134499 C13.5555556,3.87134499 16.3469786,6.662768 16.3469786,10.1091618 C16.3469786,13.5555556 13.5555556,16.3469786 10.1091618,16.3469786 Z" id="search-regular" fill="#545454"></path>
    </g>
</svg>
