<?xml version="1.0" encoding="UTF-8"?>
<svg width="24px" height="24px" viewBox="0 0 24 24" version="1.1" xmlns="http://www.w3.org/2000/svg" xmlns:xlink="http://www.w3.org/1999/xlink">
    <!-- Generator: Sketch 55.2 (78181) - https://sketchapp.com -->
    <title>Icon / 24px / sign-out-regular</title>
    <desc>Created with Sketch.</desc>
    <g id="Icon-/-24px-/-sign-out-regular" stroke="none" stroke-width="1" fill-rule="evenodd">
        <path d="M5.74269003,4.51461985 L9.01754384,4.51461985 C9.27485379,4.51461985 9.4853801,4.72514616 9.4853801,4.98245611 L9.4853801,5.91812862 C9.4853801,6.17543857 9.27485379,6.38596488 9.01754384,6.38596488 L5.74269003,6.38596488 C4.70955162,6.38596488 3.87134499,7.22417152 3.87134499,8.25730992 L3.87134499,15.7426901 C3.87134499,16.7758285 4.70955162,17.6140351 5.74269003,17.6140351 L9.01754384,17.6140351 C9.27485379,17.6140351 9.4853801,17.8245614 9.4853801,18.0818714 L9.4853801,19.0175439 C9.4853801,19.2748538 9.27485379,19.4853802 9.01754384,19.4853802 L5.74269003,19.4853802 C3.67641321,19.4853802 1.99999995,17.8089669 1.99999995,15.7426901 L1.99999995,8.25730992 C1.99999995,6.19103311 3.67641321,4.51461985 5.74269003,4.51461985 Z M14.7524367,5.27485377 L13.9883041,6.03898632 C13.8011696,6.22612083 13.8050682,6.52631576 13.9961014,6.70565299 L18.4054581,10.9863548 L8.705653,10.9863548 C8.44834306,10.9863548 8.23781675,11.1968811 8.23781675,11.454191 L8.23781675,12.545809 C8.23781675,12.8031189 8.44834306,13.0136452 8.705653,13.0136452 L18.4054581,13.0136452 L13.9961014,17.2904484 C13.8089669,17.4736842 13.8050682,17.7738792 13.9883041,17.957115 L14.7524367,18.7212476 C14.9356725,18.9044835 15.2319688,18.9044835 15.4152047,18.7212476 L21.8245615,12.3274854 C22.0077973,12.1442495 22.0077973,11.8479532 21.8245615,11.6647173 L15.4152047,5.27095513 C15.2319688,5.0916179 14.9356725,5.0916179 14.7524367,5.27485377 Z" id="sign-out-regular"></path>
    </g>
</svg>