<?xml version="1.0" encoding="UTF-8"?>
<svg width="32px" height="32px" viewBox="0 0 20 20" version="1.1" xmlns="http://www.w3.org/2000/svg" xmlns:xlink="http://www.w3.org/1999/xlink">
    <!-- Generator: Sketch 57.1 (83088) - https://sketch.com -->
    <title>exclamation-circle-regular</title>
    <desc>Created with Sketch.</desc>
    <g id="Desktop" stroke="none" stroke-width="1" fill="none" fill-rule="evenodd">
        <g id="Home" transform="translate(-654.000000, -714.000000)" fill="#5C5C5C" fill-rule="nonzero">
            <g id="exclamation-circle-regular" transform="translate(654.000000, 714.000000)">
                <path d="M10,0 C4.4771371,0 0,4.4771371 0,10 C0,15.522863 4.4771371,20 10,20 C15.522863,20 20,15.522863 20,10 C20,4.4771371 15.522863,0 10,0 Z M10,1.93548387 C14.4569355,1.93548387 18.0645161,5.54237907 18.0645161,10 C18.0645161,14.4569355 14.4576209,18.0645161 10,18.0645161 C5.54306454,18.0645161 1.93548387,14.4576209 1.93548387,10 C1.93548387,5.54306454 5.54237907,1.93548387 10,1.93548387 L10,1.93548387 Z M15.6533871,7.18818549 L14.7446774,6.27213708 C14.556492,6.08241933 14.250121,6.08116939 14.0604032,6.2693952 L8.36072585,11.9232662 L5.94975809,9.49274197 C5.76157262,9.30302422 5.45520163,9.30177421 5.26548387,9.48995968 L4.34939517,10.3986694 C4.15967742,10.5868548 4.15842742,10.8932258 4.34665323,11.0829839 L8.00717744,14.7731452 C8.19536291,14.9628629 8.5017339,14.9641129 8.69145166,14.7758871 L15.6506855,7.87250005 C15.8403629,7.68427424 15.8415726,7.37790325 15.6533871,7.18818549 L15.6533871,7.18818549 Z" id="check-circle-regular"></path>
            </g>
        </g>
    </g>
</svg>