<?xml version="1.0" encoding="UTF-8"?>
<svg viewBox="0 0 24 24" version="1.1" xmlns="http://www.w3.org/2000/svg" xmlns:xlink="http://www.w3.org/1999/xlink">
    <!-- Generator: Sketch 55.2 (78181) - https://sketchapp.com -->
    <title>Icon / 24px / exclamation-triangle-regular</title>
    <desc>Created with Sketch.</desc>
    <g id="Icon-/-24px-/-exclamation-triangle-regular" stroke="none" stroke-width="1" fill-rule="evenodd">
        <path d="M10.6370486,10.2189236 L10.8657986,14.1078125 C10.87875,14.3280556 11.0611458,14.5 11.2817361,14.5 L12.7181944,14.5 C12.9388014,14.5 13.1211713,14.3280384 13.134132,14.1078125 L13.362882,10.2189236 C13.3769445,9.97958332 13.1866667,9.77777777 12.9469444,9.77777777 L11.0529514,9.77777777 C10.8132639,9.77777777 10.6229861,9.97958332 10.6370486,10.2189236 L10.6370486,10.2189236 Z M13.4583333,16.4444445 C13.4583333,17.2498611 12.8054167,17.9027778 12,17.9027778 C11.1945833,17.9027778 10.5416667,17.2498611 10.5416667,16.4444445 C10.5416667,15.6390278 11.1945833,14.9861111 12,14.9861111 C12.8054167,14.9861111 13.4583333,15.6390278 13.4583333,16.4444445 Z M13.4436458,3.94392357 C12.8036111,2.83451384 11.1975694,2.83249995 10.5563542,3.94392357 L2.22489578,18.3893403 C1.585243,19.498125 2.38604162,20.8888889 3.66854163,20.8888889 L20.33125,20.8888889 C21.6112848,20.8888889 22.4157987,19.5002431 21.7748959,18.3893403 L13.4436458,3.94392357 Z M3.84690968,18.9097917 L11.8195486,5.09055552 C11.8997222,4.95159719 12.1002778,4.95159719 12.1804514,5.09055552 L20.1530903,18.909757 C20.2332292,19.0486459 20.1329862,19.2221875 19.9726389,19.2221875 L4.02736107,19.2221875 C3.86704857,19.2221875 3.76680551,19.0486806 3.84690968,18.9097917 L3.84690968,18.9097917 Z" id="exclamation-triangle-regular"></path>
    </g>
</svg>