<?xml version="1.0" encoding="UTF-8"?>
<svg viewBox="0 0 24 24" version="1.1" xmlns="http://www.w3.org/2000/svg" xmlns:xlink="http://www.w3.org/1999/xlink">
    <g id="Icon-/-24px-/-mail-bulk-regular" stroke="none" stroke-width="1" fill="none" fill-rule="evenodd">
        <path d="M20.125,5 L3.875,5 C2.83945312,5 2,5.83945312 2,6.875 L2,18.125 C2,19.1605469 2.83945312,20 3.875,20 L20.125,20 C21.1605469,20 22,19.1605469 22,18.125 L22,6.875 C22,5.83945312 21.1605469,5 20.125,5 Z M20.125,6.875 L20.125,8.46894531 C19.2491406,9.1821875 17.8528125,10.29125 14.8676953,12.6287109 C14.2098437,13.1461719 12.9067187,14.3893359 12,14.3748438 C11.0934375,14.3894922 9.78988281,13.1459766 9.13230469,12.6287109 C6.14765625,10.2916016 4.75097656,9.18230469 3.875,8.46894531 L3.875,6.875 L20.125,6.875 Z M3.875,18.125 L3.875,10.8749219 C4.77007812,11.5878516 6.03941406,12.5882812 7.97414062,14.1032812 C8.82792969,14.7753516 10.323125,16.2589844 12,16.2499609 C13.6686328,16.2589844 15.1448828,14.796875 16.0255078,14.1035937 C17.9601953,12.5886328 19.2298828,11.5879297 20.125,10.8749219 L20.125,18.125 L3.875,18.125 Z" id="envelope-regular" fill="#5C5C5C"></path>
    </g>
</svg>