<svg xmlns="http://www.w3.org/2000/svg" viewBox="0 0 24 24"><defs/><path fill-rule="evenodd" d="M8.375 11.004A.473.473 0 007.711 11l-.887.879a.473.473 0 00-.004.664l3.547 3.574c.184.184.48.184.664.004l6.742-6.687a.473.473 0 00.004-.664l-.879-.887a.473.473 0 00-.664-.004l-5.523 5.476-2.336-2.351zM20.223 5.27l-7.5-3.125a1.88 1.88 0 00-1.442 0l-7.5 3.125c-.699.289-1.156.972-1.156 1.73 0 7.754 4.473 13.113 8.652 14.855.461.192.98.192 1.442 0 3.347-1.394 8.656-6.21 8.656-14.855 0-.758-.457-1.441-1.152-1.73zM12 20.125C8.191 18.539 4.5 13.613 4.5 7L12 3.875 19.5 7c0 6.79-3.844 11.602-7.5 13.125z"/></svg>
