<svg xmlns="http://www.w3.org/2000/svg" xmlns:xlink="http://www.w3.org/1999/xlink" viewBox="0 0 715.35 469.05"><defs><style>.cls-1,.cls-14,.cls-15,.cls-7,.cls-8{fill:none;}.cls-1,.cls-14,.cls-9{stroke:#36434c;}.cls-1,.cls-14,.cls-15,.cls-3,.cls-4,.cls-5,.cls-6,.cls-7,.cls-8,.cls-9{stroke-miterlimit:10;}.cls-1{stroke-width:2px;}.cls-2{fill:#fcb21f;}.cls-3,.cls-4,.cls-5,.cls-6{stroke:#fff;stroke-width:0.24px;}.cls-3,.cls-4{opacity:0.11;}.cls-3{fill:url(#linear-gradient);}.cls-4{fill:url(#linear-gradient-2);}.cls-5,.cls-6{opacity:0.38;}.cls-5{fill:url(#linear-gradient-3);}.cls-6{fill:url(#linear-gradient-4);}.cls-15,.cls-7,.cls-8{stroke:#004c75;}.cls-15,.cls-7,.cls-8,.cls-9{stroke-width:1.47px;}.cls-8{stroke-dasharray:8.91 8.91;}.cls-12,.cls-9{fill:#fff;}.cls-10{fill:#67cce6;}.cls-11{fill:#4687c7;}.cls-13,.cls-16{fill:#004c75;}.cls-14{stroke-width:2.21px;}.cls-15{stroke-dasharray:8.82;}.cls-16{opacity:0.15;}</style><linearGradient id="linear-gradient" x1="86.24" y1="297.31" x2="300.37" y2="297.31" gradientTransform="matrix(1, -0.04, 0.04, 1, -96.57, 81.44)" gradientUnits="userSpaceOnUse"><stop offset="0" stop-color="#fff"/><stop offset="1" stop-color="#50c8ec"/></linearGradient><linearGradient id="linear-gradient-2" x1="-633.19" y1="1237.43" x2="-419.06" y2="1237.43" gradientTransform="translate(1146.12 -589.87) rotate(24.02)" xlink:href="#linear-gradient"/><linearGradient id="linear-gradient-3" x1="191.74" y1="227.95" x2="680.27" y2="227.95" gradientTransform="matrix(1, 0, 0, 1, 0, 0)" xlink:href="#linear-gradient"/><linearGradient id="linear-gradient-4" x1="226.7" y1="262.91" x2="715.23" y2="262.91" gradientTransform="matrix(1, 0, 0, 1, 0, 0)" xlink:href="#linear-gradient"/></defs><title>Send-Mmail</title><g id="Layer_2" data-name="Layer 2"><g id="Layer_1-2" data-name="Layer 1"><path class="cls-1" d="M245.89,25.8c-.83-2.13,2.74,31.82,6.26,37"/><path class="cls-1" d="M218.15,49.38s5.09,39.42-19.24,63.33"/><path class="cls-2" d="M207.93,45.81c0-1.89-4.82-32.5,2.94-34.81s10.27,1.26,10.27,1.26,3.78,3.56,15.1-.42S246.73,7.22,248,6.59s11.32-5,15.51,0,1.05,22.65-5.24,23.7-31.88-1.05-32.5,5.45,1,11.33-3.15,14.48a12.4,12.4,0,0,0-5,7.54c-.21.84-5.9,9-11.13,2.52S207.93,45.81,207.93,45.81Z"/><path class="cls-2" d="M226.17,57.14s-2.72,17,12.17,18.87c0,0,14.68,2.1,16.57-11.53s-11.54-.63-12.59-.63-9.43,1.26-10.69-5.67S226.17,57.14,226.17,57.14Z"/><path class="cls-1" d="M238.34,76s-2.52,19.92,30.2,33.76"/><path class="cls-3" d="M3.86,407.4c47.43-.95,213.7,2.21,213.7,2.21l-.45-11L0,331.49"/><path class="cls-4" d="M51.52,312.7C94.44,332.92,242,409.61,242,409.61l4.48-10L81.81,243"/><path class="cls-5" d="M249.33,189.24s-150,113,34.19,207.8,193-84.93,193-84.93S454.15,192,602.29,219.46,642,62.84,642,62.84,595.67-17.68,449,78.28,249.33,189.24,249.33,189.24Z"/><path class="cls-6" d="M284.29,224.2s-150,112.94,34.19,207.8,193-84.93,193-84.93S489.11,227,637.24,254.42,677,97.79,677,97.79s-46.32-80.52-193,15.44S284.29,224.2,284.29,224.2Z"/><path class="cls-7" d="M256.85,218.76s1.34-1,3.63-2.51"/><path class="cls-8" d="M268.29,212c15.12-7,41.06-11.6,51.43,31,15.06,61.77,59.18,54.41,59.18,54.41s40.44-6.6,44.86-72.79C427.3,171.48,459.58,118,472.2,98.88"/><path class="cls-7" d="M474.7,95.18c1.6-2.35,2.53-3.61,2.53-3.61"/><path class="cls-9" d="M211.66,384.2c-.36,3.3-5.72,20.64-5.72,20.64s12.86,15.76,21,18.34-8.31-21.29-8.31-21.29l3.87-15.74Z"/><path class="cls-9" d="M235.81,384.22c.28,3.31-1.64,21.35-1.64,21.35s15.65,13,24.12,14S246,400.24,246,400.24l.78-16.19Z"/><path class="cls-10" d="M232,395.06H248.7l31-69.86s7.47-30.15-9.78-111a653.79,653.79,0,0,1-83.7,0S210,284.75,227.62,314.9L207,395.06h14.71s35-58.83,28.53-121.34C250.27,273.72,275.42,260.49,232,395.06Z"/><path class="cls-11" d="M218.68,218.12s11.76,13.59,0,39.66l15.83,55.48-21,81.8H207l20.59-80.16s-34.31-55-37.61-89.72S218.68,218.12,218.68,218.12Z"/><path class="cls-9" d="M259.66,172.16s14.71,23,22.55,14.21,24-73.53,24-73.53,1-3.44,9.81-2.94,18.14,0,20.1-5.89l-22.55-2.94s-7.85-3.92-10.3,4.41l-20.1,47.07-3.43-20.1L264,144.27Z"/><path class="cls-12" d="M675.86,104.86C672.19,105.6,483.2,146,483.2,146c.93.63,27,14.35,56.74,30l9.44,57.56L592.8,203.7l34.53,18.09S679.54,104.13,675.86,104.86Z"/><polygon class="cls-10" points="660.42 109.28 544.97 167.74 549.38 233.55 561.15 176.93 660.42 109.28"/><polygon class="cls-13" points="558.13 227.54 569.97 183.55 592.8 203.7 558.13 227.54"/><polygon class="cls-14" points="569.97 183.55 592.8 203.7 627.33 221.79 669.25 97.51 483.2 146.04 538.6 171.05 549.38 233.55 569.97 183.55"/><path class="cls-13" d="M164.37,165.86l37.47,59.32h33.61l34.48-10.76-5.55-68.66,20.1-7.35s-5.4-42.66-40.2-52.46c0,0-13.73,16.67-30.89,0C213.39,86,164.37,92.81,164.37,165.86Z"/><path class="cls-9" d="M165.1,159.38V180s3.92,21.57,13.24,33.83l15.2,21.08h4.53a5.39,5.39,0,0,0,4.71-8l-16.6-29.73,2.94-37.75Z"/><path class="cls-11" d="M178.12,98.53l67.42,134.56s9.16,16.18,18.73,22.06,10.39,27.21,10.39,27.21,4.25,6.62,11.28,0,6.21-20.59,0-25.74-7.71-15.44-8.44-23.53-11,2.94-11,2.94L187.07,94.11Z"/><path class="cls-11" d="M231.3,395.06s31-78.68,19-121.34c0,0,18.38-7.35,2.82,59.32l-18.58,62Z"/><polygon class="cls-12" points="440.91 54.78 467.39 68.02 474.25 90.57 487.98 76.36 509.55 86.16 533.18 32.84 440.91 54.78"/><polygon class="cls-7" points="440.91 54.78 467.39 68.02 474.25 90.57 477.23 71.47 509.55 86.16 522.78 26.35 440.91 54.78"/><polygon class="cls-13" points="481.69 93.38 492.43 78.09 477.23 71.47 481.69 93.38"/><polygon class="cls-10" points="513.38 32.84 471.47 63.36 478.09 65.2 513.38 32.84"/><polygon class="cls-12" points="297.9 89.49 310.6 100.87 312.07 114.38 322.93 105.86 335.85 111.74 357.25 97.26 297.9 89.49"/><polygon class="cls-13" points="311.65 117.43 331.88 109.93 316.2 102.25 311.65 117.43"/><polygon class="cls-10" points="346.46 93.64 312.88 96.98 316.49 100.73 346.46 93.64"/><polygon class="cls-7" points="297.9 89.49 310.6 100.87 312.07 114.38 316.49 102.94 335.85 111.74 351.03 93.36 297.9 89.49"/><path class="cls-15" d="M357.25,97.26s70.92,2.79,26.06,116.9-54.32,174-26.06,189.63S406.11,390,406.11,390s18.38-31.62-15.45-52.21-89,46.22-89,46.22S254.76,450.34,351,466.52,519.35,384.2,519.35,384.2,572.06,288.84,566.79,228"/><polygon class="cls-16" points="606.25 0 575.46 61.71 653.59 44 606.25 0"/><polygon class="cls-16" points="453.8 306.76 477.65 345.85 489.14 315.42 453.8 306.76"/><polygon class="cls-16" points="340.5 54.12 351.25 76.28 361.55 55.9 340.5 54.12"/></g></g></svg>