<svg xmlns="http://www.w3.org/2000/svg" viewBox="0 0 595 517"><clipPath id="a"><path d="M495 206c-29 6-37 0-50-25-12-22-40-14-63-14-29-1-56-10-83-23-24-11-47-22-74-26-28-3-58 6-81 23-30 23-42 62-53 97-13 41-28 76-55 110-26 34-50 72-9 106 23 19 52 27 81 33 67 14 142 39 210 14 21-7 36-24 49-41 24-30 36-52 82-72 51-22 92-50 99-93a131 131 0 002-25c0-27-12-58-41-64a36 36 0 00-14 0" clip-rule="evenodd"/></clipPath><clipPath id="b"><path d="M5 5h585v506H5z"/></clipPath><clipPath id="c"><path d="M549 288l-1 7c-6 39-41 66-85 87l-14 6c-42 18-55 38-76 65l-6 7c-11 14-23 28-39 36a81 81 0 01-9 3 168 168 0 01-27 4 145 145 0 01-8-20c70-3 99-68 105-105 3-24-3-76 15-92s-9-36-3-59 70-17 47-27l3-5 2-1c10 14 19 16 42 12a36 36 0 0114 0c14 3 24 12 31 24 6 11 10 25 10 42v5l-1 6" clip-rule="evenodd"/></clipPath><clipPath id="d"><path d="M475 400c-6-1-13 2-18 4a132 132 0 00-18 7 134 134 0 00-31 23 131 131 0 00-15 17c-4 6-9 12-5 19 3 4 8 6 12 5 14-2 20-16 29-25a129 129 0 0131-25 126 126 0 0115-7c4-1 8-4 8-9 0-4-4-7-8-9" clip-rule="evenodd"/></clipPath><clipPath id="e"><path d="M567 211c-4 12-17 22-30 22H417c-12 0-20-10-16-22l22-76c3-12 17-22 29-22h120c13 0 21 10 17 22z" clip-rule="evenodd"/></clipPath><clipPath id="f"><path d="M346 80h-6c-7 0-9-4-5-9l49-63c4-5 9-4 11 2l19 59c2 6-1 11-8 11h-6l-21 97h-55z" clip-rule="evenodd"/></clipPath><clipPath id="g"><path d="M289 120h-2c-3 0-3-2-2-4l19-24c1-2 3-1 4 1l8 23a3 3 0 01-3 4h-3l-8 37h-21z" clip-rule="evenodd"/></clipPath><clipPath id="h"><path d="M565 88a11 11 0 01-10 7h-39c-4 0-7-3-6-7l8-25a11 11 0 019-7h39c4 0 7 3 6 7z" clip-rule="evenodd"/></clipPath><clipPath id="i"><path d="M508 53c-2 6-9 12-16 12h-47c-6 0-10-6-8-12l8-28c2-7 9-12 15-12h47c7 0 11 5 9 12z" clip-rule="evenodd"/></clipPath><clipPath id="j"><path d="M91 238c-13 41-28 76-55 110-16 21-31 43-31 65 0 14 6 28 22 41 22 19 52 27 81 33 67 14 142 39 210 14 21-7 36-24 49-41 24-30 36-52 82-72 50-22 92-50 99-93a130 130 0 002-25c0-26-12-58-41-63a36 36 0 00-14-1c-29 6-37 1-50-24-9-18-28-17-47-15h-16c-29-1-56-9-83-22-24-12-47-23-74-26a103 103 0 00-12-1 115 115 0 00-69 24c-31 23-42 61-53 96z" clip-rule="evenodd"/></clipPath><clipPath id="k"><path d="M210 179h310v190H210z"/></clipPath><clipPath id="l"><path d="M475 345c-4 13-18 23-31 23H231c-13 0-21-10-17-23l41-142c4-13 18-23 31-23h213c13 0 21 10 17 23z" clip-rule="evenodd"/></clipPath><clipPath id="m"><path d="M5 118h545v393H5z"/></clipPath><clipPath id="n"><path d="M463 319c-4 13-18 23-31 23H219c-13 0-21-10-17-23l41-143c4-12 18-23 31-23h213c13 0 21 11 17 23z" clip-rule="evenodd"/></clipPath><clipPath id="o"><path d="M446 312c-2 9-13 17-23 17H235c-10 0-16-8-13-17l37-128c3-10 14-17 24-17h188c10 0 15 7 13 17z" clip-rule="evenodd"/></clipPath><clipPath id="p"><path d="M353 203h-94a2 2 0 010-4h94a2 2 0 010 4" clip-rule="evenodd"/></clipPath><clipPath id="q"><path d="M314 214h-55a1 1 0 010-3h55a1 1 0 010 3" clip-rule="evenodd"/></clipPath><clipPath id="r"><path d="M347 226h-88a2 2 0 010-4h88a2 2 0 110 4" clip-rule="evenodd"/></clipPath><clipPath id="s"><path d="M326 237h-73a2 2 0 010-4h73a2 2 0 010 4" clip-rule="evenodd"/></clipPath><clipPath id="t"><path d="M316 248h-63a2 2 0 110-3h63a2 2 0 110 3" clip-rule="evenodd"/></clipPath><clipPath id="u"><path d="M445 276h-75a2 2 0 110-4h75a2 2 0 010 4" clip-rule="evenodd"/></clipPath><clipPath id="v"><path d="M441 287h-75a2 2 0 110-4h75a2 2 0 010 4" clip-rule="evenodd"/></clipPath><clipPath id="w"><path d="M439 298h-76a2 2 0 010-3h76a2 2 0 010 3" clip-rule="evenodd"/></clipPath><clipPath id="x"><path d="M472 189H259a2 2 0 010-4h213a2 2 0 010 4" clip-rule="evenodd"/></clipPath><clipPath id="y"><path d="M448 255h-92l16-54h92z" clip-rule="evenodd"/></clipPath><clipPath id="z"><path d="M292 297h-36l7-26h37z" clip-rule="evenodd"/></clipPath><clipPath id="A"><path d="M339 297h-36l8-26h36z" clip-rule="evenodd"/></clipPath><clipPath id="B"><path d="M433 173c2-2 5-1 6 0s0 4-2 6-5 1-6-1 0-4 2-5" clip-rule="evenodd"/></clipPath><clipPath id="C"><path d="M449 173c2-2 4-1 5 1s0 4-2 5-5 1-6-1 0-4 3-5" clip-rule="evenodd"/></clipPath><clipPath id="D"><path d="M464 173c2-1 5-1 6 1s0 4-3 5-4 1-5-1 0-4 2-5" clip-rule="evenodd"/></clipPath><clipPath id="E"><path d="M287 187s11 8 10 30a71 71 0 003 13c3 7 6 26-2 39 0 0-6 9-33 0 0 0-3 23 0 29l-19-2 2-59 9-21z" clip-rule="evenodd"/></clipPath><clipPath id="F"><path d="M383 285c-2-2 1-1-1-9s-3-8-1-14l15-36c1-2 4-1 3 2s-4 22-2 22 25 5 26 12-13 28-16 30l-24-7z" clip-rule="evenodd"/></clipPath><clipPath id="G"><path d="M382 281l-39 71c-30-48-84-57-96-59l-2 3-1 2-1 1-2 2-2 2c-24 19-61 50-62 89 0 35 21 98 96 112a1 1 0 010 1l7-1c27-1 43-4 54-10-55-1-75-71-55-74 20-2 26-24 26-24s18 22 46 21 58-128 58-128z" clip-rule="evenodd"/></clipPath><clipPath id="H"><path d="M352 360l37-77-7-2-39 71 12 18z" clip-rule="evenodd"/></clipPath><clipPath id="I"><path d="M279 420a30 30 0 004 0c14-4 20-17 22-22v-1-1c0-1 0 0 0 0l-27-25 16 24s-7 25-38 20l12 5c0 3-3 17 9 36-8-17-8-35 2-36" clip-rule="evenodd"/></clipPath><clipPath id="J"><path d="M79 376c-5 57 21 136 202 128-61-27-82-72-81-109 0-38 16-73 39-92s21-64 21-64-9-7-5-15 15 0 15 0a23 23 0 004-3 22 22 0 004-4 47 47 0 005-10 68 68 0 004-12l2-10a85 85 0 000-14v-2a19 19 0 00-3-1h-7l-21-1a213 213 0 00-22 2c-19 2-41 8-51 25-8 13-3 30-8 44-4 13-12 25-23 33-13 9-71 52-75 105" clip-rule="evenodd"/></clipPath><g clip-path="url(#a)"><g clip-path="url(#b)"><path fill="#ceecf7" d="M0 113h555v404H0z"/></g></g><g clip-path="url(#d)"><g clip-path="url(#b)"><path fill="#d0ecf6" d="M382 395h106v85H382z"/></g></g><g clip-path="url(#e)"><g clip-path="url(#b)"><path fill="#aae0f3" d="M395 108h200v130H395z"/></g></g><g clip-path="url(#f)"><g clip-path="url(#b)"><path fill="#aae0f3" d="M319 0h101v182H319z"/></g></g><g clip-path="url(#g)"><g clip-path="url(#b)"><path fill="#aae0f3" d="M276 86h45v76h-45z"/></g></g><g clip-path="url(#h)"><g clip-path="url(#b)"><path fill="#aae0f3" d="M505 51h72v49h-72z"/></g></g><g clip-path="url(#i)"><g clip-path="url(#b)"><path fill="#4687c7" d="M431 8h90v62h-90z"/></g></g><g clip-path="url(#j)"><g clip-path="url(#b)"><g clip-path="url(#k)"><g clip-path="url(#l)"><g clip-path="url(#m)"><path fill="#68cce6" d="M208 175h314v198H208z" opacity=".5"/></g></g></g></g></g><g clip-path="url(#n)"><g clip-path="url(#b)"><path fill="#4478a5" d="M196 148h314v199H196z"/></g></g><g clip-path="url(#o)"><g clip-path="url(#b)"><path fill="#d3eef7" d="M217 161h272v173H217z"/></g></g><g clip-path="url(#p)"><g clip-path="url(#b)"><path fill="#fff" d="M252 194h108v14H252z"/></g></g><g clip-path="url(#q)"><g clip-path="url(#b)"><path fill="#fff" d="M253 206h68v13h-68z"/></g></g><g clip-path="url(#r)"><g clip-path="url(#b)"><path fill="#fff" d="M252 217h102v14H252z"/></g></g><g clip-path="url(#s)"><g clip-path="url(#b)"><path fill="#fff" d="M247 228h86v14h-86z"/></g></g><g clip-path="url(#t)"><g clip-path="url(#b)"><path fill="#fff" d="M247 240h76v13h-76z"/></g></g><g clip-path="url(#u)"><g clip-path="url(#b)"><path fill="#fff" d="M363 267h89v14h-89z"/></g></g><g clip-path="url(#v)"><g clip-path="url(#b)"><path fill="#fff" d="M359 278h89v14h-89z"/></g></g><g clip-path="url(#w)"><g clip-path="url(#b)"><path fill="#fff" d="M356 290h89v13h-89z"/></g></g><g clip-path="url(#x)"><g clip-path="url(#b)"><path fill="#fff" d="M252 180h227v14H252z"/></g></g><g clip-path="url(#y)"><g clip-path="url(#b)"><path fill="#fff" d="M351 196h118v64H351z"/></g></g><g clip-path="url(#z)"><g clip-path="url(#b)"><path fill="#68cce6" d="M251 266h54v36h-54z"/></g></g><g clip-path="url(#A)"><g clip-path="url(#b)"><path fill="#68cce6" d="M298 266h54v36h-54z"/></g></g><g clip-path="url(#B)"><g clip-path="url(#b)"><path fill="#4478a5" d="M426 167h18v17h-18z"/></g></g><g clip-path="url(#C)"><g clip-path="url(#b)"><path fill="#fcb21d" d="M441 167h19v18h-19z"/></g></g><g clip-path="url(#D)"><g clip-path="url(#b)"><path fill="#68cce6" d="M456 167h19v18h-19z"/></g></g><g clip-path="url(#E)"><g clip-path="url(#b)"><path fill="#fff" d="M241 182h67v121h-67z"/></g></g><g clip-path="url(#b)"><path fill="none" stroke="#004c75" stroke-miterlimit="10" stroke-width="2" d="M287 187s11 8 10 30a71 71 0 003 13c3 7 6 26-2 39 0 0-6 9-33 0 0 0-3 23 0 29l-19-2 2-59 9-21z"/></g><g clip-path="url(#F)"><g clip-path="url(#b)"><path fill="#fff" d="M375 220h53v77h-53z"/></g></g><g clip-path="url(#b)"><path fill="none" stroke="#004c75" stroke-miterlimit="10" stroke-width="2" d="M383 285c-2-2 1-1-1-9s-3-8-1-14l15-36c1-2 4-1 3 2s-4 22-2 22 25 5 26 12-13 28-16 30l-24-7z"/></g><g clip-path="url(#G)"><g clip-path="url(#b)"><path fill="#004c75" d="M172 276h242v234H172z"/></g></g><g clip-path="url(#H)"><g clip-path="url(#b)"><path fill="#4687c7" d="M338 276h56v99h-56z"/></g></g><g clip-path="url(#I)"><g clip-path="url(#b)"><path fill="#4687c7" d="M251 366h59v95h-59z"/></g></g><g clip-path="url(#J)"><g clip-path="url(#b)"><path fill="#fcb21d" d="M73 162h221v348H73z"/></g></g></svg>