<svg viewBox="0 0 1224 792" xmlns="http://www.w3.org/2000/svg" xmlns:xlink="http://www.w3.org/1999/xlink"><linearGradient id="a" gradientUnits="userSpaceOnUse" x1="211.27" x2="570.65" y1="220.35" y2="355.11"><stop offset="0" stop-color="#fff"/><stop offset="1" stop-color="#52c8eb"/></linearGradient><linearGradient id="b" x1="210.65" x2="570.03" xlink:href="#a" y1="221.99" y2="356.75"/><linearGradient id="c" x1="249.88" x2="609.26" xlink:href="#a" y1="117.37" y2="252.14"/><linearGradient id="d" x1="253.2" x2="612.58" xlink:href="#a" y1="108.53" y2="243.3"/><path d="m679.18 405.61c-8.49 7.59-28.61 19.21-39.57 5.47-11.53-14.47 2.88-35.49 11.54-42.55 9.16-7.46 23.71-11.52 34.58-.79 11.96 11.82 1.2 30.94-6.55 37.87z" fill="url(#a)" opacity=".31" stroke="#fff" stroke-miterlimit="10" stroke-width=".19"/><path d="m500 468.78c30.09-22.21 12.79 48.05 45.24 52.37 31 4.12 111.61-85.79 181-62.75 16.54 5.49 18.18 6.27 16.61 6.84 5.13-2.27 6.24-11.15-8-20.26-42.38-27.08-109.64-8.19-113.36-33.76-5.22-35.79 107.63-125.6-5.67-136.69-93.62-9.18.91-46-17.25-109.44-18.93-65.75-138.82-81.62-186.5-79.81-135.57 5.13-210.46 114-209.44 211.39 1.27 122.68 122.12 301.42 297.37 172.11z" fill="url(#b)" opacity=".31" stroke="#fff" stroke-miterlimit="10" stroke-width=".19"/><path d="m274.6 435.15a18.33 18.33 0 1 1 20.09 16.39 18.33 18.33 0 0 1 -20.09-16.39z" fill="#69cce4"/><path d="m286.3 431.91c1.54-2.25-2.47-6.84-4.11-4.26-.63 1-.12 3.5.65 4.29s2.78.97 3.46-.03z" fill="#69cce4"/><path d="m375.14 416.84a2.42 2.42 0 1 1 2.42 2.41 2.42 2.42 0 0 1 -2.42-2.41z" fill="#fff"/><path d="m488.81 394.43a2.41 2.41 0 1 1 2.41 2.41 2.42 2.42 0 0 1 -2.41-2.41z" fill="#fff"/><path d="m588.66 320a2.42 2.42 0 1 1 2.42 2.42 2.41 2.41 0 0 1 -2.42-2.42z" fill="#fff"/><path d="m572.2 457.05a2.42 2.42 0 1 1 2.41 2.42 2.41 2.41 0 0 1 -2.41-2.42z" fill="#fff"/><path d="m333.43 375.69a2.42 2.42 0 1 1 2.41 2.41 2.41 2.41 0 0 1 -2.41-2.41z" fill="#fff"/><path d="m459.53 235.59a2.42 2.42 0 1 1 2.47 2.41 2.41 2.41 0 0 1 -2.47-2.41z" fill="#fff"/><path d="m449.5 152.88a2.42 2.42 0 1 1 2.42 2.41 2.42 2.42 0 0 1 -2.42-2.41z" fill="#fff"/><path d="m547.86 244.31a2.42 2.42 0 1 1 2.41 2.42 2.41 2.41 0 0 1 -2.41-2.42z" fill="#fff"/><path d="m426.92 448.93a1.82 1.82 0 1 1 1.82 1.82 1.83 1.83 0 0 1 -1.82-1.82z" fill="#f8c233"/><path d="m612.53 363.1a1.83 1.83 0 1 1 1.82 1.82 1.83 1.83 0 0 1 -1.82-1.82z" fill="#f8c233"/><path d="m550.27 490.43a1.83 1.83 0 1 1 1.82 1.82 1.83 1.83 0 0 1 -1.82-1.82z" fill="#f8c233"/><path d="m541 391.15a1.83 1.83 0 1 1 1.8 1.85 1.82 1.82 0 0 1 -1.8-1.85z" fill="#fff"/><path d="m352.06 129.46a1.82 1.82 0 1 1 1.82 1.82 1.81 1.81 0 0 1 -1.82-1.82z" fill="#fff"/><path d="m295.58 183.2a1.82 1.82 0 1 1 1.82 1.8 1.82 1.82 0 0 1 -1.82-1.8z" fill="#fff"/><path d="m314.67 198.5a1.83 1.83 0 1 1 1.82 1.82 1.83 1.83 0 0 1 -1.82-1.82z" fill="#fff"/><path d="m371.74 138.44a1.83 1.83 0 1 1 1.82 1.82 1.83 1.83 0 0 1 -1.82-1.82z" fill="#fff"/><path d="m442.5 117.65a1.82 1.82 0 1 1 1.82 1.82 1.82 1.82 0 0 1 -1.82-1.82z" fill="#fff"/><path d="m247.67 324.13c4.75-1 5.3-1.79 6-8.75.68 7 1.23 7.76 6 8.75-4.75 1-5.3 1.79-6 8.75-.67-6.96-1.25-7.76-6-8.75z" fill="#fff"/><path d="m235.72 339.5c4.75-1 5.3-1.79 6-8.75.68 7 1.23 7.76 6 8.75-4.75 1-5.3 1.79-6 8.75-.72-6.96-1.25-7.75-6-8.75z" fill="#fff"/><path d="m627.41 306.56c4.75-1 5.3-1.79 6-8.75.67 7 1.23 7.76 6 8.75-4.75 1-5.31 1.79-6 8.75-.7-6.96-1.25-7.76-6-8.75z" fill="#fff"/><path d="m530.85 485.47c4.76-1 5.3-1.79 6-8.75.67 7 1.22 7.76 6 8.75-4.75 1-5.3 1.79-6 8.75-.7-6.96-1.24-7.76-6-8.75z" fill="#fff"/><path d="m271.26 378.3c2.08-.29 2.32-.53 2.61-2.61.3 2.08.54 2.32 2.62 2.61-2.08.3-2.32.54-2.62 2.62-.29-2.08-.53-2.32-2.61-2.62z" fill="#fff"/><path d="m313.88 152.88c2.08-.3 2.32-.54 2.61-2.62.3 2.08.54 2.32 2.62 2.62-2.08.29-2.32.53-2.62 2.61-.29-2.08-.49-2.32-2.61-2.61z" fill="#fff"/><path d="m330.61 144.55c2.08-.3 2.32-.54 2.62-2.62.29 2.08.53 2.32 2.61 2.62-2.08.29-2.32.53-2.61 2.61-.3-2.08-.54-2.32-2.62-2.61z" fill="#fff"/><path d="m328 158.59c2.08-.3 2.32-.54 2.61-2.62.3 2.08.54 2.32 2.62 2.62-2.08.3-2.32.54-2.62 2.62-.29-2.08-.53-2.32-2.61-2.62z" fill="#fff"/><path d="m415.14 435.91c2.08-.3 2.32-.54 2.62-2.62.29 2.08.53 2.32 2.61 2.62-2.08.29-2.32.53-2.61 2.62-.3-2.09-.54-2.33-2.62-2.62z" fill="#fff"/><path d="m358 463.55c2.08-.3 2.32-.54 2.62-2.62.29 2.08.53 2.32 2.61 2.62-2.08.29-2.32.53-2.61 2.61-.27-2.08-.51-2.32-2.62-2.61z" fill="#fff"/><path d="m318 485.48c2.08-.3 2.32-.54 2.62-2.62.29 2.08.53 2.32 2.61 2.62-2.08.29-2.32.53-2.61 2.61-.27-2.09-.51-2.32-2.62-2.61z" fill="#fff"/><path d="m595.6 401.87c2.08-.3 2.32-.54 2.61-2.62.3 2.08.54 2.32 2.62 2.62-2.08.29-2.32.53-2.62 2.61-.29-2.08-.53-2.32-2.61-2.61z" fill="#fff"/><path d="m584.62 178.15c2.08-.3 2.32-.54 2.62-2.62.29 2.08.53 2.32 2.61 2.62-2.08.29-2.32.53-2.61 2.61-.3-2.08-.54-2.32-2.62-2.61z" fill="#fff"/><path d="m483.28 117.65c2.08-.3 2.32-.54 2.62-2.62.29 2.08.53 2.32 2.61 2.62-2.08.29-2.32.53-2.61 2.61-.3-2.08-.54-2.32-2.62-2.61z" fill="#fff"/><path d="m541.26 503.88c2.08-.29 2.32-.53 2.62-2.61.29 2.08.53 2.32 2.61 2.61-2.08.3-2.32.54-2.61 2.62-.3-2.08-.54-2.32-2.62-2.62z" fill="#fff"/><path d="m678 383.58a1.82 1.82 0 1 1 1.82 1.83 1.82 1.82 0 0 1 -1.82-1.83z" fill="#f8c233"/><path d="m658.58 378.63c4.75-1 5.3-1.79 6-8.74.67 6.95 1.22 7.75 6 8.74-4.75 1-5.3 1.79-6 8.75-.7-6.96-1.25-7.76-6-8.75z" fill="#fff"/><path d="m669 397c2.08-.29 2.32-.53 2.62-2.61.29 2.08.53 2.32 2.61 2.61-2.08.3-2.32.54-2.61 2.62-.31-2.04-.55-2.28-2.62-2.62z" fill="#fff"/><path d="m531.59 314.43c2.09-.3 2.33-.54 2.62-2.62.3 2.08.54 2.32 2.62 2.62-2.08.29-2.32.53-2.62 2.61-.29-2.04-.53-2.32-2.62-2.61z" fill="#fff"/><path d="m609.51 254.52c8.39-11.54-14.2-23.53-21-11.53-6.57 11.65 13.71 21.56 21 11.53z" fill="url(#c)" opacity=".31" stroke="#fff" stroke-miterlimit="10" stroke-width=".19"/><path d="m634.47 251.26c3.74-6.42-10.78-10.64-13.52-4.12-2.66 6.33 10.29 9.69 13.52 4.12z" fill="url(#d)" opacity=".31" stroke="#fff" stroke-miterlimit="10" stroke-width=".19"/><path d="m487.25 441.3 55-50.36a.38.38 0 0 1 .54 0 .4.4 0 0 1 0 .52l-50.36 55a3.66 3.66 0 1 1 -5.4-4.94z" fill="#004d77" opacity=".15"/><path d="m468.07 247.72 55-50.36a.38.38 0 0 1 .54 0 .37.37 0 0 1 0 .52l-50.35 55a3.66 3.66 0 0 1 -5.41-4.94z" fill="#004d77" opacity=".15"/><path d="m316.18 273.08 37.26-34.08a.27.27 0 0 1 .37 0 .27.27 0 0 1 0 .36l-34.12 37.25a2.48 2.48 0 1 1 -3.66-3.35z" fill="#004d77" opacity=".15"/><g fill="#fff"><path d="m395.69 459.34a1.94 1.94 0 1 1 -2.47 1.2 1.94 1.94 0 0 1 2.47-1.2z"/><path d="m404.73 445a1.44 1.44 0 1 1 -1.84.9 1.43 1.43 0 0 1 1.84-.9z"/><path d="m384 454.4a1.94 1.94 0 1 1 -2.47 1.21 1.94 1.94 0 0 1 2.47-1.21z"/><path d="m429.56 471.58a1.41 1.41 0 1 1 -1.8.88 1.41 1.41 0 0 1 1.8-.88z"/><path d="m403.73 430.08a1.94 1.94 0 1 1 -2.47 1.2 1.95 1.95 0 0 1 2.47-1.2z"/><path d="m388.05 475.52a1.94 1.94 0 1 1 -2.47 1.2 1.95 1.95 0 0 1 2.47-1.2z"/><path d="m373.6 487.58a1.11 1.11 0 1 1 -1.42.69 1.12 1.12 0 0 1 1.42-.69z"/><path d="m411.79 449.04h.57v36.01h-.57z" transform="matrix(.32589818 -.94540487 .94540487 .32589818 -163.75 704.46)"/><path d="m382.29 468.98h17.9v.57h-17.9z" transform="matrix(.42672659 -.90438068 .90438068 .42672659 -200.1 622.86)"/><path d="m373.06 488.41 14.18-11.28.35.45-14.18 11.27z"/><path d="m383.24 456.5.22-.52 11.71 4.93-.23.53z"/><path d="m390.95 453.5h17.42v.57h-17.42z" transform="matrix(.52843833 -.84897169 .84897169 .52843833 -196.79 553.27)"/><path d="m402.81 431.94.57-.05 1.16 14.48-.56.04z"/><path d="m233.04 287.84h33.48v.49h-33.48z" transform="matrix(.99938472 -.03507392 .03507392 .99938472 -9.96 8.95)"/><path d="m277.8 295.06-.28.4-11.14-7.77.28-.4z"/><path d="m273.6 284.21h32.85v.49h-32.85z" transform="matrix(.75298944 -.6580326 .6580326 .75298944 -115.54 261.13)"/><path d="m308.89 282.66-.4.27-6.3-9.15.41-.27z"/><path d="m313.09 282.44h.49v60.36h-.49z" transform="matrix(.98820167 -.15315831 .15315831 .98820167 -44.18 51.67)"/><path d="m331.99 337.14-13.93 5.53-.18-.45 13.93-5.53z"/><path d="m332.14 336.92-.48-.01.45-12.03.49.02z"/><path d="m332.47 325.11-15.79 8.52-.23-.43 15.79-8.52z"/><path d="m331.76 326.09a1.34 1.34 0 1 1 1.79-.6 1.34 1.34 0 0 1 -1.79.6z"/><path d="m317.36 343.64a1.34 1.34 0 1 1 1.8-.6 1.34 1.34 0 0 1 -1.8.6z"/><path d="m301.8 274.84a1.34 1.34 0 1 1 1.79-.59 1.33 1.33 0 0 1 -1.79.59z"/><path d="m277.06 296.46a1.34 1.34 0 1 1 1.8-.59 1.35 1.35 0 0 1 -1.8.59z"/><path d="m331.46 337.78a1 1 0 0 1 -.43-1.3 1 1 0 1 1 1.74.87 1 1 0 0 1 -1.31.43z"/><path d="m316.12 334.29a1 1 0 0 1 .88-1.74 1 1 0 0 1 .43 1.3 1 1 0 0 1 -1.31.44z"/><path d="m307.93 283.5a1 1 0 1 1 1.31-.43 1 1 0 0 1 -1.31.43z"/><path d="m266.08 288.36a1 1 0 0 1 .87-1.74 1 1 0 1 1 -.87 1.74z"/><path d="m473.36 182.64a2 2 0 1 1 2.13-1.87 2 2 0 0 1 -2.13 1.87z"/><path d="m458.42 132.25a2 2 0 1 1 2.13-1.87 2 2 0 0 1 -2.13 1.87z"/><path d="m472.16 200.71a1.49 1.49 0 1 1 1.59-1.39 1.49 1.49 0 0 1 -1.59 1.39z"/><path d="m553 163.07a2 2 0 1 1 2.13-1.88 2 2 0 0 1 -2.13 1.88z"/><path d="m461.15 209.79a2 2 0 1 1 2.14-1.87 2 2 0 0 1 -2.14 1.87z"/><path d="m373.76 138.25a1.21 1.21 0 0 1 -.2.19l87.54 69.56.37-.46-87.56-69.54a1.59 1.59 0 0 1 -.15.25z"/><path d="m459.81 203.21h13.93v.58h-13.93z" transform="matrix(.78801075 -.61566148 .61566148 .78801075 -26.34 330.5)"/><path d="m473.78 180.66-1.23 18.58-.58-.04 1.23-18.57z"/><path d="m473.77 180.56-.56.17-14.94-50.4.56-.16z"/><path d="m452.27 112.93h52.48v.58h-52.48z" transform="matrix(.76074591 -.64904981 .64904981 .76074591 40.99 337.65)"/><path d="m525.52 86.21h.58v84.84h-.58z" transform="matrix(.7651462 -.64385658 .64385658 .7651462 40.68 368.78)"/><path d="m549.86 244.68-.59-.02 3.59-83.61.58.03z"/><path d="m559.24 118.72c-12.13-7.4-26-13.34-40.55-18-13.13 14.63-27.07 29.24-43 43-43.9 37.81-45.78-18.54-69.08-58.12a241.87 241.87 0 0 0 -35.87 4.79c13.29 34.52-5.35 77.82-54.28 85.58-33.73 5.35-46.46-10-48.05-32.23-43.53 41.42-66.33 98.95-65.76 153a215.82 215.82 0 0 0 3.45 35.64c10.62-11.74 20.04-23.38 27.9-33.32 53.58-67.77 107.41-51.82 185.14-68.93 66.59-14.65 104.43-61.06 140.1-111.41z" opacity=".3"/><path d="m512.39 346c23.21-25.34 66.06-28.44 99.66-22.08a235 235 0 0 0 49.46 4.17c3.76-9.13 5.74-17.81 4.46-25.47-29.76 3.05-62.91-3.23-40.43-26.87-3.07-.49-6.34-.9-9.83-1.24-4.61-.46-8.74-1-12.48-1.56a116.78 116.78 0 0 1 -24.57 14.81c-41.4 18.09-95.24 8.43-139.28 15.46-56.44 9-108 31.82-153 60-21.15 13.25-39.81 26-57.73 38.13a257.87 257.87 0 0 0 12.91 23.51c35.62-26.39 73.25-54.17 116.66-73.24 60.89-26.75 138.62-3.57 96.71 51.37l-.19.26a1.84 1.84 0 0 0 -.17.22l-.37.46-.3.38-.25.32c-17 21.21-47.39 35.79-77.41 44.82-31.09 9.35-53.74 23.6-77.16 37.69a156.22 156.22 0 0 0 27.87 15.4c5-6.58 12.51-11.76 27.34-14 122.11-18.54 103.3-82.7 158.1-142.54z" opacity=".3"/><path d="m687.38 429.89c-10.5-1.39-20.78-2.06-30-2.88-4.82 3.68-9.7 7.21-14.55 10.54-20 13.7-64.47 25.63-43.45-7.72 7.43-11.8 16.06-25.14 26.25-37.43 5.26-11.67 14.39-25.32 22.68-39.14-14.31 8.59-27.23 18.74-37.85 32.68-16.4 21.46-21.86 48.87-43.46 68.06-12.79 11.39-29.69 18.24-47 24.34 3 11.26 5 26.68 12.41 35.68.75-1.9 1.56-3.81 2.43-5.75 10.16-22.36 38.59-34 62.84-37.09 34.32-4.41 63.63-17.83 89.7-41.29z" opacity=".3"/></g><path d="m407.77 292.48a42.55 42.55 0 1 1 -20 56.75 42.6 42.6 0 0 1 20-56.75z" fill="#69cce4"/><path d="m349.62 370.38c1.47 3.08 5.5 4.42 11.36 4.42 9.59 0 24.09-3.64 40.22-9.46a368.31 368.31 0 0 0 35.07-14.72c11.32-5.41 22.42-11.34 32.34-17.36 24.18-14.59 41.36-29.5 37.42-37.71-4.67-9.76-33-1.53-50.43 4.61a33 33 0 0 1 3.22 3.45c29.05-10.05 41.82-9.29 43.32-6.2 1.71 3.6-8.7 15.5-33.53 30.83a371.28 371.28 0 0 1 -34.2 18.49 371 371 0 0 1 -37.08 15.47c-26.76 9.27-42.13 9.83-43.82 6.3-1.45-3 5.72-13.2 31-29.13a31.29 31.29 0 0 1 -.67-4.7c-15.3 9.5-38.84 26.13-34.22 35.71z" fill="#004d77" opacity=".15"/><path d="m835.28 511c.46 1.71 2.17 1.62 2.9 1.85.22.08.67-.27 1.3-.67s5.79 6 6.31 6.46-.49 1.18-.51 2.1-1.66 1.05-2.37 1.06c-2.95.1-8.21-3-9.18-5.5s1.04-6.4 1.55-5.3z" fill="#fff" stroke="#36444d" stroke-miterlimit="10" stroke-width="1.13"/><path d="m876.88 648.37c1.18-2.42-.6-1.27 2.82-1.17 3.79.11 3.37 4.63 2.66 7.14-1.9 6.67.77 11.78-7 12.6-1.65.17-17.92.78-14.5-2.25 1.53-1.37 8.06-3.15 9.89-3.65 4.02-1.1 4.33-8.97 6.13-12.67z" fill="#fff" stroke="#36444d" stroke-miterlimit="10" stroke-width="1.13"/><path d="m881.94 661.85c-.54 4.16-1.74 7.17-7.75 7.79-2.13.23-28.09 1.68-21.32-3.27 2.63-1.94 13.14-4.74 15.5-5.39a2.26 2.26 0 0 0 .75-.33c-.39 1.08-.7 2.3.8 3.09 1.69.91 11.36.68 12.02-1.89z" fill="#004d77"/><path d="m935.09 651.42c-.46-2.21-1-.53 1.27-2.22 2.56-1.89 4.62 1.31 5.44 3.35 2.19 5.4 6 6.61 1.32 11.15-1 1-5.94 7.17-6.55 4.59-.4-1.68.22-.94 1.18-2.22 2.08-2.8-1.94-11.26-2.66-14.65z" fill="#fff" stroke="#36444d" stroke-miterlimit="10" stroke-width="1.13"/><path d="m946.07 656.84c-2-.28-5.54 7.4-7.17 7.69-1 .17-1.14-.66-1.34-1.17a22.3 22.3 0 0 1 -2.17 2.86c-.85 1-10.67 5.84-6.2 6 2.22.08 7.64.14 9.46-.33 4.92-1.27 5.07-4.53 7.73-7.43 3.52-3.84 1.54-4.46-.31-7.62z" fill="#004d77"/><path d="m937.39 657.63c-6.77-1.79-16.87-26.85-20-33.54s-16.15-35-15.75-43.11 26.13-40.53 25.61-32.66-3.12 30.88 0 40.53c2 6.21 22.81 60.23 18.88 64.7-1.52 1.67-6.2 4.75-8.74 4.08z" fill="#4687c7"/><path d="m901.82 579.8a10.39 10.39 0 0 0 -.17 2.39c.73 9.37 12.71 35.5 15.72 41.9 3.15 6.69 13.25 31.75 20 33.54a3.54 3.54 0 0 0 .81.07c-3.25-1.64-17-36.11-18.44-43-3.44-16.44-2.12-41.38 4.46-56.69.07-6.6-2.81-6.14-6.05-3.47-6.73 7.84-14.98 19.77-16.33 25.26z" fill="#004d77"/><path d="m905.81 587.71c-4.31 8.32-15.41 68.19-21.64 72.41-3.06 2.07-16.92 3.2-16.13-5.07s18.36-112 25.56-110.1 32.9-15.55 34.46-9c4.58 19.19-5.23 18.89-22.25 51.76z" fill="#4687c7"/><path d="m879.07 484.22c4.72-.45 3.42.37 4.33 1.41 1.43 1.62.77 3.43-.77 4.7a19.1 19.1 0 0 1 -4.37 2.44c-1.94.84-3.93 1.58-5.9 2.36a54.64 54.64 0 0 0 -7.16 3.2c-.56.32-1.11.66-1.67 1a2.91 2.91 0 0 1 -1.21.47c-.83 0-.55-1.24-.46-1.74.14-.72 1.91-12.37 17.21-13.84z" fill="#4687c7"/><path d="m841.15 522.55c-.23-1.93 4.17-7 7.4-4.86s16.33 13.4 19.66 12.27c8.8-3 9.46-34.56 23.38-28.05 12 5.63-10.77 37.6-21.32 39.49s-28.87-16.92-29.12-18.85z" fill="#4687c7"/><path d="m859.69 496.05a2.85 2.85 0 0 0 -3.57-.84c-.13.07-.24.17-.37.25a5.7 5.7 0 0 0 -5.21-3.1 13.35 13.35 0 0 0 -8 2.78 7.52 7.52 0 0 0 -3.37 5.83 13.26 13.26 0 0 0 .33 2.66 9.35 9.35 0 0 0 .66 2.45 4.72 4.72 0 0 0 1.63 1.72 6.27 6.27 0 0 1 1.56 1.24 3.35 3.35 0 0 1 .52 1.81c.07.9-.13 2.93 1.14 3.1s2.22-.64 3.39-.11a12 12 0 0 1 1.53 1 5.85 5.85 0 0 0 2.07.79c4 .77 4.41-6.48 5.71-6.95s5.11 2 5.5 3.42c0 .18 4-9.55 5-11.34-3.08-1.06-6.27-2.27-8.52-4.71z" fill="#fff" stroke="#36444d" stroke-miterlimit="10" stroke-width="1.13"/><path d="m795.64 488.7h.71v31.33h-.71z" fill="#4687c7" transform="matrix(.59257568 -.80551478 .80551478 .59257568 -81.97 846.65)"/><path d="m811.21 511.4-.42-.29-.5.73a10.59 10.59 0 0 0 -1.5 1.76 10.41 10.41 0 0 0 -1.12 2l-.5.73.43.29c.33.23 1.42-.75 2.41-2.2s1.54-2.78 1.2-3.02z" fill="#4687c7"/><path d="m809.59 514.16c-1 1.44-2.08 2.43-2.42 2.2s.2-1.6 1.2-3.05 2.08-2.43 2.42-2.2-.2 1.6-1.2 3.05z" fill="#004d77"/><path d="m806.4 512a.65.65 0 0 1 .9-.16l1.62 1.12a.65.65 0 0 1 .17.9.65.65 0 0 1 -.91.16l-1.61-1.11a.66.66 0 0 1 -.17-.91z" fill="#4687c7"/><path d="m768 497.9 6.23-9.14 1.63 1.75-1.06 8.11z" fill="#4687c7"/><path d="m774.89 498.53c0 .23-.28.43-.62.43h-7.78c-.34 0-.62-.2-.62-.43v-1.7c0-.23.28-.43.62-.43h7.78c.34 0 .62.2.62.43z" fill="#4687c7"/><path d="m776.79 499.72v-5.33s0 0 0-.07a2.19 2.19 0 0 0 -4.37 0v5.39a1 1 0 0 0 1 .94h2.47a.94.94 0 0 0 .9-.93z" fill="#004d77"/><path d="m774.61 492.69a1.51 1.51 0 1 1 0 3 1.51 1.51 0 0 1 0-3z" fill="#535351"/><path d="m775.66 497.09a.46.46 0 0 1 .46.45.47.47 0 0 1 -.46.46.46.46 0 0 1 -.45-.46.45.45 0 0 1 .45-.45z" fill="#68cce5"/><path d="m773.57 497.09a.46.46 0 1 0 0 .91.46.46 0 0 0 .45-.46.45.45 0 0 0 -.45-.45z" fill="#68cce5"/><path d="m770.34 486.72c-.19.34-.8.38-1.36.09l-1.18-.62c-.56-.29-.87-.82-.69-1.17l1.17-2.21c.18-.35.79-.4 1.35-.1l1.17.62c.57.29.88.82.7 1.17z" fill="#004d77"/><path d="m784.58 495.64c-.19.35-.79.4-1.36.1l-1.17-.62c-.57-.3-.88-.82-.69-1.17l1.16-2.21c.18-.35.79-.39 1.35-.1l1.18.62c.56.3.87.82.69 1.17z" fill="#004d77"/><path d="m776.07 499.76c0 .22-.35.4-.78.4h-9.82c-.44 0-.78-.18-.78-.4v-1.61c0-.22.34-.4.78-.4h9.82c.43 0 .78.18.78.4z" fill="#004d77"/><path d="m775.58 503.46a.72.72 0 0 1 -.72.72h-9a.71.71 0 0 1 -.71-.72v-2.85a.71.71 0 0 1 .71-.72h9a.72.72 0 0 1 .72.72z" fill="#4687c7"/><path d="m813.49 487.59a.71.71 0 0 0 -1 .22l-7 11a.72.72 0 0 0 .22 1l.9.58a.72.72 0 0 0 1-.22l7-11a.71.71 0 0 0 -.22-1z" fill="#004d77"/><path d="m753.48 456a.81.81 0 0 1 .27 1.11l-7.75 12.11a.82.82 0 0 1 -1.13.21l-16.78-10.73a.81.81 0 0 1 -.27-1.11l7.72-12.1a.81.81 0 0 1 1.13-.22z" fill="#68cce5"/><path d="m818.65 499.57c1.31.84 2.23 1.76 2 2.05l-6.15 9.62c-.19.3-1.4-.15-2.72-1l-66.68-42.61c-1.32-.84-2.24-1.76-2.05-2.05l6.15-9.58c.19-.29 1.41.15 2.72 1z" fill="#68cce5"/><path d="m754.39 457.46a.71.71 0 0 0 -1 .21l-7 11a.73.73 0 0 0 .22 1l.9.58a.73.73 0 0 0 1-.22l7-11a.71.71 0 0 0 -.21-1z" fill="#004d77"/><path d="m772.75 469.19a.71.71 0 0 0 -1 .21l-7 11a.72.72 0 0 0 .22 1l.9.57a.72.72 0 0 0 1-.21l7-11a.73.73 0 0 0 -.22-1z" fill="#004d77"/><path d="m786.29 477.84a.7.7 0 0 0 -1 .22l-7 11a.73.73 0 0 0 .22 1l.91.58a.71.71 0 0 0 1-.22l7-11a.7.7 0 0 0 -.22-1z" fill="#004d77"/><path d="m809.92 492.93a.71.71 0 0 0 -1 .22l-7 11a.71.71 0 0 0 .21 1l.91.57a.71.71 0 0 0 1-.22l7-11a.71.71 0 0 0 -.22-1z" fill="#004d77"/><path d="m807.17 480.73a.24.24 0 0 1 .07.33l-2.31 3.61a.23.23 0 0 1 -.32.07l-5.54-3.54a.23.23 0 0 1 -.07-.32l2.3-3.62a.24.24 0 0 1 .33-.07z" fill="#68cce5"/><path d="m821.51 490.24c.29.19.48.42.42.51l-2 3.17c-.06.09-.35 0-.65-.17l-15-9.58c-.3-.19-.49-.42-.43-.52l2-3.16c.06-.1.35 0 .65.16z" fill="#68cce5"/><path d="m807.56 481a.24.24 0 0 0 -.32.08l-2.31 3.61a.23.23 0 0 0 .08.32l.29.19a.24.24 0 0 0 .33-.07l2.3-3.61a.24.24 0 0 0 -.07-.33z" fill="#4687c7"/><path d="m813.6 484.84a.23.23 0 0 0 -.32.07l-2.28 3.61a.24.24 0 0 0 .07.33l.3.18a.22.22 0 0 0 .32-.07l2.31-3.61a.23.23 0 0 0 -.07-.32z" fill="#4687c7"/><path d="m818.06 487.68a.25.25 0 0 0 -.33.07l-2.31 3.62a.24.24 0 0 0 .07.32l.3.19a.24.24 0 0 0 .33-.07l2.3-3.61a.24.24 0 0 0 -.07-.33z" fill="#4687c7"/><path d="m775 468.6c.1.06.06.31-.09.55-.16.25-.37.39-.47.33l-1.73-1.11c-.1-.07-.06-.32.09-.56.16-.25.36-.39.47-.32z" fill="#004d77"/><path d="m774.51 467.43a.37.37 0 0 1 .1.5l-2 3.1a.36.36 0 0 1 -.5.11.37.37 0 0 1 -.11-.49l2-3.11a.35.35 0 0 1 .49-.11z" fill="#004d77"/><path d="m706.88 669.19 55.49-168.37a3.51 3.51 0 0 1 6.63 2.18v.11l-60.56 166.62a.83.83 0 0 1 -1.56-.54z" fill="#004d77"/><path d="m834.27 669.19-55.49-168.37a3.51 3.51 0 1 0 -6.67 2.19v.11l60.57 166.61a.83.83 0 0 0 1.56-.54z" fill="#004d77"/><path d="m768.32 658.1-1-153.64a3 3 0 1 1 6.09 0v.09l-3.68 153.6a.72.72 0 0 1 -1.43 0z" fill="#004d77"/><path d="m823.67 510.92c-1.11 1.72-2.55 3.17-3.93 3s-5-2.07-6-2.58c1.68-1.68 6.7-10.45 7-10.1s6.59 4.01 2.93 9.68z" fill="#004d77"/><path d="m815.55 513.37a2.46 2.46 0 1 1 2.46 2.45 2.46 2.46 0 0 1 -2.46-2.45z" fill="#004d77"/><path d="m817 513.37a1 1 0 1 1 1 1 1 1 0 0 1 -1-1z" fill="#4687c7"/><path d="m776.36 482.65h1.43v16.53h-1.43z" fill="#004d77" transform="matrix(.55091779 -.83455952 .83455952 .55091779 -60.75 868.93)"/><path d="m775.77 488.4-2.88 4.48v.06a2.18 2.18 0 1 0 3.67 2.35l2.87-4.49a.94.94 0 0 0 -.28-1.3l-2.08-1.33a.93.93 0 0 0 -1.3.23z" fill="#4687c7"/><path d="m773.8 495.49a1.5 1.5 0 1 1 2.08-.46 1.5 1.5 0 0 1 -2.08.46z" fill="#68cce5"/><path d="m775.29 491.22a.44.44 0 0 1 -.13-.62.45.45 0 0 1 .63-.14.45.45 0 1 1 -.5.76z" fill="#68cce5"/><path d="m777.06 492.36a.46.46 0 0 0 .49-.77.46.46 0 0 0 -.49.77z" fill="#68cce5"/><path d="m770 554.27c7.45 0 14.61.25 20.19.71 2.82.22 4.81.47 6.22.69-1.41.23-3.4.47-6.22.7-5.58.45-12.74.7-20.19.7s-14.62-.25-20.19-.7c-2.82-.23-4.82-.47-6.22-.7 1.4-.22 3.4-.47 6.22-.69 5.57-.46 12.74-.71 20.19-.71zm0-1.43c-17 0-30.75 1.27-30.75 2.83s13.75 2.83 30.75 2.83 30.74-1.26 30.74-2.83-13.74-2.83-30.74-2.83z" fill="#004d77"/><path d="m774.13 577.76a.71.71 0 0 1 -.72.71h-6.87a.71.71 0 0 1 -.72-.71v-6.88a.71.71 0 0 1 .72-.71h6.87a.71.71 0 0 1 .72.71z" fill="#004d77"/><path d="m774.44 572.4c0-.19.26-.35.58-.35.32 0 .58.16.58.35v3.84c0 .2-.26.36-.58.36-.32 0-.58-.16-.58-.36z" fill="#004d77"/><path d="m772.21 574.68a.36.36 0 0 1 -.36-.36.36.36 0 0 1 .36-.36h3.84a.36.36 0 0 1 .36.36.36.36 0 0 1 -.36.36z" fill="#004d77"/><path d="m737.3 571.87a.72.72 0 0 1 .93-.41l6.43 2.44a.72.72 0 0 1 .41.92l-2.44 6.43a.73.73 0 0 1 -.93.42l-6.42-2.45a.71.71 0 0 1 -.42-.92z" fill="#004d77"/><path d="m735.11 576.77c-.07.19-.37.24-.67.13-.3-.12-.48-.35-.42-.54l1.37-3.59c.07-.18.37-.24.67-.13.3.11.49.36.42.54z" fill="#004d77"/><path d="m738 575.44a.35.35 0 0 1 .2.46.37.37 0 0 1 -.46.21l-3.58-1.37a.35.35 0 0 1 -.21-.46.35.35 0 0 1 .46-.21z" fill="#004d77"/><path d="m806.52 577.7a.71.71 0 0 1 -.38.93l-6.36 2.63a.72.72 0 0 1 -.93-.39l-2.63-6.35a.73.73 0 0 1 .39-.94l6.39-2.58a.71.71 0 0 1 .93.39z" fill="#004d77"/><path d="m804.76 572.63c-.07-.18.11-.43.4-.55.3-.12.6-.08.68.1l1.47 3.56c.07.18-.11.42-.4.55-.3.12-.6.07-.68-.11z" fill="#004d77"/><path d="m803.58 575.59a.36.36 0 0 1 -.47-.2.34.34 0 0 1 .19-.46l3.55-1.47a.35.35 0 0 1 .46.19.36.36 0 0 1 -.19.47z" fill="#004d77"/><path d="m826.74 516.06a2.36 2.36 0 0 1 -1.37-.45l-4.15-3a2.32 2.32 0 0 1 2.74-3.75l4.16 3a2.33 2.33 0 0 1 -1.38 4.2z" fill="#4687c7"/><path d="m839.13 513.6-11.93 2.4a2.32 2.32 0 0 1 -.92-4.55l11.88-2.4h.17c-1.14.32-.33 4.4.8 4.55z" fill="#004d77"/><path d="m839.13 513.6c-1.16-.15-1.94-4.23-.8-4.55 1.15.17 1.93 4.2.8 4.55z" fill="#68cce5"/><path d="m828.58 510.92-2.12-.22-2.92 4.86 5.98 1.34z" fill="#4687c7"/><path d="m831.87 494.22c-1 4.08-5 1.8-5 9.11 0 5.46 8.91 5.45 12.46 2.21a14.11 14.11 0 0 0 3.83-6.46c.36-1.16.51-3.43 1.84-3.81 3.08-.88 4.71 1.6 5.58 1.78-.17-.63-.3-2.71.46-3.17s2.41-.81 3.33 1.43c2.42 5.87 7.91 1.8 7.39.21-.77-2.32-6.15-11.19-19.48-11.86-7.66-.38-9.35 6.34-10.41 10.56z" fill="#4687c7"/><path d="m818.55 510.08c.57 2.13 4.24 3.95 5.14 4.25.28.09 1.17-1 2-1.46s5 6.89 5.66 7.47-.61 1.46-.64 2.61-2.07 1.31-2.95 1.33c-3.69.12-9.66-3.74-10.86-6.93s1.01-8.69 1.65-7.27z" fill="#fff" stroke="#36444d" stroke-miterlimit="10" stroke-width="1.13"/><path d="m861.46 518c-.89-4.88-.59-18 6.75-22.26 3.62-2.11 26.79-12.7 45.95 9 13.24 15 16.68 35.92 14.81 39.26s-36.42 6.66-37.31 1.79c-3.25-7.09-9.87-13.91-17.69-14.21s-12.51-13.58-12.51-13.58z" fill="#68cce5"/><path d="m825.72 524.5c0-2.06 5.26-6.83 8.39-4.19s16.42 11.25 20.07 10.47c9.64-2.07 13.36-30.31 27.2-21.73 12 7.42-4.35 30.19-26.45 34-11.19 1.95-29.19-16.49-29.21-18.55z" fill="#68cce5"/><path d="m862.27 501.4c5.81-9.09 18.16-9.47 20-14.48 1-2.74-3.89-2.59-3.34-2.69 4.38-.74 13.78.34 12.61 5.33s-12.85 7.32-16.28 8.85c-15.95 7.11-12.91 20.07-13.54 20.37-.82.4-3.55-10.96.55-17.38z" fill="#68cce5"/><path d="m844.06 505.73c.31-.14 2.62-.09 1.9.12-2.38.67-2.61 2.79-3 2.68-1.39-.38.56-2.53 1.1-2.8z" fill="#36444d"/><path d="m890.69 543.92c9.32-21.25-7.12-30.27-6.28-27.89 2 5.72-3.73 11.73-7.58 16 5.88 1.44 10.84 6.41 13.86 11.89z" fill="#4687c7"/><path d="m888.58 598.87c-6.59 3.94-9.73 4-11.32 3.12-.52 2.63-1 5.26-1.52 7.85 3.63 1.22 9.65-1.72 12.84-10.97z" fill="#004d77"/></svg>