<svg xmlns="http://www.w3.org/2000/svg" xmlns:xlink="http://www.w3.org/1999/xlink" viewBox="0 0 835.49 467.77"><defs><style>.cls-1{isolation:isolate;}.cls-2{stroke:#fff;stroke-width:0.19px;opacity:0.38;fill:url(#linear-gradient);}.cls-15,.cls-17,.cls-2{stroke-miterlimit:10;}.cls-3{fill:url(#_ÂÁ_Ï_ÌÌ_È_ËÂÌÚ_14);}.cls-4{fill:url(#_ÂÁ_Ï_ÌÌ_È_ËÂÌÚ_14-2);}.cls-5{fill:#4685c6;}.cls-6{fill:#69cce4;}.cls-11,.cls-20,.cls-7{fill:#004d77;}.cls-8{mix-blend-mode:multiply;fill:url(#_ÂÁ_Ï_ÌÌ_È_ËÂÌÚ_14-3);}.cls-9{fill:#4579a4;}.cls-10,.cls-15,.cls-17,.cls-21{fill:#fff;}.cls-11,.cls-14{opacity:0.15;}.cls-12{fill:#e5f5fd;}.cls-13{fill:#68cce5;}.cls-15{stroke:#36454d;stroke-width:1.8px;}.cls-16{fill:#f9b01d;}.cls-17{stroke:#36444d;stroke-width:1.48px;}.cls-18{fill:#b3c5d0;}.cls-19{fill:#a8def9;}.cls-20{opacity:0.1;}.cls-21{stroke:#68cce5;stroke-linejoin:round;stroke-width:1.53px;}.cls-22{fill:url(#_ÂÁ_Ï_ÌÌ_È_ËÂÌÚ_14-4);}</style><linearGradient id="linear-gradient" x1="489.88" y1="328.48" x2="379.68" y2="22.68" gradientUnits="userSpaceOnUse"><stop offset="0" stop-color="#fff"/><stop offset="1" stop-color="#52c8eb"/></linearGradient><linearGradient id="_ÂÁ_Ï_ÌÌ_È_ËÂÌÚ_14" x1="171.25" y1="396.52" x2="991.78" y2="396.52" gradientUnits="userSpaceOnUse"><stop offset="0" stop-color="#def2fa"/><stop offset="1" stop-color="#a5def8"/></linearGradient><linearGradient id="_ÂÁ_Ï_ÌÌ_È_ËÂÌÚ_14-2" x1="68.38" y1="383.98" x2="230.27" y2="383.98" xlink:href="#_ÂÁ_Ï_ÌÌ_È_ËÂÌÚ_14"/><linearGradient id="_ÂÁ_Ï_ÌÌ_È_ËÂÌÚ_14-3" x1="359.13" y1="423.67" x2="798.01" y2="423.67" xlink:href="#_ÂÁ_Ï_ÌÌ_È_ËÂÌÚ_14"/><linearGradient id="_ÂÁ_Ï_ÌÌ_È_ËÂÌÚ_14-4" x1="759.37" y1="98.89" x2="759.37" y2="69.26" xlink:href="#_ÂÁ_Ï_ÌÌ_È_ËÂÌÚ_14"/></defs><title>Blog-home</title><g class="cls-1"><g id="Layer_2" data-name="Layer 2"><g id="Layer_3" data-name="Layer 3"><path class="cls-2" d="M587.94,5.88c-170-44.29-111,179.4-158.46,210.34s-116.26-94.5-172.9,32c-32.78,73.25-95.92,40.37-114.81,98.27S297.3,467.68,537.21,467.68,835.4,342,835.4,297.2s-46.57-75.69-61.84-87.15C707.56,160.56,709.69,37.59,587.94,5.88Z"/><path class="cls-3" d="M220.27,343.29c-77.76,2.89-347.14,41.06-148.87,86.47,159,36.42,233.91,15.47,399,15.47s337.46,25.15,348.84-15C833,381.87,730,370.51,686,363.29,527,337.22,381.47,337.31,220.27,343.29Z"/><ellipse class="cls-4" cx="149.33" cy="383.98" rx="80.94" ry="8.91"/><path class="cls-5" d="M106.79,323.73s-11.18,53.45-8.64,58.71,58.78,3.41,61.44.18-9.62-61.57-13.55-61-7.74,3.75-20.49,3.82S109.1,322.13,106.79,323.73Z"/><path class="cls-6" d="M125.9,323.71s-11.16-8-18.38-5.2-15-1.51-18.7,5.31-2.86,17.6-.57,17.64-1.28-1.66.37-3.27,6.35-10,13.52-8.64,20-5.9,22-4.1S125.9,323.71,125.9,323.71Z"/><path class="cls-6" d="M111.89,309.42s-11.41-2.11-15.41,3.39-7.07,15.26-21.78,15.72S56,336.77,58.19,341.38s-7.8-3.7-7.72-9.26,1.24-18.94,20.27-24.89,33.9-17.84,39.68-9.92S111.89,309.42,111.89,309.42Z"/><path class="cls-6" d="M111.48,291.44s-14-.19-17.52-9.71-13.36-2.47-12.41-.82a4.21,4.21,0,0,0,2.26,2l-4.23-1.37s8.16-23.41,19.22-19.34A22,22,0,0,1,111.48,291.44Z"/><path class="cls-6" d="M120.4,283.72S107.75,277,112,255.5s-24.92-18-22.34-15.33,5.53,1.71,4.86,3-6.51-2-7.48-2.71,4-7.46,9.58-7.39,11.51-5.4,16-1.74S141,260.14,120.4,283.72Z"/><path class="cls-6" d="M132.32,272.44s-19.53-29.67-18.51-57.11,30.4-48.28,33.88-40.06-.3-2-2.3.94-6,6.13-1.9,19.91S158.48,247.31,132.32,272.44Z"/><path class="cls-6" d="M149.92,276.28c-14.78-50.66,77.1-71.59,50.75-31.67,1.36-4.63,6-19.61-5.38-12.82C179.1,241.45,174.9,277.89,149.92,276.28Z"/><path class="cls-6" d="M158.79,296.66s-4.15-31.1,18.7-29.16,24.61-7.84,30.3,6.94-6.61,29.33-9.85,27.32c-1.62-1-1.19-2.46-.36-3.68a11.38,11.38,0,0,1,2.07-2.18s-2.29,3.66,1.61,2,2.16-15-1.43-15.06S190,285.32,184.29,296,167.34,292.85,158.79,296.66Z"/><path class="cls-6" d="M140.69,323.26s5.57-17.95,19.91-15.14,18.3-.41,19.93-.06-5.9,1.23-5.59,2.87-6.66,8.73-14.82,8.62S140.69,323.26,140.69,323.26Z"/><path class="cls-7" d="M135.13,185.88s-10.66,14.56-7.93,30.61,8.21,96.79,2.47,108.83l2.91-.27s4.68-30.89.39-58.4C130.34,249.72,125.7,200.54,135.13,185.88Z"/><path class="cls-7" d="M104,233.66s12.45,3.11,13,16.35,3.38,33.71,3.38,33.71,5.52,40.39,6.86,41.72l2.41-.12S122.91,295,122,288.19s-3.78-28.48-4-34.24S118.42,237.17,104,233.66Z"/><path class="cls-7" d="M204.31,229.63s-6.26-8.18-12.47-2.13-13.4,11.83-25.27,19.51-31.32,77.64-31.32,77.64l-2.67.4s18.27-57.18,26.82-73.48a20.52,20.52,0,0,1,6.71-6.53c4.45-2.63,15.43-8.12,19.54-13.34S196.71,220.21,204.31,229.63Z"/><path class="cls-7" d="M170.6,311.28a48.53,48.53,0,0,1-14.5,3.36c-7.11.27-13.77,7.31-15.41,8.62s-5.44,1.39-5.44,1.39l.3-1.09s4.74-.07,7.24-3.28a17.79,17.79,0,0,1,14.12-6.49A45.06,45.06,0,0,0,170.6,311.28Z"/><path class="cls-7" d="M205.63,277.07s-6.89-7.45-10.35-5.29-10.15,7.22-17,9.33S161.91,293,153.32,302.59s-18.07,22.06-18.07,22.06l-1.22-.39s25.69-32.49,34.72-38.74,14.18-6.55,18.76-10.29S196.34,266,205.63,277.07Z"/><path class="cls-7" d="M87.54,272.9s5.73-6.54,10.32-1.33,16.35,21.73,27.69,53.9l1.71,0s-13.94-37.24-23.83-49.14S92.13,267.08,87.54,272.9Z"/><path class="cls-7" d="M54.89,331.77s4.32-11.7,14.64-13.53,12.28-2.28,19-8.07,17.82-12.75,26,1.57,11.08,13.73,11.08,13.73l1.08,0a27.94,27.94,0,0,1-7.18-7.1c-2.64-4.12-8.52-16.62-16.12-16.4s-17.54,10.31-21,11.81-16.69,1.82-21.18,7.56A44.22,44.22,0,0,0,54.89,331.77Z"/><path class="cls-7" d="M91.31,329.57s-.64-7,7.06-5.42,11.9-.94,14.49-1.89,12.69,3.21,12.69,3.21l1.71,0s-12.65-5.77-15.62-3.85-6.74,3.26-9.92,2.48S91.64,320.67,91.31,329.57Z"/><path class="cls-8" d="M798,418.94c0,6.75-75.87,21.68-197.06,21.68s-241.82-14.93-241.82-21.68,98.25-12.22,219.44-12.22S798,412.19,798,418.94Z"/><path class="cls-6" d="M738.24,201.51C711.92,174,657.78,184,650.61,195.13s-39,64.53-73.3,80.47-53.37,23.9-59.75,27.88-25.49,23.1-27.08,29.48-12.75,49.39,3.18,76.48,80.92,33.89,157.39,26.64c96.91-9.2,89.58-23.46,110.69-90.38S744.39,208,738.24,201.51Z"/><path class="cls-9" d="M556,269c-7-1-47.2,23.53-53.75,28.49-6.32,4.8-27.29,28.59-58,59.47l31.95,3.88L598.89,279.6S565.79,270.39,556,269Z"/><path class="cls-7" d="M428.41,360.51s-14.09,1.79-26.61-.32-31.49-15.34-33.32-12.45-3.44,15.28-2,23.41,23.31,9.73,33,15.2,20,.47,22.21-1.15,16.71-7.1,16.71-7.1Z"/><path class="cls-7" d="M380.6,377.85A9.29,9.29,0,0,0,379,386c1.24,5,.7,10.54,4.22,12.75s16.68,3.51,23,12.25,13.64,9.68,16.72,7.54,11.35-18.47,21.51-28.46,14-10.72,14-10.72l-22-4.65s-22.88,14-29.71,12.8C389.48,384.57,382.46,371.38,380.6,377.85Z"/><path class="cls-5" d="M593.67,278.67c-17.7,4-61.17,22.13-67.43,26.86S460.68,345.1,425.63,356.1c0,0-.51,21.14,10.12,26.36,0,0,54.23-2.25,96.8-35.69a12,12,0,0,1,6.56-2.59c18.8-1.36,101.54-3.3,110-27.94C654.85,299.66,633.89,269.58,593.67,278.67Z"/><path class="cls-10" d="M601.16,204.71S592,216.33,590.69,239l1.31.38A98.53,98.53,0,0,1,601.16,204.71Z"/><path class="cls-11" d="M574.5,57.9,464.83,48.07a14.26,14.26,0,0,0-15,18l12.75,45.81A14.26,14.26,0,0,0,475,122.29l46.74,4.19c4.33,9.65,13,23.12,28.53,25.38,0,0-10.64-3.57-11.69-23.87l12.22,1.1a14.25,14.25,0,0,0,14.06-7.89L586,78.42A14.27,14.27,0,0,0,574.5,57.9Z"/><path class="cls-12" d="M566.69,73.37,472.27,64.9a1.81,1.81,0,0,1-1.64-2h0a1.81,1.81,0,0,1,2-1.64L567,69.77a1.81,1.81,0,0,1,1.64,2h0A1.81,1.81,0,0,1,566.69,73.37Z"/><path class="cls-12" d="M565.9,82.12l-94.42-8.47a1.8,1.8,0,0,1-1.63-2h0a1.81,1.81,0,0,1,2-1.64l94.42,8.46a1.83,1.83,0,0,1,1.64,2h0A1.82,1.82,0,0,1,565.9,82.12Z"/><path class="cls-12" d="M565,92.66,470.54,84.2a1.81,1.81,0,0,1-1.64-2h0a1.81,1.81,0,0,1,2-1.64l94.42,8.46a1.82,1.82,0,0,1,1.64,2h0A1.8,1.8,0,0,1,565,92.66Z"/><rect class="cls-12" x="522.18" y="96.51" width="44" height="3.62" rx="1.21" transform="translate(10.95 -48.2) rotate(5.12)"/><path class="cls-13" d="M490.67,192.53c0-.38.41-9.49,6.89-15.45,4-3.65,9.26-5.29,15.74-4.88l-.3,4.68c-5.18-.33-9.33.91-12.34,3.67-5.05,4.65-5.37,12.07-5.38,12.14Z"/><path class="cls-13" d="M482.81,194.76c0-.58-.31-14.32,8.89-23.32,5.51-5.39,13.17-7.88,22.78-7.38l-.22,4.32c-8.35-.43-14.92,1.64-19.54,6.15-7.86,7.69-7.59,20-7.59,20.1Z"/><path class="cls-13" d="M498.65,192.64c.17-4.19,3.2-12.18,13.41-12.4l.1,4.33c-8.75.19-9.17,7.93-9.19,8.26Z"/><g class="cls-14"><path class="cls-7" d="M445,96.56c21.67-1.94,40.53,10.8,42.11,28.45a26.77,26.77,0,0,1-1.68,11.9l-3.29,6.37a37.87,37.87,0,0,1-13.43,11.87l6.71,7.76-12.82-5a47.84,47.84,0,0,1-11.87,2.61c-21.68,1.94-40.54-10.8-42.12-28.45S423.32,98.51,445,96.56Z"/><path class="cls-7" d="M453.4,115.32a10,10,0,0,0-7.19,4.12,10,10,0,0,0-16.91,8.12c.5,5.52,13.47,14,19.07,15.92,5.39-3.09,16.42-13.54,15.92-19.06A10,10,0,0,0,453.4,115.32Z"/></g><path class="cls-15" d="M678.33,128.93c.43-4.76-2.28-8.89-6-9.23a6.41,6.41,0,0,0-.88,0c-3.27-32.51-36.64-24.2-41.42-3.92a74.16,74.16,0,0,0-.79,10.42,6.36,6.36,0,0,0-.75.08c-3.68.85-4,4.7-2.88,9.36.94,4.07,3,6.55,6.22,6.63,1.6,6.75,2.62,15.77,7.83,21,2.07,2.08,5.44,1.42,7.45,2.48l.71,4.17s-6.43,19.66-1.79,23.88,34.76-20.41,33-28.17l-4.38-2.08S673,137.53,673,137.51C676.6,137.56,677.92,133.51,678.33,128.93Z"/><path class="cls-16" d="M627.93,127.15s2.3,2,2.64-.94c.26-2.21-.29-7.21.44-9.46,0,0,17.49,1.76,32.48-7.27,0,0,.2,12.12,6.32,17.17,0,0-.44-3.51,3.31-6.8,0,0,6.88-20.57-1.59-24.44a5.52,5.52,0,0,0-1.95-2.11c-1.55-1.09-3,.43-3.76.45s-2.38-3.33-2.91-2.25.67,2.13.67,2.13S656,91,653.81,88.36c-4.23-5.16-17.29,0-30.31.21C598.88,89,627.93,127.15,627.93,127.15Z"/><path class="cls-7" d="M717.21,189.64a79,79,0,0,0-38.77-25.23c-3.13,15.5-22.52,26.83-30.1,28.13-4.55.78-1-17.16.38-22.53-.14-.24-.18-1.47-.3-1.72-17.07,8.63-45.18,21.56-51.84,51.68-2.72,12.32-7.35,44.3-7.35,44.3s44.54,14,59.91,52C699.18,305.13,743.51,220.35,717.21,189.64Z"/><path class="cls-5" d="M720.3,194.76s21.74,46.69-3.46,66.94c-24.91,20-56.53,18.38-56.53,18.38l-.78-16.44s31.92-11.32,36.39-50.06Z"/><path class="cls-7" d="M720.15,194.05s22.1,47.47-3.51,68.05c-25.33,20.37-57.46,18.69-57.46,18.69l-.8-16.72s46.94-9.13,37-50.89Z"/><path class="cls-17" d="M600.51,277s15.86,4.36,23.91,1.45l9.35-.2-1.48-10.51-10.7-2.17s-27-11.58-30.18-8.58S600.51,277,600.51,277Z"/><path class="cls-18" d="M510.88,206.61a2,2,0,0,0-2,2.33c1.65,11.23,10.76,59.77,14.3,66,2.39,4.19,106.09,8.47,108.85,6.65s1.76-3.28,1.76-3.28l-32.18-4.64L584.51,214.9a3.3,3.3,0,0,0-2.82-2.36C570.72,211.46,522.08,206.71,510.88,206.61Z"/><path class="cls-19" d="M549.17,227.26a3.76,3.76,0,1,1-3.41-4.08A3.76,3.76,0,0,1,549.17,227.26Z"/><path class="cls-12" d="M549,226.41a3.35,3.35,0,1,1-3-3.65A3.34,3.34,0,0,1,549,226.41Z"/><path class="cls-12" d="M512.16,209.62s67.89,6.34,68.57,7.44,13,49.14,13,49.14-14.39-47.71-15.93-47.85S512.16,209.62,512.16,209.62Z"/><path class="cls-5" d="M539.52,327.25c-14.41,8.63-21.8,25.49-25.3,41.92-1.82,8.51-2.8,17.59.24,25.74,3.76,10.09,13,17.07,22.62,22,38.8,20,85.43,14.29,128.19,5.62,24.19-4.9,49.74-11.46,66.48-29.59,19.52-21.14,22-54.21,11.8-81.11-3.77-9.9-9.42-19.59-18.36-25.29-6.65-4.24-14.62-6-22.48-6.65-34.84-3.13-56.58,13.57-83.55,31.66C593.67,328.64,565.12,311.9,539.52,327.25Z"/><path class="cls-6" d="M541.05,330.3c-14.41,8.64-21.8,25.5-25.3,41.93-1.82,8.51-2.8,17.59.24,25.74,3.76,10.08,13,17.07,22.62,22,38.8,20,85.43,14.29,128.19,5.62,24.19-4.9,49.74-11.46,66.48-29.59,19.52-21.14,22.05-54.21,11.8-81.11-3.77-9.9-9.42-19.59-18.36-25.29-6.65-4.24-14.62-6-22.48-6.65-34.84-3.13-56.58,13.57-83.55,31.65C595.2,331.7,566.65,315,541.05,330.3Z"/><polygon class="cls-20" points="780.46 140.73 703.62 139.87 700.2 26.32 788.14 26.32 780.46 140.73"/><polygon class="cls-21" points="777.4 134.61 700.56 133.75 697.14 20.2 785.08 20.2 777.4 134.61"/><polygon class="cls-21" points="770.19 126.36 708.09 125.63 705.17 28.45 776.77 28.45 770.19 126.36"/><path class="cls-13" d="M708.09,125.62l62.1.74.4-6C762.26,106.59,755,97.33,749,92.86c-4.44-3.3-9.18-4.36-14.09-3.15-11.65,2.87-21.93,17.73-27.09,26.46Z"/><path class="cls-22" d="M744.52,88.7a20.93,20.93,0,0,1,5.38,2.93c5.72,4.26,12.49,12.67,20.18,25l4.14-61.57C760.46,52.85,748.88,77.06,744.52,88.7Z"/></g></g></g></svg>