<svg xmlns="http://www.w3.org/2000/svg" xmlns:xlink="http://www.w3.org/1999/xlink" viewBox="0 0 592.76 525.33"><defs><style>.cls-1{isolation:isolate;}.cls-2,.cls-3,.cls-4{stroke:#fff;}.cls-13,.cls-2,.cls-3,.cls-4,.cls-5{stroke-miterlimit:10;}.cls-2{stroke-width:0.24px;opacity:0.18;fill:url(#linear-gradient);}.cls-3,.cls-4{stroke-width:0.32px;opacity:0.31;}.cls-3{fill:url(#linear-gradient-2);}.cls-4{fill:url(#linear-gradient-3);}.cls-5,.cls-8{fill:#fff;}.cls-5{stroke:#36434c;}.cls-13,.cls-5{stroke-width:1.47px;}.cls-13,.cls-6{fill:none;}.cls-7{fill:#e6e6e6;}.cls-8{mix-blend-mode:multiply;}.cls-9{fill:#fcb21f;}.cls-10{fill:#4687c7;}.cls-11{fill:#004c75;}.cls-12{fill:#67cce6;}.cls-13{stroke:#004c75;stroke-dasharray:8.82;}.cls-14{fill:#b4c6d0;}</style><linearGradient id="linear-gradient" x1="-2753.48" y1="4208.35" x2="-2519.38" y2="4208.35" gradientTransform="matrix(-0.78, 0.63, -0.63, -0.78, 687.1, 5085.83)" gradientUnits="userSpaceOnUse"><stop offset="0" stop-color="#fff"/><stop offset="1" stop-color="#50c8ec"/></linearGradient><linearGradient id="linear-gradient-2" x1="706" y1="418.35" x2="1292.49" y2="418.35" gradientTransform="translate(-797.06 81.17) rotate(-13.39)" xlink:href="#linear-gradient"/><linearGradient id="linear-gradient-3" x1="713.01" y1="464.66" x2="1299.5" y2="464.66" gradientTransform="translate(-797.06 81.17) rotate(-13.39)" xlink:href="#linear-gradient"/></defs><title>Launch-site</title><g class="cls-1"><g id="Layer_2" data-name="Layer 2"><g id="Layer_1-2" data-name="Layer 1"><path class="cls-2" d="M124.93.07C95.09,38.23,5.78,205.33,5.78,205.33l25.67,51.82,206.81-80.41"/><path class="cls-3" d="M4.71,398.51s24.62,124.22,140.42,69.14,34-66.07,150.38-73.92,164,28,220.85-5,74.81-130.48,43.19-159.64-114.06-55.92-174-57.5-91.81-59.81-91.81-59.81S250,22.9,143.05,116.12c0,0-114.25,62.12-42.75,151.86s-59.74,60.93-59.74,60.93S-16,337.62,4.71,398.51Z"/><path class="cls-4" d="M22.26,441.94s24.62,124.22,140.42,69.14,34-66.07,150.38-73.92,164,28,220.85-5,74.8-130.48,43.19-159.64S463,216.59,403.05,215s-91.81-59.81-91.81-59.81-43.72-88.87-150.64,4.35c0,0-114.25,62.12-42.75,151.86s-59.74,60.93-59.74,60.93S1.59,381,22.26,441.94Z"/><path class="cls-5" d="M82.25,209.32,67.62,199s-1.67-2.17-9,3a5.11,5.11,0,0,0-2,4v4.83s3.62,1.49,5.06-6l3.77,4.48s.8.91,4,1l12.82,4.64Z"/><path class="cls-5" d="M84.36,247.55l-16.8-6.2s-2.17-1.67-7.92,5.21a5.11,5.11,0,0,0-.91,4.38L60,255.61s3.89.51,3.35-7.11l4.8,3.37s1,.67,4.1-.09L85.79,253Z"/><path class="cls-5" d="M94,370.36C97.12,373,98.62,381,98.62,381l1.16,13.83h5l.56-22.64-6.44-5.72Z"/><path class="cls-5" d="M60.5,160.18l16,11.59s4.27,9,7,4.35l9.47,3.11s3,.48,7.26-6.62l22,12.57-2-22.62-24.18-15-20.81-9.73Z"/><path class="cls-6" d="M112.06,463.18V308.34a10.09,10.09,0,0,1,10.09-10.09H244.33v-.09H122A10.09,10.09,0,0,0,112,308.25V463.09a10.07,10.07,0,0,0,3.71,7.81A10.06,10.06,0,0,1,112.06,463.18Z"/><path class="cls-7" d="M246.86,298.25v-.09h-2.52v.09Z"/><path class="cls-6" d="M220.78,334.45a18.65,18.65,0,0,1-.67-5A18.85,18.85,0,0,1,239,310.61a18.5,18.5,0,0,1,4.24.49c.25-2.93.65-7.44,1.13-12.85H228.71L212.9,330.58A26.31,26.31,0,0,1,220.78,334.45Z"/><path class="cls-8" d="M118.57,360.53a31.93,31.93,0,0,1,61.51-12,26.28,26.28,0,0,1,32.82-17.94l15.81-32.33H122.15a10.09,10.09,0,0,0-10.09,10.09v60.11a39.06,39.06,0,0,1,8.1,2A31.76,31.76,0,0,1,118.57,360.53Z"/><path class="cls-7" d="M247.23,293.25v-.09h-2.45v.09Z"/><path class="cls-7" d="M399.91,395.33l.1.19V370.41l-.1,0Z"/><path class="cls-7" d="M399.91,308.25v62.12l.1,0V308.34a10.06,10.06,0,0,0-3.7-7.81A10.09,10.09,0,0,1,399.91,308.25Z"/><path class="cls-7" d="M399.91,395.43v48l.1,0V395.52l-.1-.19Z"/><path class="cls-7" d="M122,473.18a10.06,10.06,0,0,1-6.38-2.28,10,10,0,0,0,6.49,2.37h21l0-.09Z"/><path class="cls-9" d="M65.43,129s-9.26,2.21-12,10.7-8.33,8.57-8.33,8.57-5.77,4.81,0,9.43,16,7.94,21.23.45S77,142,81.12,143.81s10.13,10.87,16.23,9.77,10.93-8.43,10.93-8.43,2.46-5.66-5.4-6.71-17.42-11.63-17.42-11.63S70.43,115.67,65.43,129Z"/><path class="cls-10" d="M120.78,222.89c-1.33-1-39.66-16.09-39.66-16.09l-2.88,9.42,24.87,20.23a27.1,27.1,0,0,0,19,4.49Z"/><polygon class="cls-11" points="3.35 206.81 5.78 205.33 31.45 257.15 81.12 254.15 81.12 257.87 28.94 260.53 3.35 206.81"/><path class="cls-12" d="M115.54,264.35,73,258.67S58,257.5,55.07,266.84s-1.62,20.34-1.62,20.34,3.2,19.07,19.27,56.2L93.45,374l7.5-7.11L80.49,290.75,122.12,293l41.33.09s16.43-2.18,17.21-29.32"/><path class="cls-11" d="M118.44,158.58s1.53,20.6-2.9,29.93l.26,53.93-32.36,3.5v9.64l32.1,3.09v5.68l65.12-.54S178.76,163.32,118.44,158.58Z"/><path class="cls-10" d="M115.54,258.67s7,.39,10.85-2.05l15.3-36.53,2.76,5.42-6.67,38.09-22.24.75Z"/><line class="cls-13" x1="276.68" y1="264.35" x2="289.4" y2="361.22"/><path class="cls-13" d="M242.26,247.15c.72,7.67-19.46,137.69-19.46,137.69"/><line class="cls-13" x1="289.73" y1="280.91" x2="298.63" y2="330.32"/><path class="cls-13" d="M227.31,269c0,1.66-10,48.93-10,48.93"/><path class="cls-14" d="M110,374.5s16.13,1.23,23.05,5.95c0,0-14.79-11.29-5.6-30.95,0,0,20.63-27.87,43.25-9.76s13,15.28,13,15.28,11.13-24.3,40.7-14.07c0,0,4.61-27.6,22.42-23.35l2.4-58.55h20.87l5.07,85.39s27.41-13,46.77,9.53c0,0,14.74-34.86,48.22-18.83s19.22,39.47,19.22,39.47,8.77-.16,14.26,2.29,0,53.6,0,53.6L112.28,448.68Z"/><path class="cls-11" d="M254.43,252.62l-7.2,94.08s-33.17-1.68-21.5,33.71c0,0-14.39-8-25,8.36,0,0-7.38-14-28-11.83S148.44,402,148.44,402s-31.11-.24-36.08,30.42l3.31,44.9,280.38,1.94,7.68-4.17V403.68S387.2,368,358,406.25c0,0-8.57-25.15-36.57-19.13,0,0-8.49-27.72-38.91-14.19,0,0,9.37-16.47-7.19-21.8l-9.51-105.39Z"/><path class="cls-14" d="M229.54,255.05s-.44,8.8,28,8.94,28.2-9.14,28.2-9.14l-28.08-18.46Z"/><path class="cls-14" d="M409.71,467.4V314.13c0-20.94-23.15-20.67-23.15-20.67H133.63c-27.28,0-25.74,16-27.07,16.11s4.34,151.9,4,157.83c-.65,11.94,9.18,14.56,9.18,14.56s51.72.32,110,.82l-.93,19.3-16,.68s-7.06,1.85-7.19,10.28H310.15s4.67-7.58-21.33-10.24l-.88-19.46c49.41.53,92.66,1.18,101.28,1.85C411.22,486.92,409.71,467.4,409.71,467.4Zm-23.2,9.32H131.58s-17.36,3.09-17.36-10.08V319.75c0-2.95-4.38-18,26.29-18l248.66-.09s12.91-.18,12.9,19.88V461.8S403.17,476.81,386.51,476.72Z"/><path class="cls-12" d="M221.6,184.2S175,219.88,209.89,282.49l48.14-70,46.71,70s31.44-48.29-19.17-103S221.6,184.2,221.6,184.2Z"/><path class="cls-5" d="M256,38.17s-76.82,49.32-22.45,204.44l45.35.13S325.5,72.88,256,38.17Z"/><path class="cls-12" d="M255.19,138.75s17.8-3.46,18.53-21.08-19.53-18.09-19.53-18.09-21.12,2.38-19.6,19.6S255.19,138.75,255.19,138.75Z"/><path class="cls-12" d="M256.19,138.75s17.8-3.46,18.53-21.08-19.53-18.09-19.53-18.09-21.12,2.38-19.6,19.6S256.19,138.75,256.19,138.75Z"/><path class="cls-10" d="M258.5,211.12S237.64,226.79,229.28,256c0,0,30-16.12,56.76,0C286,256,282.91,234.11,258.5,211.12Z"/></g></g></g></svg>