<?xml version="1.0" encoding="utf-8"?>
<svg viewBox="0 0 539.47 338.14" xmlns="http://www.w3.org/2000/svg">
  <defs>
    <style>.cls-1{font-size:21.21px;}.cls-1,.cls-12,.cls-8{fill:#67cce6;}.cls-1,.cls-12{font-family:OpenSans-Bold, Open Sans;font-weight:700;}.cls-2{opacity:0.15;}.cls-3{fill:#68cce5;}.cls-4{fill:#4687c7;}.cls-5{fill:#f8f6f0;}.cls-6{fill:#a160a7;}.cls-7{fill:#004c75;}.cls-9{fill:#fff;stroke:#36434c;stroke-width:2.36px;}.cls-13,.cls-9{stroke-miterlimit:10;}.cls-10{fill:#f5f1f3;}.cls-11{fill:#fbb11e;}.cls-12{font-size:23.02px;}.cls-13{fill:#f5f9fd;stroke:#004c75;stroke-width:1.85px;}</style>
  </defs>
  <g id="Layer_2" data-name="Layer 2">
    <g id="Layer_3" data-name="Layer 3">
      <text class="cls-1" transform="translate(152.76 80.43)" style="white-space: pre;">HELLO</text>
      <g class="cls-2">
        <path class="cls-3" d="M123,23.83c11.5-15.09,31-19.38,49-21.42A382.17,382.17,0,0,1,225.83.16c17.27.51,34.79,2.26,50.85,9.13C287.3,13.83,297.13,20.54,308.09,24c20.64,6.5,42.6.79,64-1.32a189.17,189.17,0,0,1,52.79,2.24c13.52,2.5,26.94,6.53,38.9,13.78,11.07,6.72,20.63,16,29.18,26.18,10.57,12.55,19.7,26.41,28.79,40.24,7.37,11.21,14.94,22.91,17.18,36.45s-2.5,29.49-14.09,35.14c-6.79,3.31-14.62,2.62-21.87,4.48-14.18,3.64-24.69,16.61-32.08,30.2S458.16,240,449.07,252.28c-18.13,24.61-48,34.73-76.32,41.83-54.53,13.67-114.09,20.38-164.58-5.75-15.83-8.19-30.4-19.46-47.13-25.14-30.58-10.38-64.52-.91-95.28-10.61a84.15,84.15,0,0,1-33.45-20.23C21.57,221.86,13.42,208.42,8,193.9c-14.4-38.34-9-84.64,13.87-117.85S84.06,23.86,122.14,27.76"/>
      </g>
      <g class="cls-2">
        <path class="cls-3" d="M153.73,55.81c10.58-15.09,28.51-19.38,45.06-21.41a322.81,322.81,0,0,1,49.62-2.26c15.89.51,32,2.26,46.8,9.13C305,45.81,314,52.52,324.12,56c19,6.5,39.21.79,58.91-1.31a160.49,160.49,0,0,1,48.59,2.23c12.44,2.5,24.79,6.53,35.8,13.79,10.19,6.71,19,16,26.86,26.17,9.73,12.55,18.13,26.41,26.5,40.24,6.79,11.21,13.75,22.91,15.81,36.45s-2.3,29.49-13,35.14c-6.24,3.31-13.46,2.62-20.12,4.48-13.05,3.65-22.73,16.61-29.53,30.2s-11.73,28.59-20.09,40.91c-16.69,24.61-44.17,34.73-70.25,41.83-50.19,13.67-105,20.39-151.49-5.75-14.56-8.19-28-19.46-43.37-25.14-28.15-10.38-59.39-.91-87.71-10.61a76.59,76.59,0,0,1-30.78-20.23c-9.89-10.52-17.39-24-22.41-38.47C34.61,187.54,39.62,141.24,60.63,108S117.91,55.85,153,59.74"/>
      </g>
      <rect class="cls-4" x="136.96" y="46.76" width="95.39" height="143" rx="16.53" transform="translate(369.32 236.51) rotate(-180)"/>
      <path class="cls-5" d="M148.09,116.66v7.6h71.5v-7.6Zm71.5,14.26h-71.5v7.6h71.5Zm0,14.26h-71.5v7.6h71.5Zm0,14.26h-71.5V167h71.5ZM182.81,173.7H147.88v7.6h34.93Z"/>
      <rect class="cls-4" x="54.45" y="282.58" width="383.54" height="11.78"/>
      <path class="cls-6" d="M320.07,273.6h-39s20.12-3.08,40.14-6.47C320.5,271.06,320.07,273.6,320.07,273.6Z"/>
      <path class="cls-7" d="M114.4,270.54V279s94,3.06,100.92,0,16.06-27.53,22.94-42.82,15.29-21.41,17.59-9.17,9.94,46.63,9.94,46.63h15.29c3.06,7.65,0,12.24,0,12.24,85.63,8.41,123.09,2.29,123.09-6.88s-31.35-94-42.81-108.57-23.71-22.94-48.17-29.82-29.82-2.29-29.82-2.29S258.14,136,236.74,152s-37.47,87.16-39.77,94S114.4,270.54,114.4,270.54Zm206.82-3.41c2.15-11.76,6.88-36,10.32-41.7,4.59-7.64,33.64,30.59,29,33.65C358.38,260.55,339.84,264,321.22,267.13Z"/>
      <path class="cls-8" d="M110.51,283.26l.77-6.5s-28.61-5-34.57-4.61-4.31,11.11-4.31,11.11Z"/>
      <path class="cls-9" d="M259.67,270.54c3.82-1.52,21.41,3.06,21.41,3.06s4.58,9.18,0,12.24-9.18-5.36-13-4.59-12.23,8.41-13.76,6.88a2.12,2.12,0,0,1,0-3.06s-2.3,2.29-2.3,0v-2.29s-2.29,2.29-3.05,0S255.85,272.07,259.67,270.54Z"/>
      <path class="cls-9" d="M95.73,264.79a21.54,21.54,0,0,1,9.39,1.27c3.75,1.35,7.45,2.91,11.07,4.58,1.3,4.4,1.9,9.39-3.71,9.6-4.85.18-7.92-4.59-12.31-5.88-6.15-1.82-14.25-.89-20.64-1.23a11.78,11.78,0,0,1,9.22-7.45C91.38,265.31,93.6,264.94,95.73,264.79Z"/>
      <path class="cls-9" d="M261.65,106a35.58,35.58,0,0,1,.62-6.65c-.77-3.13-1.15-7,.89-13.84,4.59-15.3,24.46-18.35,37.46-12.24s11.47,34.41,11.47,34.41c-2.48,11.33-7.91,19.06-13.64,23.85l-.12.11v21.91s-9.56,6.88-19.12,0v-17.2l-.81-.51a44.73,44.73,0,0,1-12.23-12.11h0a18.78,18.78,0,0,1-3.38-8.84A34.7,34.7,0,0,1,261.65,106Z"/>
      <path class="cls-8" d="M266.55,48.82c21.41-8.41,30.58,0,40.52,2.3s34.41,9.94,64.22-3.06,67.28-2.29,75.69,9.17,23.71,20.65,39.76,20.65,24.47,13,19.12,31.34-26.76,9.94-39,9.18-28.29,24.46-53.52,19.11-22.17-32.87-45.1-22.17-47.52,29.8-64.36,7.85c6,6,0,0,0,0s.9-12.44,3.19-32.31c0,0-13,1.52-21.41-5.36s-6.11-8.41-14.52-3.06-6.88,4.59-6.88,4.59,0,.25,0,1,0,2.26-.12,4.66c0,1.09-.11,2.36-.2,3.88h0c-.27,4.48,1.53,9.08,4.89,14.13,2.49,3.75-6.67,7.74-2.64,12.11.26.3.54.59.81.89,0,0-1.24,4.59-7.36-6.12s-2.29-22.17-8.41-28.28S245.14,57.23,266.55,48.82Z"/>
      <path class="cls-10" d="M312,87.82a3.55,3.55,0,0,1,2.75,1.5,6.69,6.69,0,0,1,1.07,3.05,60,60,0,0,1-.07,12.13,8.5,8.5,0,0,1-1,3.8c-1.54,2.58-4.39,2.45-7,2.45a9.08,9.08,0,0,1-1.42-2.29c-1.53-6.12-1.53-12.23.76-17.58A5.33,5.33,0,0,1,312,87.82Z"/>
      <path class="cls-11" d="M312,87.82a5.19,5.19,0,0,0-5,3.06c-2.29,5.35-2.29,11.46-.76,17.58a9.08,9.08,0,0,0,1.42,2.29h-4.46s-3.84-.76-3.84-4.58,0-12.24,1.39-16.06C301.78,87.48,308.28,86.3,312,87.82Z"/>
      <path class="cls-11" d="M264,88.23a3.49,3.49,0,0,1,.34-.15c0,.83,0,2.26-.12,4.66a12.81,12.81,0,0,1-.2,3.88h0c-.27,4.48,1.53,9.08,4.89,14.13h-4.47s-4-.76-4-4.58,0-12.24,1.44-16.06A3.82,3.82,0,0,1,264,88.23Z"/>
      <path class="cls-11" d="M311.59,96.23c1.23,0,2.22,1.54,2.22,3.44s-1,3.44-2.22,3.44-2.22-1.54-2.22-3.44S310.36,96.23,311.59,96.23Z"/>
      <path class="cls-10" d="M266.46,69.88c4.9-6.25,11.57-10.1,18.92-10.1,15,0,27.24,16.09,27.24,35.94,0,.17,0,.34,0,.51h-2.32c0-.17,0-.34,0-.51,0-18.16-11.16-32.88-24.92-32.88-8.56,0-19.59,5.86-21.89,25.74C263.82,86.06,262,79.41,266.46,69.88Z"/>
      <path class="cls-11" d="M265.39,108a12.63,12.63,0,0,0,15.8,14l.32,1.2a13.24,13.24,0,0,1-3.5.46,13.84,13.84,0,0,1-13.86-15.87Z"/>
      <path class="cls-11" d="M281.49,120.06c2,.58,3.3,2.14,2.91,3.47s-2.32,1.94-4.32,1.36-3.31-2.14-2.92-3.47S279.49,119.47,281.49,120.06Z"/>
      <path d="M 15.53 -16.43 L 15.53 0 L 12.06 0 L 12.06 -7.09 L 5.55 -7.09 L 5.55 0 L 2.07 0 L 2.07 -16.43 L 5.55 -16.43 L 5.55 -9.99 L 12.06 -9.99 L 12.06 -16.43 L 15.53 -16.43 ZM 29.142 -2.88 L 29.142 0 L 19.682 0 L 19.682 -16.43 L 29.142 -16.43 L 29.142 -13.58 L 23.162 -13.58 L 23.162 -9.97 L 28.732 -9.97 L 28.732 -7.12 L 23.162 -7.12 L 23.162 -2.88 L 29.142 -2.88 ZM 42.724 0 L 32.574 0 L 32.574 -16.43 L 36.054 -16.43 L 36.054 -2.88 L 42.724 -2.88 L 42.724 0 ZM 55.728 0 L 45.578 0 L 45.578 -16.43 L 49.058 -16.43 L 49.058 -2.88 L 55.728 -2.88 L 55.728 0 ZM 73.493 -8.24 C 73.493 -5.52 72.819 -3.43 71.473 -1.97 C 70.126 -0.51 68.193 0.22 65.673 0.22 C 63.153 0.22 61.219 -0.51 59.873 -1.97 C 58.526 -3.43 57.853 -5.527 57.853 -8.26 C 57.853 -10.993 58.529 -13.083 59.883 -14.53 C 61.236 -15.97 63.173 -16.69 65.693 -16.69 C 68.219 -16.69 70.153 -15.963 71.493 -14.51 C 72.826 -13.057 73.493 -10.967 73.493 -8.24 Z M 61.503 -8.24 C 61.503 -6.407 61.853 -5.023 62.553 -4.09 C 63.246 -3.163 64.286 -2.7 65.673 -2.7 C 68.453 -2.7 69.843 -4.547 69.843 -8.24 C 69.843 -11.94 68.459 -13.79 65.693 -13.79 C 64.306 -13.79 63.263 -13.323 62.563 -12.39 C 61.856 -11.457 61.503 -10.073 61.503 -8.24 Z" transform="matrix(1, 0, 0, 1, 147.69000244140625, 82.95999908447266)" style="white-space: pre; fill: rgb(103, 204, 230);"/>
      <polygon class="cls-13" points="15.09 145.9 41.83 159.27 48.76 182.04 51.77 162.75 84.41 177.59 97.78 117.18 15.09 145.9"/>
      <polygon class="cls-8" points="88.29 123.74 45.95 154.56 52.64 156.42 88.29 123.74"/>
    </g>
  </g>
</svg>