<svg xmlns="http://www.w3.org/2000/svg" xmlns:xlink="http://www.w3.org/1999/xlink" viewBox="0 0 878.22 508.24"><defs><style>.cls-1,.cls-2,.cls-3{stroke:#fff;stroke-width:0.32px;opacity:0.31;}.cls-1,.cls-14,.cls-2,.cls-3,.cls-7,.cls-8,.cls-9{stroke-miterlimit:10;}.cls-1{fill:url(#linear-gradient);}.cls-2{fill:url(#linear-gradient-2);}.cls-3{fill:url(#linear-gradient-3);}.cls-4{fill:#67cce6;}.cls-5{fill:#4687c7;}.cls-6{fill:#4378a5;}.cls-11,.cls-7{fill:#fff;}.cls-7{stroke:#36434c;}.cls-14,.cls-7,.cls-8,.cls-9{stroke-width:1.47px;}.cls-14,.cls-8,.cls-9{fill:none;stroke:#004c75;}.cls-9{stroke-dasharray:8.93 8.93;}.cls-10,.cls-15{fill:#004c75;}.cls-12{fill:#fcb21f;}.cls-13{fill:#b4c6d0;}.cls-14{stroke-dasharray:8.82;}.cls-15{opacity:0.15;}</style><linearGradient id="linear-gradient" x1="374.27" y1="305.39" x2="878.06" y2="305.39" gradientUnits="userSpaceOnUse"><stop offset="0" stop-color="#fff"/><stop offset="1" stop-color="#50c8ec"/></linearGradient><linearGradient id="linear-gradient-2" x1="87.18" y1="276.59" x2="533.08" y2="276.59" xlink:href="#linear-gradient"/><linearGradient id="linear-gradient-3" x1="62.03" y1="276.59" x2="507.94" y2="276.59" xlink:href="#linear-gradient"/></defs><title>Success-party</title><g id="Layer_2" data-name="Layer 2"><g id="Layer_1-2" data-name="Layer 1"><path class="cls-1" d="M438.13,143.3c15.5-15.49,83-20.38,105-22.87,87.13-9.84,297.16-10.33,331.49,98.73,20.25,64.31-54.47,91.6-66.8,145.78-8.29,36.43,38.83,86.3,4.6,117.19C800,493.3,781.66,495,765.74,494.29c-84.75-3.71-108.19-92.09-140.9-154-8.63-16.34-19-32.42-33.46-44.17C548.29,261.17,481.49,272,430.45,261c-17-3.66-54.7-10.8-56.14-33.88-1.08-17.43,18.64-37.3,29.55-48.85a257.78,257.78,0,0,1,31.62-28.93"/><path class="cls-2" d="M89,316c0-22.46-3.33-44.4-1-67,16.63-158.66,127.68-54.86,215.65-85.8,15.83-5.56,30.51-14.28,43.86-24.36,49.27-37.21,157.79-154,182.22-23.37,21.89,117-70,169-113.08,261.31-19.2,41.17-13.8,90.08-61.05,112.2-14.8,6.93-31.58,10.58-47.88,8.4-56.27-7.5-41.69-93.28-84.54-121.48-32-21.07-118.7-9-133.91-53.34"/><path class="cls-3" d="M63.84,316c0-22.46-3.32-44.4-1-67,16.62-158.66,127.68-54.86,215.64-85.8,15.83-5.56,30.52-14.28,43.86-24.36,49.28-37.21,157.79-154,182.23-23.37,21.88,117-70,169-113.08,261.31-19.2,41.17-13.8,90.08-61.05,112.2-14.8,6.93-31.58,10.58-47.89,8.4-56.26-7.5-41.69-93.28-84.53-121.48-32-21.07-118.71-9-133.92-53.34"/><path class="cls-4" d="M395.19,237.84c-1.08,1.08-6.57-1.54-7.6-2a26.93,26.93,0,0,1-16-18c-6.67-24.46,13.6-40.86,34.85-46.69A41.72,41.72,0,0,1,418,169.43c18.74.23,21.73,11.91,27.08,26.75,4.4,12.21,9.44,26.87,18,36.83,12.29,14.37,36.32,7.88,47.15,24.62,5.14,7.94,4.59,17.76,5.2,26.8.31,4.53,2.88,12.31.93,16.62-1.27,2.81-6.17,3.27-8.71,3.9a207.22,207.22,0,0,1-27.91,4.51c-10.35,1.12-22.67,4.41-32.95,1.42-13.26-3.86-23.37-22.27-26.52-34.67-2.12-8.38,1.51-19.75-3.19-27.25-5.49-8.76-14.73-5.44-20.55-10.88"/><path class="cls-5" d="M457.25,389.6c.41,0-2.86,1.76-3.34,2-2.1,1-5.45,1.76-6.85,3.73-3.54,5-2.54,16.77-2.92,22.59-.08,1.29-1.13,6.75.69,7.48,2.7,1.08,3.73-5.94,4.09-7.22a97.86,97.86,0,0,1,9.49-22c.95-1.64,4.72-6.16.74-6.44"/><path class="cls-6" d="M562.75,481.17c0-2.06-4.66,5.36-2.26,7.1,7.22,5.21,19.16,10.25,27.41,15.37,1.78,1.1,7.3,5.73,9.4,2.89s-4.63-5.72-6.43-7.23c-4.82-4.06-20.2-20.11-26.27-18.7"/><path class="cls-6" d="M438.93,303.29c0-.84,5.29-2,5.81-2.13a172.3,172.3,0,0,1,20.82-4.62c22.67-3.61,47.55-4.33,70.5-3.92,6.28.12,20.27.17,20.27,9.37,0,9.8-9.73,19.9-15.69,26.75-16.68,19.17-33.9,36.7-54.36,51.91a216.31,216.31,0,0,1-21.8,14.11c-1.61.92-5.4,4.12-7.45,2.84-8.3-5.19.23-12.2,4.39-16.21,4.84-4.66,8.81-10,13.38-14.92,7.22-7.71,15.25-14.63,22.5-22.33.82-.87,11.86-12.58,11.67-13.14-.4-1.2-13-2.1-14.46-2.29a155.84,155.84,0,0,1-43.14-12.25c-2.92-1.32-16.27-6.7-11.87-12.12"/><path class="cls-5" d="M411.52,312.8c0-.29-.1.16-.11.22a41.61,41.61,0,0,0-.32,5.11c-.12,3.71-.29,7.45-.09,11.15.67,12.17,6.95,20.9,17.48,24.7,14.23,5.15,29.38,3.32,44.08,5,19.65,2.29,41.68,13.64,51.8,33,3.16,6,3,13.15,6.1,19.18,5.74,11.28,16.13,19,21.44,30.5s5,24.71,7.2,37c.69,3.77,7.83,7.81,10.69,4.33,2.25-2.74.56-12.06.65-15.46a182.67,182.67,0,0,0-6.16-51.36c-10.13-37.79-32-58.48-60.84-79.88-12-8.92-24.05-17.59-37.59-23.6-7.58-3.36-15.13-6.56-22.42-10.63-2.83-1.58-6.62-5.32-10-4.89-8.26,1-14.31,10.81-20.76,15.65"/><path class="cls-7" d="M243.36,335.44c0-.39,2.73,2.43,3,2.75,1.78,1.72,3.53,3.47,5.23,5.26,5.5,5.76,11.28,17,17.65,6.24,1.22-2.06-2.31-4.31-3.54-5.43-2.94-2.67-12-12.75-15.58-13.43-2.82-.54-4.14,4.35-6.68,4.35"/><path class="cls-6" d="M122.81,226.15c-.3-.3.72.64.8.72l3.54,3.39c2.59,2.47,5.15,5,7.74,7.46,8,7.62,16.09,15.11,23.87,22.92,22.19,22.3,45.17,43.22,68.75,64,2.8,2.47,18,17.77,20.55,17.82s4.59-3.09,6-4.71c4.67-5.41-1.38-9.45-5.34-13.62-10.24-10.81-19.82-22.2-29.61-33.42Q193,260.8,168.32,229.62c-4.41-5.59-9.08-11.13-13.18-17-1-1.39-2.35-5.42-4.28-5.78-2.74-.5-6,3.57-7.79,5.07-5.79,4.84-12.59,11.12-19.25,14.75"/><path class="cls-8" d="M440.24,231.45s1.09-1.22,3-3.22"/><path class="cls-9" d="M449.58,221.93c19-18.1,61.31-51.64,72.88-4.19,15,61.77,49.17,54.42,49.17,54.42s35.45-6.6,39.86-72.79c3.58-53.79,46.56-108,62.54-126.43"/><path class="cls-8" d="M677,69.59c1.9-2.11,3-3.24,3-3.24"/><polygon class="cls-8" points="643.65 29.56 670.12 42.8 676.98 65.35 679.96 46.25 712.28 60.94 725.52 1.13 643.65 29.56"/><polygon class="cls-10" points="684.42 68.15 695.16 52.86 679.96 46.25 684.42 68.15"/><polygon class="cls-4" points="716.12 7.62 674.2 38.14 680.82 39.98 716.12 7.62"/><path class="cls-7" d="M609.76,138.11l-2.57,31.24s-.12,3.33,6.17,2.13l4.64,11s1.92,3.09,11.73,1.38l5.87,29.81,18.95-19.63-5.44-33.73-7.56-26.54Z"/><path class="cls-7" d="M251.86,131s5.68,16.37,9.18,25.16c3.08,7.75.79,16.8.79,16.8l-14.27,5.73s-.87,7.16,13.78,14.93l-19.52,7.7s2-18.59-11-34"/><path class="cls-10" d="M544.06,150.88s.09,1.66.13,2c.14,1.35.34,2.71.52,4.06.53,3.86.77,7.79,1.43,11.63.79,4.58,2.08,9.07,3,13.62.23,1.08.31,3.75,1.46,4.36.91.48,2.47-.09,3.39-.28a25.09,25.09,0,0,1,6-.24c2.45.1,6.57.35,8.7-1.07,2.38-1.59.52-7.63.23-9.76-1.07-7.79-2.55-15.53-4.37-23.17-.58-2.42-1-7-3.42-8.4-1.76-1-5.19-.24-7.08,0-2.71.29-5.83.49-8.37,1.58-.62.27-1.94.8-2.23,1.5-.45,1.07.17,2.95.32,4"/><path class="cls-11" d="M546.62,149.61c0-.29.54,3.6.7,4.41.54,2.71,1.15,5.42,1.77,8.12,1.24,5.32,2.43,10.7,3.81,16,.29,1.12.85,4.47,2.16,5,1.77.76,4.52-.15,6.35-.21,1.42,0,3.56.27,4.82-.54,2-1.25.25-7.31,0-9-1.25-7.08-2.94-14.08-4.43-21.11-.36-1.66-.51-6.22-2.09-7.3-1-.7-2.85.17-3.84.49-.77.25-1.55.45-2.33.65-1.65.42-7.72.58-7.15,3.71"/><path class="cls-12" d="M769.6,100.34c-2,5-1,10.41-4.05,15.4-9.32,15.21-28.44,28.91-23,49.27,4.11,15.43,22.09,19.86,35.29,24.22,7.88,2.6,16.07,6.32,20.66-3.27,4.86-10.14,1.48-22.35.29-32.91-1.56-13.91,1.86-28-3.51-41.43-3-7.54-10.68-6.14-16.92-9.22-2.42-1.2-5.56-4.52-8.4-2.45"/><path class="cls-7" d="M756.69,76.84c-.94-.94.56,2.6.84,3.9.54,2.55-4.11,4.61-3.76,7.18a88.55,88.55,0,0,0,6.43,21.25c1.25,2.73,5.25-.6,7.24,1,2.59,2.1,5.17,9,9,8.81,3.48-.21,9-7.73,12.16-6.17,6.76,3.38,2.18,21.67,6.68,27.61.89,1.18,9.78-9.56,10.93-10.58,2.69-2.39-.73-12.51-1.44-15.25-3.59-13.68-15.56-33.48-27.26-42C774,70,756.78,69.13,756.78,76.12"/><path class="cls-7" d="M789.3,316.93s-.08,0-.12,0c-3.07,4.32-5.73,8.86-9.13,13-10.89,13.2-22.49,26.34-35,38-8,7.42-16.83,13.22-25.7,19.44-4.81,3.36-5.18,9.32-8.25,14.05a9.43,9.43,0,0,0-1,1.63c.2.15,1-.35,1.15-.42q13.39-6.21,26.22-13.54c23.9-13.71,62.66-39,73.63-65.29a2,2,0,0,0,.1-.32c.38-1.88-9.5-3.57-11-4.09s-9.92-5.73-10.86-4.59"/><path class="cls-7" d="M780.21,139c-.16-.16-1.83,1-2,1.08a73,73,0,0,0-6.62,4.39c-6.54,4.88-11.93,10.81-19,15.14-1.46.9-5.37,4.3-7.34,3.54-6-2.3-11.25-8-15.57-12.52-9-9.37-16.81-20.14-27.31-27.92a22.11,22.11,0,0,0-13.66-4.59c-1,0-4-.5-4.75.56s.54,2,1.5,2.31c1.93.72,4,1,5.87,1.91.9.4,1.68,1.17,1,2.15-.89,1.26-2.72,1.6-4.17,1.7-3.76.25-7.55-2.12-11.06-3.19-1.2-.37-5-.68-3.47,1.89,1,1.66,4.12,2.61,5.74,3.37a27.65,27.65,0,0,0,10,2.84c5.61.33,10.51-.83,14.92,3.41,4.05,3.89,6.71,9.06,10.27,13.36,2.32,2.81,5.11,5.16,7.67,7.74,3,3,5.81,6.3,8.8,9.37,3.61,3.69,8.74,10,14.17,10.71,7.85,1.11,15.32-6.63,21.38-10.44,5.07-3.18,10.65-5.38,15.77-8.47,1.3-.79,4.59-2.68,4.8-4.46.16-1.34-1.53-2.88-2.15-3.94-1.65-2.83-2.57-6-4.26-8.87"/><path class="cls-10" d="M778.43,141.33a29.31,29.31,0,0,0,1.7,4.32c1.11,2.6,2.12,6.4,4.08,8.5,2.28,2.44,7.21-1.42,8.24,1.06,3.8,9.12-1.32,30.07-5.05,39.13-5.5,13.36-23.83,34.09-35.7,42.12-7.8,5.26-23.45,12.56-27.05,21-3.75,8.82,2.64,23.24,8.29,30,6.33,7.62,15.34,11.6,23.33,17.12,16.65,11.52,32.26,28.54,54.89,23.48,6-1.34,8.09-7,10.43-12,5.34-11.4,8.14-23.11,9.94-35.55a329.78,329.78,0,0,0-1.82-107.45c-1.79-9.71-7.36-18.08-9.11-27.57-1.16-6.28,4.54-.7,7.23-2.93,2.31-1.91,1-11.46-.19-13.91-6.93-13.86-20.9-4-29.58-.08-2.17,1-3.63-.64-5.73-.15-4.12,1-11.11,7.31-12.64,11.33"/><path class="cls-7" d="M693.44,280.23c0-.3-1.86,1.21-1.89,1.24-1.67,1.39-3.3,2.82-4.95,4.23-4.3,3.71-8.32,7.69-12.39,11.65-11.28,10.95-22.52,22-32.67,34.07-3.35,4-6.55,8-9.77,12.08-1.49,1.89-4.45,5.69-4.45,5.69a11.82,11.82,0,0,1,1.76.56c3.09,1.47,8,7.7,11.39,5.3,14.81-10.37,26.62-25.78,40.66-37.29,5.35-4.39,20.31-13.24,23.45-19.28,1.24-2.39-11.41-11.44-11.41-16.37"/><path class="cls-13" d="M664.86,250.62c15-7.48,33.77-12.48,49.67-18.05,5.15-1.8,14.06-6.31,19.7-4.22,4.36,1.62,6,8.45,7,12.33,2.51,10.36,4.75,20.77,7.18,31.14,1,4.38,3.66,11.13-.84,14.32-12.47,8.84-30.5,12.17-44.78,16.91-3.39,1.12-12.23,5.9-15.95,4.56-2.88-1-4.54-8.58-5.49-11-4-10.39-7.53-21.08-11.91-31.3-1.18-2.77-6.45-10.07-4.07-12.92"/><path class="cls-6" d="M667.21,380.5c-.19-.19.09,0,.15.1,2.18,1.92,4,4.28,6.13,6.31,11.26,11,20.35,17.5,22.7,12.81.72-1.43-4-5.39-4.81-6.3-3.82-4.55-9.19-18.08-15.43-19.33-2.29-.45-11.92,4.21-8.57,6.81"/><path class="cls-6" d="M672.09,464.15c4.17,8.32,3.95,25.19,6.19,35,.35,1.56,1.66,10.36,5.07,8.95,2.75-1.14,1.72-10.26,1.79-12.4.26-7.24,4.62-17.5,2.71-24.54-1.49-5.51-8.66-14.26-14.23-8"/><path class="cls-5" d="M481.89,181.67c0,10.16,1.29,20.53,2.29,30.64a46.44,46.44,0,0,0,1.69,9.14,8.16,8.16,0,0,0,1.24,3.08c1.38,1.37,5.89.26,7.43.12,6.37-.6,12.74-1.18,19.08-1.94,2.55-.3,6-.29,6.09-3.52.18-4.09-.49-8.31-.82-12.39-.5-6.36-.81-12.75-1.48-19.1a62.64,62.64,0,0,0-1.21-7.94c-.26-1.12-.57-2.42-1.63-3.06-2-1.22-5.52-.46-7.68-.33a174.65,174.65,0,0,0-18.42,1.72c-2.39.41-7.23,0-6.77,3.35"/><path class="cls-11" d="M485.74,185.92a20.1,20.1,0,0,0,.06,3.08c.21,3.18.62,6.34,1,9.5.58,4.83,1.16,9.66,1.87,14.47.27,1.87.3,4.72,1.61,6.24s4.39.46,5.91.24c4.39-.63,8.84-1.32,13.19-2.17,1-.18,3.86-.27,4.59-.93s.27-2.64.23-3.39c-.14-3-.33-6.07-.53-9.11-.37-5.55-.82-11-1.53-16.47-.2-1.57-.39-4.87-1.93-5.84-3-1.89-7.63.08-10.73.4-2.67.29-5.39.11-8.05.52-1.86.29-5.72.27-5.54,3"/><path class="cls-7" d="M450.21,257.14c-.23.23.64-.11,1-.14.64-.05,1.29-.06,1.93-.08a28.18,28.18,0,0,1,5.5.47c2.35.42,7.47,2.87,9.8,1.71,1.41-.7,2.37-2.61,3.16-3.87s1.43-2.27,2.12-3.41c3.15-5.17,6.06-10.45,9.52-15.42,1.64-2.36,5-5.41,5.65-8.29,1.05-4.74-7.44-8.2-5.34-13.42,1.15-2.87,6.73-3.94,9.39-4.36,1.06-.16,2.78-.43,3.64.47,1.52,1.58-.4,2.09-1.68,2.63-2,.83-5.64,2.39-5.11,5,.37,1.8,1.33,5.58,3.36,6.19a22.59,22.59,0,0,0,5.13.48c.53,0,1.45,0,1.61.69.25,1-.59,2.41-1,3.26-1.28,2.87-2.73,5.64-4.19,8.41-4.36,8.32-8.8,16.68-12.73,25.2-1.42,3.07-3,9-6,11-1.78,1.18-5,.77-7,.79-5.34.07-10.69.21-16,.38-1.22,0-6.05,1-6.72-.42s.47-3.63.85-4.95c1.18-4.11,1.95-8.55,3.54-12.52"/><path class="cls-5" d="M201.12,446.94c-1.86,0-6.36,4.15-7.83,5.15-13.24,9-14,13.09-15.09,29.11-.27,3.92-3.33,16.31,3.11,16.55,4.57.18,3.51-10,4.92-12.91,4.43-9.2,18.11-16.83,19.06-26.84.36-3.73,2.45-10.85-3-10.85"/><path class="cls-5" d="M321.44,401.9a17.2,17.2,0,0,0-1.17,2c-.71,1.29-1.39,2.6-2.08,3.9-1.93,3.59-4.71,7.18-5.79,11.15-.73,2.72,1.6,5.09,3.18,7,4,4.78,7.81,9.61,11.64,14.51,1.15,1.48,3.26,5.75,5.67,5.14,4.61-1.15.6-7-.26-9.26-3.64-9.59-2.35-18-3.52-27.95-.39-3.33-3-7.54-6.73-6.19"/><path class="cls-10" d="M298.09,288.25c-.73-.74,1.26,1.34,1.43,1.48,1.18,1,2.35,2,3.56,2.95,3.85,3,7.8,5.86,11.73,8.76,8.49,6.25,17.62,9.84,27.21,13.93,2.63,1.12,8.29,3.09,8.65,6.55.54,5.32-7.13,12.64-9.92,16.52-8.2,11.35-16,23.09-19.7,36.72-2.51,9.3-8.72,26-.66,33.8,1.92,1.86,5.84,5.75,8.85,4.89,4.62-1.32,8.25-5.46,11.6-8.66a103.29,103.29,0,0,0,21.29-28.41c7.65-14.87,13.18-30.92,17.69-47,1.81-6.45,4.92-14.6,2.75-21.32s-9-10.19-14.32-14.35c-13-10.18-27.74-19.94-42.95-26.43a178.2,178.2,0,0,1-22.87-12.36c-1.54-.94-5.59-5.23-7.49-4.77-2.61.64-2.39,8.35-2.43,10.18-.19,8.55-.81,19.18,4.38,26.59"/><path class="cls-4" d="M257.22,260.3c0,.54-1.4,2.51-1.62,3.25a32.35,32.35,0,0,0-1.31,11.82c.65,8.14,5.63,14.58,8.27,22,3.11,8.77,4,18.4,6.48,27.39,1.74,6.3,8,21.49,3.52,27.18-9.66,12.32-25.73,26.52-37.51,37.15-13.28,12-25.44,22.1-31.78,39.21-3.24,8.75-14.72,32.12,1.1,35.84,21.19,5,38.88-14.86,51.78-28.79,11.43-12.36,21.64-25.84,32-39.08,5.94-7.57,13.25-14.74,15.77-24.3,4.09-15.55-.26-44.25-.94-60.87-.2-5.1-.46-10.2-.61-15.3-.12-3.92-.14-7.84-.35-11.75-.4-7.52-.72-28.6-5.74-34.78-2-2.43-6.22-3.46-9-4.53-4.08-1.57-7.36-2.57-11.38-.34-7.27,4-11.66,10.56-17.54,16"/><path class="cls-7" d="M181.93,384.57c0,1.26,3.65,4.09,4.4,4.85,4.43,4.47,9.19,11.58,14.82,14.54,1.44.76,8-1,8.3-2.85.23-1.31-5.43-5.39-6.27-6.19-4.55-4.33-13.32-18.46-19.61-12.55-.65.6-2.42,1.69-2.61,2.64"/><path class="cls-12" d="M329.58,132.37c.65.65-2.79-2.63-3.31-3.12-2.31-2.15-6.56-4.37-7-7.76-.13-.88-.75-4.63.46-5.06,2-.72,6.24,4,7.45,5.12A283,283,0,0,1,348,142.7c.59.66,7.76,7.57,6.22,9.34-.58.66-5.71-3.69-6.23-4.08-6-4.53-12.47-9.06-17.58-14.64"/><path class="cls-5" d="M166.47,86.23c-.17,0-.24-.28-.38-.3s.1.2.14.3.18.42.27.62c.33.72.68,1.42,1,2.13a89.12,89.12,0,0,0,4.68,8.79c2.78,4.61,5.33,9.36,8.11,14,1.19,2,2.68,4.91,4.76,6.11,1.64,1,3.94-.41,5.35-1.22,3.34-1.92,6.35-4.31,9.66-6.26,1.65-1,4.21-2.08,5.13-3.89,1.27-2.52-1.54-5.44-2.78-7.35a91.41,91.41,0,0,1-5.89-11.43c-1.21-2.54-2.55-5-3.71-7.59-1-2.27-2-5.93-5.07-5.8-1.89.09-3.62,1.23-5.3,2A96.36,96.36,0,0,0,171.5,82a36.57,36.57,0,0,0-3.63,2.51c-.31.25-1,1.11-1.41,1.15"/><path class="cls-11" d="M177.37,99.69c0,.06-.76-1.19-.88-1.4-.55-1-1.14-2-1.72-3-1.17-2-2.36-4.11-3.52-6.18-.33-.6-1.28-1.72-1.19-2.45.13-1.12,2.71-2.32,3.5-2.83a59.58,59.58,0,0,1,9-4.3c1.38-.59,2.85-1.66,4.34-1.93,1-.17,1.53.49,2,1.28a44.52,44.52,0,0,1,2.2,4.43c2.45,5.27,5.33,10.31,8,15.47.7,1.35,1.36,2.71,2.06,4.06.25.49.82,1.25.73,1.84s-1.09,1.15-1.63,1.5c-1.64,1-3.25,2.11-4.9,3.13-1.81,1.12-3.63,2.21-5.5,3.22-.74.41-1.8,1.18-2.7,1.07-.54-.06-.78-.63-1-1a19.51,19.51,0,0,0-1.57-2.27,52.14,52.14,0,0,1-5.95-8.78c-.34-.67-1.13-1.3-1.37-2"/><path class="cls-5" d="M109.25,238.69c0,5.55,4.63,13.25,6.46,18.41,5.77,16.25,12.66,32,19.33,47.88,5.71,13.64,11.11,27.41,17.93,40.55,2,3.84,4.06,7.64,6.28,11.36,1.71,2.85,3.48,5.66,5.28,8.46,2,3.14,13.91,23.72,18.16,24.45,2.17.38,4.51-2.62,5.88-3.83,1.06-1,3.92-2.6,4.29-4.08.57-2.28-3.52-7.45-4.46-9.38-4.08-8.31-6.41-17.21-10-25.7-9.34-22-21.64-43.33-28.31-66.35-2.67-9.22-10.09-42.09-16.41-48.72-3.54-3.72-20.74,3.2-24.55,7"/><path class="cls-10" d="M114.36,171.51c0,.15.85.44,1,.49a34.38,34.38,0,0,1,3.92,2.11c3.56,2.09,7,4.37,10.4,6.72,8.62,6,17.78,12.11,25.33,19.43a64.56,64.56,0,0,1,5,5.45c.34.41,1.4,1.27,1.24,1.9-.31,1.24-2.9,2.46-3.83,3.15-3.82,2.85-7.59,5.77-11.27,8.8-3.45,2.84-7.41,7.19-11.57,9-2.88,1.23-3.28-4.93-3.68-6.33-.19-.68-.39-1.37-.58-2.06-2.95-10.36-5.59-20.92-8.95-31.15-1.29-3.92-2.79-7.79-4.36-11.6-.61-1.5-1.43-2.87-2.1-4.33-.12-.27-.23-1.53.38-1"/><path class="cls-7" d="M83.5,121.2c5.18,0,8.55-8.28,9.92-12.15.49-1.37.72-4,2-5,.39-.31,8.39,2.93,8.54,3.42.71,2.38,1,4.84,2,7.18.74,1.84,4.07,5.5,3.9,7.45s-4.77,3.79-6.23,4.53c-6,3.06-17.33,3.66-19.64-4.65"/><path class="cls-7" d="M391.17,255c0-6.84,1.73-9.36,4.26-20.7,1.27-5.68,3.3-17.44,2.94-22.16-.1-1.35-3.47-1.43-4.41-2.06-2.51-1.68-2.63-6.11-1.47-8.62,2.5-5.46,8.83,1,12.42-.47,6.5-2.63,11.15-8.61,18.89-7.11,8.51,1.66,4.67,7.3,5.94,13.07.74,3.37,1.12,10.31,1.48,13.76.63,6-4,2-5.66,3.67-3,3-1.36,7.67-6.53,9-3.42.92-3.76-2.25-4.76.93-2,6.38,4.34,13.62,1,17.82-.94,1.19-12.21.07-13.55.49-1,.3-8.91,3.2-9.8,2.31"/><path class="cls-7" d="M551.33,203.65s-.78-1.57-.85-1.69c-.6-1-1.22-2-1.87-3-2.07-3.13-4.34-6.16-6.34-9.33-2.52-4,.44-5.46,1.42-9.28.89-3.51.78-7.2,1.2-10.79.1-.77.7-5.83,2.48-5.61.72.09.85,3.49.9,3.92.56,4.16,1,8.66,3,12.44,1.73,3.27,8.12-.69,10.9-.13,2.58.53,1.66,3.17.06,4.28a18.84,18.84,0,0,1-2.2,1.32,11.41,11.41,0,0,0-4.47,3.45c-2.76,4.06,2.15,7.84.78,11.77-.7,2-3,5.17-4.67,2.58"/><path class="cls-7" d="M60.74,165.53c0-2-.77,4.57-.88,5.17-.65,3.79-1.31,7.58-1.77,11.4-1.37,11.67-2.32,23.58-4.48,35.13-1.82,9.67-4.78,22-11.33,29.68a30.15,30.15,0,0,1-8.22,7.21c-1.47.78-3.27.9-4.66,1.71-.72.41-.69,1.95.17,2.21,3.93,1.2,9.77-.13,13.09-2.48,2.27-1.6,4.57-4.07,7.26-4.92,1.71-.54,3,1.34,4.27,2.15a7.12,7.12,0,0,0,3.79.85c.63,0,1.79.17,2.3-.31a1.4,1.4,0,0,0-.05-1.9c-.57-.47-1.46-.45-2.07-1a7.53,7.53,0,0,1-2.53-7.09c2.79-13.48,7.43-26.54,10.3-40a182.87,182.87,0,0,0,3.54-27.79c.15-2.63,1.4-8.2-.48-10.47s-5.26-1.12-7.52-.5"/><path class="cls-7" d="M141,78.83c-.35,0-1,1.67-1.14,1.91a50.07,50.07,0,0,0-3,7.06,20.62,20.62,0,0,0-1.07,5.49c0,1.15.31,2.85-.26,3.91-1,1.84-3.74,2.54-5.44,3.5-4.21,2.4-11.38,9.41-16.17,4.48-5.31-5.46-3.48-14.08-2.68-20.75A54.65,54.65,0,0,1,112.6,77a35.48,35.48,0,0,1,2.71-7c1.54-3,3.72-6.33,6.77-8,7.9-4.38,11.34,5.74,14.84,10.63,1.33,1.86,4.31,3.43,4.08,6"/><path class="cls-7" d="M135.72,151.31c0-.17,1.21.14,1.28.16,1.41.42,2.81.93,4.17,1.47a33.87,33.87,0,0,1,4.34,2c2.56,1.46,5.3,4.09,8.14,1.8,1.45-1.17,2.27-3,3.18-4.56,1.59-2.75,3.23-5.44,4.64-8.28,3.37-6.79,6.93-13.5,9.55-20.64,1.5-4.12,2-8.52,3.59-12.64.85-2.26,1.86-4.83,4.28-5.75a22.06,22.06,0,0,1,6.34-1.22c.7,0,2.56.07,3.13-.43.35-.3.17-1.42.07-1.81-.28-1.07-3.38-1.42-4.22-1.58a67.43,67.43,0,0,0-9.41-1c-1.78-.1-3.69-.22-5,1.15-2.88,2.93-1.86,8.44-3.58,12-3.24,6.84-7.34,13-10.93,19.67-1.8,3.33-3.12,6.92-5,10.23s-7.32.12-10.32.48c-2,.24-3.49,3.55-3.91,5.19a8.56,8.56,0,0,0-.41,3.4"/><path class="cls-7" d="M217,243.31s-1.55,4.6-1.72,5.18q-1.55,5.17-2.65,10.46c-2.2,10.59-5,21.06-6.68,31.75-2.53,15.81-1.73,31.26-6.77,46.6-.61,1.88-4.66,13.15-2.85,14.2,2.09,1.2,4.38-9.26,5.33-10.74.11-.18.37-.66.65-.56,1.58.52-1.91,12.76.3,12.86s3.14-10.6,4.34-10.66c1.45-.08.77,10.35,2.9,10.7,1.81.3.54-10.33,2-10.64,1.21-.25,2.46,8.66,4.93,8.51,1.52-.09.87-3.73.74-4.53-.71-4.48-2.6-9-2.47-13.62.16-5.95,7.09,2.39,7.69-1.77.33-2.34-4.58-5.3-5.69-7.31-2.13-3.9-1.93-9.39-1.51-13.64,1.54-15.52,6.75-29.87,10.05-45,.84-3.83,2.44-8,2.72-11.91.22-3-8.54-14.76-11-9.85"/><path class="cls-7" d="M298.3,189.09c0,.37,4.48.07,9.43-.39,4.17-.39,14.78.71,16.26-4.67,3.41-12.44,1.72-27.42.57-40.05-.36-4-1.73-8.4-1.46-12.38s6.59-11.87,11-9.32c2.06,1.18,9,6,8.62,8.77-.28,1.84-4,3.22-3.57,4.9.38,1.5,4.13.29,4.19,2.09.08,2.15-5,3.5-5.63,6.24-1.71,7.1-.24,15.66,0,22.86.24,6.87,3,24.79-.51,30.64-1.55,2.56-5.7,2.93-8.29,3.46-5.32,1.07-21,4.46-25.73.82-3.13-2.42-2.57-8.34-4.6-11.67"/><path class="cls-12" d="M124.56,64.66c-.18.17.71,1.15,1.08,1.64,1.47,1.9,2.83,3.89,4.3,5.79a79.63,79.63,0,0,0,7.47,8.31c.7.68,1.75,2.4,2.81,2.45.88,0,2.21-1.49,2.83-2,3.28-2.89,3.78-7.61,3.81-11.83a17.42,17.42,0,0,0-2.43-8.86c-1.87-3.22-3.76-6.86-7-8.95-7.52-4.92-15.65-5.18-24.08-3-2.84.73-5.75,1.43-8.23,3.05-7.06,4.61-12.73,11.87-18.52,17.9a57.37,57.37,0,0,1-7.2,6.56c-3.33,2.45-7.86,3.82-6,8.65,2.2,5.73,6.39,10.85,10.63,15.18a69.88,69.88,0,0,0,9.38,8.06,43.16,43.16,0,0,0,13.3,6.36c2.1.6,4.54,1.06,6.21-.75s1.58-5.19,1.6-7.59c0-6-1.45-11.7-1.61-17.64-.22-8.25,5.88-16.3,11.13-22.12"/><path class="cls-12" d="M745.56,88.13c5.13,8,16.48-5.89,18-6.68,3.54-1.8,12.88-8.46,16.15-4.19,7.2,9.41,13.21,22.28,17.5,33.32,1.65,4.25,2.15,11.43,4.79,15,.52.71,9.33-.77,10.75-.94,1-.11,4.64.41,5.18-.5,6-10,9.46-35.06-1.41-42-7.3-4.66-17.34-1.75-24.75-6.72-7.22-4.84-10.54-17.77-20.48-18-14-.32-32.48,19.76-25.77,30.67"/><path class="cls-10" d="M228.23,180.85c-.56,0,1.09.32,1.64.38,1.06.12,2.13.27,3.2.29,3.85,0,6.68-1,6.68-5.33,0-3-.34-6.79-1.74-9.54-2.38-4.66-10.4-10.05-5.61-16.14,3.51-4.45,7.85,7.53,11.11,4.81,1.92-1.61,0-5.55-.68-7.34-1.63-4.63-2.85-10.68-.08-15.15,2.46-4,5.87,2.13,8.28,2.84,3.22.94,5.76-3.9,6.64-6.18,4.41-11.36-4.05-8.6-8.48-14.66-3.8-5.2-4.32-11.12-12.21-12.19-9.32-1.26-21.87,8.55-24.21,17.43-1.27,4.83.27,10.19-1.65,14.83-2.44,5.89-9.9,6.11-8,14.26.85,3.64,11.24,20.09,14.39,22.6,2,1.63,5,1,7,2.54s1.93,4.14,3.68,5.71"/><path class="cls-10" d="M607.83,143.9c-10.66,0-11.87-19.48-8.38-24.83,7-10.79,21-3.14,31.43-1.9,7.53.89,17.4.88,21.32,7.53,4.39,7.44,3.18,23.76-6.42,28.05-6.74,3-15.73,2.09-18.16-4.91-1.09-3.13-.18-8.83-4.63-10.29-6.25-2.05-7.91,1.09-10.38,4.77-.67,1-2.84,3.08-4.36,1.92"/><path class="cls-10" d="M367.7,270.39c-.22.65,1.8-2,1.95-2.2,1.07-1.43,2.24-2.79,3.41-4.14a45.74,45.74,0,0,1,14.37-11.41c13.35-6.51,38.8-9.7,52.81-4.19,2,.78,13.13,3.81,13.37,5.8.37,3.14-4.29,11-4.24,16.51,0,1.58.92,4.71-.66,5.82-3.85,2.71-11.89.11-14.84,4.33-2.76,3.94,6.73,15.5,6.6,18.82-.1,2.52-10.14,3.81-11.88,4.88-4.94,3-7.77,4.45-12.29,8.08-1.3,1-3.84,4-5.79,3.21-2.41-.93-3.38-6-4.19-8.08-2.32-6-5.3-20-9.65-24.75-3.6-4-5.71,2.79-9,2.37s-11.57-8.62-14.93-10.88c-1-.65-4.49-2-4.1-3.61"/><path class="cls-5" d="M59.7,166.82c-.55,0,3,1.2,3.52,1.34,2,.59,4,1.22,6,1.91.22.07,1.75.68,1.93.41.77-1.21.22-4.6.36-6a107.16,107.16,0,0,1,2.38-15.33,27.45,27.45,0,0,1,1.55-4.83c.15-.33.56-1.34,1.11-1.15.71.26.8,1.92.87,2.49.3,2.63.24,5.3.45,7.94a78.8,78.8,0,0,0,4,20.53c.7,2,1.25,5.06,2.7,6.64,1.14,1.24,5.59-1.81,6.69-2.3,6.34-2.82,12.72-5.63,19.23-8.05,1-.36,5.77-1.19,6-2.48.34-2-1.38-5.15-1.91-7a75.38,75.38,0,0,1-3.1-14c-.18-1.95-.76-5.81.92-7.35s4.69,1.29,5.85,2.17c3.55,2.67,7,5.52,10.38,8.37,1.16,1,3,3.2,4.5,3.55,1.06.25,1.81-1.48,2.29-2.14a68.74,68.74,0,0,1,5.95-7.13c.51-.52,2.53-2,2.3-2.89s-2.06-1.78-2.7-2.29c-2.75-2.22-5.5-4.43-8.18-6.74s-5.28-4.38-8.06-6.43c-1.89-1.39-3.85-2.65-5.84-3.9s-5.49-4.73-8-4.87c-1.13-.07-4.06,2.89-5,3.49-3.24,2.14-7.29,4-11.25,4-3.79,0-6.43-2.7-8.09-5.82-.28-.53-1.35-4.51-1.83-4.52a17.41,17.41,0,0,0-4.32,1C68,118.63,64.85,131.23,62,142.37c-.73,2.87-1.33,5.76-1.82,8.68-.77,4.57-2.69,11-1.28,15.69"/><path class="cls-5" d="M234.7,203.48c-6.78,6.77-10.88,15.78-15.23,24.15-1.86,3.58-5.1,7.78-5.57,11.89-.45,3.84,10.52,14.86,14,14.46,2.08-.23,10.3-11.14,12.13-13.5.84-1.09,2.69-4.53,4.38-4.35,1,.1,1.91,4,2.27,4.78,1.76,3.76,4.33,8.92,7.88,11.25,6.76,4.42,26.26-.53,34.33-1.85,2.47-.41,8.43.2,10.36-1.38s-1.19-8.66-1.63-10.41c-1.67-6.75-8.83-22.23-7.65-28.59.79-4.22,10.23-3.52,13.48-3.84,1.09-.12,4.42.15,4.69-1.4.43-2.43-2.32-5.87-3.31-7.94-5.44-11.38-6.54-11.95-19-12-6.89-.05-20-2-26,2.45-2.9,2.14-.63,6-4.08,8-6.34,3.58-13.51,5.43-19.81,9.22"/><path class="cls-10" d="M111.52,63.42c-.39-.39-1.79-.11-2.22-.05a9.5,9.5,0,0,0-6,3.69c-5.31,6.7-2.63,18.61,6.91,19.28,7.2.51,15.49-8.87,12.58-16.16a11,11,0,0,0-7.32-6.52,27.08,27.08,0,0,0-3.37-.06"/><path class="cls-11" d="M112.35,69.21c-5,0-6.36,9.7-.94,10,4.26.22,8.4-6.17,4.21-9.08-1.06-.74-2.26-.51-3.43-.44"/><path class="cls-10" d="M115.87,65.59c-.25.12.66-.76.75-.86.49-.53,1-1.06,1.47-1.58,1.61-1.71,3.1-3.53,4.67-5.28,2.79-3.12,5.44-6.34,8.18-9.49.75-.86,2.33-2.94,3.67-2.82,1.71.16,4,3.45,4.89,4.76s-.14,2.14-1,3c-1.78,1.91-3.65,3.74-5.43,5.65-2.72,2.93-5.59,5.69-8.34,8.58-.78.83-2.12,3.06-3.45,3.1-.73,0-1.38-.8-1.84-1.26-1.1-1.1-2.35-2.07-3.45-3.17"/><path class="cls-12" d="M164.6,113.6c-.07-.07-.53-.63-.4-.69.41-.19,1.74,1.22,2,1.42,2.08,1.87,4.08,3.86,6.27,5.6.68.53,2,1.94,2.71.72s-1.08-2.41-1.73-3.08c-2.12-2.23-4.92-5.93-7.65-7.41-.87-.47-2.09,2-1.52,2.78"/><path class="cls-12" d="M240.74,192.84c-6.78,0-10.41,13.42-9.41,18.47,2.51,12.62,8.24,25.92,13.25,37.75,1.94,4.58,4.38,11.13,9.44,13.15,6.36,2.53,26.6-6.22,31.92-10.2,6.55-4.89.8-23.69-1.25-29.88-2.7-8.16-11.56-31.31-20.21-34.59-5.41-2.06-17.94,2.52-23,5.43"/><path class="cls-5" d="M212.13,417.08c.3.6-.85-.28-1-.37-1.49-1-2.92-2-4.33-3.14-2.05-1.59-13.38-8.93-9.31-12.49,1.94-1.69,6.12-3.7,8.76-3.42,3.2.34,15.85,11.61,16.27,14.91,1.29,10-6.9,9-12.17,4.52"/><path class="cls-5" d="M270.74,364.1c0,.91-3.29-2.7-3.64-3.1-1.78-2-4.87-4.68-5.7-7.33-.68-2.18,4.62-6.46,6.7-6.61,1.79-.12,4.28,2.59,5.49,3.6,2.36,2,7.61,5.47,7.26,9.12-.37,3.85-7.55,10.14-10.75,5.12"/><path class="cls-11" d="M427.49,261.06c-.45,0-1.11-.62-1.52-.78a5.29,5.29,0,0,0-4,0c-3,1.32-2.44,5.88-2.3,8.54.06,1.23.12,2.77,1.06,3.7s2.7,1,3.92.68c.23-.06,1.55-.78,1.73-.53.29.42.07,1.6,0,2.07a26.27,26.27,0,0,0,.19,4.61c.06.5,0,1.54.47,1.88a7.72,7.72,0,0,0,2.73.72c2.33.49,4.68.93,7,1.24,1,.13,2.43.54,3.34,0a5.42,5.42,0,0,0,1.65-2.28,51.81,51.81,0,0,0,2.68-6.22,94.28,94.28,0,0,0,2.89-10.6c.21-.89.41-1.78.62-2.67.06-.25.3-.71.12-.95-.32-.45-1.1-.61-1.58-.77a41.82,41.82,0,0,0-4.67-1.14,61.82,61.82,0,0,0-9.87-1.16c-1,0-2.89-.4-3.68.39s-.38,2.39-.52,3.32"/><path class="cls-7" d="M431.26,263.4c-.11.12-.25-.21-.39-.3a3.54,3.54,0,0,0-.88-.36c-1.06-.26-2.37-.45-3.14.51-1.05,1.32-1,3.61-.91,5.19a4.15,4.15,0,0,0,.47,2.14c.64,1,2.2.56,3.16.4.28-.05.93,0,1.11-.3a2.32,2.32,0,0,0,.11-1.17c0-.85.11-1.69.2-2.53a18.89,18.89,0,0,0,.35-3.25"/><path class="cls-7" d="M373,270.66c0-.58-.16,1.13-.26,1.7-.16,1-.34,2-.51,3-.6,3.51-1.15,7-1.66,10.56a197.34,197.34,0,0,0-2.47,26.68c0,4.19,1.27,8.63,5.84,9.85,3.83,1,7.68-5.34,9.61-7.78,7.24-9.09,12.51-19.61,19.6-28.78,1.64-2.12,3.72-4.1,6.37-4.8,2.19-.57,5,.1,6.7-1.64,1-1,.6-2.72,1.5-3.62s2.76-.36,3-1.85c.15-.76-.38-1.46-.25-2.21.17-.92,1-1.46,1.12-2.49s-.37-2.06.32-2.78c1.28-1.32,4.95-.77,6.66-.87.75-.05,2.09-.21,1.93-1.25-.26-1.76-5.26-1.61-6.45-1.69-3.41-.24-7.52-.72-10.79.64-2.71,1.12-5.19,3.75-7.4,5.61A105.79,105.79,0,0,0,385.86,292c-1.75,2.63-3.26,5.41-5,8-.38.57-1.19,2.24-1.94,2.4-.33.07.7-2.28.8-2.48.74-1.47,1.42-3,2.21-4.4,1.62-3,3.31-6.06,5.16-8.89,1-1.56,2.73-3.47,2.94-5.4.16-1.56-2.08-3.12-3-4.05s-1.8-1.7-2.73-2.52c-.56-.5-1.11-1-1.64-1.53-1.6-1.58-7.68-8.19-9.37-2.87"/><path class="cls-11" d="M784.81,193.6c7.88,0,15.74-.78,23.62-.78,4.91,0,9.84.19,14.74.47,2.22.13,9.51,1.78,11.41-.29,1.24-1.34.17-16.69-1.16-17.28-4.84-2.15-28.47,1.05-35,1.21-1.95,0-9-1.13-10.62.15-1.19.95-.57,6.46-.7,7.89-.16,1.69-2.73,8.13-1.65,9.49"/><path class="cls-7" d="M808.14,166.61c0,.14-1-.53-1.08-.57l-1.91-1.25c-1.66-1-3.28-2.15-5-3.1-.56-.31-1.6-1.12-2.31-.91s.94,2.76,1.16,3.07c1.39,2,6.54,6,4,8.7-4.41,4.62-11.63,4.19-17.34,5-1.38.18-3.2,1.57-1.93,3.05s4.18,1.49,6,1.49a32.42,32.42,0,0,0,10.81-1.86c1.64-.59,3.12-1.72,4.77-2.22,5.3-1.58,12-.21,17.37-.07,9.45.24,18.88-.26,28.32-.38,5.64-.07,14.5.73,14.91-6.69.29-5.21-2-9.72-4.94-13.87-5.95-8.35-15-14.38-23.54-19.85-3.44-2.21-6.76-4.62-10.12-7-.6-.42-2.73-2.46-3.51-1.54-1.19,1.42-.42,5-.45,6.74,0,2-.85,5.4,0,7.34.32.71,1.46,1,2.09,1.36,1.55.8,3.09,1.63,4.6,2.49a110.41,110.41,0,0,1,14.74,10.37,86.77,86.77,0,0,1,7.2,6.49c.37.37,2.15,2,1.56,2.8-.47.61-2.6.23-3.22.23-3.57,0-7.12.2-10.68.42-4,.25-8.09.53-12.13.81-5.79.39-13.6,1.86-19.24-.61"/><path class="cls-10" d="M567.08,345.09c-4.58-6.87-.74-18.35,2.29-24.88,8.64-18.61,22-34.88,37-48.69,3.37-3.09,19.65-17,25-14.17,2.54,1.34,1.16,17.21,1.09,19.88-.14,4.68,1.61,23.35-1.68,26.46-7.82,7.39-18,13.36-26.2,20.66-1.72,1.54-8.52,6.25-7.17,9.29,1.93,4.39,9.17,7.94,12.93,10.54C624,353.6,639.11,360.25,654.62,366c10.94,4,18.45,1.36,19.11,13.94.09,1.69,1.26,4.44.62,6-1.43,3.44-22.6-2.45-26.3-2.9-22.67-2.73-49.45-7.25-67.63-22.28-4-3.27-15.66-12.32-12.94-19"/><path class="cls-4" d="M625.08,254.43c.09,0-1.13,6-1.22,6.41-.91,4.41-1.81,8.83-2.42,13.3-1.84,13.42-2.16,26.55-2.16,40.08,0,44,5.7,88.64,27.65,127.55,5.24,9.28,11.25,18.16,17.26,27,.95,1.38,4,7.55,6.22,7.15,1.55-.27,3.1-3.45,4.32-4.48,2.09-1.77,11.64-6.69,10.72-9.45-2.32-7-7.63-13.65-10.84-20.3-9.44-19.51-17.72-41.5-19.9-63.17-3.51-35,10.09-69.71,7.14-104.44-.23-2.73-23.66-15.45-27.9-17.4-1.6-.74-7.33-4.92-8.81-2.82"/><path class="cls-7" d="M720.06,284.34c-.57,0,.07,8.82-1.09,10.54a3.58,3.58,0,0,1-.64.65,3.39,3.39,0,0,1-.56.37c-.51.28-11,6.18-4.51,5.66,1.77-.14,4.53-2.69,6.2-1.57,2.31,1.54.25,5.87,4.4,5.35,3.24-.4,10.83-4.66,11.58-8.17.67-3.11-4.34-14.13-7.84-15.33-2-.69-5.87,1.6-7.54,2.5"/><path class="cls-5" d="M547.57,201.18c0-1.16,1,1,1.09,1.19.72,1.66,1.27,3.4,1.88,5.1,1.57,4.44,3.08,8.89,4.81,13.27,2.39,6,5.46,11.75,8.34,17.56,4.63,9.38,8.32,20.68,20.64,20.9,12.57.23,21.55-12.21,29.46-20.24,2.53-2.57,5.1-5.12,7.76-7.55.61-.57,2-2.29,3-2.08,1.56.33,1.2,5.52,1.19,6.5a122.23,122.23,0,0,1-.85,13.92c-.2,1.52-1.38,5.12-.85,6.59.16.45,2,1.09,2.35,1.28,2.28,1.22,4.56,2.42,6.83,3.64,7.78,4.21,15.07,9.07,22.72,13.48,2,1.13,3.94,2.2,5.85,3.39.49.31,1.49,1.24,2.14,1.12s.55-1.94.59-2.32a49.12,49.12,0,0,1,1.78-8c3.28-11.5,4.45-23.53,4.89-35.46a51.83,51.83,0,0,0-.64-11c-.13-.7-1-3.29.18-3.32,2.11-.06,4,1.53,5.57,2.69a62.73,62.73,0,0,0,7.37,4.56c4.87,2.65,10.43,4.4,14.61,8.18,9.75,8.82,12.87,22.06,16.3,34.09a56.35,56.35,0,0,1,2,11.45c.1,1.41-.32,4.31.49,5.55.62,1,2.33.74,3.26.67a63.63,63.63,0,0,0,9-1.22c.85-.19,2.2-.08,2.65-1,.88-1.75-1-5.52-1.44-7.26-1.72-6.76-3.53-13.5-5.61-20.17-2.15-6.9-3.09-14.19-6.11-20.8-6.75-14.78-18.53-24.9-31.35-34.36-6.84-5.05-14.93-10.87-23.58-12.13s-17.29,4.13-24.75,7.61c-5.08,2.37-11,3.09-15.91,5.63-6.65,3.47-12.7,9.12-18.33,14-5.11,4.4-9.52,9.41-14.38,14.05-1.43,1.37-4.45,4.44-6.67,4.37-2.56-.09-5.61-5.05-6.94-6.81a191.23,191.23,0,0,1-14.85-24c-1.35-2.5-2.65-5.06-4.14-7.48-.42-.67-1.15-1.89-2.08-1.92s-1.87,1.1-2.52,1.65a50.34,50.34,0,0,1-5.73,4.33"/><path class="cls-5" d="M721.28,385.89c-1.78-1.78-2.69-6.5-5.14-7.29-2.17-.71-14.69,18.28-16.51,21.25-.86,1.41-8.81,12.67-8.7,13,4,11.19,19.65-11.06,21.42-13.66"/><path class="cls-14" d="M50.56,281.3s7.85,72.24,85.74,99.24"/><path class="cls-14" d="M60.74,278.81s7.15,43.13,63.13,49.59"/><path class="cls-14" d="M855.34,217.48C851.57,202,904,336.4,795.41,441.85"/><polygon class="cls-15" points="522.96 43.81 492.17 105.52 570.29 87.81 522.96 43.81"/><polygon class="cls-15" points="113.29 397.94 137.15 437.03 148.64 406.6 113.29 397.94"/><polygon class="cls-15" points="0 145.3 10.74 167.46 21.05 147.08 0 145.3"/><path class="cls-10" d="M88.05,177.16c0-.38-.14.73-.28,1.08-.27.72-.58,1.42-.88,2.13-.91,2.16-1.87,4.31-2.58,6.55-2.25,7.19-2.58,15.42,1.66,22,2.6,4,6.44,7.08,9.5,10.75a42.75,42.75,0,0,1,6.08,10.44c1.32,3,2.63,6,3.89,9.07.31.74.76,2.93,1.53,3.36,1.41.79,6.09-2.07,7.32-2.59,4.66-2,9.3-4.08,14.07-5.81,1.87-.67,5.08-.84,6.68-2,1.11-.82.75-2.61.7-3.77a115.48,115.48,0,0,0-1.22-11.88,104.4,104.4,0,0,0-13.48-38c-1.53-2.64-3.19-5.19-4.76-7.8-.56-.91-1.16-2.58-2.17-3.11-1.62-.84-5.33.94-6.84,1.44a115.64,115.64,0,0,0-12.7,4.91c-1.87.87-3.74,2.35-5.68,3"/></g></g></svg>