<?xml version="1.0" encoding="UTF-8"?>
<svg width="1252px" height="686px" viewBox="0 0 1252 686" version="1.1" xmlns="http://www.w3.org/2000/svg" xmlns:xlink="http://www.w3.org/1999/xlink">
    <title>Screen Shot 2019-04-08 at 1.02.50 PM@2x</title>
    <defs>
        <rect id="path-1" x="0" y="0" width="1252" height="686"></rect>
        <polygon id="path-3" points="0 0.342649363 372.391232 0.342649363 372.391232 415.878633 0 415.878633"></polygon>
    </defs>
    <g id="Page-1" stroke="none" stroke-width="1" fill="none" fill-rule="evenodd">
        <g id="Bluerock-plugin-(home)-Copy-5" transform="translate(-179.000000, -267.000000)">
            <g id="Screen-Shot-2019-04-08-at-1.02.50-PM" transform="translate(179.000000, 267.000000)">
                <mask id="mask-2" fill="white">
                    <use xlink:href="#path-1"></use>
                </mask>
                <use id="Mask" fill="#DBF8FF" fill-rule="nonzero" xlink:href="#path-1"></use>
                <g id="Clouds" mask="url(#mask-2)">
                    <g transform="translate(-200.000000, 244.000000)">
                        <path d="M1665.14134,607.218173 C1665.14134,732.788711 1573.85405,834.581893 1461.24736,834.581893 C1348.63891,834.581893 1257.35163,732.788711 1257.35163,607.218173 C1257.35163,481.647635 1348.63891,379.854453 1461.24736,379.854453 C1573.85405,379.854453 1665.14134,481.647635 1665.14134,607.218173" id="Corner" fill-opacity="0.6" fill="#FFFFFF"></path>
                        <g id="Right-group" opacity="0.6" transform="translate(860.018056, 70.872987)" fill="#FFFFFF">
                            <path d="M412.722233,520.424946 C412.748982,647.219081 320.378914,750.027979 206.408384,750.055766 C92.4378535,750.083542 0.0267603824,647.322269 0,520.528134 C-0.0249665704,393.733999 92.3451017,290.925101 206.313848,290.897313 C320.284379,290.867554 412.695472,393.630811 412.722233,520.424946" id="Fill-1"></path>
                            <path d="M618.002924,229.54446 C618.029674,356.338595 525.659606,459.147493 411.689075,459.17528 C297.720328,459.20504 205.307451,356.441783 205.280692,229.647648 C205.257508,102.853513 297.627576,0.0446156231 411.596323,0.0168277967 C525.566854,-0.0129314833 617.977947,102.750325 618.002924,229.54446" id="Fill-3"></path>
                            <path d="M860.018056,460.325672 C860.044805,587.119807 767.674338,689.928704 653.703315,689.956492 C539.734076,689.986251 447.3208,587.222995 447.295823,460.42886 C447.270856,333.636709 539.641324,230.825827 653.610563,230.79804 C767.581586,230.76828 859.993078,333.531537 860.018056,460.325672" id="Fill-5"></path>
                        </g>
                        <g id="Center-group" opacity="0.5" transform="translate(491.438889, 143.745974)" fill="#FFFFFF">
                            <path d="M408.481667,509.598096 C408.481667,634.754465 317.03948,736.211902 204.241716,736.211902 C91.4421873,736.211902 0,634.754465 0,509.598096 C0,384.441728 91.4421873,282.98429 204.241716,282.98429 C317.03948,282.98429 408.481667,384.441728 408.481667,509.598096" id="Fill-10"></path>
                            <path d="M613.80314,226.630592 C613.80314,351.786961 522.360953,453.244398 409.563189,453.244398 C296.76366,453.244398 205.321473,351.786961 205.321473,226.630592 C205.321473,101.474224 296.76366,0.0167862079 409.563189,0.0167862079 C522.360953,0.0167862079 613.80314,101.474224 613.80314,226.630592" id="Fill-12"></path>
                            <path d="M661.351271,509.598096 C661.351271,634.754465 569.909083,736.211902 457.11132,736.211902 C344.311791,736.211902 252.869604,634.754465 252.869604,509.598096 C252.869604,384.441728 344.311791,282.98429 457.11132,282.98429 C569.909083,282.98429 661.351271,384.441728 661.351271,509.598096" id="Fill-14"></path>
                        </g>
                        <g id="Left-group" opacity="0.6" transform="translate(0.000000, 0.914919)">
                            <g id="Group-21" transform="translate(0.000000, 262.523284)">
                                <mask id="mask-4" fill="white">
                                    <use xlink:href="#path-3"></use>
                                </mask>
                                <g id="Clip-20"></g>
                                <path d="M372.391232,208.110641 C372.391232,322.858669 289.028095,415.878633 186.196179,415.878633 C83.3626535,415.878633 -0.000482816728,322.858669 -0.000482816728,208.110641 C-0.000482816728,93.3626131 83.3626535,0.342649363 186.196179,0.342649363 C289.028095,0.342649363 372.391232,93.3626131 372.391232,208.110641" id="Fill-19" fill="#FFFFFF" mask="url(#mask-4)"></path>
                            </g>
                            <path d="M558.988277,208.336178 C558.988277,323.388698 475.404291,416.655497 372.299949,416.655497 C269.193992,416.655497 185.610007,323.388698 185.610007,208.336178 C185.610007,93.2836574 269.193992,0.0168582108 372.299949,0.0168582108 C475.404291,0.0168582108 558.988277,93.2836574 558.988277,208.336178" id="Fill-22" fill="#FFFFFF"></path>
                            <path d="M772.65561,417.859655 C772.65561,532.912176 689.071625,626.178975 585.967282,626.178975 C482.861326,626.178975 399.277341,532.912176 399.277341,417.859655 C399.277341,302.807135 482.861326,209.540336 585.967282,209.540336 C689.071625,209.540336 772.65561,302.807135 772.65561,417.859655" id="Fill-24" fill="#FFFFFF"></path>
                            <path d="M589.203859,545.500394 C589.203859,660.552915 505.619874,753.819714 402.515531,753.819714 C299.409575,753.819714 215.82559,660.552915 215.82559,545.500394 C215.82559,430.447874 299.409575,337.181075 402.515531,337.181075 C505.619874,337.181075 589.203859,430.447874 589.203859,545.500394" id="Fill-26" fill="#FFFFFF"></path>
                        </g>
                    </g>
                </g>
            </g>
        </g>
    </g>
</svg>