<?xml version="1.0" encoding="UTF-8"?>
<svg width="24" height="20" xmlns="http://www.w3.org/2000/svg"><path d="M20.693 18.739a2.045 2.045 0 0 0 2.044-2.047V3.308c0-1.13-.915-2.047-2.044-2.047H3.307a2.045 2.045 0 0 0-2.044 2.047v13.384c0 1.13.915 2.047 2.044 2.047h17.386zm0 1.261H3.307A3.307 3.307 0 0 1 0 16.692V3.308A3.307 3.307 0 0 1 3.307 0h17.386A3.307 3.307 0 0 1 24 3.308v13.384A3.307 3.307 0 0 1 20.693 20zM1.263 3.784c0 .315.003.63.003.63L12 10.731l10.737-6.317v-.63c0-.631.029-.478 0-.442 0-.19-.03-.378-.03-.378L12 9.268S6.54 5.953 1.302 2.97c-.039.184-.036 0-.039.184v.63z" fill="#9DAFBD" fill-rule="nonzero"/></svg>
