<svg height="20" width="24" xmlns="http://www.w3.org/2000/svg"><path d="m20.693 18.739a2.045 2.045 0 0 0 2.044-2.047v-13.384c0-1.13-.915-2.047-2.044-2.047h-17.386a2.045 2.045 0 0 0 -2.044 2.047v13.384c0 1.13.915 2.047 2.044 2.047zm0 1.261h-17.386a3.307 3.307 0 0 1 -3.307-3.308v-13.384a3.307 3.307 0 0 1 3.307-3.308h17.386a3.307 3.307 0 0 1 3.307 3.308v13.384a3.307 3.307 0 0 1 -3.307 3.308zm-19.43-16.216c0 .315.003.63.003.63l10.734 6.317 10.737-6.317v-.63c0-.631.029-.478 0-.442 0-.19-.03-.378-.03-.378l-10.707 6.304s-5.46-3.315-10.698-6.298c-.039.184-.036 0-.039.184z" fill="#9dafbd"/></svg>