<?xml version="1.0" encoding="UTF-8"?>
<svg width="24px" height="20px" viewBox="0 0 24 20" version="1.1" xmlns="http://www.w3.org/2000/svg" xmlns:xlink="http://www.w3.org/1999/xlink">
    <!-- Generator: Sketch 50.2 (55047) - http://www.bohemiancoding.com/sketch -->
    <title>Mask</title>
    <desc>Created with Sketch.</desc>
    <defs></defs>
    <g id="email" stroke="none" stroke-width="1" fill="none" fill-rule="evenodd">
        <g id="coming-soon-v1" transform="translate(-487.000000, -395.000000)" fill="#9DAFBD" fill-rule="nonzero">
            <g id="Group-2" transform="translate(470.000000, 379.000000)">
                <g id="Group">
                    <path d="M37.6934985,34.7385424 C38.8216159,34.7385424 39.7368421,33.8226278 39.7368421,32.6923366 L39.7368421,19.3076634 C39.7368421,18.1773722 38.8216159,17.2614576 37.6934985,17.2614576 L20.3065015,17.2614576 C19.1783841,17.2614576 18.2631579,18.1773722 18.2631579,19.3076634 L18.2631579,32.6923366 C18.2631579,33.8226278 19.1783841,34.7385424 20.3065015,34.7385424 L37.6934985,34.7385424 Z M37.6934985,36 L20.3065015,36 C18.480167,36 17,34.5187196 17,32.6923366 L17,19.3076634 C17,17.4812804 18.480167,16 20.3065015,16 L37.6934985,16 C39.519833,16 41,17.4812804 41,19.3076634 L41,32.6923366 C41,34.5187196 39.519833,36 37.6934985,36 Z M18.2631579,19.7843729 C18.2638207,20.0987758 18.2658132,20.4131784 18.2658132,20.4131784 L29,26.7321553 L39.7368421,20.4151017 L39.7368421,19.7843729 C39.7368421,19.153644 39.7658607,19.3065183 39.7368421,19.3428628 C39.7368421,19.153644 39.7062229,18.9653294 39.7062229,18.9653294 L29,25.2678447 C29,25.2678447 23.5395476,21.952745 18.3020955,18.9702263 C18.2631579,19.153644 18.2658132,18.9702263 18.2631579,19.153644 C18.2631579,18.9702263 18.2624931,19.4690086 18.2631579,19.7843729 Z" id="Mask"></path>
                </g>
            </g>
        </g>
    </g>
</svg>