<svg height="45" viewBox="0 0 50 45" width="50" xmlns="http://www.w3.org/2000/svg"><g fill="#3875d0" fill-rule="evenodd"><path d="m1.53839286 14.2371 23.13214284 11.0781c.2053572.0981.4285714.1485.6508929.1485.2223214 0 .4455357-.0504.6508928-.1485l23.1348215-11.0781c.5294642-.2529.8669642-.7911.8669642-1.3815s-.3375-1.1286-.8669642-1.3815l-23.1339286-11.079c-.4116072-.198-.8910714-.198-1.3026786 0l-23.13214284 11.079c-.52946429.2529-.86696429.7911-.86696429 1.3815s.3375 1.1286.86696429 1.3815zm23.78303574-10.7667 19.5964285 9.3852-19.5964285 9.3843-19.59464289-9.3843z"/><path d="m49.8276786 21.5397c-.3607143-.7632-1.2669643-1.0881-2.0232143-.7254l-22.4830357 10.7658-22.48035717-10.7658c-.75892857-.3627-1.66160714-.0378-2.02321429.7254-.35892857.765-.03660714 1.6758.72053572 2.0394l23.13214284 11.0781c.2053572.0981.4285714.1476.6508929.1476.2223214 0 .4455357-.0495.6508928-.1476l23.1348215-11.079c.7571428-.3618 1.0794642-1.2744.7205357-2.0385z"/><path d="m49.8276786 30.8808c-.3607143-.765-1.2669643-1.0863-2.0232143-.7254l-22.4830357 10.7658-22.48035717-10.7658c-.75892857-.3609-1.66160714-.0396-2.02321429.7254-.35892857.7641-.03660714 1.6749.72053572 2.0394l23.13214284 11.0781c.2053572.0981.4285714.1476.6508929.1476.2223214 0 .4455357-.0495.6508928-.1476l23.1348215-11.079c.7571428-.3618 1.0794642-1.2753.7205357-2.0385z"/></g></svg>