<svg height="198" viewBox="0 0 163 198" width="163" xmlns="http://www.w3.org/2000/svg"><g fill="#3a75cd" fill-rule="evenodd"><path d="m53.7720357 123h-1.51375-12.2582857v30.454875h5.7707857v-9.838125h6.8026072l1.3345714-.02475c4.1581786 0 6.92-.66825 8.2916428-2.00475 1.3654643-1.342688 2.0451072-4.046625 2.0451072-8.124188 0-4.102312-.7105357-6.874312-2.1501429-8.309812-1.4334285-1.441688-4.2076071-2.15325-8.3225357-2.15325zm3.5526786 14.843813c-.7043572.606374-2.3663929.903374-4.9799286.903374h-6.574v-10.89h7.1547857c2.4590715 0 3.9913572.309375 4.5721429.921938.5931428.61875.8835357 2.208937.8835357 4.782937 0 2.258438-.3521786 3.681563-1.0565357 4.281751z"/><path d="m88.0309286 135.4245h-14.2663215v-12.4245h-5.7646071v30.454875h5.7646071v-13.167h14.2663215v13.167h5.7707857v-30.454875h-5.7707857z"/><path d="m121.088393 125.15325c-1.42725-1.4355-4.207607-2.15325-8.322536-2.15325h-1.51375-12.252107v30.454875h5.770786v-9.838125h6.802607l1.334571-.02475c4.164357 0 6.92-.66825 8.291643-2.00475 1.365464-1.342688 2.051286-4.046625 2.051286-8.124188-.006179-4.1085-.729072-6.8805-2.1625-8.309812zm-4.763679 12.690563c-.704357.606374-2.366393.903374-4.979928.903374h-6.574v-10.89h7.154785c2.459072 0 3.991358.309375 4.578322.921938.586964.61875.883536 2.208937.883536 4.782937-.006179 2.258438-.358358 3.681563-1.062715 4.281751z"/><path d="m.66575 18.4944375v179.5055625h143.194571c10.157572 0 18.46775-8.322187 18.46775-18.494438v-179.505562h-143.1883924c-10.15757146 0-18.4739286 8.3221875-18.4739286 18.4944375zm6 89.5055625h149.305179v61.262437h-149.305179zm137.016 84.502063h-137.016v-16.502063h149.305179v4.195125c.006178 6.787688-5.511286 12.306938-12.289179 12.306938zm12.295357-91.016563h-149.311357v-83.1785625c0-6.7876875 5.5174643-12.3069375 12.2953571-12.3069375h137.0159999z"/><text font-family="ArialRoundedMTBold, Arial Rounded MT Bold" font-size="44" letter-spacing="3.14285731"><tspan x="44.253488" y="71">5.6</tspan></text></g></svg>