<svg height="198" viewBox="0 0 163 198" width="163" xmlns="http://www.w3.org/2000/svg"><g fill="#3a75cd" fill-rule="evenodd"><path d="m82.3514144 28.1636603c-1.5561313.2057711-2.3860679 1.5432838-2.7491652 2.4178111 0 0-9.4405293 24.3324405-9.2330452 25.9786095 0 1.7490545 1.4523892 3.1894527 3.2678756 3.1894527h5.6020723.2593553l-2.1267127 19.9598034c-.1556131 1.3889555.3630973 2.7264684 2.0748416 3.0351246 2.0229707.2057722 3.0603914-1.3889556 3.4753598-2.4178109 0 0 9.4405299-24.3324408 9.2330447-25.9786098 0-1.7490544-1.4523892-3.1894527-3.267875-3.1894527h-5.6020724-.2593553l2.1267128-19.9598032c.1556129-1.3889554-.4149683-2.726468-2.1267128-3.0351247z" stroke="#fff"/><path d="m53.6161071 123.211687h-1.51375-12.2582857v30.454875h5.7707857v-9.838125h6.8026072l1.3345714-.02475c4.1581786 0 6.92-.66825 8.2916429-2.00475 1.3654643-1.342687 2.0451071-4.046625 2.0451071-8.124187 0-4.102313-.7105357-6.874313-2.1501428-8.309813-1.4334286-1.441687-4.2076072-2.15325-8.3225358-2.15325zm3.5526786 14.843813c-.7043571.606375-2.3663928.903375-4.9799286.903375h-6.574v-10.89h7.1547858c2.4590714 0 3.9913571.309375 4.5721428.921937.5931429.61875.8835357 2.208938.8835357 4.782938 0 2.258437-.3521785 3.681562-1.0565357 4.28175z"/><path d="m87.7959643 135.636187h-14.2663214v-12.4245h-5.7646072v30.454875h5.7646072v-13.167h14.2663214v13.167h5.7707857v-30.454875h-5.7707857z"/><path d="m120.999607 125.364937c-1.42725-1.4355-4.207607-2.15325-8.322536-2.15325h-1.51375-12.2521067v30.454875h5.7707857v-9.838125h6.802607l1.334572-.02475c4.164357 0 6.92-.66825 8.291642-2.00475 1.365465-1.342687 2.051286-4.046625 2.051286-8.124187-.006178-4.1085-.729071-6.8805-2.1625-8.309813zm-4.763678 12.690563c-.704358.606375-2.366393.903375-4.979929.903375h-6.574v-10.89h7.154786c2.459071 0 3.991357.309375 4.578321.921937.586964.61875.883536 2.208938.883536 4.782938-.006179 2.258437-.358357 3.681562-1.062714 4.28175z"/><path d="m.66575 18.4944375v179.5055625h143.194571c10.157572 0 18.46775-8.322187 18.46775-18.494438v-179.505562h-143.1883924c-10.15757146 0-18.4739286 8.3221875-18.4739286 18.4944375zm6.17857143 89.3660625h149.30517857v61.262437h-149.30517857zm137.01599957 83.952h-137.01599957v-16.502062h149.30517857v4.195125c.006179 6.787687-5.511286 12.306937-12.289179 12.306937zm12.295358-90.1395h-149.31135757v-83.1785625c0-6.7876875 5.51746427-12.3069375 12.29535717-12.3069375h137.0160004z"/></g></svg>