<?xml version="1.0" encoding="UTF-8" standalone="no"?>
<svg width="163px" height="198px" viewBox="0 0 163 198" version="1.1" xmlns="http://www.w3.org/2000/svg" xmlns:xlink="http://www.w3.org/1999/xlink">
    <!-- Generator: Sketch 41.2 (35397) - http://www.bohemiancoding.com/sketch -->
    <title>5.6</title>
    <desc>Created with Sketch.</desc>
    <defs></defs>
    <g id="Page-1" stroke="none" stroke-width="1" fill="none" fill-rule="evenodd">
        <g id="Artboard" transform="translate(-500.000000, -150.000000)" fill="#3A75CD">
            <g id="5.6" transform="translate(500.000000, 150.000000)">
                <path d="M53.7720357,123 L52.2582857,123 L40,123 L40,153.454875 L45.7707857,153.454875 L45.7707857,143.61675 L52.5733929,143.61675 L53.9079643,143.592 C58.0661429,143.592 60.8279643,142.92375 62.1996071,141.58725 C63.5650714,140.244562 64.2447143,137.540625 64.2447143,133.463062 C64.2447143,129.36075 63.5341786,126.58875 62.0945714,125.15325 C60.6611429,123.711562 57.8869643,123 53.7720357,123 Z M57.3247143,137.843813 C56.6203571,138.450187 54.9583214,138.747187 52.3447857,138.747187 L45.7707857,138.747187 L45.7707857,127.857187 L52.9255714,127.857187 C55.3846429,127.857187 56.9169286,128.166562 57.4977143,128.779125 C58.0908571,129.397875 58.38125,130.988062 58.38125,133.562062 C58.38125,135.8205 58.0290714,137.243625 57.3247143,137.843813 Z" id="Shape"></path>
                <polygon id="Shape" points="88.0309286 135.4245 73.7646071 135.4245 73.7646071 123 68 123 68 153.454875 73.7646071 153.454875 73.7646071 140.287875 88.0309286 140.287875 88.0309286 153.454875 93.8017143 153.454875 93.8017143 123 88.0309286 123"></polygon>
                <path d="M121.088393,125.15325 C119.661143,123.71775 116.880786,123 112.765857,123 L111.252107,123 L99,123 L99,153.454875 L104.770786,153.454875 L104.770786,143.61675 L111.573393,143.61675 L112.907964,143.592 C117.072321,143.592 119.827964,142.92375 121.199607,141.58725 C122.565071,140.244562 123.250893,137.540625 123.250893,133.463062 C123.244714,129.354562 122.521821,126.582562 121.088393,125.15325 Z M116.324714,137.843813 C115.620357,138.450187 113.958321,138.747187 111.344786,138.747187 L104.770786,138.747187 L104.770786,127.857187 L111.925571,127.857187 C114.384643,127.857187 115.916929,128.166562 116.503893,128.779125 C117.090857,129.397875 117.387429,130.988062 117.387429,133.562062 C117.38125,135.8205 117.029071,137.243625 116.324714,137.843813 Z" id="Shape"></path>
                <path d="M0.66575,18.4944375 L0.66575,198 L143.860321,198 C154.017893,198 162.328071,189.677813 162.328071,179.505562 L162.328071,0 L19.1396786,0 C8.98210714,0 0.66575,8.3221875 0.66575,18.4944375 Z M6.66575,108 L155.970929,108 L155.970929,169.262437 L6.66575,169.262437 L6.66575,108 Z M143.68175,192.502063 L6.66575,192.502063 L6.66575,176 L155.970929,176 L155.970929,180.195125 C155.977107,186.982813 150.459643,192.502063 143.68175,192.502063 Z M155.977107,101.4855 L6.66575,101.4855 L6.66575,18.3069375 C6.66575,11.51925 12.1832143,6 18.9611071,6 L155.977107,6 L155.977107,101.4855 Z" id="Shape"></path>
                <text font-family="ArialRoundedMTBold, Arial Rounded MT Bold" font-size="44" font-weight="normal" letter-spacing="3.14285731">
                    <tspan x="44.2534875" y="71">5.6</tspan>
                </text>
            </g>
        </g>
    </g>
</svg>