<?xml version="1.0" encoding="UTF-8" standalone="no"?>
<svg xmlns="http://www.w3.org/2000/svg" id="bluehost-logo-loader" shape-rendering="geometricPrecision" text-rendering="geometricPrecision" viewBox="0 0 256 256" style="white-space: pre;">
    <style>
@keyframes server1 { 0% { transform: translateX(62.052706px); animation-timing-function: cubic-bezier(0.263355,0.635853,0.589685,1); } 13.0434% { transform: translateX(59px); animation-timing-function: cubic-bezier(0.391828,0,0.702807,0.461611); } 100% { transform: translateX(59px); } }
@keyframes server1inner { 0% { transform: translate(-97.25px,99.75px); animation-timing-function: cubic-bezier(0.276407,0.565731,0.584873,1); } 43.4782% { transform: translate(-97.25px,99.75px); animation-timing-function: cubic-bezier(0.711,0,0.254,1); } 100% { transform: translate(-97.25px,30.75px); } }
@keyframes server2 { 0% { transform: translateX(59px); animation-timing-function: cubic-bezier(0.315772,0.407241,0.613645,0.885444); } 100% { transform: translateX(59px); } }
@keyframes server2inner { 0% { transform: translate(-97.25px,30.75px); animation-timing-function: cubic-bezier(0.643,0,0.358,1); } 30.4347% { transform: translate(-97.25px,30.75px); animation-timing-function: cubic-bezier(0.711,0,0.254,1); } 86.9565% { transform: translate(-97.25px,-38.25px); animation-timing-function: cubic-bezier(0.342251,0,0.675249,0.345928); } 100% { transform: translate(-97.25px,-38.25px); } }
@keyframes server3 { 0% { transform: translateX(59px); } 17.3913% { transform: translateX(59px); animation-timing-function: cubic-bezier(0.711,0,0.254,1); } 73.913% { transform: translateX(128px); animation-timing-function: cubic-bezier(0.687355,0,0.465757,0.856559); } 100% { transform: translateX(128px); } }
@keyframes server3inner { 0% { transform: translate(-97.25px,-38.25px); animation-timing-function: cubic-bezier(0.3905,0.08993,0.68958,0.570439); } 100% { transform: translate(-97.25px,-38.25px); } }
@keyframes server4 { 0% { transform: translateX(128px); animation-timing-function: cubic-bezier(0.292922,0.64696,0.623714,1); } 4.3478% { transform: translateX(128px); animation-timing-function: cubic-bezier(0.711,0,0.254,1); } 60.8695% { transform: translateX(197px); animation-timing-function: cubic-bezier(0.406433,0,0.721118,0.418697); } 100% { transform: translateX(197px); } }
@keyframes server4inner { 0% { transform: translate(-97.25px,-38.25px); animation-timing-function: cubic-bezier(0.298401,0.527453,0.60637,1); } 91.3043% { transform: translate(-97.25px,-38.25px); animation-timing-function: cubic-bezier(0.382402,0,0.712826,0.352794); } 100% { transform: translate(-97.25px,-36.910931px); } }
@keyframes server5 { 0% { transform: translateX(197px); animation-timing-function: cubic-bezier(0.316518,0.379513,0.540799,1); } 78.2608% { transform: translateX(197px); animation-timing-function: cubic-bezier(0.543846,0,0.824857,0.41466); } 100% { transform: translateX(182.598015px); } }
@keyframes server5inner { 0% { transform: translate(-97.25px,-36.910931px); animation-timing-function: cubic-bezier(0.57881,0.141991,0.191314,1); } 47.826% { transform: translate(-97.25px,30.75px); animation-timing-function: cubic-bezier(0.431573,0,0.725213,0.468595); } 100% { transform: translate(-97.25px,30.75px); } }
@keyframes server6 { 0% { transform: translateX(182.598015px); animation-timing-function: cubic-bezier(0.262618,0.37043,0.144386,1); } 34.7826% { transform: translateX(128px); animation-timing-function: cubic-bezier(0.450752,0,0.713424,0.534918); } 100% { transform: translateX(128px); } }
@keyframes server6inner { 0% { transform: translate(-97.25px,30.75px); animation-timing-function: cubic-bezier(0.287883,0.464083,0.549899,1); } 65.2173% { transform: translate(-97.25px,30.75px); animation-timing-function: cubic-bezier(0.847988,0,0.673555,0.652699); } 100% { transform: translate(-97.25px,87.696786px); } }
@keyframes server7 { 0% { transform: translateX(128px); animation-timing-function: cubic-bezier(0.275487,0.530639,0.568646,1); } 52.1739% { transform: translateX(128px); animation-timing-function: cubic-bezier(0.774676,0,0.376095,0.864952); } 100% { transform: translateX(60.195879px); } }
@keyframes server7inner { 0% { transform: translate(-97.25px,87.696786px); animation-timing-function: cubic-bezier(0.189333,0.594797,0.48397,1); } 21.7391% { transform: translate(-97.25px,99.75px); animation-timing-function: cubic-bezier(0.460352,0,0.685292,0.61941); } 100% { transform: translate(-97.25px,99.75px); } }
    </style>
    <g id="s1" opacity="1" transform="translate(128,128) translate(-128,-128)">
        <g id="s1contents" style="animation: 0.92s linear infinite both server1;">
            <g transform="translate(59,197) translate(-97.25,-97.25)" style="animation: 0.92s linear infinite both server1inner;">
                <g id="inside10" opacity="1" transform="translate(97.25,97.25)">
                    <path id="path1" fill="#3776b9" d="M-27,-27C-27,-27,27,-27,27,-27C27,-27,27,27,27,27C27,27,-27,27,-27,27C-27,27,-27,-27,-27,-27Z" fill-opacity="1" fill-rule="nonzero"/>
                </g>
            </g>
        </g>
    </g>
    <g id="s2" opacity="1" transform="translate(128,128) translate(-128,-128)">
        <g id="s2contents" style="animation: 0.92s linear infinite both server2;">
            <g transform="translate(59,128) translate(-97.25,-97.25)" style="animation: 0.92s linear infinite both server2inner;">
                <g id="inside10-2" opacity="1" transform="translate(97.25,97.25)">
                    <path id="path1-2" fill="#3776b9" d="M-27,-27C-27,-27,27,-27,27,-27C27,-27,27,27,27,27C27,27,-27,27,-27,27C-27,27,-27,-27,-27,-27Z" fill-opacity="1" fill-rule="nonzero"/>
                </g>
            </g>
        </g>
    </g>
    <g id="s3" opacity="1" transform="translate(128,128) translate(-128,-128)">
        <g id="s3contents" style="animation: 0.92s linear infinite both server3;">
            <g transform="translate(62.464,59) translate(-97.25,-97.25)" style="animation: 0.92s linear infinite both server3inner;">
                <g id="inside10-3" opacity="1" transform="translate(97.25,97.25)">
                    <path id="path1-3" fill="#3776b9" d="M-27,-27C-27,-27,27,-27,27,-27C27,-27,27,27,27,27C27,27,-27,27,-27,27C-27,27,-27,-27,-27,-27Z" fill-opacity="1" fill-rule="nonzero"/>
                </g>
            </g>
        </g>
    </g>
    <g id="s4" opacity="1" transform="translate(128,128) translate(-128,-128)">
        <g id="s4contents" style="animation: 0.92s linear infinite both server4;">
            <g transform="translate(156.182,59) translate(-97.25,-97.25)" style="animation: 0.92s linear infinite both server4inner;">
                <g id="inside10-4" opacity="1" transform="translate(97.25,97.25)">
                    <path id="path1-4" fill="#3776b9" d="M-27,-27C-27,-27,27,-27,27,-27C27,-27,27,27,27,27C27,27,-27,27,-27,27C-27,27,-27,-27,-27,-27Z" fill-opacity="1" fill-rule="nonzero"/>
                </g>
            </g>
        </g>
    </g>
    <g id="s5" opacity="1" transform="translate(128,128) translate(-128,-128)">
        <g id="s5contents" style="animation: 0.92s linear infinite both server5;">
            <g transform="translate(197,121.67) translate(-97.25,-97.25)" style="animation: 0.92s linear infinite both server5inner;">
                <g id="inside10-5" opacity="1" transform="translate(97.25,97.25)">
                    <path id="path1-5" fill="#3776b9" d="M-27,-27C-27,-27,27,-27,27,-27C27,-27,27,27,27,27C27,27,-27,27,-27,27C-27,27,-27,-27,-27,-27Z" fill-opacity="1" fill-rule="nonzero"/>
                </g>
            </g>
        </g>
    </g>
    <g id="s6" opacity="1" transform="translate(128,128) translate(-128,-128)">
        <g id="s6contents" style="animation: 0.92s linear infinite both server6;">
            <g transform="translate(128.269,128) translate(-97.25,-97.25)" style="animation: 0.92s linear infinite both server6inner;">
                <g id="inside10-6" opacity="1" transform="translate(97.25,97.25)">
                    <path id="path1-6" fill="#3776b9" d="M-27,-27C-27,-27,27,-27,27,-27C27,-27,27,27,27,27C27,27,-27,27,-27,27C-27,27,-27,-27,-27,-27Z" fill-opacity="1" fill-rule="nonzero"/>
                </g>
            </g>
        </g>
    </g>
    <g id="s7" opacity="1" transform="translate(128,128) translate(-128,-128)">
        <g id="s7contents" style="animation: 0.92s linear infinite both server7;">
            <g transform="translate(128,197) translate(-97.25,-97.25)" style="animation: 0.92s linear infinite both server7inner;">
                <g id="inside10-7" opacity="1" transform="translate(97.25,97.25)">
                    <path id="path1-7" fill="#3776b9" d="M-27,-27C-27,-27,27,-27,27,-27C27,-27,27,27,27,27C27,27,-27,27,-27,27C-27,27,-27,-27,-27,-27Z" fill-opacity="1" fill-rule="nonzero"/>
                </g>
            </g>
        </g>
    </g>
    <g id="s8" transform="translate(197,197) translate(-97.25,-97.25)">
        <g id="s8contents" opacity="1" transform="translate(97.25,97.25)">
            <path id="path1-8" fill="#3776b9" d="M-27,-27C-27,-27,27,-27,27,-27C27,-27,27,27,27,27C27,27,-27,27,-27,27C-27,27,-27,-27,-27,-27Z" fill-opacity="1" fill-rule="nonzero"/>
        </g>
    </g>
</svg>
