<svg width="161" height="160" viewBox="0 0 161 160" fill="none" xmlns="http://www.w3.org/2000/svg">
<path d="M49.2579 50.2199C49.2273 50.2197 49.197 50.2134 49.1688 50.2014C49.1407 50.1894 49.1152 50.1719 49.0939 50.1499C49.0519 50.1072 49.0283 50.0497 49.0283 49.9899C49.0283 49.93 49.0519 49.8725 49.0939 49.8299C49.1379 49.7879 53.6259 45.5519 62.1499 41.1399C70.0199 37.0699 83.0319 31.9999 100.37 30.9839C100.4 30.982 100.429 30.9859 100.458 30.9956C100.486 31.0052 100.512 31.0203 100.534 31.04C100.556 31.0597 100.574 31.0836 100.587 31.1104C100.6 31.1371 100.608 31.1662 100.61 31.1959C100.613 31.2559 100.592 31.3146 100.552 31.3595C100.512 31.4043 100.456 31.4317 100.396 31.4359C83.1479 32.4519 70.1959 37.4879 62.3959 41.5319C53.9199 45.9179 49.4679 50.1159 49.4239 50.1579C49.402 50.1791 49.376 50.1956 49.3474 50.2063C49.3188 50.217 49.2883 50.2216 49.2579 50.2199Z" fill="#03243B"/>
<path d="M51.676 43.7246C51.6287 43.7267 51.5819 43.7139 51.5422 43.6879C51.5026 43.662 51.4721 43.6243 51.455 43.58C51.438 43.5358 51.4353 43.4874 51.4473 43.4415C51.4593 43.3957 51.4855 43.3548 51.522 43.3246C51.558 43.2906 55.214 39.9346 62.462 36.4466C69.142 33.2306 80.336 29.2326 95.736 28.4466C95.7959 28.4434 95.8547 28.4642 95.8993 28.5043C95.9439 28.5444 95.9708 28.6007 95.974 28.6606C95.9772 28.7205 95.9564 28.7793 95.9163 28.8239C95.8761 28.8686 95.8199 28.8954 95.76 28.8986C80.436 29.6766 69.3 33.6506 62.658 36.8486C55.472 40.3086 51.858 43.6166 51.832 43.6486C51.7918 43.6932 51.7359 43.7204 51.676 43.7246Z" fill="#03243B"/>
<path d="M66.1539 64.6002C70.5739 46.9882 68.6059 41.2142 65.8239 39.3082C64.6479 38.5082 63.0239 38.1742 60.7099 36.1882C57.6959 33.5882 57.3639 31.4682 55.1939 28.5562C52.3039 24.6762 46.9439 20.4562 44.5219 21.6962C42.0999 22.9362 42.2899 29.8522 44.4519 35.0742C47.0939 41.4542 51.2519 41.8622 52.1619 47.3022C52.9619 52.0362 50.1759 53.8162 51.2639 57.1422C52.1359 59.8002 55.3379 62.9802 66.1539 64.6002Z" fill="white" stroke="#03243B" stroke-width="2" stroke-miterlimit="10"/>
<path d="M65.9619 61.5797C65.9127 61.5796 65.8649 61.5635 65.8256 61.5339C65.7864 61.5044 65.7577 61.4629 65.7439 61.4157C59.6839 40.7037 49.4139 31.7437 49.3099 31.6557C49.2643 31.6165 49.2361 31.5607 49.2316 31.5007C49.2271 31.4407 49.2466 31.3814 49.2859 31.3357C49.3251 31.2901 49.3809 31.262 49.4409 31.2575C49.5009 31.253 49.5602 31.2725 49.6059 31.3117C49.6319 31.3337 52.2539 33.5977 55.5899 38.4077C58.6619 42.8377 62.9899 50.4077 66.1799 61.2897C66.1966 61.3473 66.1897 61.4091 66.1608 61.4616C66.132 61.5141 66.0834 61.553 66.0259 61.5697C66.0051 61.5758 65.9835 61.5792 65.9619 61.5797Z" fill="#03243B"/>
<path d="M53.156 60.2005C51.122 48.0545 48.33 45.0006 46.084 44.5705C45.134 44.3886 44.032 44.6286 42.06 44.0206C39.482 43.2206 38.698 41.9965 36.56 40.7745C33.71 39.1485 29.234 37.9745 28.064 39.4065C26.894 40.8385 28.892 45.0825 31.652 47.7405C35.026 50.9885 37.716 50.1165 39.764 53.2485C41.546 55.9725 40.298 57.8345 41.878 59.6065C43.142 61.0205 45.994 62.1245 53.156 60.2005Z" fill="white" stroke="#03243B" stroke-width="2" stroke-miterlimit="10"/>
<path d="M52.156 58.4566C52.1228 58.4569 52.0898 58.4496 52.0597 58.4354C52.0296 58.4212 52.003 58.4004 51.9821 58.3746C42.6141 47.1746 33.812 44.3906 33.724 44.3626C33.6955 44.3541 33.669 44.3401 33.646 44.3213C33.623 44.3025 33.6039 44.2793 33.59 44.253C33.576 44.2268 33.5674 44.198 33.5647 44.1684C33.5619 44.1388 33.5651 44.109 33.574 44.0806C33.5825 44.0521 33.5966 44.0255 33.6153 44.0024C33.6341 43.9793 33.6573 43.9601 33.6835 43.946C33.7097 43.9319 33.7384 43.9231 33.768 43.9201C33.7976 43.9171 33.8276 43.92 33.856 43.9286C33.944 43.9566 42.868 46.7706 52.33 58.0846C52.3676 58.1306 52.3855 58.1896 52.3799 58.2488C52.3743 58.3079 52.3456 58.3624 52.3001 58.4006C52.26 58.4355 52.2091 58.4553 52.156 58.4566Z" fill="#03243B"/>
<path d="M117.056 54.1846H35.4559C32.8679 54.1846 30.5559 56.2826 30.2899 58.8706L23.9979 120.201C23.7319 122.789 25.6159 124.887 28.1979 124.887H109.798C112.386 124.887 114.698 122.789 114.964 120.201L121.252 58.8646C121.526 56.2826 119.644 54.1846 117.056 54.1846Z" fill="#66A8F7"/>
<path d="M109.808 125.121H28.2079C27.5819 125.13 26.961 125.007 26.3862 124.759C25.8115 124.51 25.296 124.143 24.8739 123.681C24.4544 123.208 24.1396 122.653 23.9504 122.05C23.7611 121.448 23.7016 120.812 23.7759 120.185L30.0599 58.8466C30.3379 56.1506 32.7559 53.9566 35.4599 53.9566H117.06C117.686 53.9469 118.307 54.0703 118.882 54.3185C119.456 54.5668 119.972 54.9342 120.394 55.3966C120.813 55.8687 121.128 56.4244 121.317 57.027C121.507 57.6295 121.566 58.2654 121.492 58.8926L115.2 120.231C114.922 122.927 112.5 125.121 109.808 125.121ZM35.4519 54.4106C32.9819 54.4106 30.7659 56.4206 30.5119 58.8926L24.2239 120.231C24.1502 120.792 24.1988 121.362 24.3663 121.903C24.5338 122.444 24.8162 122.942 25.1942 123.363C25.5723 123.785 26.037 124.119 26.5565 124.344C27.0759 124.569 27.6379 124.679 28.2039 124.667H109.804C112.274 124.667 114.49 122.657 114.744 120.185L121.032 58.8466C121.106 58.2853 121.057 57.7147 120.889 57.174C120.722 56.6333 120.44 56.1351 120.061 55.7138C119.683 55.2924 119.219 54.9578 118.699 54.7329C118.18 54.5079 117.618 54.398 117.052 54.4106H35.4519Z" fill="#03243B"/>
<path d="M110.714 121.562H27.9438L28.3018 118.064H111.072L110.714 121.562Z" fill="white"/>
<path d="M111.376 115.096H88.272L89.388 104.192H112.496L111.376 115.096Z" fill="#03243B"/>
<path d="M112.73 101.904H89.624L90.742 90.998H113.848L112.73 101.904Z" fill="#03243B"/>
<path d="M114.082 88.7106H90.9758L92.0938 77.8066H115.2L114.082 88.7106Z" fill="#03243B"/>
<path d="M115.434 75.5182H92.3279L93.4459 64.6143H116.552L115.434 75.5182Z" fill="#03243B"/>
<path d="M73.0362 107.743C83.1739 98.1122 84.3455 82.8875 75.6532 73.7372C66.9608 64.587 51.696 64.9762 41.5583 74.6066C31.4206 84.237 30.249 99.4617 38.9414 108.612C47.6337 117.762 62.8985 117.373 73.0362 107.743Z" fill="#03243B"/>
<path d="M116.838 62.0243H34.07C34.0134 62.019 33.9609 61.9928 33.9227 61.9508C33.8845 61.9088 33.8633 61.8541 33.8633 61.7973C33.8633 61.7405 33.8845 61.6858 33.9227 61.6438C33.9609 61.6018 34.0134 61.5756 34.07 61.5703H116.838C116.894 61.5756 116.947 61.6018 116.985 61.6438C117.023 61.6858 117.045 61.7405 117.045 61.7973C117.045 61.8541 117.023 61.9088 116.985 61.9508C116.947 61.9928 116.894 62.019 116.838 62.0243Z" fill="#03243B"/>
<path d="M37.3299 59.158C37.3044 59.3687 37.2039 59.5632 37.0466 59.7057C36.8894 59.8482 36.6861 59.9293 36.4739 59.934C36.375 59.936 36.2768 59.9166 36.186 59.8772C36.0953 59.8377 36.0141 59.7792 35.948 59.7055C35.882 59.6319 35.8326 59.5448 35.8032 59.4503C35.7739 59.3559 35.7652 59.2562 35.7779 59.158C35.8025 58.947 35.9029 58.7521 36.0603 58.6094C36.2177 58.4667 36.4215 58.3859 36.6339 58.382C36.7329 58.3797 36.8313 58.3989 36.9222 58.4382C37.0131 58.4775 37.0944 58.5361 37.1605 58.6098C37.2267 58.6835 37.276 58.7707 37.3053 58.8654C37.3345 58.96 37.3429 59.0598 37.3299 59.158Z" fill="#03243B"/>
<path d="M40.4359 59.158C40.4104 59.3687 40.3099 59.5632 40.1526 59.7057C39.9954 59.8482 39.7921 59.9293 39.5799 59.934C39.4808 59.9363 39.3824 59.9171 39.2914 59.8778C39.2004 59.8385 39.119 59.78 39.0527 59.7063C38.9864 59.6326 38.9368 59.5455 38.9074 59.4508C38.8779 59.3562 38.8692 59.2563 38.8819 59.158C38.9069 58.9472 39.0074 58.7525 39.1647 58.6099C39.322 58.4672 39.5256 58.3863 39.7379 58.382C39.837 58.3798 39.9354 58.3989 40.0264 58.4382C40.1174 58.4775 40.1988 58.536 40.2651 58.6097C40.3314 58.6834 40.381 58.7706 40.4104 58.8652C40.4399 58.9598 40.4486 59.0597 40.4359 59.158Z" fill="#03243B"/>
<path d="M43.5398 59.158C43.5148 59.3689 43.4143 59.5636 43.257 59.7062C43.0997 59.8488 42.8961 59.9297 42.6838 59.934C42.5849 59.936 42.4867 59.9166 42.396 59.8772C42.3052 59.8377 42.2241 59.7792 42.158 59.7055C42.0919 59.6319 42.0425 59.5448 42.0132 59.4503C41.9838 59.3559 41.9752 59.2562 41.9878 59.158C42.0125 58.947 42.1128 58.7521 42.2702 58.6094C42.4276 58.4667 42.6314 58.3859 42.8438 58.382C42.9429 58.3797 43.0412 58.3989 43.1321 58.4382C43.223 58.4775 43.3044 58.5361 43.3705 58.6098C43.4366 58.6835 43.486 58.7707 43.5152 58.8654C43.5445 58.96 43.5529 59.0598 43.5398 59.158Z" fill="#03243B"/>
<path d="M117.148 59.3837H65.8619C65.8054 59.3784 65.7529 59.3522 65.7147 59.3102C65.6765 59.2682 65.6553 59.2135 65.6553 59.1567C65.6553 59.0999 65.6765 59.0452 65.7147 59.0032C65.7529 58.9612 65.8054 58.935 65.8619 58.9297H117.148C117.204 58.935 117.257 58.9612 117.295 59.0032C117.333 59.0452 117.355 59.0999 117.355 59.1567C117.355 59.2135 117.333 59.2682 117.295 59.3102C117.257 59.3522 117.204 59.3784 117.148 59.3837Z" fill="#03243B"/>
<path d="M63.8999 59.3837H54.0199C53.9634 59.3784 53.9109 59.3522 53.8726 59.3102C53.8344 59.2682 53.8132 59.2135 53.8132 59.1567C53.8132 59.0999 53.8344 59.0452 53.8726 59.0032C53.9109 58.9612 53.9634 58.935 54.0199 58.9297H63.8999C63.9564 58.935 64.0089 58.9612 64.0472 59.0032C64.0854 59.0452 64.1066 59.0999 64.1066 59.1567C64.1066 59.2135 64.0854 59.2682 64.0472 59.3102C64.0089 59.3522 63.9564 59.3784 63.8999 59.3837Z" fill="#03243B"/>
<path d="M49.2579 59.3837H45.4039C45.3723 59.3867 45.3404 59.383 45.3103 59.373C45.2802 59.3629 45.2525 59.3467 45.229 59.3253C45.2056 59.3039 45.1868 59.2779 45.174 59.2489C45.1612 59.2198 45.1545 59.1885 45.1545 59.1567C45.1545 59.125 45.1612 59.0936 45.174 59.0645C45.1868 59.0355 45.2056 59.0095 45.229 58.9881C45.2525 58.9668 45.2802 58.9505 45.3103 58.9405C45.3404 58.9304 45.3723 58.9267 45.4039 58.9297H49.2579C49.2895 58.9267 49.3213 58.9304 49.3514 58.9405C49.3816 58.9505 49.4092 58.9668 49.4327 58.9881C49.4562 59.0095 49.4749 59.0355 49.4877 59.0645C49.5006 59.0936 49.5072 59.125 49.5072 59.1567C49.5072 59.1885 49.5006 59.2198 49.4877 59.2489C49.4749 59.2779 49.4562 59.3039 49.4327 59.3253C49.4092 59.3467 49.3816 59.3629 49.3514 59.373C49.3213 59.383 49.2895 59.3867 49.2579 59.3837Z" fill="#03243B"/>
<path d="M145.634 21.9479H110.076C109.183 21.9663 108.327 22.3068 107.665 22.9066C107.004 23.5064 106.581 24.3252 106.476 25.2119L100.174 86.6939C100.121 87.1065 100.157 87.5258 100.28 87.9231C100.404 88.3204 100.612 88.6864 100.889 88.9962C101.167 89.306 101.508 89.5523 101.89 89.7182C102.271 89.8842 102.684 89.966 103.1 89.9579H138.662C139.555 89.94 140.411 89.5997 141.073 88.9998C141.735 88.3998 142.157 87.5809 142.262 86.6939L148.566 25.2119C148.619 24.7988 148.583 24.379 148.459 23.9813C148.335 23.5835 148.127 23.2172 147.849 22.9073C147.57 22.5974 147.228 22.3513 146.846 22.1857C146.464 22.0201 146.05 21.939 145.634 21.9479Z" fill="white"/>
<path d="M138.662 90.186H103.1C102.654 90.1931 102.212 90.1053 101.803 89.9284C101.394 89.7515 101.028 89.4896 100.728 89.16C100.429 88.8243 100.205 88.4289 100.07 88C99.9349 87.5711 99.8927 87.1185 99.9459 86.672L106.252 25.2C106.365 24.2586 106.814 23.3896 107.517 22.7525C108.219 22.1155 109.128 21.7532 110.076 21.732H145.634C146.082 21.7232 146.527 21.8111 146.938 21.9897C147.349 22.1682 147.716 22.4333 148.016 22.7668C148.315 23.1002 148.539 23.4943 148.672 23.9222C148.805 24.35 148.845 24.8016 148.788 25.246L142.486 86.718C142.373 87.6595 141.923 88.5285 141.221 89.1656C140.519 89.8026 139.61 90.1649 138.662 90.186ZM110.076 22.186C109.24 22.2034 108.439 22.5213 107.819 23.0815C107.199 23.6417 106.802 24.4066 106.7 25.236L100.4 86.718C100.354 87.1014 100.389 87.4902 100.504 87.8588C100.619 88.2273 100.812 88.5672 101.068 88.856C101.325 89.1376 101.639 89.3613 101.99 89.5123C102.34 89.6633 102.718 89.7382 103.1 89.732H138.662C139.498 89.7135 140.3 89.3938 140.92 88.8317C141.54 88.2696 141.936 87.5028 142.036 86.672L148.338 25.2C148.384 24.8164 148.349 24.4272 148.234 24.0583C148.119 23.6893 147.926 23.3491 147.67 23.06C147.412 22.7785 147.097 22.5551 146.746 22.4044C146.395 22.2537 146.016 22.1793 145.634 22.186H110.076Z" fill="#03243B"/>
<path d="M145.74 27.4002H108.872C108.812 27.4002 108.755 27.3764 108.712 27.334C108.67 27.2917 108.646 27.2342 108.646 27.1742C108.646 27.1143 108.67 27.0568 108.712 27.0144C108.755 26.9721 108.812 26.9482 108.872 26.9482H145.74C145.8 26.9482 145.857 26.9721 145.9 27.0144C145.942 27.0568 145.966 27.1143 145.966 27.1742C145.966 27.2342 145.942 27.2917 145.9 27.334C145.857 27.3764 145.8 27.4002 145.74 27.4002Z" fill="#03243B"/>
<path d="M111.13 25.3506C111.112 25.4977 111.041 25.6333 110.931 25.7323C110.821 25.8312 110.678 25.8867 110.53 25.8886C110.461 25.8897 110.394 25.8761 110.331 25.8486C110.268 25.8212 110.212 25.7806 110.166 25.7296C110.12 25.6786 110.086 25.6183 110.066 25.5529C110.045 25.4875 110.039 25.4185 110.048 25.3506C110.063 25.2024 110.133 25.0653 110.244 24.9658C110.355 24.8664 110.499 24.8118 110.648 24.8126C110.716 24.8114 110.784 24.8251 110.847 24.8525C110.91 24.8799 110.966 24.9205 111.012 24.9715C111.057 25.0226 111.092 25.0828 111.112 25.1482C111.132 25.2136 111.139 25.2826 111.13 25.3506Z" fill="#03243B"/>
<path d="M113.28 25.3507C113.262 25.4979 113.192 25.6338 113.081 25.7328C112.971 25.8319 112.828 25.8873 112.68 25.8887C112.611 25.8901 112.543 25.8767 112.48 25.8494C112.417 25.8221 112.361 25.7815 112.315 25.7304C112.269 25.6794 112.234 25.619 112.214 25.5535C112.193 25.488 112.187 25.4188 112.196 25.3507C112.213 25.2034 112.284 25.0675 112.394 24.9685C112.505 24.8694 112.648 24.814 112.796 24.8127C112.865 24.8109 112.933 24.8241 112.996 24.8513C113.059 24.8785 113.116 24.919 113.162 24.9701C113.208 25.0213 113.242 25.0818 113.263 25.1475C113.283 25.2131 113.289 25.2825 113.28 25.3507Z" fill="#03243B"/>
<path d="M115.432 25.3506C115.414 25.4977 115.343 25.6334 115.233 25.7323C115.123 25.8312 114.98 25.8868 114.832 25.8886C114.763 25.8897 114.696 25.8761 114.633 25.8487C114.57 25.8212 114.514 25.7806 114.468 25.7296C114.422 25.6786 114.388 25.6184 114.368 25.553C114.347 25.4876 114.341 25.4186 114.35 25.3506C114.365 25.2025 114.435 25.0653 114.546 24.9659C114.657 24.8664 114.801 24.8118 114.95 24.8126C115.019 24.8112 115.087 24.8245 115.15 24.8519C115.213 24.8792 115.269 24.9198 115.315 24.9709C115.36 25.022 115.395 25.0824 115.415 25.1479C115.435 25.2134 115.441 25.2826 115.432 25.3506Z" fill="#03243B"/>
<path d="M145.954 25.5761H130.9C130.868 25.5791 130.836 25.5754 130.806 25.5653C130.776 25.5553 130.749 25.5391 130.725 25.5177C130.702 25.4963 130.683 25.4703 130.67 25.4413C130.657 25.4122 130.651 25.3808 130.651 25.3491C130.651 25.3174 130.657 25.286 130.67 25.2569C130.683 25.2279 130.702 25.2019 130.725 25.1805C130.749 25.1591 130.776 25.1429 130.806 25.1328C130.836 25.1228 130.868 25.1191 130.9 25.1221H145.956C145.988 25.1191 146.019 25.1228 146.05 25.1328C146.08 25.1429 146.107 25.1591 146.131 25.1805C146.154 25.2019 146.173 25.2279 146.186 25.2569C146.199 25.286 146.205 25.3174 146.205 25.3491C146.205 25.3808 146.199 25.4122 146.186 25.4413C146.173 25.4703 146.154 25.4963 146.131 25.5177C146.107 25.5391 146.08 25.5553 146.05 25.5653C146.019 25.5754 145.988 25.5791 145.956 25.5761H145.954Z" fill="#03243B"/>
<path d="M129.534 25.5761H122.7C122.643 25.5708 122.591 25.5446 122.553 25.5026C122.514 25.4606 122.493 25.4059 122.493 25.3491C122.493 25.2923 122.514 25.2376 122.553 25.1956C122.591 25.1536 122.643 25.1274 122.7 25.1221H129.542C129.573 25.1191 129.605 25.1228 129.635 25.1328C129.666 25.1429 129.693 25.1591 129.717 25.1805C129.74 25.2019 129.759 25.2279 129.772 25.2569C129.785 25.286 129.791 25.3174 129.791 25.3491C129.791 25.3808 129.785 25.4122 129.772 25.4413C129.759 25.4703 129.74 25.4963 129.717 25.5177C129.693 25.5391 129.666 25.5553 129.635 25.5653C129.605 25.5754 129.573 25.5791 129.542 25.5761H129.534Z" fill="#03243B"/>
<path d="M119.394 25.5761H116.722C116.666 25.5708 116.613 25.5445 116.575 25.5026C116.537 25.4606 116.515 25.4058 116.515 25.3491C116.515 25.2923 116.537 25.2376 116.575 25.1956C116.613 25.1536 116.666 25.1274 116.722 25.1221H119.394C119.451 25.1274 119.503 25.1536 119.541 25.1956C119.58 25.2376 119.601 25.2923 119.601 25.3491C119.601 25.4058 119.58 25.4606 119.541 25.5026C119.503 25.5445 119.451 25.5708 119.394 25.5761Z" fill="#03243B"/>
<path d="M116.91 39.9972C118.699 38.2984 118.905 35.6125 117.371 33.998C115.838 32.3836 113.145 32.4519 111.356 34.1507C109.568 35.8494 109.362 38.5353 110.895 40.1498C112.429 41.7643 115.122 41.696 116.91 39.9972Z" fill="#03243B"/>
<path d="M129.086 39.9952C130.874 38.2965 131.081 35.6106 129.547 33.9961C128.013 32.3816 125.32 32.45 123.532 34.1487C121.744 35.8475 121.537 38.5334 123.071 40.1479C124.605 41.7623 127.298 41.694 129.086 39.9952Z" fill="#66A8F7"/>
<path d="M141.26 39.9962C143.049 38.2974 143.255 35.6115 141.721 33.9971C140.188 32.3826 137.495 32.4509 135.706 34.1497C133.918 35.8485 133.712 38.5344 135.245 40.1488C136.779 41.7633 139.472 41.695 141.26 39.9962Z" fill="#66A8F7"/>
<path d="M140.014 62.4983H107.382L109.272 44.0703H141.904L140.014 62.4983Z" fill="#66A8F7"/>
<path d="M137.758 84.512H105.126L107.014 66.084H139.646L137.758 84.512Z" fill="#66A8F7"/>
<path d="M127.218 111.686H83.9939C83.3 111.699 82.6342 111.962 82.1194 112.428C81.6047 112.893 81.2759 113.529 81.1939 114.218L78.2999 142.646C78.2583 142.966 78.2864 143.292 78.3823 143.6C78.4781 143.909 78.6394 144.193 78.8551 144.433C79.0709 144.673 79.336 144.864 79.6323 144.992C79.9286 145.12 80.2491 145.183 80.5719 145.176H123.784C124.477 145.164 125.143 144.901 125.658 144.436C126.172 143.971 126.501 143.335 126.584 142.646L129.5 114.218C129.542 113.897 129.513 113.571 129.417 113.262C129.32 112.952 129.158 112.668 128.941 112.427C128.725 112.187 128.458 111.996 128.161 111.868C127.863 111.74 127.542 111.678 127.218 111.686Z" fill="white"/>
<path d="M123.784 145.4H80.562C80.2074 145.407 79.8555 145.337 79.5303 145.195C79.205 145.054 78.9141 144.844 78.6771 144.58C78.4401 144.316 78.2627 144.004 78.157 143.666C78.0512 143.327 78.0195 142.97 78.064 142.618L80.978 114.2C81.0678 113.458 81.4222 112.773 81.9761 112.271C82.5301 111.768 83.2465 111.483 83.994 111.466H127.218C127.571 111.461 127.92 111.53 128.244 111.67C128.568 111.81 128.858 112.018 129.096 112.278C129.332 112.544 129.51 112.857 129.616 113.197C129.723 113.536 129.756 113.895 129.714 114.248L126.8 142.668C126.71 143.41 126.355 144.095 125.801 144.596C125.247 145.098 124.531 145.383 123.784 145.4ZM83.994 111.914C83.3579 111.928 82.7484 112.172 82.2774 112.599C81.8063 113.027 81.5055 113.61 81.43 114.242L78.516 142.668C78.4804 142.958 78.507 143.253 78.5939 143.532C78.6807 143.812 78.826 144.069 79.02 144.288C79.2153 144.502 79.4538 144.671 79.7197 144.785C79.9856 144.899 80.2727 144.956 80.562 144.95H123.784C124.42 144.936 125.03 144.693 125.501 144.265C125.973 143.837 126.274 143.254 126.35 142.622L129.264 114.2C129.299 113.91 129.272 113.616 129.185 113.337C129.098 113.058 128.952 112.801 128.758 112.582C128.563 112.369 128.325 112.199 128.059 112.085C127.794 111.971 127.507 111.915 127.218 111.92L83.994 111.914Z" fill="#03243B"/>
<path d="M124.37 116.068H84.9359C84.8794 116.063 84.8269 116.037 84.7887 115.995C84.7504 115.953 84.7292 115.898 84.7292 115.841C84.7292 115.784 84.7504 115.73 84.7887 115.688C84.8269 115.646 84.8794 115.62 84.9359 115.614H124.37C124.426 115.62 124.479 115.646 124.517 115.688C124.555 115.73 124.577 115.784 124.577 115.841C124.577 115.898 124.555 115.953 124.517 115.995C124.479 116.037 124.426 116.063 124.37 116.068Z" fill="#03243B"/>
<path d="M85.774 113.634C85.7532 113.81 85.6695 113.973 85.5383 114.092C85.4071 114.211 85.2372 114.279 85.06 114.282C84.9772 114.284 84.895 114.268 84.819 114.235C84.743 114.203 84.675 114.154 84.6196 114.092C84.5641 114.031 84.5226 113.958 84.4978 113.879C84.4731 113.8 84.4656 113.717 84.476 113.634C84.4975 113.458 84.5817 113.296 84.7131 113.176C84.8446 113.057 85.0145 112.989 85.192 112.984C85.2748 112.983 85.3569 112.999 85.4328 113.032C85.5087 113.065 85.5766 113.114 85.6319 113.176C85.6871 113.238 85.7284 113.311 85.7529 113.39C85.7774 113.469 85.7846 113.552 85.774 113.634Z" fill="#03243B"/>
<path d="M88.3699 113.634C88.3492 113.81 88.2655 113.973 88.1342 114.092C88.003 114.211 87.8331 114.279 87.6559 114.282C87.5732 114.284 87.491 114.268 87.415 114.235C87.339 114.203 87.2709 114.154 87.2155 114.092C87.1601 114.031 87.1186 113.958 87.0938 113.879C87.069 113.8 87.0615 113.717 87.0719 113.634C87.0935 113.458 87.1776 113.296 87.3091 113.176C87.4405 113.057 87.6105 112.989 87.7879 112.984C87.8707 112.983 87.9529 112.999 88.0288 113.032C88.1047 113.065 88.1726 113.114 88.2278 113.176C88.2831 113.238 88.3244 113.311 88.3489 113.39C88.3734 113.469 88.3806 113.552 88.3699 113.634Z" fill="#03243B"/>
<path d="M90.9659 113.634C90.9451 113.81 90.8614 113.973 90.7302 114.092C90.599 114.211 90.4291 114.279 90.2519 114.282C90.1691 114.284 90.0869 114.268 90.0109 114.235C89.9349 114.203 89.8669 114.154 89.8115 114.092C89.756 114.031 89.7145 113.958 89.6897 113.879C89.665 113.8 89.6575 113.717 89.6679 113.634C89.6894 113.458 89.7736 113.296 89.905 113.176C90.0364 113.057 90.2064 112.989 90.3839 112.984C90.4667 112.983 90.5488 112.999 90.6247 113.032C90.7006 113.065 90.7685 113.114 90.8238 113.176C90.879 113.238 90.9203 113.311 90.9448 113.39C90.9693 113.469 90.9765 113.552 90.9659 113.634Z" fill="#03243B"/>
<path d="M125.33 113.86H99.7299C99.67 113.86 99.6125 113.836 99.5701 113.794C99.5277 113.752 99.5039 113.694 99.5039 113.634C99.5039 113.574 99.5277 113.517 99.5701 113.474C99.6125 113.432 99.67 113.408 99.7299 113.408H125.33C125.39 113.408 125.447 113.432 125.49 113.474C125.532 113.517 125.556 113.574 125.556 113.634C125.556 113.694 125.532 113.752 125.49 113.794C125.447 113.836 125.39 113.86 125.33 113.86Z" fill="#03243B"/>
<path d="M95.7478 113.86H92.5239C92.4639 113.86 92.4064 113.836 92.3641 113.794C92.3217 113.752 92.2979 113.694 92.2979 113.634C92.2979 113.574 92.3217 113.517 92.3641 113.474C92.4064 113.432 92.4639 113.408 92.5239 113.408H95.7478C95.8078 113.408 95.8653 113.432 95.9077 113.474C95.95 113.517 95.9738 113.574 95.9738 113.634C95.9738 113.694 95.95 113.752 95.9077 113.794C95.8653 113.836 95.8078 113.86 95.7478 113.86Z" fill="#03243B"/>
<path d="M123.634 134.846H82.3179L84.0119 118.316H125.33L123.634 134.846Z" fill="#66A8F7"/>
<path d="M98.372 139.494H81.842L82.124 136.74H98.654L98.372 139.494Z" fill="#03243B"/>
<path d="M103.962 49.8686C103.962 49.8686 108.362 42.4206 111.87 39.9366C115.378 37.4526 111.318 41.5366 110.754 42.3726C110.19 43.2086 111.31 44.0486 111.318 45.9246C111.326 47.8006 110.17 47.3986 108.824 48.0206C107.478 48.6426 106.288 51.6006 106.288 51.6006L103.962 49.8686Z" fill="white"/>
<path d="M106.288 51.8182C106.24 51.8183 106.192 51.8021 106.154 51.7722L103.828 50.0503C103.783 50.0169 103.752 49.9679 103.741 49.9128C103.729 49.8577 103.739 49.8005 103.768 49.7522C103.948 49.4462 108.224 42.2342 111.74 39.7522C113.044 38.8282 113.27 38.8183 113.442 39.0103C113.67 39.2643 113.454 39.5922 111.904 41.3562C111.482 41.8362 111.084 42.2902 110.942 42.5002C110.72 42.8303 110.832 43.1622 111.068 43.7682C111.366 44.449 111.528 45.1814 111.546 45.9242C111.546 47.4642 110.798 47.6622 109.926 47.8942C109.583 47.9744 109.248 48.0862 108.926 48.2282C107.674 48.8062 106.516 51.6483 106.504 51.6783C106.487 51.718 106.459 51.7522 106.424 51.7773C106.389 51.8023 106.347 51.8172 106.304 51.8203L106.288 51.8182ZM104.262 49.8182L106.192 51.2482C106.528 50.4882 107.55 48.3702 108.728 47.8242C109.077 47.6717 109.439 47.5505 109.81 47.4622C110.64 47.2442 111.098 47.1222 111.092 45.9342C111.074 45.2448 110.922 44.5654 110.644 43.9342C110.408 43.3202 110.202 42.7902 110.566 42.2502C110.724 42.0142 111.112 41.5723 111.566 41.0603C111.942 40.6323 112.494 40.0042 112.814 39.5842C112.63 39.6942 112.372 39.8642 112.014 40.1242C108.862 42.3382 104.95 48.6722 104.262 49.8003V49.8182Z" fill="#03243B"/>
<path d="M104.032 48.502L107.396 51.6C107.396 51.6 101.17 71.18 82.3 78.268C76.574 82.7 70.432 83.468 68.062 117.492C68.062 117.492 37.228 127.462 34.062 113.324C34.062 113.324 39.108 95.446 49.75 81.562C53.226 77.024 58.826 70.71 63.832 71.218C68.838 71.726 94.258 68.6 104.032 48.502Z" fill="white"/>
<path d="M48.086 121.143C43.87 121.143 40.53 120.449 38.106 119.065C35.836 117.767 34.404 115.853 33.85 113.373C33.841 113.337 33.841 113.299 33.85 113.263C33.902 113.083 39.03 95.1846 49.576 81.4246C55.176 74.1086 59.988 70.6026 63.86 70.9926C66.2 71.2306 73.728 70.6566 82.06 67.3726C89.136 64.5866 98.66 59.0326 103.824 48.4026C103.839 48.371 103.861 48.3433 103.889 48.3221C103.917 48.3008 103.949 48.2866 103.984 48.2806C104.019 48.2729 104.056 48.2737 104.091 48.2831C104.125 48.2925 104.157 48.3102 104.184 48.3346L107.548 51.4246C107.58 51.4538 107.603 51.4915 107.614 51.5333C107.626 51.5751 107.625 51.6193 107.612 51.6606C107.596 51.7086 106 56.6606 102.112 62.3986C98.526 67.6966 92.2 74.7826 82.418 78.4686C81.854 78.9046 81.28 79.3106 80.724 79.7026C78.078 81.5666 75.582 83.3286 73.392 88.4746C70.918 94.2886 69.25 103.785 68.294 117.509C68.291 117.554 68.2745 117.597 68.2467 117.633C68.2189 117.668 68.181 117.695 68.138 117.709C64.3745 118.863 60.5361 119.758 56.65 120.387C53.8194 120.862 50.956 121.114 48.086 121.143ZM34.3 113.331C34.836 115.653 36.19 117.449 38.326 118.671C46.982 123.615 65.99 117.903 67.85 117.325C68.81 103.631 70.486 94.1366 72.97 88.2966C75.21 83.0326 77.878 81.1506 80.458 79.3326C81.02 78.9326 81.6 78.5326 82.164 78.0906C82.1817 78.0767 82.2012 78.0652 82.222 78.0566C91.906 74.4186 98.172 67.4026 101.726 62.1566C105.222 56.9946 106.846 52.4886 107.126 51.6586L104.1 48.8746C98.838 59.4566 89.32 65.0006 82.232 67.8006C73.818 71.1166 66.192 71.6906 63.818 71.4506C60.11 71.0726 55.44 74.5246 49.938 81.7066C39.736 95.0106 34.626 112.225 34.3 113.331Z" fill="#03243B"/>
<path d="M87.1599 84.6403L89.6259 79.6223C89.8911 79.0822 90.2829 78.6143 90.7679 78.2583C91.1576 77.9722 91.6169 77.7961 92.0979 77.7483L94.9739 77.4603C94.9739 77.4603 98.3479 74.6043 99.5239 74.7223L96.2739 79.5423C96.053 79.8713 95.7647 80.1496 95.4282 80.3589C95.0917 80.5681 94.7147 80.7036 94.3219 80.7563L92.6879 80.9783C92.4823 81.0061 92.2881 81.089 92.1257 81.2182C91.9634 81.3475 91.8391 81.5182 91.7659 81.7123L90.0299 86.3243L87.1599 84.6403Z" fill="white"/>
<path d="M90.0299 86.5505C89.9899 86.5508 89.9506 86.5404 89.9159 86.5205L87.0439 84.8345C86.9949 84.8056 86.9587 84.7592 86.9424 84.7047C86.926 84.6502 86.9309 84.5916 86.9559 84.5405L89.4219 79.5225C89.7042 78.9503 90.1198 78.4544 90.6339 78.0765C91.0563 77.766 91.5543 77.5747 92.0759 77.5225L94.8759 77.2425C95.4179 76.7885 98.3519 74.3765 99.5419 74.4965C99.5808 74.5009 99.6179 74.5152 99.6498 74.5379C99.6816 74.5607 99.7071 74.5911 99.7239 74.6265C99.7403 74.6619 99.7473 74.701 99.7441 74.7399C99.741 74.7788 99.7278 74.8162 99.7059 74.8485L96.4559 79.6705C96.2168 80.0258 95.9052 80.3264 95.5415 80.5526C95.1778 80.7787 94.7703 80.9252 94.3459 80.9825L92.7199 81.2005C92.5545 81.2227 92.3981 81.2892 92.2675 81.3931C92.1368 81.497 92.0368 81.6343 91.9779 81.7905L90.2419 86.4005C90.2301 86.4313 90.2119 86.4592 90.1885 86.4823C90.165 86.5054 90.1368 86.5232 90.1059 86.5345C90.0815 86.5437 90.0559 86.5491 90.0299 86.5505ZM87.4559 84.5505L89.9119 86.0005L91.5539 81.6405C91.6417 81.4083 91.7907 81.2041 91.985 81.0495C92.1794 80.895 92.4119 80.7958 92.6579 80.7625L94.2919 80.5405C94.6534 80.4912 95.0006 80.3664 95.3107 80.1741C95.6208 79.9818 95.887 79.7264 96.0919 79.4245L99.0539 75.0245C97.9439 75.3865 95.9159 76.9665 95.1239 77.6365C95.0886 77.666 95.0456 77.6848 94.9999 77.6905L92.1239 77.9765C91.6816 78.0184 91.2588 78.1787 90.8999 78.4405C90.4448 78.7756 90.0771 79.2153 89.8279 79.7225L87.4559 84.5505Z" fill="#03243B"/>
<path d="M92.412 78.2682L94.996 78.0342C94.9421 78.2011 94.8539 78.3549 94.7372 78.4857C94.6204 78.6166 94.4777 78.7217 94.318 78.7942C93.766 79.0482 91.886 79.9702 91.886 79.9702L92.412 78.2682Z" fill="white"/>
<path d="M91.8859 80.2001C91.8346 80.2003 91.7847 80.183 91.7445 80.151C91.7043 80.1191 91.6762 80.0744 91.6648 80.0243C91.6534 79.9743 91.6594 79.9218 91.6818 79.8756C91.7041 79.8294 91.7416 79.7922 91.7879 79.7701C91.8059 79.7701 93.6759 78.8461 94.2219 78.5921C94.3678 78.5245 94.4968 78.4255 94.5999 78.3021L92.4319 78.5021C92.372 78.5077 92.3123 78.4892 92.266 78.4508C92.2196 78.4123 92.1905 78.3571 92.1849 78.2971C92.1793 78.2372 92.1978 78.1775 92.2363 78.1312C92.2747 78.0848 92.33 78.0557 92.3899 78.0501L94.9739 77.8001C95.0102 77.7962 95.0469 77.8012 95.0808 77.8147C95.1147 77.8283 95.1448 77.8498 95.1685 77.8776C95.1922 77.9054 95.2087 77.9386 95.2166 77.9742C95.2245 78.0099 95.2236 78.0469 95.2139 78.0821C95.1522 78.2816 95.049 78.4658 94.9112 78.6226C94.7733 78.7794 94.6039 78.9054 94.4139 78.9921C93.8719 79.2421 92.0139 80.1561 91.9879 80.1661C91.9573 80.1857 91.9222 80.1974 91.8859 80.2001Z" fill="#03243B"/>
<path d="M87.9 82.1007L91.9 84.3967C91.9 84.3967 88.968 100.133 72.926 99.9287C56.884 99.7247 51.99 88.0007 51.99 88.0007L60.356 79.4707C60.356 79.4707 74.832 97.4287 87.9 82.1007Z" fill="white"/>
<path d="M73.2181 100.157H72.9101C64.5501 100.049 59.2541 96.7806 56.2821 94.0566C53.0561 91.1006 51.8301 88.2126 51.7801 88.0906C51.757 88.0352 51.7569 87.9728 51.7798 87.9173C51.8027 87.8618 51.8467 87.8177 51.9021 87.7946C51.9575 87.7715 52.0198 87.7714 52.0754 87.7943C52.1309 87.8172 52.175 87.8611 52.1981 87.9166C52.2101 87.9466 53.4461 90.8486 56.5981 93.7386C59.5161 96.4006 64.7101 99.6006 72.9141 99.7006C81.1181 99.8006 85.7621 95.6306 88.2301 92.1006C89.8243 89.7997 90.9772 87.2226 91.6301 84.5006L87.9401 82.4006C78.7261 93.0666 68.8361 87.4706 63.7401 83.1706C63.6942 83.1319 63.6656 83.0765 63.6605 83.0167C63.6554 82.9568 63.6744 82.8975 63.7131 82.8516C63.7518 82.8057 63.8072 82.7771 63.867 82.772C63.9268 82.767 63.9862 82.7859 64.0321 82.8246C69.0141 87.0346 78.7141 92.5226 87.7081 81.9646C87.7425 81.9243 87.7899 81.8973 87.8421 81.8882C87.8943 81.879 87.948 81.8884 87.9941 81.9146L91.9941 84.2106C92.0351 84.2337 92.0678 84.2691 92.0875 84.3118C92.1073 84.3545 92.1131 84.4024 92.1041 84.4486C91.4515 87.2919 90.26 89.9838 88.5941 92.3786C86.1001 95.9346 81.4121 100.157 73.2181 100.157Z" fill="#03243B"/>
<path d="M67.552 61.7041C67.552 61.7041 66.07 67.4421 62.29 71.3381C64.1375 73.1667 66.5839 74.2656 69.178 74.4321C73.56 74.7281 70.104 70.8321 70.104 70.8321L72.032 63.8881L67.552 61.7041Z" fill="white"/>
<path d="M69.6181 74.6745C69.4741 74.6745 69.3221 74.6745 69.1621 74.6585C66.5074 74.4971 64.0035 73.3703 62.1221 71.4905C62.0826 71.4486 62.0605 71.3931 62.0605 71.3355C62.0605 71.2779 62.0826 71.2225 62.1221 71.1805C65.8161 67.3805 67.3101 61.7045 67.3221 61.6465C67.3305 61.6141 67.3461 61.584 67.3676 61.5583C67.3891 61.5327 67.416 61.5121 67.4465 61.4982C67.4769 61.4842 67.5101 61.4771 67.5435 61.4776C67.577 61.478 67.61 61.4858 67.6401 61.5005L72.1221 63.6785C72.1698 63.7021 72.2078 63.7416 72.2297 63.7901C72.2515 63.8386 72.2559 63.8932 72.2421 63.9445L70.3441 70.7705C70.7181 71.2145 72.0081 72.8565 71.4961 73.9005C71.2541 74.4145 70.6181 74.6745 69.6181 74.6745ZM62.6061 71.3365C64.4086 73.0185 66.7346 74.0297 69.1941 74.2005C69.9261 74.2505 70.8501 74.2005 71.1001 73.6945C71.4641 72.9525 70.3821 71.4765 69.9341 70.9705C69.9086 70.9427 69.8907 70.9087 69.8823 70.8719C69.8739 70.8351 69.8752 70.7967 69.8861 70.7605L71.7641 64.0005L67.7001 62.0265C67.3521 63.2005 65.8161 67.9305 62.6061 71.3365Z" fill="#03243B"/>
<path d="M73.922 58.874C74.122 59.438 73.922 60.028 73.484 60.19C73.046 60.352 72.508 60.026 72.302 59.462C72.096 58.898 72.302 58.308 72.742 58.146C73.182 57.984 73.718 58.31 73.922 58.874Z" fill="white"/>
<path d="M73.2439 60.4602C73.0445 60.4579 72.8498 60.3997 72.6819 60.2922C72.4029 60.1163 72.1915 59.8513 72.0819 59.5402C71.8339 58.8582 72.0919 58.1402 72.6559 57.9402C72.801 57.8902 72.9557 57.8744 73.108 57.8938C73.2602 57.9132 73.406 57.9674 73.5339 58.0522C73.8127 58.2284 74.024 58.4933 74.1339 58.8042C74.3799 59.4862 74.1219 60.2042 73.5579 60.4042C73.4571 60.4403 73.351 60.4593 73.2439 60.4602ZM72.9799 58.3302C72.9247 58.3304 72.8699 58.3399 72.8179 58.3582C72.4899 58.4782 72.3539 58.9382 72.5159 59.3842C72.5866 59.5983 72.7275 59.7823 72.9159 59.9062C72.9862 59.9542 73.0664 59.9857 73.1506 59.9981C73.2348 60.0106 73.3207 60.0038 73.4019 59.9782C73.7319 59.8582 73.8679 59.3982 73.7059 58.9522C73.6341 58.7387 73.4934 58.555 73.3059 58.4302C73.2088 58.367 73.0958 58.3323 72.9799 58.3302Z" fill="#03243B"/>
<path d="M70.7941 52.8727C68.6461 53.1367 68.3241 55.5507 65.7581 55.8027C64.5821 55.9167 64.0001 55.4727 62.9581 55.9587C62.2661 56.2807 61.2521 57.0647 61.1361 58.1167C60.9881 59.4567 62.4561 59.7667 63.9361 62.3707C64.9681 64.1987 65.0161 65.4147 65.8541 65.5567C66.6921 65.6987 67.0961 64.5347 68.0341 64.6207C69.2481 64.7347 69.3801 66.7647 70.6521 67.3867C71.5281 67.8127 73.4521 67.7067 76.2301 65.4467C75.9541 64.9127 75.4641 63.7947 74.8781 62.8127C73.0461 59.7387 71.7301 59.2127 72.0041 58.2767C72.4221 56.8487 75.0461 57.1487 75.2641 56.0007C75.4741 54.8007 72.9981 52.6007 70.7941 52.8727Z" fill="#03243B"/>
<path d="M67.2319 59.0525L68.1959 59.5085C68.1959 59.5085 69.5959 62.6465 70.3139 63.6445C71.0319 64.6425 74.2819 62.6765 74.2819 62.6765L74.3699 61.9645L74.7339 61.2105C74.7764 61.1226 74.7897 61.0235 74.7721 60.9275C74.7545 60.8315 74.7068 60.7436 74.6359 60.6765C74.0359 60.1085 72.4919 58.5345 71.6619 56.7105C70.7864 56.6981 69.9218 56.9062 69.1477 57.3154C68.3735 57.7247 67.7148 58.322 67.2319 59.0525Z" fill="white"/>
<path d="M67.4499 59.0006C67.7392 59.0813 68.022 59.1836 68.2959 59.3066C68.3458 59.3308 68.3855 59.3719 68.4079 59.4226C68.7179 60.0966 69.0419 60.7686 69.3679 61.4366C69.6863 62.1017 70.0388 62.7499 70.4239 63.3786L70.4979 63.4886C70.5062 63.5037 70.517 63.5172 70.5299 63.5286L70.5559 63.5606C70.6004 63.5991 70.6521 63.6283 70.7079 63.6466C70.8548 63.6915 71.0094 63.7051 71.1619 63.6866C71.5126 63.6466 71.8567 63.5619 72.1859 63.4346C72.8716 63.1783 73.5334 62.8625 74.1639 62.4906L74.0559 62.6566C74.0879 62.4206 74.1099 62.1826 74.1579 61.9466V61.9146C74.1605 61.9025 74.1652 61.891 74.1719 61.8806C74.3175 61.6559 74.4511 61.4236 74.5719 61.1846C74.5834 61.1613 74.5934 61.1372 74.6019 61.1126C74.6078 61.091 74.6119 61.0689 74.6139 61.0466C74.6175 61.0033 74.612 60.9597 74.5979 60.9186C74.5828 60.8779 74.5589 60.841 74.5279 60.8106L74.3859 60.6746C73.9992 60.2986 73.6279 59.908 73.2719 59.5026C72.5452 58.6902 71.9347 57.7809 71.4579 56.8006L71.6459 56.9306C71.4421 56.9277 71.2383 56.9384 71.0359 56.9626C70.9339 56.9766 70.8359 56.9926 70.7279 57.0106C70.6199 57.0286 70.5279 57.0506 70.4219 57.0766C70.0174 57.1749 69.6269 57.3241 69.2599 57.5206C68.8909 57.7131 68.5493 57.9539 68.2439 58.2366C68.088 58.3745 67.9417 58.5229 67.8059 58.6806C67.7556 58.7413 67.7022 58.7994 67.6459 58.8546C67.5939 58.9006 67.5259 58.9386 67.4499 59.0006ZM67.0139 59.1206C67.0721 58.9864 67.1389 58.8562 67.2139 58.7306C67.2832 58.6093 67.3657 58.4959 67.4599 58.3926C67.9026 57.8711 68.4401 57.4381 69.0439 57.1166C69.4461 56.9028 69.8744 56.7422 70.3179 56.6386C70.4279 56.6106 70.5399 56.5926 70.6499 56.5686C70.7599 56.5446 70.8759 56.5346 70.9879 56.5206C71.2181 56.4927 71.4503 56.484 71.6819 56.4946C71.7223 56.4963 71.7615 56.5094 71.7947 56.5324C71.828 56.5554 71.8541 56.5874 71.8699 56.6246C72.0846 57.1001 72.336 57.5582 72.6219 57.9946C72.9091 58.436 73.2202 58.8613 73.5539 59.2686C73.887 59.6783 74.2429 60.069 74.6199 60.4386L74.7659 60.5826C74.8252 60.6452 74.8708 60.7194 74.8999 60.8006C74.9295 60.886 74.9404 60.9767 74.9319 61.0666C74.9276 61.1109 74.9182 61.1545 74.9039 61.1966C74.89 61.2348 74.874 61.2722 74.8559 61.3086C74.7428 61.5513 74.644 61.8004 74.5599 62.0546L74.5799 61.9886C74.5679 62.2266 74.5319 62.4646 74.5039 62.7006C74.5001 62.7351 74.4884 62.7682 74.4697 62.7973C74.4509 62.8265 74.4257 62.8509 74.3959 62.8686C73.7419 63.2616 73.0546 63.5962 72.3419 63.8686C71.9741 64.0116 71.5897 64.1077 71.1979 64.1546C70.9781 64.1804 70.7554 64.16 70.5439 64.0946C70.4219 64.0515 70.3102 63.9833 70.2159 63.8946L70.1499 63.8186C70.1292 63.7975 70.111 63.774 70.0959 63.7486L70.0139 63.6266C69.6176 62.9795 69.2558 62.3119 68.9299 61.6266C68.5979 60.9546 68.2859 60.2746 67.9799 59.5886L68.0919 59.7026C67.721 59.5278 67.361 59.3308 67.0139 59.1126V59.1206Z" fill="#03243B"/>
<path d="M68.412 61.8898C68.412 61.8898 66.948 60.0518 66.252 60.8898C65.556 61.7278 67.218 63.7198 68.412 61.8898Z" fill="white"/>
<path d="M67.3 62.944C67.2627 62.9462 67.2253 62.9462 67.188 62.944C66.9047 62.9037 66.6371 62.789 66.4126 62.6116C66.1881 62.4342 66.0147 62.2004 65.91 61.934C65.8151 61.7386 65.7759 61.5207 65.7967 61.3044C65.8175 61.0882 65.8976 60.8818 66.028 60.708C66.1109 60.6032 66.2167 60.5187 66.3374 60.4611C66.4581 60.4036 66.5903 60.3745 66.724 60.376C67.578 60.376 68.548 61.576 68.656 61.708C68.6953 61.758 68.718 61.819 68.7209 61.8825C68.7238 61.946 68.7067 62.0088 68.672 62.062C68.176 62.8 67.63 62.944 67.3 62.944ZM66.7 60.974C66.657 60.9734 66.6145 60.9832 66.5761 61.0027C66.5378 61.0223 66.5048 61.0509 66.48 61.086C66.4232 61.1768 66.391 61.2807 66.3864 61.3876C66.3819 61.4945 66.4051 61.6008 66.454 61.696C66.5168 61.8608 66.6214 62.0064 66.7574 62.1186C66.8935 62.2308 67.0563 62.3057 67.23 62.336C67.389 62.3374 67.5457 62.2985 67.6856 62.2229C67.8255 62.1474 67.9439 62.0377 68.03 61.904C67.664 61.492 67.086 60.978 66.712 60.974H66.7Z" fill="#03243B"/>
<path d="M72.7 59.3224C72.9 59.8864 72.7 60.4764 72.262 60.6384C71.824 60.8004 71.284 60.4744 71.08 59.9104C70.876 59.3464 71.08 58.7564 71.518 58.5944C71.956 58.4324 72.486 58.7564 72.7 59.3224Z" fill="white"/>
<path d="M72.0161 60.9061C71.7526 60.8873 71.5009 60.7895 71.2939 60.6253C71.087 60.4612 70.9344 60.2384 70.8561 59.9861C70.6101 59.3061 70.8681 58.5861 71.4321 58.3861C71.9961 58.1861 72.6561 58.5681 72.9041 59.2501C73.1501 59.9321 72.8921 60.6501 72.3281 60.8501C72.2283 60.8872 72.1226 60.9061 72.0161 60.9061ZM71.7501 58.7781C71.6942 58.7775 71.6386 58.7869 71.5861 58.8061C71.2561 58.9261 71.1201 59.3861 71.2821 59.8321C71.4441 60.2781 71.8441 60.5461 72.1741 60.4321C72.5041 60.3181 72.6401 59.8521 72.4781 59.4061C72.4331 59.2408 72.3398 59.0927 72.2101 58.9809C72.0804 58.869 71.9202 58.7984 71.7501 58.7781Z" fill="#03243B"/>
<path d="M67.7421 60.9704C67.6883 60.9712 67.6359 60.9527 67.5944 60.9184C67.553 60.884 67.5252 60.8359 67.516 60.7829C67.5068 60.7298 67.5169 60.6752 67.5444 60.6289C67.572 60.5826 67.6151 60.5477 67.6661 60.5304L70.9281 59.3524C70.9561 59.3422 70.9858 59.3377 71.0155 59.3391C71.0452 59.3405 71.0743 59.3477 71.1013 59.3603C71.1282 59.3729 71.1524 59.3907 71.1724 59.4127C71.1925 59.4347 71.208 59.4604 71.2181 59.4884C71.2282 59.5163 71.2327 59.546 71.2314 59.5757C71.23 59.6054 71.2228 59.6346 71.2102 59.6615C71.1975 59.6885 71.1797 59.7126 71.1578 59.7327C71.1358 59.7527 71.1101 59.7683 71.0821 59.7784L67.8201 60.9564C67.7952 60.9658 67.7687 60.9706 67.7421 60.9704Z" fill="#03243B"/>
<path d="M118.058 125.12C118.012 125.12 117.966 125.106 117.929 125.079C117.891 125.053 117.862 125.015 117.846 124.972C117.83 124.928 117.827 124.881 117.839 124.836C117.85 124.791 117.875 124.751 117.91 124.72C130.044 114.298 133.494 101.32 134.252 92.2885C135.074 82.4765 132.994 75.0365 132.972 74.9625C132.955 74.9047 132.963 74.8427 132.992 74.7902C133.021 74.7377 133.07 74.6989 133.128 74.6825C133.186 74.666 133.248 74.6732 133.3 74.7025C133.353 74.7317 133.391 74.7807 133.408 74.8385C133.43 74.9125 135.53 82.4205 134.706 92.3085C134.266 97.9379 132.875 103.452 130.592 108.616C127.792 114.882 123.618 120.416 118.206 125.064C118.165 125.101 118.112 125.121 118.058 125.12Z" fill="#03243B"/>
<path d="M134.672 106.894C134.633 106.894 134.595 106.883 134.562 106.864C134.536 106.849 134.513 106.83 134.494 106.807C134.476 106.783 134.462 106.757 134.454 106.728C134.446 106.699 134.443 106.669 134.447 106.64C134.45 106.61 134.459 106.582 134.474 106.556C138.37 99.6137 137.506 87.1557 137.496 87.0317C137.494 87.002 137.497 86.9722 137.507 86.9439C137.516 86.9157 137.531 86.8895 137.55 86.8669C137.57 86.8444 137.593 86.8259 137.62 86.8124C137.646 86.799 137.675 86.791 137.705 86.7887C137.735 86.7865 137.765 86.7901 137.793 86.7994C137.821 86.8087 137.847 86.8235 137.87 86.8429C137.892 86.8623 137.911 86.886 137.924 86.9125C137.938 86.9391 137.946 86.968 137.948 86.9977C137.948 87.1237 138.832 99.7157 134.87 106.778C134.85 106.813 134.822 106.842 134.787 106.863C134.752 106.883 134.712 106.894 134.672 106.894Z" fill="#03243B"/>
<path d="M35.7259 129.972C35.6962 129.972 35.6668 129.966 35.6393 129.955C35.6119 129.944 35.5869 129.927 35.5659 129.906L34.8999 129.242C34.8788 129.221 34.8621 129.196 34.8508 129.169C34.8394 129.141 34.8335 129.112 34.8335 129.082C34.8335 129.052 34.8394 129.023 34.8508 128.996C34.8621 128.968 34.8788 128.943 34.8999 128.922C34.9429 128.88 35.0007 128.856 35.0609 128.856C35.1211 128.856 35.1789 128.88 35.2219 128.922L35.8839 129.584C35.926 129.627 35.9496 129.685 35.9496 129.745C35.9496 129.805 35.926 129.863 35.8839 129.906C35.8419 129.948 35.7852 129.972 35.7259 129.972Z" fill="#03243B"/>
<path d="M38.0439 132.29C38.0142 132.29 37.9848 132.284 37.9573 132.273C37.9299 132.262 37.9049 132.245 37.8839 132.224L37.2219 131.562C37.2009 131.541 37.1842 131.516 37.1728 131.489C37.1614 131.461 37.1555 131.432 37.1555 131.402C37.1555 131.372 37.1614 131.343 37.1728 131.315C37.1842 131.288 37.2009 131.263 37.2219 131.242C37.2428 131.221 37.2677 131.204 37.2951 131.192C37.3226 131.181 37.3521 131.175 37.3819 131.175C37.4117 131.175 37.4412 131.181 37.4687 131.192C37.4962 131.204 37.5211 131.221 37.5419 131.242L38.2039 131.904C38.2356 131.936 38.2572 131.976 38.2659 132.02C38.2747 132.064 38.2702 132.109 38.2531 132.151C38.2359 132.192 38.2069 132.227 38.1697 132.252C38.1324 132.277 38.0887 132.29 38.0439 132.29Z" fill="#03243B"/>
<path d="M35.0618 132.29C35.0171 132.29 34.9733 132.277 34.9361 132.252C34.8988 132.227 34.8698 132.192 34.8527 132.151C34.8355 132.109 34.8311 132.064 34.8398 132.02C34.8486 131.976 34.8702 131.936 34.9018 131.904L35.5658 131.242C35.5867 131.221 35.6116 131.204 35.6391 131.192C35.6665 131.181 35.696 131.175 35.7258 131.175C35.7556 131.175 35.7851 131.181 35.8126 131.192C35.8401 131.204 35.865 131.221 35.8858 131.242C35.9069 131.263 35.9236 131.288 35.935 131.315C35.9464 131.343 35.9522 131.372 35.9522 131.402C35.9522 131.432 35.9464 131.461 35.935 131.489C35.9236 131.516 35.9069 131.541 35.8858 131.562L35.2238 132.224C35.1804 132.266 35.1223 132.29 35.0618 132.29Z" fill="#03243B"/>
<path d="M37.382 129.972C37.3523 129.972 37.3229 129.966 37.2954 129.955C37.268 129.943 37.243 129.927 37.222 129.906C37.1799 129.863 37.1562 129.805 37.1562 129.745C37.1562 129.685 37.1799 129.627 37.222 129.584L37.884 128.922C37.905 128.901 37.9299 128.884 37.9574 128.873C37.9848 128.861 38.0143 128.855 38.044 128.855C38.0737 128.855 38.1032 128.861 38.1306 128.873C38.1581 128.884 38.183 128.901 38.204 128.922C38.2253 128.943 38.2422 128.968 38.2537 128.995C38.2653 129.023 38.2712 129.052 38.2712 129.082C38.2712 129.112 38.2653 129.141 38.2537 129.169C38.2422 129.196 38.2253 129.221 38.204 129.242L37.542 129.906C37.521 129.927 37.496 129.943 37.4686 129.955C37.4411 129.966 37.4117 129.972 37.382 129.972Z" fill="#03243B"/>
<path d="M115.2 128.182C114.883 128.182 114.574 128.089 114.311 127.913C114.048 127.737 113.843 127.487 113.722 127.195C113.601 126.902 113.569 126.581 113.631 126.27C113.692 125.96 113.845 125.675 114.068 125.451C114.292 125.227 114.577 125.075 114.888 125.013C115.198 124.951 115.52 124.983 115.812 125.104C116.105 125.225 116.354 125.43 116.53 125.694C116.706 125.957 116.8 126.266 116.8 126.582C116.8 127.007 116.631 127.414 116.331 127.714C116.031 128.014 115.624 128.182 115.2 128.182ZM115.2 125.434C114.973 125.434 114.751 125.502 114.562 125.628C114.373 125.754 114.226 125.934 114.139 126.144C114.052 126.353 114.03 126.584 114.074 126.807C114.119 127.03 114.228 127.234 114.389 127.395C114.55 127.555 114.754 127.665 114.977 127.709C115.2 127.753 115.431 127.73 115.641 127.642C115.85 127.555 116.029 127.408 116.155 127.219C116.281 127.03 116.348 126.808 116.348 126.58C116.347 126.276 116.226 125.985 116.011 125.77C115.796 125.555 115.504 125.434 115.2 125.434Z" fill="#03243B"/>
<path d="M131.234 70.6443C131.204 70.6444 131.175 70.6385 131.147 70.6272C131.12 70.6159 131.095 70.5993 131.074 70.5783L130.412 69.9163C130.391 69.8953 130.374 69.8703 130.363 69.8428C130.351 69.8153 130.345 69.7858 130.345 69.756C130.345 69.7262 130.351 69.6967 130.362 69.6691C130.373 69.6415 130.39 69.6164 130.411 69.5953C130.432 69.5742 130.457 69.5574 130.484 69.5459C130.512 69.5344 130.541 69.5284 130.571 69.5283C130.601 69.5282 130.631 69.534 130.658 69.5453C130.686 69.5566 130.711 69.5733 130.732 69.5943L131.394 70.2583C131.426 70.2899 131.447 70.3302 131.456 70.3741C131.465 70.418 131.46 70.4635 131.443 70.5048C131.426 70.5462 131.397 70.5815 131.36 70.6063C131.322 70.6312 131.279 70.6444 131.234 70.6443Z" fill="#03243B"/>
<path d="M133.554 72.9619C133.493 72.9617 133.435 72.938 133.392 72.8959L132.73 72.2339C132.687 72.1915 132.664 72.1339 132.664 72.0739C132.664 72.0139 132.687 71.9564 132.73 71.9139C132.772 71.8715 132.83 71.8477 132.89 71.8477C132.95 71.8477 133.007 71.8715 133.05 71.9139L133.714 72.5759C133.746 72.6075 133.767 72.6478 133.776 72.6917C133.785 72.7356 133.78 72.7811 133.763 72.8225C133.746 72.8638 133.717 72.8991 133.68 72.924C133.642 72.9488 133.599 72.962 133.554 72.9619Z" fill="#03243B"/>
<path d="M130.572 72.9619C130.527 72.962 130.483 72.9488 130.446 72.924C130.409 72.8991 130.38 72.8638 130.363 72.8225C130.346 72.7811 130.341 72.7356 130.35 72.6917C130.359 72.6478 130.38 72.6075 130.412 72.5759L131.074 71.9139C131.095 71.8929 131.12 71.8763 131.147 71.8649C131.175 71.8535 131.204 71.8477 131.234 71.8477C131.264 71.8477 131.293 71.8535 131.32 71.8649C131.348 71.8763 131.373 71.8929 131.394 71.9139C131.415 71.9349 131.432 71.9599 131.443 71.9873C131.454 72.0148 131.46 72.0442 131.46 72.0739C131.46 72.1036 131.454 72.1331 131.443 72.1605C131.432 72.188 131.415 72.2129 131.394 72.2339L130.732 72.8959C130.711 72.9169 130.686 72.9335 130.658 72.9449C130.631 72.9562 130.602 72.962 130.572 72.9619Z" fill="#03243B"/>
<path d="M132.9 70.644C132.855 70.6441 132.811 70.6308 132.774 70.606C132.737 70.5812 132.708 70.5459 132.691 70.5045C132.674 70.4632 132.669 70.4177 132.678 70.3738C132.687 70.3299 132.708 70.2896 132.74 70.258L133.402 69.594C133.423 69.571 133.448 69.5524 133.476 69.5395C133.504 69.5265 133.534 69.5194 133.565 69.5186C133.596 69.5178 133.627 69.5233 133.656 69.5348C133.685 69.5463 133.711 69.5635 133.733 69.5853C133.754 69.6072 133.772 69.6333 133.783 69.6621C133.795 69.6908 133.8 69.7216 133.799 69.7525C133.799 69.7834 133.791 69.8139 133.778 69.842C133.765 69.8701 133.747 69.8953 133.724 69.916L133.06 70.578C133.039 70.599 133.014 70.6156 132.987 70.6269C132.959 70.6382 132.93 70.644 132.9 70.644Z" fill="#03243B"/>
<path d="M85.402 24.4223L73.986 27.6543C73.8342 27.6969 73.703 27.7932 73.6169 27.9253C73.5308 28.0574 73.4957 28.2163 73.518 28.3723L75.344 41.2163C75.3568 41.3085 75.3892 41.3968 75.439 41.4754C75.4888 41.5539 75.5549 41.6209 75.6329 41.6717C75.7108 41.7225 75.7987 41.756 75.8907 41.7699C75.9827 41.7838 76.0766 41.7778 76.166 41.7523L87.584 38.5203C87.7359 38.4778 87.867 38.3815 87.9531 38.2494C88.0392 38.1173 88.0744 37.9584 88.052 37.8023L86.226 24.9583C86.213 24.8661 86.1804 24.7777 86.1304 24.6992C86.0803 24.6206 86.014 24.5537 85.936 24.5029C85.8579 24.4521 85.7698 24.4187 85.6777 24.4048C85.5856 24.3909 85.4916 24.3969 85.402 24.4223Z" fill="white"/>
<path d="M75.988 42.0006C75.7764 42.0007 75.5719 41.9241 75.4124 41.7852C75.2528 41.6462 75.1489 41.4542 75.12 41.2446L73.3 28.4006C73.2701 28.1903 73.3175 27.9764 73.4334 27.7984C73.5492 27.6204 73.7256 27.4905 73.93 27.4326L85.342 24.2006C85.4625 24.1662 85.589 24.1581 85.713 24.1768C85.837 24.1955 85.9555 24.2406 86.0605 24.3091C86.1655 24.3775 86.2547 24.4677 86.3219 24.5735C86.389 24.6794 86.4327 24.7984 86.45 24.9226L88.276 37.7666C88.3053 37.9768 88.2577 38.1905 88.142 38.3684C88.0262 38.5463 87.85 38.6763 87.646 38.7346L76.228 41.9666C76.1499 41.9889 76.0691 42.0004 75.988 42.0006ZM85.588 24.6206C85.5487 24.62 85.5096 24.6254 85.4719 24.6366L74.054 27.8686C73.9555 27.897 73.8705 27.9599 73.8147 28.0459C73.7588 28.1319 73.7358 28.2351 73.75 28.3366L75.576 41.1806C75.5847 41.2407 75.606 41.2982 75.6384 41.3495C75.6707 41.4009 75.7135 41.4448 75.764 41.4786C75.815 41.5114 75.8724 41.533 75.9324 41.542C75.9924 41.551 76.0536 41.5471 76.112 41.5306L87.53 38.2986C87.6288 38.2706 87.7143 38.2078 87.7705 38.1218C87.8267 38.0358 87.85 37.9324 87.8359 37.8306L86.002 25.0006C85.9932 24.9403 85.9717 24.8826 85.939 24.8312C85.9062 24.7798 85.8629 24.736 85.812 24.7026C85.7441 24.654 85.6633 24.6269 85.58 24.6246L85.588 24.6206Z" fill="#03243B"/>
<path d="M86.6579 35.7702L76.0759 38.7662L74.6619 28.7362L85.2439 25.7422L86.6579 35.7702Z" fill="#84C0FC"/>
<path d="M86.6579 35.7702L76.0759 38.7662L74.6619 28.7362L85.2439 25.7422L86.6579 35.7702Z" fill="#03243B"/>
<path d="M84.0999 30.4918C84.0092 30.4318 83.9076 30.3904 83.8008 30.3701C83.694 30.3497 83.5842 30.3507 83.4778 30.373C83.3714 30.3953 83.2705 30.4385 83.1809 30.5001C83.0914 30.5617 83.0149 30.6404 82.9559 30.7318L81.1559 33.5158C81.1186 33.5736 81.0703 33.6234 81.0136 33.6625C80.957 33.7015 80.8932 33.729 80.8259 33.7433C80.7587 33.7576 80.6892 33.7585 80.6216 33.7459C80.554 33.7332 80.4895 33.7074 80.4319 33.6698L79.4459 33.0198C79.3551 32.9598 79.2533 32.9184 79.1463 32.8979C79.0394 32.8775 78.9295 32.8785 78.8229 32.9008C78.7163 32.9231 78.6153 32.9663 78.5255 33.028C78.4357 33.0896 78.3591 33.1684 78.2999 33.2598L76.2839 36.3838L76.5219 38.0818L86.0619 35.3818L85.4999 31.4158L84.0999 30.4918Z" fill="#66A8F7"/>
<path d="M80.408 29.6158C80.449 29.9501 80.3713 30.2881 80.1886 30.571C80.0058 30.8539 79.7296 31.0637 79.408 31.1638C79.2612 31.21 79.106 31.223 78.9536 31.2017C78.8012 31.1804 78.6554 31.1255 78.5269 31.0408C78.3984 30.9561 78.2903 30.8439 78.2106 30.7123C78.1309 30.5806 78.0815 30.4329 78.066 30.2798C78.0257 29.9453 78.1037 29.6073 78.2863 29.3243C78.4689 29.0412 78.7447 28.8309 79.066 28.7298C79.213 28.6839 79.3683 28.6713 79.5207 28.6928C79.6731 28.7144 79.8188 28.7696 79.9472 28.8544C80.0757 28.9392 80.1837 29.0515 80.2634 29.1832C80.3431 29.3149 80.3925 29.4626 80.408 29.6158Z" fill="#66A8F7"/>
<path d="M81.3 29.3738L69.884 32.5998C69.7324 32.6427 69.6015 32.7391 69.5155 32.8711C69.4294 33.003 69.3941 33.1617 69.416 33.3178L71.242 46.1638C71.2551 46.2558 71.2877 46.3439 71.3376 46.4223C71.3875 46.5007 71.4536 46.5675 71.5314 46.6182C71.6092 46.669 71.697 46.7025 71.7889 46.7166C71.8807 46.7306 71.9746 46.7249 72.064 46.6998L83.482 43.4678C83.6336 43.4248 83.7645 43.3284 83.8506 43.1965C83.9366 43.0645 83.9719 42.9058 83.95 42.7498L82.124 29.9038C82.1102 29.8121 82.0771 29.7244 82.0267 29.6465C81.9763 29.5686 81.9099 29.5024 81.832 29.4523C81.754 29.4021 81.6662 29.3692 81.5745 29.3556C81.4827 29.3421 81.3892 29.3483 81.3 29.3738Z" fill="white"/>
<path d="M71.8878 46.9558C71.6763 46.956 71.4719 46.8798 71.312 46.7413C71.1522 46.6028 71.0477 46.4112 71.0178 46.2018L69.1918 33.3558C69.1629 33.1457 69.2107 32.9321 69.3264 32.7543C69.4421 32.5766 69.618 32.4464 69.8218 32.3878L81.2399 29.1558C81.3604 29.1212 81.487 29.1131 81.6109 29.1321C81.7349 29.1511 81.8532 29.1967 81.9578 29.2658C82.0626 29.3342 82.1516 29.4242 82.2189 29.5297C82.2861 29.6353 82.3301 29.7539 82.3478 29.8778L84.1738 42.7238C84.2028 42.9339 84.155 43.1475 84.0393 43.3253C83.9236 43.503 83.7477 43.6332 83.5438 43.6918L72.1258 46.9238C72.0484 46.9453 71.9683 46.9561 71.8878 46.9558ZM81.3618 29.5998L69.9458 32.8318C69.8472 32.8602 69.762 32.923 69.7059 33.0089C69.6497 33.0948 69.6263 33.1981 69.6398 33.2998L71.4658 46.1458C71.4744 46.2059 71.4958 46.2635 71.5285 46.3145C71.5613 46.3656 71.6048 46.409 71.6558 46.4418C71.7067 46.4751 71.764 46.4971 71.824 46.5064C71.884 46.5158 71.9453 46.5121 72.0038 46.4958L83.4198 43.2638C83.5185 43.2354 83.6037 43.1726 83.6598 43.0867C83.716 43.0008 83.7394 42.8975 83.7258 42.7958L81.8998 29.9418C81.891 29.8817 81.8695 29.8243 81.8367 29.7732C81.804 29.7221 81.7607 29.6785 81.7098 29.6454C81.6589 29.6123 81.6016 29.5904 81.5416 29.5812C81.4816 29.5719 81.4203 29.5756 81.3618 29.5918V29.5998Z" fill="#03243B"/>
<path d="M82.5558 40.7243L71.9738 43.7183L70.5598 33.6903L81.1418 30.6943L82.5558 40.7243Z" fill="#84C0FC"/>
<path d="M82.5558 40.7243L71.9738 43.7183L70.5598 33.6903L81.1418 30.6943L82.5558 40.7243Z" fill="#03243B"/>
<path d="M79.9979 35.4444C79.907 35.3845 79.805 35.3432 79.698 35.323C79.591 35.3027 79.481 35.3039 79.3745 35.3264C79.2679 35.3489 79.1668 35.3923 79.0771 35.4541C78.9875 35.5159 78.9109 35.5949 78.8519 35.6864L77.0519 38.4704C77.0145 38.5283 76.9659 38.5783 76.909 38.6173C76.8522 38.6563 76.7881 38.6837 76.7206 38.6978C76.6531 38.712 76.5835 38.7126 76.5157 38.6996C76.448 38.6867 76.3835 38.6605 76.3259 38.6224L75.3399 37.9724C75.249 37.9125 75.147 37.8712 75.04 37.851C74.933 37.8307 74.823 37.8319 74.7164 37.8544C74.6099 37.8769 74.5088 37.9203 74.4191 37.9821C74.3295 38.0439 74.2529 38.1229 74.1939 38.2144L72.1799 41.3384L72.4179 43.0364L81.9599 40.3364L81.3999 36.3684L79.9979 35.4444Z" fill="#66A8F7"/>
<path d="M76.2999 34.5698C76.3397 34.904 76.2616 35.2415 76.079 35.5241C75.8964 35.8067 75.6209 36.0167 75.2999 36.1178C75.1529 36.1637 74.9975 36.1763 74.845 36.1547C74.6924 36.1332 74.5466 36.078 74.418 35.9933C74.2894 35.9085 74.1813 35.7962 74.1013 35.6645C74.0214 35.5328 73.9718 35.3851 73.9559 35.2318C73.9161 34.8977 73.9943 34.5602 74.1769 34.2776C74.3595 33.9949 74.635 33.7849 74.9559 33.6838C75.103 33.638 75.2584 33.6254 75.4109 33.6469C75.5634 33.6685 75.7092 33.7236 75.8378 33.8084C75.9664 33.8932 76.0746 34.0055 76.1545 34.1372C76.2344 34.2688 76.2841 34.4166 76.2999 34.5698Z" fill="#66A8F7"/>
<path d="M92.138 75.4005L95.972 74.3085C95.38 71.6307 94.9538 68.9188 94.696 66.1885C92.6524 67.4726 90.3296 68.2457 87.924 68.4425C87.812 68.4425 88.176 68.9485 88.16 68.9405C89.44 71.1185 90.812 73.2485 92.138 75.4005Z" fill="#E6E6E6"/>
<path d="M92.1381 75.54C92.1139 75.54 92.09 75.534 92.0687 75.5225C92.0474 75.5109 92.0293 75.4943 92.0161 75.474C91.5881 74.776 91.1461 74.074 90.7181 73.386C89.8261 71.96 88.9041 70.484 88.0381 69.01V68.996L88.0101 68.956C87.7801 68.608 87.7341 68.492 87.7841 68.388C87.7968 68.3624 87.816 68.3405 87.8399 68.3247C87.8638 68.3089 87.8915 68.2997 87.9201 68.298C90.3024 68.1013 92.6028 67.3359 94.6281 66.066C94.6491 66.0541 94.6729 66.0479 94.6971 66.0479C94.7213 66.0479 94.745 66.0541 94.7661 66.066C94.7876 66.077 94.806 66.0932 94.8196 66.1131C94.8333 66.133 94.8417 66.156 94.8441 66.18C95.1007 68.9043 95.5255 71.6102 96.1161 74.282C96.1235 74.3172 96.1174 74.3539 96.0988 74.3848C96.0802 74.4156 96.0507 74.4382 96.0161 74.448L92.1821 75.542C92.1674 75.544 92.1525 75.5433 92.1381 75.54ZM88.2841 68.866C89.1461 70.338 90.0681 71.81 90.9581 73.236C91.3581 73.89 91.7901 74.564 92.2021 75.236L95.8021 74.208C95.2401 71.6411 94.8301 69.0433 94.5741 66.428C92.6056 67.6217 90.3921 68.3534 88.1001 68.568C88.1301 68.62 88.1761 68.694 88.2461 68.8C88.2601 68.822 88.2741 68.844 88.2861 68.866H88.2841Z" fill="#03243B"/>
<path d="M80.6019 65.0445C80.4275 64.7447 80.2738 64.4333 80.1419 64.1125C78.6739 60.5125 80.3659 55.5725 83.5419 53.3925C83.8041 53.2124 84.0773 53.0487 84.3599 52.9025C86.9019 51.5865 89.9939 51.2065 92.6659 52.2445C98.1419 54.3725 99.1119 62.1545 94.9979 66.0025C93.6599 67.2525 91.7979 67.8585 90.0479 68.2285C88.0859 68.6445 85.8039 68.8285 83.8959 68.0725C82.5359 67.5325 81.3559 66.3485 80.6019 65.0445Z" fill="#FDE692"/>
<path d="M86.9279 68.73C85.8784 68.7483 84.8348 68.5685 83.8519 68.2C82.5459 67.684 81.3159 66.558 80.4779 65.112C80.3002 64.8061 80.1445 64.488 80.0119 64.16C79.2959 62.404 79.2799 60.276 79.9659 58.16C80.6319 56.116 81.9099 54.33 83.4699 53.262C83.7375 53.0793 84.016 52.9129 84.3039 52.764C87.0239 51.364 90.1719 51.108 92.7259 52.1C93.9992 52.5902 95.1107 53.4255 95.9359 54.512C96.7311 55.5678 97.2718 56.793 97.5159 58.092C98.0939 61.092 97.1699 64.158 95.1019 66.092C93.6139 67.492 91.5259 68.05 90.0859 68.354C89.049 68.5878 87.9907 68.7138 86.9279 68.73ZM80.7279 64.972C81.5279 66.372 82.7119 67.448 83.9599 67.94C85.5279 68.56 87.5719 68.61 90.0299 68.09C92.2679 67.618 93.8179 66.92 94.9119 65.89C96.9119 64.022 97.8019 61.056 97.2399 58.148C96.7119 55.408 95.0299 53.302 92.6279 52.368C90.1479 51.406 87.0859 51.648 84.4379 53.02C84.1617 53.1635 83.8945 53.3238 83.6379 53.5C82.1279 54.534 80.8919 56.266 80.2379 58.252C79.5719 60.296 79.5859 62.356 80.2759 64.052C80.4044 64.3668 80.5548 64.6722 80.7259 64.966L80.7279 64.972Z" fill="#03243B"/>
<path d="M86.928 68.8398C85.8645 68.8594 84.8068 68.6789 83.81 68.3078C82.482 67.7818 81.232 66.6398 80.382 65.1718C80.1991 64.8593 80.0381 64.5345 79.9 64.1998C79.174 62.4198 79.158 60.2638 79.852 58.1318C80.526 56.0638 81.818 54.2578 83.398 53.1758C83.6695 52.9901 83.952 52.8211 84.244 52.6698C86.992 51.2478 90.176 50.9978 92.758 52.0018C94.0504 52.4992 95.1786 53.3469 96.016 54.4498C96.8231 55.5182 97.3709 56.7595 97.616 58.0758C98.204 61.1158 97.266 64.2198 95.17 66.1798C93.662 67.5918 91.554 68.1638 90.1 68.4698C89.0583 68.7021 87.9953 68.8261 86.928 68.8398ZM89.396 51.6218C87.6398 51.6331 85.9115 52.0623 84.354 52.8738C84.0704 53.0212 83.7959 53.1855 83.532 53.3658C81.992 54.4198 80.732 56.1858 80.072 58.2058C79.394 60.2898 79.41 62.3898 80.114 64.1218C80.2463 64.4444 80.3999 64.7577 80.574 65.0598C81.4 66.4858 82.61 67.5938 83.892 68.0998C84.8626 68.4613 85.8925 68.637 86.928 68.6178C87.9823 68.6061 89.0326 68.4854 90.062 68.2578C91.49 67.9558 93.558 67.3958 95.026 66.0238C97.066 64.1158 97.978 61.0878 97.406 58.1238C97.1658 56.8418 96.6318 55.6328 95.846 54.5918C95.0342 53.5213 93.9399 52.6984 92.686 52.2158C91.6356 51.8157 90.52 51.6143 89.396 51.6218ZM86.928 68.5558C85.9008 68.5758 84.879 68.4021 83.916 68.0438C82.644 67.5418 81.446 66.4438 80.628 65.0278C80.4547 64.7291 80.3016 64.4191 80.17 64.0998C79.472 62.3798 79.456 60.2998 80.13 58.2258C80.786 56.2158 82.038 54.4638 83.566 53.4158C83.828 53.2369 84.1005 53.074 84.382 52.9278C87.06 51.5418 90.154 51.2978 92.664 52.2718C95.104 53.2198 96.81 55.3578 97.346 58.1358C97.914 61.0798 97.01 64.0858 94.984 65.9798C93.876 67.0158 92.308 67.7218 90.05 68.1998C89.0244 68.4259 87.9782 68.5452 86.928 68.5558ZM80.82 64.9178C81.62 66.2878 82.772 67.3518 83.996 67.8358C85.546 68.4478 87.566 68.4958 89.996 67.9798C92.212 67.5118 93.746 66.8238 94.824 65.8158C96.794 63.9738 97.674 61.0478 97.12 58.1778C96.598 55.4758 94.942 53.3998 92.576 52.4798C90.126 51.5278 87.098 51.7698 84.476 53.1258C84.2002 53.2678 83.9331 53.4261 83.676 53.5998C82.188 54.6198 80.966 56.3318 80.326 58.2938C79.668 60.3138 79.682 62.3458 80.362 64.0158C80.4887 64.3262 80.6363 64.6275 80.804 64.9178H80.82Z" fill="#03243B"/>
<path d="M90.536 68.2619C90.5014 68.2614 90.4681 68.2487 90.442 68.2259C89 66.9379 87.026 65.1739 86.094 63.2419C85.694 62.4419 85.312 61.2199 85.658 60.0259C86.004 58.8319 87.058 57.9919 88.17 57.9779C88.4413 57.9765 88.7101 58.0302 88.96 58.1359C89.178 57.8684 89.4857 57.6893 89.826 57.6319C90.1235 57.5995 90.4243 57.6475 90.697 57.771C90.9696 57.8945 91.2041 58.0889 91.376 58.3339C91.6824 58.7926 91.887 59.3115 91.976 59.8559C92.5 62.2119 92.634 64.8999 92.75 67.2739V67.4639C92.7531 67.4836 92.7521 67.5037 92.7469 67.523C92.7417 67.5423 92.7326 67.5602 92.72 67.5757C92.7074 67.5912 92.6918 67.6038 92.674 67.6128C92.6562 67.6219 92.6367 67.627 92.6168 67.628C92.5969 67.629 92.577 67.6258 92.5584 67.6186C92.5398 67.6114 92.5229 67.6003 92.5089 67.5862C92.4949 67.572 92.484 67.555 92.4769 67.5364C92.4699 67.5177 92.4668 67.4978 92.468 67.4779V67.2879C92.352 64.9259 92.22 62.2499 91.7 59.9179C91.6202 59.4129 91.4319 58.9312 91.148 58.5059C91.0072 58.3016 90.8147 58.1384 90.5902 58.033C90.3656 57.9276 90.1171 57.8837 89.87 57.9059C89.6219 57.9518 89.3953 58.0767 89.224 58.2619C89.4772 58.41 89.6982 58.6072 89.874 58.8419C90.0323 59.0394 90.141 59.2719 90.1911 59.5199C90.2412 59.768 90.2313 60.0245 90.162 60.2679C90.042 60.6499 89.698 61.0519 89.228 61.0319C89.1182 61.0284 89.0104 61.0011 88.912 60.9521C88.8136 60.9031 88.727 60.8335 88.658 60.7479C88.372 60.4019 88.334 59.8539 88.388 59.4899C88.4454 59.093 88.5814 58.7116 88.788 58.3679C88.5925 58.2938 88.3851 58.2558 88.176 58.2559C87.196 58.2679 86.232 59.0559 85.932 60.0979C85.612 61.2059 85.984 62.3479 86.352 63.1119C87.26 64.9939 89.21 66.7359 90.634 68.0099C90.6604 68.0365 90.6752 68.0725 90.6752 68.1099C90.6752 68.1474 90.6604 68.1833 90.634 68.2099C90.6219 68.2246 90.607 68.2368 90.5902 68.2457C90.5734 68.2547 90.555 68.2602 90.536 68.2619ZM89.044 58.4939C88.8436 58.8098 88.7165 59.1665 88.672 59.5379C88.6043 59.8955 88.6758 60.2654 88.872 60.5719C88.9147 60.6275 88.9695 60.6728 89.0322 60.7043C89.0949 60.7358 89.1639 60.7528 89.234 60.7539C89.54 60.7659 89.796 60.4799 89.888 60.1899C89.9445 59.9892 89.9516 59.7778 89.9087 59.5737C89.8659 59.3697 89.7744 59.179 89.642 59.0179C89.4818 58.803 89.2781 58.6245 89.044 58.4939Z" fill="#03243B"/>
</svg>
