<svg xmlns="http://www.w3.org/2000/svg" xmlns:xlink="http://www.w3.org/1999/xlink" width="48" height="32"><defs/><defs><path id="a" d="M0 0h48v32H0z"/></defs><g fill="none" fill-rule="evenodd"><mask id="b" fill="#fff"><use xlink:href="#a"/></mask><path fill="#4273B9" d="M48 27.509a4.46 4.46 0 01-1.33 3.176A4.549 4.549 0 0143.452 32H4.546C2.03 32 0 29.985 0 27.509h17.619c0 1.412 1.175 2.246 2.606 2.246h7.259c1.235 0 2.896-.445 2.896-2.246H48zm-11.573-14.64c0 .723-.598 1.314-1.33 1.314-.732 0-1.33-.591-1.33-1.314V10.69l-9.06 8.257-5.376-5.245-5.5 5.278c-.267.241-.599.372-.932.372-.344 0-.687-.142-.954-.405a1.304 1.304 0 01.033-1.862l7.363-7.064 5.422 5.29 6.93-6.297h-2.484c-.73 0-1.33-.592-1.33-1.315 0-.722.6-1.314 1.33-1.314h5.888c.089 0 .177.011.267.022.165.033.322.099.454.197.033.011.066.044.1.066.055.044.11.087.155.143a.865.865 0 01.188.262c.033.056.056.099.078.153.055.143.088.307.088.471v5.17zM39.776 0H8.22C4.893 0 2.189 2.672 2.189 5.969v19.758h43.619V5.969C45.808 2.672 43.114 0 39.776 0z" mask="url(#b)"/></g></svg>
