<svg xmlns="http://www.w3.org/2000/svg" xmlns:xlink="http://www.w3.org/1999/xlink" width="185" height="185"><defs><path id="c" d="M37.238 56.587H.557L15.378.212h7.04z"/><path id="a" d="M25.121 11.82H5.481L.405.085h19.64z"/></defs><defs><use xlink:href="#a"/><use xlink:href="#c"/></defs><g fill="none" fill-rule="evenodd"><path fill="#4686C6" d="M92.5 185c51.087 0 92.5-41.414 92.5-92.5S143.587 0 92.5 0C41.414 0 0 41.414 0 92.5S41.414 185 92.5 185"/><path fill="#C1DBDB" d="M43.632 94.739h14.277"/><path stroke="#DBDADA" stroke-linecap="round" stroke-width="4.14" d="M43.632 94.739h14.277"/><g transform="translate(41 96)"><mask id="b" fill="#fff"><use xlink:href="#a"/></mask><use mask="url(#b)" xlink:href="#a"/></g><path fill="#E5E5E4" d="M56.924 95.6h-7.457L49 90h8.391z"/><path fill="#E5E5E4" d="M56.761 89h-6.896a.864.864 0 00-.865.864v1.302h8.626v-1.302a.864.864 0 00-.865-.864"/><path fill="#CECFCE" d="M49 91.228h8.626V91H49z"/><path fill="#F2F2F2" d="M50.629 93.498h4.133"/><path stroke="#004B74" stroke-linecap="round" stroke-width="1.242" d="M50.629 93.498h4.133"/><path stroke="#FEFEFE" stroke-linecap="round" stroke-width=".828" d="M50 90h.982"/><path fill="#D3D2D3" d="M42 85h1.538v-2H42z"/><path fill="#004B74" d="M44.081 85h-2.028c-.581 0-1.053.472-1.053 1.053v2.028c0 .581.472 1.053 1.053 1.053h2.028c.581 0 1.053-.472 1.053-1.053v-2.028c0-.581-.472-1.053-1.053-1.053"/><path fill="#FBB21F" d="M47.88 90.939a4.94 4.94 0 11-9.879.001 4.94 4.94 0 019.879-.001"/><g stroke="#FEFEFE" stroke-linecap="round" stroke-width=".828"><path d="M42.09 88.116c.33-.148.684-.25 1.056-.298M39.863 91.557c0-1.15.514-2.18 1.325-2.87"/></g><path fill="#004B74" d="M45.257 83H41v.661h3.881a.82.82 0 01.75.488l.775.001A1.15 1.15 0 0045.257 83"/><path stroke="#004B74" stroke-width="2.173" d="M37 97h17.7M61.16 97H55"/><g transform="translate(92 57)"><mask id="d" fill="#fff"><use xlink:href="#c"/></mask><use mask="url(#d)" xlink:href="#c"/></g><path stroke="#004B75" stroke-width="4" d="M141.43 131.235V56.214c0-8.403-6.812-15.214-15.215-15.214C117.812 41 111 47.811 111 56.214M106 57h8.626"/><path fill="#FFF" d="M158.631 61.315a3.315 3.315 0 11-6.63.002 3.315 3.315 0 016.63-.002M97.233 21.117a2.116 2.116 0 11-4.233 0 2.116 2.116 0 014.233 0M29.365 75.683a2.683 2.683 0 11-5.365 0 2.683 2.683 0 015.365 0"/><path fill="#FEFEFE" d="M108.077 87.038a5.039 5.039 0 11-10.078 0 5.039 5.039 0 0110.078 0"/><path fill="#68CBE4" d="M76.758 111.879a7.879 7.879 0 11-15.758 0 7.879 7.879 0 0115.758 0"/><path fill="#68CBE4" d="M95.51 103.755c0 6.492-5.263 11.755-11.755 11.755-6.492 0-11.755-5.263-11.755-11.755C72 97.263 77.263 92 83.755 92c6.492 0 11.755 5.263 11.755 11.755"/><path fill="#68CBE4" d="M119.241 102.12c0 8.903-7.218 16.12-16.121 16.12-8.902 0-16.12-7.217-16.12-16.12C87 93.217 94.218 86 103.12 86c8.903 0 16.121 7.217 16.121 16.12"/><path fill="#ECECEC" d="M132.791 92.396a3.396 3.396 0 11-6.792 0 3.396 3.396 0 016.792 0"/><path fill="#FFF" d="M93.564 74.782a1.783 1.783 0 11-3.566-.002 1.783 1.783 0 013.566.002M72.802 70.4a1.4 1.4 0 11-2.8.001 1.4 1.4 0 012.8-.001M66.273 97.637a1.637 1.637 0 11-3.274 0 1.637 1.637 0 013.274 0"/><path fill="#68CBE4" d="M128.312 111.656c0 5.885-4.771 10.656-10.655 10.656-5.885 0-10.657-4.771-10.657-10.656 0-5.885 4.772-10.656 10.657-10.656 5.884 0 10.655 4.771 10.655 10.656"/><path fill="#68CBE4" d="M136.628 111.814a8.813 8.813 0 01-8.814 8.813 8.814 8.814 0 110-17.627 8.814 8.814 0 018.814 8.814"/><path fill="#DCE3E9" d="M130.963 146.089H67.145a9.769 9.769 0 01-9.612-8.02l-4.516-24.825a1.056 1.056 0 011.04-1.244h93.646c.658 0 1.156.597 1.038 1.244l-5.964 23.642a12.185 12.185 0 01-11.814 9.203"/><path fill="#DCE3E9" d="M118.058 146.089H46.355a9.767 9.767 0 01-9.611-8.02L32 112h99.077l-4.982 27.383a8.169 8.169 0 01-8.037 6.706"/><path fill="#F2F2F2" d="M150.638 113.555H29.989A1.989 1.989 0 0128 111.567v-.578A1.99 1.99 0 0129.989 109h120.649c1.098 0 1.988.891 1.988 1.989v.578c0 1.098-.89 1.988-1.988 1.988"/><path fill="#B4C5D0" d="M151.272 113.555H132c1.082-1.28 1.082-3.274 0-4.555h19.272c1.132 0 2.05 1.02 2.05 2.278 0 1.257-.918 2.277-2.05 2.277"/><path fill="#FFF" d="M79.086 116.56l-11.308 29.529H46.52a9.822 9.822 0 01-9.669-8.087L33 116.56h46.086z"/><path fill="#FBB21F" d="M114.633 134.064H92.081A1.08 1.08 0 0191 132.983v-23.102A2.88 2.88 0 0193.881 107h21.849v25.967c0 .607-.492 1.097-1.097 1.097"/><path fill="#FBB21F" d="M118.231 109.249h.562a2.248 2.248 0 00-2.249-2.249H113v5.103h2.377a2.854 2.854 0 012.854-2.854"/><path stroke="#004B74" stroke-linecap="round" stroke-width="1.556" d="M115 132.902v-21.659a3.242 3.242 0 013.242-3.243"/><path stroke="#FEFEFE" stroke-width="1.038" d="M91 127h23M91 129h23"/></g></svg>
