<?xml version="1.0" encoding="UTF-8"?>
<svg width="185px" height="185px" viewBox="0 0 185 185" version="1.1" xmlns="http://www.w3.org/2000/svg" xmlns:xlink="http://www.w3.org/1999/xlink">
    <title>Group 7 Copy</title>
    <defs>
        <polygon id="path-1" points="25.121 11.82 5.481 11.82 0.405 0.085 20.045 0.085"></polygon>
        <polygon id="path-3" points="37.238 56.587 0.557 56.587 15.378 0.212 22.418 0.212"></polygon>
    </defs>
    <g id="Page-1" stroke="none" stroke-width="1" fill="none" fill-rule="evenodd">
        <g id="Blue-Sky-Product-Page" transform="translate(-372.000000, -4029.000000)">
            <g id="Group-7-Copy" transform="translate(372.000000, 4029.000000)">
                <path d="M92.5,185 C143.587,185 185,143.586 185,92.5 C185,41.414 143.587,0 92.5,0 C41.414,0 0,41.414 0,92.5 C0,143.586 41.414,185 92.5,185" id="Fill-1" fill="#4686C6"></path>
                <g id="Group-9" transform="translate(43.000000, 94.000000)">
                    <line x1="0.6325" y1="0.7394" x2="14.9085" y2="0.7394" id="Fill-6" fill="#C1DBDB"></line>
                    <line x1="0.6325" y1="0.7394" x2="14.9085" y2="0.7394" id="Stroke-8" stroke="#DBDADA" stroke-width="4.14" stroke-linecap="round"></line>
                </g>
                <g id="Group-12" transform="translate(41.000000, 96.000000)">
                    <mask id="mask-2" fill="white">
                        <use xlink:href="#path-1"></use>
                    </mask>
                    <g id="Clip-11"></g>
                    <polygon id="Fill-10" mask="url(#mask-2)" points="25.121 11.82 5.481 11.82 0.405 0.085 20.045 0.085"></polygon>
                </g>
                <polygon id="Fill-13" fill="#E5E5E4" points="56.924 95.6 49.467 95.6 49 90 57.391 90"></polygon>
                <path d="M56.761,89 L49.865,89 C49.387,89 49,89.387 49,89.864 L49,91.166 L57.626,91.166 L57.626,89.864 C57.626,89.387 57.239,89 56.761,89" id="Fill-15" fill="#E5E5E4"></path>
                <polygon id="Fill-17" fill="#CECFCE" points="49 91.228 57.626 91.228 57.626 91 49 91"></polygon>
                <g id="Group-21" transform="translate(50.000000, 93.000000)">
                    <line x1="0.6286" y1="0.4982" x2="4.7616" y2="0.4982" id="Fill-19" fill="#F2F2F2"></line>
                    <line x1="0.6286" y1="0.4982" x2="4.7616" y2="0.4982" id="Stroke-20" stroke="#004B74" stroke-width="1.242" stroke-linecap="round"></line>
                </g>
                <line x1="50" y1="90" x2="50.982" y2="90" id="Stroke-22" stroke="#FEFEFE" stroke-width="0.828" stroke-linecap="round"></line>
                <polygon id="Fill-23" fill="#D3D2D3" points="42 85 43.538 85 43.538 83 42 83"></polygon>
                <path d="M44.081,85 L42.053,85 C41.472,85 41,85.472 41,86.053 L41,88.081 C41,88.662 41.472,89.134 42.053,89.134 L44.081,89.134 C44.662,89.134 45.134,88.662 45.134,88.081 L45.134,86.053 C45.134,85.472 44.662,85 44.081,85" id="Fill-24" fill="#004B74"></path>
                <path d="M47.88,90.939 C47.88,93.668 45.668,95.879 42.941,95.879 C40.212,95.879 38,93.668 38,90.939 C38,88.211 40.212,86 42.941,86 C45.668,86 47.88,88.211 47.88,90.939" id="Fill-25" fill="#FBB21F"></path>
                <g id="Group-28" transform="translate(39.000000, 87.000000)" stroke="#FEFEFE" stroke-linecap="round" stroke-width="0.828">
                    <path d="M3.0895,1.1163 C3.4195,0.9683 3.7745,0.8663 4.1465,0.8183" id="Stroke-26"></path>
                    <path d="M0.863,4.5567 C0.863,3.4077 1.377,2.3777 2.188,1.6867" id="Stroke-27"></path>
                </g>
                <path d="M45.257,83 L41,83 L41,83.661 L44.881,83.661 C45.216,83.661 45.504,83.862 45.631,84.149 C45.88,84.149 46.088,84.15 46.406,84.15 C46.406,83.515 45.892,83 45.257,83" id="Fill-29" fill="#004B74"></path>
                <line x1="37" y1="97" x2="54.7" y2="97" id="Stroke-30" stroke="#004B74" stroke-width="2.173"></line>
                <line x1="61.16" y1="97" x2="55" y2="97" id="Stroke-31" stroke="#004B74" stroke-width="2.173"></line>
                <g id="Group-34" transform="translate(92.000000, 57.000000)">
                    <mask id="mask-4" fill="white">
                        <use xlink:href="#path-3"></use>
                    </mask>
                    <g id="Clip-33"></g>
                    <polygon id="Fill-32" mask="url(#mask-4)" points="37.238 56.587 0.557 56.587 15.378 0.212 22.418 0.212"></polygon>
                </g>
                <path d="M141.43,131.235 L141.43,56.214 C141.43,47.811 134.618,41 126.215,41 C117.812,41 111,47.811 111,56.214" id="Stroke-35" stroke="#004B75" stroke-width="4"></path>
                <line x1="106" y1="57" x2="114.626" y2="57" id="Stroke-36" stroke="#004B75" stroke-width="4"></line>
                <path d="M158.631,61.315 C158.631,63.147 157.147,64.631 155.316,64.631 C153.485,64.631 152,63.147 152,61.315 C152,59.484 153.485,58 155.316,58 C157.147,58 158.631,59.484 158.631,61.315" id="Fill-37" fill="#FFFFFF"></path>
                <path d="M97.233,21.117 C97.233,22.286 96.285,23.233 95.116,23.233 C93.947,23.233 93,22.286 93,21.117 C93,19.948 93.947,19 95.116,19 C96.285,19 97.233,19.948 97.233,21.117" id="Fill-38" fill="#FFFFFF"></path>
                <path d="M29.365,75.683 C29.365,77.165 28.164,78.366 26.682,78.366 C25.201,78.366 24,77.165 24,75.683 C24,74.202 25.201,73 26.682,73 C28.164,73 29.365,74.202 29.365,75.683" id="Fill-39" fill="#FFFFFF"></path>
                <path d="M108.077,87.038 C108.077,89.821 105.821,92.077 103.038,92.077 C100.256,92.077 98,89.821 98,87.038 C98,84.256 100.256,82 103.038,82 C105.821,82 108.077,84.256 108.077,87.038" id="Fill-40" fill="#FEFEFE"></path>
                <path d="M76.758,111.879 C76.758,116.231 73.231,119.758 68.879,119.758 C64.528,119.758 61,116.231 61,111.879 C61,107.527 64.528,104 68.879,104 C73.231,104 76.758,107.527 76.758,111.879" id="Fill-42" fill="#68CBE4"></path>
                <path d="M95.51,103.755 C95.51,110.247 90.247,115.51 83.755,115.51 C77.263,115.51 72,110.247 72,103.755 C72,97.263 77.263,92 83.755,92 C90.247,92 95.51,97.263 95.51,103.755" id="Fill-43" fill="#68CBE4"></path>
                <path d="M119.241,102.12 C119.241,111.023 112.023,118.24 103.12,118.24 C94.218,118.24 87,111.023 87,102.12 C87,93.217 94.218,86 103.12,86 C112.023,86 119.241,93.217 119.241,102.12" id="Fill-44" fill="#68CBE4"></path>
                <path d="M132.791,92.396 C132.791,94.272 131.27,95.792 129.395,95.792 C127.52,95.792 126,94.272 126,92.396 C126,90.521 127.52,89 129.395,89 C131.27,89 132.791,90.521 132.791,92.396" id="Fill-45" fill="#ECECEC"></path>
                <path d="M93.564,74.782 C93.564,75.765 92.766,76.564 91.782,76.564 C90.797,76.564 90,75.765 90,74.782 C90,73.798 90.797,73 91.782,73 C92.766,73 93.564,73.798 93.564,74.782" id="Fill-46" fill="#FFFFFF"></path>
                <path d="M72.802,70.4 C72.802,71.174 72.175,71.801 71.402,71.801 C70.627,71.801 70,71.174 70,70.4 C70,69.627 70.627,69 71.402,69 C72.175,69 72.802,69.627 72.802,70.4" id="Fill-47" fill="#FFFFFF"></path>
                <path d="M66.273,97.637 C66.273,98.54 65.541,99.274 64.636,99.274 C63.732,99.274 63,98.54 63,97.637 C63,96.733 63.732,96 64.636,96 C65.541,96 66.273,96.733 66.273,97.637" id="Fill-48" fill="#FFFFFF"></path>
                <path d="M128.312,111.656 C128.312,117.541 123.541,122.312 117.657,122.312 C111.772,122.312 107,117.541 107,111.656 C107,105.771 111.772,101 117.657,101 C123.541,101 128.312,105.771 128.312,111.656" id="Fill-49" fill="#68CBE4"></path>
                <path d="M136.628,111.814 C136.628,116.682 132.682,120.627 127.814,120.627 C122.946,120.627 119,116.682 119,111.814 C119,106.946 122.946,103 127.814,103 C132.682,103 136.628,106.946 136.628,111.814" id="Fill-50" fill="#68CBE4"></path>
                <path d="M130.963134,146.089 L67.1451342,146.089 C62.4241342,146.089 58.3781342,142.714 57.5331342,138.069 L53.0171342,113.244 C52.9001342,112.597 53.3971342,112 54.0561342,112 L147.703134,112 C148.361134,112 148.859134,112.597 148.741134,113.244 L142.777134,136.886 C141.411134,142.297 136.544134,146.089 130.963134,146.089" id="Fill-54" fill="#DCE3E9"></path>
                <path d="M118.058,146.089 L46.355,146.089 C41.634,146.089 37.588,142.714 36.744,138.069 L32,112 L131.077,112 L126.095,139.383 C125.388,143.267 122.005,146.089 118.058,146.089" id="Fill-55" fill="#DCE3E9"></path>
                <path d="M150.638,113.555 L29.989,113.555 C28.891,113.555 28,112.665 28,111.567 L28,110.989 C28,109.891 28.891,109 29.989,109 L150.638,109 C151.736,109 152.626,109.891 152.626,110.989 L152.626,111.567 C152.626,112.665 151.736,113.555 150.638,113.555" id="Fill-56" fill="#F2F2F2"></path>
                <path d="M151.272,113.555 L132,113.555 C133.082,112.275 133.082,110.281 132,109 L151.272,109 C152.404,109 153.322,110.02 153.322,111.278 C153.322,112.535 152.404,113.555 151.272,113.555" id="Fill-57" fill="#B4C5D0"></path>
                <path d="M79.086,116.56 L67.778,146.089 L46.52,146.089 C41.764,146.089 37.691,142.683 36.851,138.002 L33,116.56 L79.086,116.56 Z" id="Fill-58" fill="#FFFFFF"></path>
                <path d="M114.633,134.064 L92.081,134.064 C91.484,134.064 91,133.581 91,132.983 L91,109.881 C91,108.29 92.289,107 93.881,107 L115.73,107 L115.73,132.967 C115.73,133.574 115.238,134.064 114.633,134.064" id="Fill-59" fill="#FBB21F"></path>
                <path d="M118.231,109.249 L118.793,109.249 C118.793,108.007 117.787,107 116.544,107 L115.377,107 L113,107 L113,112.103 L115.377,112.103 C115.377,110.526 116.655,109.249 118.231,109.249" id="Fill-60" fill="#FBB21F"></path>
                <path d="M115,132.902 L115,111.243 C115,109.452 116.451,108 118.242,108" id="Stroke-61" stroke="#004B74" stroke-width="1.556" stroke-linecap="round"></path>
                <line x1="91" y1="127" x2="114" y2="127" id="Stroke-62" stroke="#FEFEFE" stroke-width="1.038"></line>
                <line x1="91" y1="129" x2="114" y2="129" id="Stroke-63" stroke="#FEFEFE" stroke-width="1.038"></line>
            </g>
        </g>
    </g>
</svg>