<?xml version="1.0" encoding="UTF-8"?>
<svg width="24px" height="24px" viewBox="0 0 24 24" version="1.1" xmlns="http://www.w3.org/2000/svg" xmlns:xlink="http://www.w3.org/1999/xlink">
    <!-- Generator: Sketch 55.2 (78181) - https://sketchapp.com -->
    <title>Icon / 24px / credit-card-regular</title>
    <desc>Created with Sketch.</desc>
    <g id="Icon-/-24px-/-credit-card-regular" stroke="none" stroke-width="1" fill-rule="evenodd">
        <path d="M20.3298612,4.22222218 L3.67013885,4.22222218 C2.74652773,4.22222218 1.99999995,4.96874996 1.99999995,5.88888886 L1.99999995,18.1111111 C1.99999995,19.03125 2.74652773,19.7777778 3.67013885,19.7777778 L20.3298612,19.7777778 C21.2534723,19.7777778 21.9999999,19.03125 21.9999999,18.1111111 L21.9999999,5.88888886 C21.9999999,4.96874996 21.2534723,4.22222218 20.3298612,4.22222218 Z M3.87847218,5.88888886 L20.1215278,5.88888886 C20.2361112,5.88888886 20.3298612,5.98263886 20.3298612,6.09722219 L20.3298612,7.55555553 L3.67013885,7.55555553 L3.67013885,6.09722219 C3.67013885,5.98263886 3.76388885,5.88888886 3.87847218,5.88888886 Z M20.1215278,18.1111111 L3.87847218,18.1111111 C3.76388885,18.1111111 3.67013885,18.0173611 3.67013885,17.9027778 L3.67013885,12 L20.3298612,12 L20.3298612,17.9027778 C20.3298612,18.0173611 20.2361112,18.1111111 20.1215278,18.1111111 Z M8.66666665,14.6388889 L8.66666665,16.0277778 C8.66666665,16.2569445 8.47916665,16.4444445 8.24999998,16.4444445 L5.74999997,16.4444445 C5.5208333,16.4444445 5.3333333,16.2569445 5.3333333,16.0277778 L5.3333333,14.6388889 C5.3333333,14.4097222 5.5208333,14.2222222 5.74999997,14.2222222 L8.24999998,14.2222222 C8.47916665,14.2222222 8.66666665,14.4097222 8.66666665,14.6388889 Z M15.3333334,14.6388889 L15.3333334,16.0277778 C15.3333334,16.2569445 15.1458333,16.4444445 14.9166667,16.4444445 L10.1944444,16.4444445 C9.96527777,16.4444445 9.77777777,16.2569445 9.77777777,16.0277778 L9.77777777,14.6388889 C9.77777777,14.4097222 9.96527777,14.2222222 10.1944444,14.2222222 L14.9166667,14.2222222 C15.1458333,14.2222222 15.3333334,14.4097222 15.3333334,14.6388889 Z" id="credit-card-regular"></path>
    </g>
</svg>