<svg xmlns="http://www.w3.org/2000/svg" xmlns:xlink="http://www.w3.org/1999/xlink" width="98" height="90"><defs/><defs><path id="a" d="M0 .001h89.999v69H0z"/><path id="c" d="M-.001.001h15V15h-15z"/><path id="e" d="M0 90h98V0H0z"/></defs><g fill="none" fill-rule="evenodd"><g transform="translate(0 6)"><mask id="b" fill="#fff"><use xlink:href="#a"/></mask><path fill="#E6E6E6" d="M83.863 69.001H6.136c-3.388 0-6.137-2.728-6.137-6.088V6.089C0 2.727 2.75.001 6.136.001h77.727c3.39 0 6.136 2.726 6.136 6.088v56.824C90 66.273 87.252 69 83.863 69" mask="url(#b)"/></g><g transform="translate(12 75)"><mask id="d" fill="#fff"><use xlink:href="#c"/></mask><path fill="#E6E6E6" d="M14.999.001h-15v15z" mask="url(#d)"/></g><mask id="f" fill="#fff"><use xlink:href="#e"/></mask><path fill="#FFF" d="M13 31h43v-5H13zM13 39h43v-5H13zM13 47h65v-5H13zM13 56h65v-5H13zM13 64h43v-5H13z" mask="url(#f)"/><path fill="#999" d="M13 23h25v-5H13z" mask="url(#f)"/><path fill="#FFC500" d="M85.684 0L59 26.684V39h12.316L98 12.316z" mask="url(#f)"/><path fill="#F35656" d="M86.041 0L81 5.143 92.313 18 98 12.196z" mask="url(#f)"/><path fill="#4687C7" d="M79 6.861L81.863 4 94 16.139 91.139 19z" mask="url(#f)"/></g></svg>
