<svg xmlns="http://www.w3.org/2000/svg" width="201" height="58"><defs/><g fill="none" fill-rule="nonzero"><path fill="#4473B9" d="M95.164 28.255a8.055 8.055 0 015.391-2.083c3.713 0 7.416 2.542 7.445 8.303.029 6.101-4.078 8.505-8.44 8.525a12.85 12.85 0 01-6.445-1.752L93 17h2.111l.053 11.255zm0 2.256l.048 9.695a9.208 9.208 0 004.17.987c3.366 0 6.502-2.038 6.497-6.679 0-4.205-2.65-6.506-5.622-6.491-1.95.1-3.78.996-5.083 2.488h-.01zM111.11 43L111 17.03l1.89-.03.11 25.99zM119.036 36.741c0 2.822 1.7 4.264 3.644 4.254 2.013 0 3.922-1.564 5.298-3.797L127.928 26h2L130 42.71h-1.95l-.063-3.213c-1.367 2.03-3.485 3.493-5.785 3.503-2.546 0-5.138-1.736-5.156-6.091L117 26.086h2l.036 10.655zM147.961 35.252h-12.88c.32 3.63 2.647 5.75 5.977 5.816 1.952.061 3.853-.677 5.317-2.066l1.08 1.66c-1.857 1.562-4.157 2.387-6.513 2.336-5.02-.12-8.099-4.146-7.936-9.046.186-5.08 3.791-8.026 7.834-7.95 3.777.084 7.586 2.845 7.121 9.25zm-2-1.84c.088-2.945-1.86-5.385-5.117-5.5-3.047-.13-5.368 1.855-5.745 5.5h10.862zM167.018 27.633l-1.027 1.693a6.13 6.13 0 00-3.642-1.376c-2.246-.046-3.642 1.21-3.638 2.572 0 1.617 2.05 2.265 4.05 2.828 2.285.668 5.346 1.863 5.236 5.078-.091 3.014-2.855 4.611-5.912 4.571-2.236-.035-4.39-.89-6.085-2.416l1.152-1.658c1.327 1.322 3.077 2.08 4.909 2.125 2.14 0 3.68-1.1 3.671-2.662-.01-1.562-1.66-2.512-3.93-3.2-2.27-.688-5.279-1.607-5.279-4.621 0-2.793 2.61-4.607 5.72-4.566a8.38 8.38 0 014.775 1.632zM173.138 33.893l.037 9.107h-2.062L171 17h2.063l.07 15.932 6.944-6.592h2.903l-7.601 7.093L184 43h-2.819zM191.426 46.849c-1.254 2.78-3.326 4.275-5.958 4.143v-2.034c1.962.046 3.279-1.016 4.157-2.958l1.516-3.376L184 26.066h2.285l5.968 13.97L198.624 26H201l-9.574 20.849z"/><path fill="#67CBE4" d="M64.178 11l-29.526.152c-4.704.023-9.206 2.047-12.517 5.627-3.31 3.58-5.157 8.423-5.135 13.462.023 5.04 1.913 9.864 5.255 13.41 3.342 3.547 7.863 5.526 12.567 5.502l17.831-.092.033 7.03c0 .776.438 1.474 1.108 1.767.67.293 1.439.124 1.946-.43l7.786-8.422h.822c4.704-.024 9.207-2.05 12.517-5.63 3.31-3.581 5.157-8.424 5.135-13.464-.023-5.04-1.913-9.864-5.255-13.41-3.342-3.547-7.863-5.526-12.567-5.502z" style="mix-blend-mode:multiply"/><path fill="#67CBE4" d="M43.407 18.867h-.21a18.67 18.67 0 00.173-2.593C43.223 7.97 37.555 1.066 30.102.11 22.65-.844 15.706 4.446 13.851 12.493a8.846 8.846 0 00-4.166-1.037C4.31 11.484-.025 16.33 0 22.28.026 28.229 4.404 33.029 9.779 33l33.68-.13c2.318.086 4.492-1.238 5.668-3.451 1.175-2.213 1.163-4.96-.031-7.16-1.195-2.201-3.381-3.502-5.698-3.392h.01z" style="mix-blend-mode:multiply"/></g></svg>
