<?xml version="1.0" encoding="UTF-8"?>
<svg width="24px" height="24px" viewBox="0 0 30 30" version="1.1" xmlns="http://www.w3.org/2000/svg" xmlns:xlink="http://www.w3.org/1999/xlink">
    <g id="Page-1" stroke="none" stroke-width="1" fill="none" fill-rule="evenodd">
        <g id="Help-Center" transform="translate(-611.000000, -2236.000000)" fill="#FFFFFF">
            <path d="M635.586565,2265.99665 C621.969662,2265.77587 611,2254.66856 611,2241 L611,2241 C611,2238.23867 613.239655,2236 616,2236 L617.781825,2236 C618.765642,2236 619.562672,2236.82543 619.562672,2237.84306 L619.562672,2241.15795 C619.562672,2242.41532 619.696651,2243.64032 619.948962,2244.8198 C620.115213,2245.60173 619.869748,2246.41402 619.293735,2246.94913 L617.499411,2248.61184 C619.527651,2253.53624 623.464773,2257.47302 628.389152,2259.50096 L630.050867,2257.70547 C630.585983,2257.13029 631.398266,2256.88477 632.180202,2257.05106 C633.359682,2257.30343 634.584682,2257.43744 635.842052,2257.43744 L635.842052,2257.43744 L639.156936,2257.43744 C640.174566,2257.43744 641,2258.23467 641,2259.21872 L641,2259.21872 L641,2261 C641,2263.68909 638.876671,2265.88184 636.216809,2265.99538 L636,2266 Z" id="Combined-Shape"></path>
        </g>
    </g>
</svg>
