<svg xmlns="http://www.w3.org/2000/svg" xmlns:xlink="http://www.w3.org/1999/xlink" width="138" height="138"><defs/><defs><path id="a" d="M.001 0H138v138H.001z"/><path id="c" d="M.898 0h104.623v111H.898z"/></defs><g fill="none" fill-rule="evenodd"><g><mask id="b" fill="#fff"><use xlink:href="#a"/></mask><path fill="#C2EBF5" d="M69 0c38.108 0 69 30.892 69 69 0 38.107-30.892 69-69 69-38.108 0-69-30.893-69-69C0 30.892 30.893 0 69 0" mask="url(#b)"/></g><g transform="translate(32 27)"><mask id="d" fill="#fff"><use xlink:href="#c"/></mask><path fill="#9EDFEF" d="M9.911 10.48L55.608 0l19.299 12.214S99.4 43.708 105.52 49.817C101.461 84.27 72.104 111 36.493 111c-1.75 0-3.484-.064-5.2-.19C18.159 97.904 7.912 81.384.899 74.386c0-30.53 9.013-63.907 9.013-63.907" mask="url(#d)"/></g><path fill="#FFF" d="M117 69c0 26.51-21.492 48-48 48-26.51 0-48-21.49-48-48s21.49-48 48-48c26.508 0 48 21.49 48 48"/><path fill="#DD8F12" d="M78.158 88.765c-2.156 0-4.256-.234-6.278-.676a3.828 3.828 0 00-3.65 1.147L63 95h24v-3.118c0-1.722-1.413-3.117-3.158-3.117h-5.684zM49.234 59.842c0 2.156.235 4.256.677 6.278a3.83 3.83 0 01-1.146 3.65L43 75V51h3.117c1.722 0 3.117 1.415 3.117 3.16v5.682z"/><path fill="#F9B11D" d="M42.801 60H34c0 24.301 19.7 44 44 44v-8.8c-19.44 0-35.199-15.759-35.199-35.2"/><path fill="#D38411" d="M43 59h-8c0-4.417 3.583-8 8-8v8zM79 103v-8h8a8 8 0 01-8 8"/><path fill="#4687C7" d="M90.758 62.467l-5.887-2.489c-1.288-.546-2.121-1.869-2.121-3.25v-1.77c2.114-1.575 3.5-4.052 3.5-6.867v-3.455c0-4.77-3.916-8.636-8.75-8.636-4.832 0-8.75 3.866-8.75 8.636v3.455c0 2.815 1.386 5.292 3.5 6.868v1.768c0 1.382-.835 2.705-2.121 3.251l-5.885 2.489C61.669 63.555 60 66.053 60 68.818V74h35v-5.182c0-2.765-1.668-5.263-4.242-6.351"/></g></svg>
