<svg xmlns="http://www.w3.org/2000/svg" width="24" height="24" viewBox="0 0 37 37"><defs/><path fill="#FFF" fill-rule="evenodd" d="M26.722 16.186V4.625C26.722 2.074 24.88 0 22.612 0h-18.5C1.843 0 0 2.074 0 4.625v11.56c0 2.552 1.844 4.625 4.111 4.625v3.917c0 .578.585.91.996.563l5.319-4.487H22.61c2.268.007 4.111-2.066 4.111-4.617zm6.167-4.625h-4.111v4.625c0 3.822-2.769 6.937-6.167 6.937H12.333v4.624c0 2.55 1.844 4.625 4.111 4.625h8.075l5.319 4.487c.41.347.995.014.995-.564v-3.923h2.056c2.267 0 4.111-2.074 4.111-4.625V16.186c0-2.55-1.844-4.625-4.111-4.625z"/></svg>
