<svg xmlns="http://www.w3.org/2000/svg" xmlns:xlink="http://www.w3.org/1999/xlink" width="1252" height="686"><defs/><defs><path id="a" d="M0 0h1252v686H0z"/><path id="c" d="M0 .343h372.391v415.536H0z"/></defs><g fill="none" fill-rule="evenodd"><mask id="b" fill="#fff"><use xlink:href="#a"/></mask><use fill="#DBF8FF" fill-rule="nonzero" xlink:href="#a"/><g mask="url(#b)"><path fill="#FFF" fill-opacity=".6" d="M1465.141 851.218c0 125.57-91.287 227.364-203.894 227.364-112.608 0-203.895-101.793-203.895-227.364 0-125.57 91.287-227.364 203.895-227.364 112.607 0 203.894 101.794 203.894 227.364"/><g fill="#FFF" opacity=".6"><path d="M1072.74 835.298c.027 126.794-92.343 229.603-206.314 229.63-113.97.029-206.381-102.733-206.408-229.527-.025-126.794 92.345-229.603 206.314-229.63 113.97-.03 206.382 102.733 206.408 229.527"/><path d="M1278.021 544.417c.027 126.795-92.343 229.603-206.314 229.631-113.969.03-206.381-102.733-206.408-229.527-.023-126.795 92.347-229.603 206.315-229.631 113.97-.03 206.382 102.733 206.407 229.527"/><path d="M1520.036 775.199c.027 126.794-92.344 229.603-206.315 229.63-113.969.03-206.382-102.733-206.407-229.527-.025-126.792 92.345-229.603 206.315-229.631 113.97-.03 206.382 102.734 206.407 229.528"/></g><g fill="#FFF" opacity=".5"><path d="M699.92 897.344c0 125.156-91.442 226.614-204.24 226.614-112.799 0-204.241-101.458-204.241-226.614S382.88 670.73 495.68 670.73c112.797 0 204.24 101.458 204.24 226.614"/><path d="M905.242 614.377c0 125.156-91.442 226.613-204.24 226.613-112.8 0-204.242-101.457-204.242-226.613 0-125.157 91.443-226.614 204.242-226.614 112.798 0 204.24 101.457 204.24 226.614"/><path d="M952.79 897.344c0 125.156-91.442 226.614-204.24 226.614-112.8 0-204.242-101.458-204.242-226.614S635.751 670.73 748.55 670.73c112.798 0 204.24 101.458 204.24 226.614"/></g><g opacity=".6"><g transform="translate(-200 507.438)"><mask id="d" fill="#fff"><use xlink:href="#c"/></mask><path fill="#FFF" d="M372.391 208.11c0 114.749-83.363 207.769-186.195 207.769C83.363 415.879 0 322.859 0 208.11S83.363.343 186.196.343c102.832 0 186.195 93.02 186.195 207.768" mask="url(#d)"/></g><path fill="#FFF" d="M358.988 453.251c0 115.053-83.584 208.32-186.688 208.32-103.106 0-186.69-93.267-186.69-208.32 0-115.052 83.584-208.32 186.69-208.32 103.104 0 186.688 93.268 186.688 208.32"/><path fill="#FFF" d="M572.656 662.775c0 115.052-83.584 208.319-186.689 208.319-103.106 0-186.69-93.267-186.69-208.32 0-115.052 83.584-208.319 186.69-208.319 103.105 0 186.689 93.267 186.689 208.32"/><path fill="#FFF" d="M389.204 790.415c0 115.053-83.584 208.32-186.688 208.32-103.106 0-186.69-93.267-186.69-208.32 0-115.052 83.584-208.319 186.69-208.319 103.104 0 186.688 93.267 186.688 208.32"/></g></g></g></svg>
