<svg xmlns="http://www.w3.org/2000/svg" xmlns:xlink="http://www.w3.org/1999/xlink" width="139" height="139"><defs/><defs><path id="a" d="M0 .001h139V139H0z"/><path id="c" d="M.574.574H113V104H.574z"/><path id="e" d="M0 139h139V0H0z"/></defs><g fill="none" fill-rule="evenodd"><mask id="b" fill="#fff"><use xlink:href="#a"/></mask><path fill="#C2EBF5" d="M139 69.5c0 38.384-31.117 69.5-69.5 69.5C31.117 139 0 107.885 0 69.5S31.117 0 69.5 0C107.883 0 139 31.117 139 69.5" mask="url(#b)"/><g transform="translate(26 35)"><mask id="d" fill="#fff"><use xlink:href="#c"/></mask><path fill="#9EDFEF" d="M113 34.667c0 38.291-31.134 69.334-69.539 69.334-.613 0-1.227 0-2.307-.038-.429-.349-40.56-39.777-40.58-40.122C.574 25.547 46.029.574 84.434.574c.196-.029 27.832 28.188 28.349 28.585.13 1.47.217 3.477.217 5.508" mask="url(#d)"/></g><path fill="#F2F4F7" d="M81 112H57l2.18-12h19.635z"/><path fill="#D7DBE0" d="M81 112l-2.203-12H59l15.826 12z"/><path fill="#FFF" d="M88 114H51v-.746c0-.692.504-1.252 1.126-1.254h34.741c.623-.002 1.131.558 1.133 1.248V114zM112 92v5.882c-.009 1.17-.944 2.116-2.097 2.118h-81.82c-1.147-.01-2.074-.953-2.083-2.118V92h86z"/><path fill="#16325B" d="M112 92V37.095A2.103 2.103 0 00109.903 35h-81.82c-1.15.01-2.08.944-2.083 2.095V92h86z"/><mask id="f" fill="#fff"><use xlink:href="#e"/></mask><path fill="#FFF" d="M44 87h63V39H44z" mask="url(#f)"/><path fill="#4687C7" d="M30 87h14V39H30z" mask="url(#f)"/><path fill="#FFF" d="M33 83.433h9v-.866h-9zM33 79.433h9v-.866h-9zM33 76.433h9v-.866h-9zM33 72.433h9v-.866h-9zM33 69.433h9v-.866h-9zM33 65.433h9v-.866h-9zM33 62.433h9v-.866h-9zM33 58.433h9v-.866h-9zM33 55.433h9v-.866h-9zM33 51.433h9v-.866h-9zM33 48.433h9v-.866h-9zM33 44.433h9v-.866h-9z" mask="url(#f)"/><path fill="#F35656" d="M100 83h4v-4h-4z" mask="url(#f)"/><path fill="#F9B11D" d="M94 83h4v-4h-4z" mask="url(#f)"/><path fill="#68CCE5" d="M87 83h4v-4h-4z" mask="url(#f)"/><path fill="#F35656" d="M54 75l9.999-18L74 75z" mask="url(#f)"/><path fill="#F9B11D" d="M94 66a9 9 0 11-9-9h.002A8.998 8.998 0 0194 65.998V66z" mask="url(#f)"/><path fill="#68CCE5" d="M71 65h14V51H71z" mask="url(#f)"/><path fill="#FFF" d="M85 57a9 9 0 00-9 9h9v-9z" mask="url(#f)"/></g></svg>
