<svg xmlns="http://www.w3.org/2000/svg" xmlns:xlink="http://www.w3.org/1999/xlink" width="328" height="308"><defs/><defs><filter id="a" width="111.9%" height="112.8%" x="-6%" y="-6.4%" filterUnits="objectBoundingBox"><feMorphology in="SourceAlpha" operator="dilate" radius=".5" result="shadowSpreadOuter1"/><feOffset in="shadowSpreadOuter1" result="shadowOffsetOuter1"/><feGaussianBlur in="shadowOffsetOuter1" result="shadowBlurOuter1" stdDeviation="5"/><feColorMatrix in="shadowBlurOuter1" values="0 0 0 0 0 0 0 0 0 0 0 0 0 0 0 0 0 0 0.1 0"/></filter><filter id="c" width="130.1%" height="130.5%" x="-15.1%" y="-15.3%" filterUnits="objectBoundingBox"><feGaussianBlur in="SourceGraphic" stdDeviation="1"/></filter><filter id="d" width="142%" height="142.4%" x="-21%" y="-21.2%" filterUnits="objectBoundingBox"><feMorphology in="SourceAlpha" operator="dilate" radius=".5" result="shadowSpreadOuter1"/><feOffset in="shadowSpreadOuter1" result="shadowOffsetOuter1"/><feGaussianBlur in="shadowOffsetOuter1" result="shadowBlurOuter1" stdDeviation="5"/><feColorMatrix in="shadowBlurOuter1" values="0 0 0 0 0 0 0 0 0 0 0 0 0 0 0 0 0 0 0.1 0"/></filter><linearGradient id="f" x1="50%" x2="50%" y1="-26.405%" y2="100%"><stop offset="0%" stop-color="#949494"/><stop offset="100%" stop-color="#E2E2E2"/></linearGradient><rect id="b" width="277" height="258" x="0" y="0" rx="3"/><path id="e" d="M23 14.926L33.589 6.25 64.996 0l22.722 9.065 14.045 12.842 12.19 21.994L116 65.19 104.956 92H23z"/></defs><g fill="none" fill-rule="evenodd"><g transform="translate(40 11)"><use fill="#000" filter="url(#a)" xlink:href="#b"/><use fill="#FFF" xlink:href="#b"/><path d="M12.458 221.248h20.519v20.58h-20.52z"/><path fill="#3575D3" fill-rule="nonzero" d="M23.083 222.718l-3.053 6.125-6.107.766 4.204 4.716-1.15 6.769 6.106-3.063 6.107 3.063-1.14-6.769 4.193-4.716-6.106-.766-3.054-6.125zm0 2.287l2.382 4.788 4.733.592-3.237 3.634.886 5.258-4.764-2.39-4.763 2.39.886-5.258-3.237-3.634 4.733-.592 2.381-4.788z"/><rect width="70.142" height="27.835" x="112.511" y="217.524" stroke="#D7DBE0" rx="3"/><rect width="77.197" height="28.835" x="187.694" y="217.024" fill="#F2F4F7" rx="3"/><path fill="#F2F4F7" d="M12.109 171.494h181.639v15.176H12.109zM12.109 191.224h110.497V206.4H12.109zM230.077 173.012h34.814v27.318h-34.814z"/></g><path fill="#F2F4F7" d="M43 10h271a3 3 0 013 3v158H40V13a3 3 0 013-3z"/><g><g filter="url(#c)" transform="translate(1 189)"><use fill="#000" filter="url(#d)" xlink:href="#e"/><use fill="#FFF" xlink:href="#e"/></g><path fill="url(#f)" stroke="silver" d="M59 0c32.585 0 59 26.415 59 59s-26.415 59-59 59S0 91.585 0 59 26.415 0 59 0zm0 3.522C28.36 3.522 3.522 28.361 3.522 59c0 30.64 24.839 55.478 55.478 55.478 30.64 0 55.478-24.839 55.478-55.478 0-30.64-24.839-55.478-55.478-55.478z" transform="translate(1 189)"/><path d="M53 228.137h37V265H53z"/><path fill="#FFE900" fill-rule="nonzero" d="M69.518 218l5.506 10.971 11.012 1.371-7.562 8.448 2.056 12.123-11.012-5.485-11.012 5.485 2.074-12.123-7.58-8.448 11.012-1.371z"/></g></g></svg>
