<svg xmlns="http://www.w3.org/2000/svg" xmlns:xlink="http://www.w3.org/1999/xlink" width="49" height="50"><defs/><defs><path id="a" d="M0 0h49v50H0z"/></defs><g fill="none" fill-rule="evenodd"><mask id="b" fill="#fff"><use xlink:href="#a"/></mask><path fill="#4273B9" d="M0 23.418c.031-.288.055-.577.095-.864.309-2.215 1.177-4.127 2.902-5.571.203-.17.432-.309.64-.474a.522.522 0 00.176-.24 23.31 23.31 0 011.75-4.379c1.39-2.664 3.212-4.97 5.49-6.899a21.063 21.063 0 017.23-4.026 20.176 20.176 0 014.266-.87A20.44 20.44 0 0132.873 1.79a21.308 21.308 0 015.365 3.45 22.696 22.696 0 014.827 5.964 23.653 23.653 0 012.128 5.088.37.37 0 00.136.194c1.635 1.07 2.668 2.596 3.235 4.468.406 1.34.516 2.715.382 4.11-.168 1.75-.719 3.348-1.784 4.743a7.16 7.16 0 01-1.579 1.517c-.076.054-.12.108-.131.212a22.058 22.058 0 01-1.048 4.896c-.8 2.347-1.971 4.478-3.588 6.341-1.103 1.27-2.34 2.382-3.807 3.203a7.477 7.477 0 01-1.01.474c-.178.067-.388.06-.583.06-1.156.006-2.312.003-3.468.004-.074 0-.142-.018-.183.091-.45 1.196-1.275 2.05-2.368 2.642-1.198.65-2.476.865-3.818.7-1.425-.177-2.683-.73-3.66-1.821-1.185-1.32-1.523-2.845-.862-4.534.404-1.036 1.15-1.787 2.082-2.342 1.202-.715 2.505-.97 3.883-.84 1.203.112 2.294.528 3.245 1.297a4.69 4.69 0 011.488 2.033c.035.094.079.129.18.128 1.098-.003 2.196 0 3.295-.005a.529.529 0 00.22-.059c.89-.433 1.651-1.05 2.362-1.734 2.335-2.245 3.817-4.996 4.601-8.156.11-.44.194-.885.296-1.354-.262.031-.5.065-.74.087-.463.042-.923.055-1.35-.179-.642-.35-.99-.894-1.037-1.636-.006-.084-.003-.17-.003-.254V17.584c0-1.174.335-1.683 1.431-2.139-.3-.633-.582-1.275-.905-1.894a18.574 18.574 0 00-2.486-3.65c-2.605-2.98-5.79-4.961-9.631-5.8a16.27 16.27 0 00-4.695-.324c-3.295.243-6.27 1.38-8.938 3.357-2.333 1.729-4.158 3.913-5.507 6.51-.304.587-.57 1.194-.841 1.765.273.165.534.287.754.463.44.353.66.833.66 1.408.001 4.49.002 8.98 0 13.47 0 1.065-.826 1.923-1.875 1.916-2.761-.02-4.876-1.224-6.299-3.652-.644-1.099-1-2.303-1.154-3.57-.034-.284-.062-.567-.093-.85v-1.176z" mask="url(#b)"/></g></svg>
