<svg xmlns="http://www.w3.org/2000/svg" width="24" height="24"><defs/><path fill-rule="evenodd" d="M12 2.312c-5.35 0-9.688 4.34-9.688 9.688A9.687 9.687 0 0012 21.688 9.687 9.687 0 0021.688 12c0-5.348-4.338-9.688-9.688-9.688zm0 17.5A7.808 7.808 0 014.187 12 7.81 7.81 0 0112 4.187 7.81 7.81 0 0119.813 12 7.808 7.808 0 0112 19.813zm4.19-9.968c0 2.619-2.83 2.66-2.83 3.627v.248c0 .259-.21.469-.468.469h-1.784a.469.469 0 01-.468-.47v-.337c0-1.397 1.058-1.955 1.858-2.403.686-.385 1.107-.647 1.107-1.156 0-.674-.86-1.12-1.554-1.12-.906 0-1.324.428-1.912 1.17a.47.47 0 01-.651.083L8.4 9.13a.47.47 0 01-.103-.64c.923-1.355 2.098-2.116 3.928-2.116 1.917 0 3.963 1.496 3.963 3.469zm-2.55 6.531c0 .905-.735 1.64-1.64 1.64-.905 0-1.64-.735-1.64-1.64 0-.905.735-1.64 1.64-1.64.905 0 1.64.735 1.64 1.64z"/></svg>
