<?xml version="1.0" encoding="UTF-8"?>
<svg width="178px" height="178px" viewBox="0 0 178 178" version="1.1" xmlns="http://www.w3.org/2000/svg" xmlns:xlink="http://www.w3.org/1999/xlink">
    <title>Group 16</title>
    <defs>
        <polygon id="path-1" points="0.000445 0 178 0 178 178 0.000445 178"></polygon>
        <polygon id="path-3" points="0 178 178 178 178 0 0 0"></polygon>
    </defs>
    <g id="Page-1" stroke="none" stroke-width="1" fill="none" fill-rule="evenodd">
        <g id="Blue-Sky-Product-Page" transform="translate(-454.000000, -2663.000000)">
            <g id="Group-16" transform="translate(454.000000, 2663.000000)">
                <g id="Group-3">
                    <mask id="mask-2" fill="white">
                        <use xlink:href="#path-1"></use>
                    </mask>
                    <g id="Clip-2"></g>
                    <path d="M178.000445,89 C178.000445,138.152475 138.15292,178 89.000445,178 C39.845745,178 0.000445,138.152475 0.000445,89 C0.000445,39.8453 39.845745,0 89.000445,0 C138.15292,0 178.000445,39.8453 178.000445,89" id="Fill-1" fill="#C2EBF5" mask="url(#mask-2)"></path>
                </g>
                <path d="M114.850008,174 C146.336059,164.27663 170.321644,137.28559 176,103.973468 L111.371435,38.7818846 L111.305177,38.715042 L110.256083,37.6567009 C110.231789,37.63442 110.207494,37.609911 110.187616,37.5876302 C107.073466,34.7356794 102.958811,33 98.4223109,33 L94.9437384,33 L79.4988763,33 C69.8450093,33 62,40.9230757 62,50.6531296 C62,55.5148144 63.9612523,59.93311 67.132827,63.1281861 L85.6542932,81.8173759 L85.6542932,144.546924 L114.850008,174 Z" id="Fill-4" fill="#9EDFEF"></path>
                <mask id="mask-4" fill="white">
                    <use xlink:href="#path-3"></use>
                </mask>
                <g id="Clip-7"></g>
                <polygon id="Fill-6" fill="#FFFFFF" mask="url(#mask-4)" points="86 144 92 144 92 68 86 68"></polygon>
                <polygon id="Fill-8" fill="#D7DBE0" mask="url(#mask-4)" points="86.004 144 87.996 144 87.996 68 86.004 68"></polygon>
                <polygon id="Fill-9" fill="#D7DBE0" mask="url(#mask-4)" points="93 140 100 140 100 134 93 134"></polygon>
                <polygon id="Fill-10" fill="#D7DBE0" mask="url(#mask-4)" points="93 130 100 130 100 124 93 124"></polygon>
                <polygon id="Fill-11" fill="#FFFFFF" mask="url(#mask-4)" points="100 144 106 144 106 132 100 132"></polygon>
                <polygon id="Fill-12" fill="#D7DBE0" mask="url(#mask-4)" points="93 120 100 120 100 114 93 114"></polygon>
                <polygon id="Fill-13" fill="#FFFFFF" mask="url(#mask-4)" points="100 120 106 120 106 108 100 108"></polygon>
                <path d="M98.4769823,40.6006059 L79.520806,40.6006059 C73.5050786,40.6006059 68.6084535,45.4892073 68.6084535,51.5 C68.6084535,57.5107927 73.5050786,62.3993941 79.520806,62.3993941 L98.4769823,62.3993941 C104.494921,62.3993941 109.391547,57.5107927 109.391547,51.5 C109.391547,45.4892073 104.494921,40.6006059 98.4769823,40.6006059 M79.520806,34 L98.4769823,34 C108.137533,34 116,41.8487124 116,51.5 C116,61.1512876 108.137533,69 98.4769823,69 L79.520806,69 C69.8602556,69 62,61.1512876 62,51.5 C62,41.8487124 69.8602556,34 79.520806,34" id="Fill-14" fill="#FFFFFF" mask="url(#mask-4)"></path>
                <path d="M97.9389653,40.1834739 C103.932064,40.1834739 108.808477,45.0349073 108.808477,51 C108.808477,56.9650927 103.932064,61.8165261 97.9389653,61.8165261 L79.0610347,61.8165261 C73.0701385,61.8165261 68.1937252,56.9650927 68.1937252,51 C68.1937252,45.0349073 73.0701385,40.1834739 79.0610347,40.1834739 L97.9389653,40.1834739 Z M97.9389653,38 L79.0610347,38 C71.8587441,38 66,43.8313659 66,51 C66,58.1664418 71.8587441,64 79.0610347,64 L97.9389653,64 C105.141256,64 111,58.1664418 111,51 C111,43.8313659 105.141256,38 97.9389653,38 L97.9389653,38 Z" id="Fill-15" fill="#D7DBE0" mask="url(#mask-4)"></path>
            </g>
        </g>
    </g>
</svg>