<svg xmlns="http://www.w3.org/2000/svg" xmlns:xlink="http://www.w3.org/1999/xlink" width="178" height="178"><defs/><defs><path id="a" d="M0 0h178v178H0z"/><path id="c" d="M0 178h178V0H0z"/></defs><g fill="none" fill-rule="evenodd"><mask id="b" fill="#fff"><use xlink:href="#a"/></mask><path fill="#C2EBF5" d="M178 89c0 49.152-39.847 89-89 89-49.154 0-89-39.848-89-89C0 39.845 39.846 0 89 0c49.153 0 89 39.845 89 89" mask="url(#b)"/><path fill="#9EDFEF" d="M114.85 174c31.486-9.723 55.472-36.714 61.15-70.027l-64.629-65.191-.066-.067-1.049-1.058a1.005 1.005 0 01-.068-.07C107.073 34.737 102.958 33 98.422 33H79.5C69.845 33 62 40.923 62 50.653c0 4.862 1.961 9.28 5.133 12.475l18.521 18.69v62.729L114.85 174z"/><mask id="d" fill="#fff"><use xlink:href="#c"/></mask><path fill="#FFF" d="M86 144h6V68h-6z" mask="url(#d)"/><path fill="#D7DBE0" d="M86.004 144h1.992V68h-1.992zM93 140h7v-6h-7zM93 130h7v-6h-7z" mask="url(#d)"/><path fill="#FFF" d="M100 144h6v-12h-6z" mask="url(#d)"/><path fill="#D7DBE0" d="M93 120h7v-6h-7z" mask="url(#d)"/><path fill="#FFF" d="M100 120h6v-12h-6zM98.477 40.6H79.521c-6.016 0-10.913 4.89-10.913 10.9 0 6.01 4.897 10.9 10.913 10.9h18.956c6.018 0 10.915-4.89 10.915-10.9 0-6.01-4.897-10.9-10.915-10.9M79.521 34h18.956C108.137 34 116 41.849 116 51.5S108.138 69 98.477 69H79.521C69.86 69 62 61.151 62 51.5S69.86 34 79.52 34" mask="url(#d)"/><path fill="#D7DBE0" d="M97.939 40.183c5.993 0 10.87 4.852 10.87 10.817s-4.877 10.817-10.87 10.817H79.061c-5.99 0-10.867-4.852-10.867-10.817S73.07 40.183 79.06 40.183h18.878zm0-2.183H79.061C71.859 38 66 43.831 66 51c0 7.166 5.859 13 13.061 13h18.878C105.141 64 111 58.166 111 51c0-7.169-5.859-13-13.061-13z" mask="url(#d)"/></g></svg>
