<?xml version="1.0" encoding="UTF-8"?>
<svg width="177px" height="178px" viewBox="0 0 177 178" version="1.1" xmlns="http://www.w3.org/2000/svg" xmlns:xlink="http://www.w3.org/1999/xlink">
    <title>Group 24 Copy 2</title>
    <defs>
        <polygon id="path-1" points="0 0 176.999779 0 176.999779 178 0 178"></polygon>
        <polygon id="path-3" points="0 178 177 178 177 0 0 0"></polygon>
    </defs>
    <g id="Page-1" stroke="none" stroke-width="1" fill="none" fill-rule="evenodd">
        <g id="Blue-Sky-Product-Page" transform="translate(-455.000000, -2404.000000)">
            <g id="Group-24-Copy-2" transform="translate(455.000000, 2404.000000)">
                <g id="Group-3">
                    <mask id="mask-2" fill="white">
                        <use xlink:href="#path-1"></use>
                    </mask>
                    <g id="Clip-2"></g>
                    <path d="M176.999779,89 C176.999779,138.152475 137.378329,178 88.4997788,178 C39.6212288,178 -0.00022125,138.152475 -0.00022125,89 C-0.00022125,39.8453 39.6212288,0 88.4997788,0 C137.378329,0 176.999779,39.8453 176.999779,89" id="Fill-1" fill="#C2EBF5" mask="url(#mask-2)"></path>
                </g>
                <path d="M176,103.644298 L112.660638,39.766456 C106.327144,34.2982706 98.1156682,31 89.1406427,31 C71.0184617,31 56.0233059,44.4356676 53.4060498,61.9730306 C53.3597072,62.2846081 53.3266053,62.6028623 53.2890898,62.9144398 C53.2515744,63.1970851 53.2096453,63.4752794 53.1831638,63.7601502 C53.1412347,64.1785543 53.1147532,64.6014095 53.0882717,65.0220392 C53.0750309,65.2134368 53.0551698,65.4003833 53.0463426,65.5917809 C53.0154475,66.2082593 53,66.8269632 53,67.4478927 C53,77.2136222 56.7912697,86.0579726 62.9791162,92.6055515 C63.3763389,93.0195045 63.7868023,93.4312319 64.1950589,93.8340572 L82.7365305,112.533159 C82.4518542,112.951563 82.3062059,113.436734 82.3062059,113.92413 L82.3062059,147.029241 C82.3062059,148.682828 82.8865924,150.211783 83.8664083,151.406905 C83.901717,151.440289 83.9237849,151.473672 83.9590936,151.509281 L84.6873352,152.243714 C84.7204371,152.279322 84.7557457,152.301578 84.7888476,152.337187 L107.256203,175 C142.282416,167.628966 169.666505,139.319923 176,103.644298" id="Fill-4" fill="#9EDFEF"></path>
                <mask id="mask-4" fill="white">
                    <use xlink:href="#path-3"></use>
                </mask>
                <g id="Clip-7"></g>
                <polygon id="Fill-6" fill="#343B43" mask="url(#mask-4)" points="86 112 92 112 92 104 86 104"></polygon>
                <path d="M87.9934058,98.8028578 C72.0947613,98.8028578 59.1964831,85.9121912 59.1964831,69.9967026 C59.1964831,54.0878088 72.0947613,41.1971422 87.9934058,41.1971422 C103.903041,41.1971422 116.805715,54.0878088 116.805715,69.9967026 C116.805715,85.9121912 103.903041,98.8028578 87.9934058,98.8028578 M87.9978019,34 C68.1118574,34 52,50.1177297 52,69.9967026 C52,89.8844686 68.1118574,106 87.9978019,106 C107.87935,106 124,89.8844686 124,69.9967026 C124,50.1177297 107.87935,34 87.9978019,34" id="Fill-8" fill="#495057" mask="url(#mask-4)"></path>
                <path d="M96,116 L96,148.961783 C96,152.844859 93.0936239,156 89.4989508,156 C85.9084746,156 83,152.844859 83,148.961783 L83,116 L96,116 Z" id="Fill-9" fill="#4687C7" mask="url(#mask-4)"></path>
                <path d="M96,116 L83,116 L83,114.973118 C83,114.217742 83.2267808,113.451613 83.6782426,112.870968 C84.1318042,112.290323 84.7239541,112 85.316104,112 L93.683896,112 C94.2760459,112 94.8681958,112.290323 95.3217574,112.870968 C95.7732192,113.451613 96,114.217742 96,114.973118 L96,116 Z" id="Fill-10" fill="#FFFFFF" mask="url(#mask-4)"></path>
                <polygon id="Fill-11" fill="#FFFFFF" mask="url(#mask-4)" points="90.2589074 49 87.7353919 49 87 54 91 54"></polygon>
                <polygon id="Fill-12" fill="#FFFFFF" mask="url(#mask-4)" points="80.3493485 52 78 53.3121547 79.2886808 57 83 54.9222573"></polygon>
                <polygon id="Fill-13" fill="#FFFFFF" mask="url(#mask-4)" points="72.3112164 58 71 60.3390383 73.9245656 63 76 59.2876936"></polygon>
                <polygon id="Fill-14" fill="#FFFFFF" mask="url(#mask-4)" points="68 66.9235518 68 70.0788224 72 71 72 66"></polygon>
                <polygon id="Fill-15" fill="#FFFFFF" mask="url(#mask-4)" points="71 76.6487368 72.3112164 79 76 77.7143439 73.9245656 74"></polygon>
                <polygon id="Fill-16" fill="#FFFFFF" mask="url(#mask-4)" points="78 84.68629 80.3483923 86 83 83.0762544 79.2922263 81"></polygon>
                <polygon id="Fill-17" fill="#FFFFFF" mask="url(#mask-4)" points="87.7372922 89 90.2589074 89 91 84 87 84"></polygon>
                <polygon id="Fill-18" fill="#FFFFFF" mask="url(#mask-4)" points="96.6549755 86 99 84.68629 97.7173736 81 94 83.0762544"></polygon>
                <polygon id="Fill-19" fill="#FFFFFF" mask="url(#mask-4)" points="104.689818 79 106 76.6487368 103.07577 74 101 77.7143439"></polygon>
                <polygon id="Fill-20" fill="#FFFFFF" mask="url(#mask-4)" points="109 70.0788224 109 66.9235518 105 66 105 71"></polygon>
                <polygon id="Fill-21" fill="#FFFFFF" mask="url(#mask-4)" points="106 60.3390383 104.689818 58 101 59.2856561 103.07577 63"></polygon>
                <polygon id="Fill-22" fill="#FFFFFF" mask="url(#mask-4)" points="99 53.3117345 96.6549755 52 94 54.9237456 97.7173736 57"></polygon>
                <path d="M87.4977556,74.8811645 C83.9740081,74.8811645 81.1213438,72.0211456 81.1213438,68.5011225 C81.1213438,64.9766095 83.9740081,62.1188355 87.4977556,62.1188355 C91.021503,62.1188355 93.8809007,64.9766095 93.8809007,68.5011225 C93.8809007,72.0211456 91.021503,74.8811645 87.4977556,74.8811645 M87.4977556,53 C78.9375181,53 72,59.9390253 72,68.5011225 C72,77.0677095 78.9375181,84 87.4977556,84 C96.0669708,84 103,77.0677095 103,68.5011225 C103,59.9390253 96.0669708,53 87.4977556,53" id="Fill-23" fill="#FFFFFF" mask="url(#mask-4)"></path>
            </g>
        </g>
    </g>
</svg>