<svg xmlns="http://www.w3.org/2000/svg" xmlns:xlink="http://www.w3.org/1999/xlink" width="177" height="178"><defs/><defs><path id="a" d="M0 0h177v178H0z"/><path id="c" d="M0 178h177V0H0z"/></defs><g fill="none" fill-rule="evenodd"><mask id="b" fill="#fff"><use xlink:href="#a"/></mask><path fill="#C2EBF5" d="M177 89c0 49.152-39.622 89-88.5 89C39.62 178 0 138.152 0 89 0 39.845 39.62 0 88.5 0 137.378 0 177 39.845 177 89" mask="url(#b)"/><path fill="#9EDFEF" d="M176 103.644l-63.34-63.878C106.328 34.298 98.117 31 89.14 31c-18.122 0-33.117 13.436-35.734 30.973-.046.312-.08.63-.117.941-.037.283-.08.561-.106.846-.042.419-.068.841-.095 1.262-.013.191-.033.378-.042.57-.03.616-.046 1.235-.046 1.856 0 9.766 3.791 18.61 9.98 25.158.396.414.807.825 1.215 1.228l18.542 18.7c-.285.418-.43.903-.43 1.39v33.105c0 1.654.58 3.183 1.56 4.378.035.033.057.067.092.102l.728.735c.033.035.069.058.102.093L107.256 175c35.026-7.371 62.41-35.68 68.744-71.356"/><mask id="d" fill="#fff"><use xlink:href="#c"/></mask><path fill="#343B43" d="M86 112h6v-8h-6z" mask="url(#d)"/><path fill="#495057" d="M87.993 98.803c-15.898 0-28.797-12.89-28.797-28.806 0-15.91 12.899-28.8 28.797-28.8 15.91 0 28.813 12.89 28.813 28.8 0 15.915-12.903 28.806-28.813 28.806M87.998 34C68.112 34 52 50.118 52 69.997 52 89.884 68.112 106 87.998 106 107.879 106 124 89.884 124 69.997 124 50.117 107.88 34 87.998 34" mask="url(#d)"/><path fill="#4687C7" d="M96 116v32.962c0 3.883-2.906 7.038-6.501 7.038-3.59 0-6.499-3.155-6.499-7.038V116h13z" mask="url(#d)"/><path fill="#FFF" d="M96 116H83v-1.027c0-.755.227-1.521.678-2.102.454-.58 1.046-.871 1.638-.871h8.368c.592 0 1.184.29 1.638.871.451.58.678 1.347.678 2.102V116zM90.259 49h-2.524L87 54h4zM80.349 52L78 53.312 79.289 57 83 54.922zM72.311 58L71 60.339 73.925 63 76 59.288zM68 66.924v3.155L72 71v-5zM71 76.649L72.311 79 76 77.714 73.925 74zM78 84.686L80.348 86 83 83.076 79.292 81zM87.737 89h2.522L91 84h-4zM96.655 86L99 84.686 97.717 81 94 83.076zM104.69 79l1.31-2.351L103.076 74 101 77.714zM109 70.079v-3.155L105 66v5zM106 60.339L104.69 58 101 59.286 103.076 63zM99 53.312L96.655 52 94 54.924 97.717 57z" mask="url(#d)"/><path fill="#FFF" d="M87.498 74.881a6.38 6.38 0 01-6.377-6.38 6.378 6.378 0 016.377-6.382A6.384 6.384 0 0193.88 68.5c0 3.52-2.86 6.38-6.383 6.38m0-21.881C78.938 53 72 59.939 72 68.501 72 77.068 78.938 84 87.498 84 96.067 84 103 77.068 103 68.501 103 59.94 96.067 53 87.498 53" mask="url(#d)"/></g></svg>
