<svg xmlns="http://www.w3.org/2000/svg" width="24" height="24"><defs/><path fill="#545454" fill-rule="evenodd" d="M20.281 6.844H3.72a.469.469 0 01-.469-.469v-1.25c0-.259.21-.469.469-.469H20.28c.26 0 .469.21.469.469v1.25c0 .259-.21.469-.469.469zm0 6.25H3.72a.469.469 0 01-.469-.469v-1.25c0-.259.21-.469.469-.469H20.28c.26 0 .469.21.469.469v1.25c0 .259-.21.469-.469.469zm0 6.25H3.72a.469.469 0 01-.469-.469v-1.25c0-.259.21-.469.469-.469H20.28c.26 0 .469.21.469.469v1.25c0 .259-.21.469-.469.469z"/></svg>
