<svg xmlns="http://www.w3.org/2000/svg" xmlns:xlink="http://www.w3.org/1999/xlink" width="63" height="40"><defs/><defs><path id="a" d="M.221.142h36.274v31.304H.221z"/></defs><g fill="none" fill-rule="evenodd"><g transform="translate(26.353 .076)"><mask id="b" fill="#fff"><use xlink:href="#a"/></mask><path fill="#4273B9" d="M21.904 16.761l-7.409 3.204a.48.48 0 01-.518-.108.445.445 0 01-.147-.395l.97-8.107c.053-.372.463-.554.759-.33l6.452 4.903a.32.32 0 01.083.085.503.503 0 01.096.3.485.485 0 01-.286.448M33.9 3.793L4.322.163c-1.613-.194-3.078.972-3.267 2.605L.221 9.679h6.167c2.793 0 5.07 2.297 5.07 5.138v14.258l19.143 2.35c1.613.193 3.078-.972 3.278-2.605l2.593-21.704A2.981 2.981 0 0033.9 3.793" mask="url(#b)"/></g><path fill="#4273B9" d="M22.125 30.433l-1.158-1.794-2.678-4.187-2.561 3.386 1.781 1.153 1.77-.427 1.076.94 2.72 2.371 1.676-1.09h1.854s-2.276-3.524-2.486-3.663c-.096-.064-.475.534-.875 1.25-.539.94-1.119 2.061-1.119 2.061z"/><path fill="#4273B9" d="M29.78 36.628H10.3c-1.245 0-1.973-1.431-1.245-2.468l8.01-11.29c.623-.874 1.92-.863 2.51.033l2.657 3.962.684-.972a1.19 1.19 0 011.962.032l.199.289.032.054.37.555.04.053 5.25 7.852c.538.81-.02 1.9-.99 1.9M4.47 19.379c0-1.988 1.593-3.6 3.552-3.6 1.972 0 3.553 1.612 3.553 3.6 0 1.986-1.581 3.6-3.553 3.6-1.96 0-3.552-1.614-3.552-3.6m28.272-7.467H2.941c-1.623 0-2.94 1.335-2.94 2.98v21.864c0 1.645 1.317 2.98 2.94 2.98h29.8c1.624 0 2.941-1.335 2.941-2.98V14.892c0-1.645-1.317-2.98-2.94-2.98"/></g></svg>
