<svg xmlns="http://www.w3.org/2000/svg" xmlns:xlink="http://www.w3.org/1999/xlink" width="186" height="186"><defs/><defs><path id="a" d="M.999 92.5c0 51.086 41.415 92.501 92.501 92.501 51.086 0 92.5-41.415 92.5-92.501C186 41.415 144.586 0 93.5 0S.999 41.415.999 92.5z"/></defs><g fill="none" fill-rule="evenodd"><g><mask id="b" fill="#fff"><use xlink:href="#a"/></mask><path fill="#D7D8D8" d="M-4 190h195V-5H-4z" mask="url(#b)"/></g><path fill="#4686C6" d="M93.5 185C42.414 185 1 143.586 1 92.5 1 41.413 42.414 0 93.5 0 144.587 0 186 41.413 186 92.5c0 51.086-41.413 92.5-92.5 92.5"/><path fill="#004B75" d="M186 92.5c0-2.625-.115-5.224-.33-7.793-17.052-17.064-44.456-44.48-44.562-44.55-.358-.537-1.057-.825-1.73-.555-4.392 1.755-13.835 5.805-16.434 9.126-2.204 2.816-2.612 5.926-1.634 8.565-.095.013-.188.02-.284.035a8.046 8.046 0 00-1.64.47 9.245 9.245 0 00-2.938 1.914 9.71 9.71 0 00-.624.657c-.047.054-.088.114-.134.17a45.284 45.284 0 00-2.064-1.803c-14.245-11.635-29.033-14.027-32.73-4.24-1.761 4.658 4.458 9.677-1.631 15.984-6.09 6.307-13.48-1.172-22.62 2.392-8.973 3.501-19.136 20.008.11 40.343a49.592 49.592 0 001.599 1.611c.134.133 10.658 10.664 10.75 10.753l-2.125 2.97c-1.238 1.728-1.123 3.934.23 5.088.07.087 28.174 28.186 48.633 48.64C156.134 172.282 186 135.882 186 92.5"/><path fill="#F8F8F9" d="M89.456 56.849c2.642-2.641 7.688-1.876 11.273 1.709 3.584 3.584 4.35 8.632 1.708 11.273-2.641 2.64-7.688 1.876-11.273-1.71-3.585-3.583-4.35-8.63-1.708-11.272m-32.701 56.366c19.247 20.334 53.608 22.727 69.376-2.61 12.3-19.765-.01-41.661-12.505-51.868-14.245-11.635-29.033-14.028-32.731-4.242-1.76 4.66 4.458 9.678-1.63 15.986-6.09 6.306-13.48-1.173-22.62 2.39-8.973 3.502-19.136 20.009.11 40.344"/><path fill="#B1D7E4" d="M72.69 87.022a8.109 8.109 0 01-8.109 8.109 8.11 8.11 0 110-16.22 8.11 8.11 0 018.11 8.11"/><path fill="#FBB21F" d="M70.12 85.736a8.109 8.109 0 01-8.108 8.11 8.11 8.11 0 110-16.219 8.109 8.109 0 018.109 8.11"/><path fill="#4686C6" d="M66.31 78.868a8.056 8.056 0 011.241 4.3 8.11 8.11 0 01-8.109 8.108 8.064 8.064 0 01-4.299-1.24 8.097 8.097 0 006.868 3.81 8.11 8.11 0 008.11-8.11c0-2.898-1.525-5.433-3.812-6.868"/><path fill="#B1D7E4" d="M79.515 107.576a8.11 8.11 0 11-16.22 0 8.11 8.11 0 0116.22 0"/><path fill="#FBB21F" d="M76.946 106.292a8.109 8.109 0 01-8.109 8.11 8.11 8.11 0 110-16.22 8.11 8.11 0 018.109 8.11"/><path fill="#4686C6" d="M73.135 99.424a8.065 8.065 0 011.241 4.299 8.11 8.11 0 01-8.11 8.109 8.063 8.063 0 01-4.298-1.241 8.097 8.097 0 006.868 3.81 8.11 8.11 0 008.11-8.11c0-2.897-1.525-5.432-3.811-6.867"/><path fill="#B1D7E4" d="M79.691 127.161l46.854-52.285a52.277 52.277 0 00-8.377-11.882 9.929 9.929 0 00-1.836 1.855L71.75 124.135a50.29 50.29 0 007.941 3.026"/><path fill="#68CBE4" d="M67.296 133.72c-1.443-1.13-1.582-3.403-.316-5.172l48.277-67.46c1.43-2 3.543-3.375 5.769-3.76 3.95-.682 7.23 1.886 7.517 5.884.162 2.253-.667 4.635-2.265 6.504l-53.885 63.068c-1.413 1.655-3.655 2.066-5.097.937"/><path fill="#39687A" d="M128.543 63.212c-.143-1.999-1.035-3.641-2.385-4.697.496.387.533 1.361.007 2.835-.594 1.663-1.83 3.725-3.374 5.636L70.68 131.443c-1.366 1.691-2.855 2.692-3.384 2.278 1.442 1.129 3.684.718 5.097-.937l53.885-63.068c1.598-1.869 2.427-4.251 2.265-6.504"/><path fill="#5993AE" d="M121.026 57.328c-2.227.385-4.339 1.761-5.77 3.761l-10.045 14.037a42.446 42.446 0 004.65 4.21 42.413 42.413 0 005.204 3.503l11.213-13.123c1.598-1.869 2.427-4.25 2.265-6.504-.287-3.998-3.568-6.567-7.517-5.884"/><path fill="#B1D7E4" d="M121.938 58.042c-1.937.611-3.894 2.11-5.345 4.094L106.28 76.171a42.686 42.686 0 002.613 2.35l10.69-14.046c1.496-1.949 3.104-3.719 4.393-4.837 1.144-.992 1.892-1.35 2.182-1.123-1.022-.8-2.502-1.015-4.22-.473"/><path fill="#43778C" d="M126.165 61.35c-.594 1.663-1.83 3.726-3.374 5.637l-11.073 13.697c1.132.797 2.258 1.538 3.347 2.155l11.213-13.123c1.598-1.87 2.427-4.251 2.265-6.504-.071-1-.33-1.91-.74-2.702a6.031 6.031 0 00-1.645-1.995c.496.388.533 1.36.007 2.835"/><path fill="#FBB21F" d="M136.43 59.283c-3.422 4.372-8.574 4.734-12.298 1.82-3.724-2.915-4.61-8.004-1.188-12.376 2.598-3.32 12.042-7.37 16.433-9.126 1.02-.408 2.115.45 1.964 1.538-.649 4.685-2.312 14.824-4.91 18.144"/><path fill="#5D666C" d="M134.022 55.946c-4.258 3.563-9.372 2.845-12.408-.78a9.34 9.34 0 01-.789-1.113c-.155 2.72 1.051 5.284 3.307 7.05 3.724 2.914 8.876 2.552 12.298-1.82 2.235-2.855 3.776-10.742 4.576-15.878-1.88 4.683-4.572 10.521-6.984 12.541"/><path fill="#B1D7E4" d="M113.694 115.5a8.11 8.11 0 11-16.22 0 8.11 8.11 0 0116.22 0"/><path fill="#FBB21F" d="M111.125 114.215a8.109 8.109 0 01-8.11 8.109 8.11 8.11 0 110-16.219 8.11 8.11 0 018.11 8.11"/><path fill="#4686C6" d="M107.314 107.347a8.063 8.063 0 011.241 4.298 8.11 8.11 0 01-8.109 8.11 8.065 8.065 0 01-4.299-1.242c1.435 2.286 3.97 3.812 6.868 3.812a8.11 8.11 0 008.11-8.11 8.097 8.097 0 00-3.81-6.868"/><path fill="#B1D7E4" d="M129.512 97.17a8.109 8.109 0 01-8.109 8.109 8.11 8.11 0 110-16.219 8.11 8.11 0 018.11 8.11"/><path fill="#FBB21F" d="M126.943 95.885a8.11 8.11 0 11-16.22 0 8.11 8.11 0 0116.22 0"/><path fill="#4686C6" d="M123.132 89.017a8.067 8.067 0 011.242 4.299 8.11 8.11 0 01-8.11 8.11c-1.58 0-3.051-.46-4.298-1.242a8.098 8.098 0 006.868 3.812 8.11 8.11 0 008.11-8.111 8.098 8.098 0 00-3.813-6.868"/></g></svg>
