<svg xmlns="http://www.w3.org/2000/svg" xmlns:xlink="http://www.w3.org/1999/xlink" width="174" height="174"><defs/><defs><path id="a" d="M0 0h173.999v174H0z"/></defs><g fill="none" fill-rule="evenodd"><g><mask id="b" fill="#fff"><use xlink:href="#a"/></mask><path fill="#C2EBF5" d="M174 87c0 48.048-38.95 87-87 87S0 135.048 0 87C0 38.95 38.95 0 87 0s87 38.95 87 87" mask="url(#b)"/></g><path fill="#9EDFEF" d="M169 115.889L86.912 34 48 121.31 99.816 173c32.231-4.783 58.676-27.205 69.184-57.111"/><path fill="#FFF" d="M48 122l39-88 39 88z"/><path fill="#D7DBE0" d="M79 120.829L87 33v107z"/><path fill="#4687C7" d="M81.51 93L79 120.812 87 140v-33.792z"/><path fill="#C2EBF5" d="M48 122l33-28-2.804 28zM126 122L93 94l2.788 28z"/><path fill="#F2F2F2" d="M96 120.829L87 33v107z"/><path fill="#58B4D9" d="M93.195 93L96 120.812 87 140v-33.792z"/></g></svg>
