<svg xmlns="http://www.w3.org/2000/svg" width="24" height="24"><defs/><path fill-rule="evenodd" d="M21.947 11.495L20.34 8.287a.507.507 0 00-.521-.278l-1.582.203.69-1.89c.115-.313.1-.653-.04-.955-.141-.303-.39-.53-.706-.646l-1.732-.634a1.25 1.25 0 00-1.6.746l-.964 2.65a4.486 4.486 0 00-4.365-3.47c-2.35 0-4.256 1.81-4.456 4.106l-.855-.11a.514.514 0 00-.521.278l-1.604 3.208c-.143.287.01.63.315.717l1.63.465v4.596c0 .459.311.858.754.967l6.746 1.688c.424.106.78.047.967 0l6.752-1.688a1 1 0 00.755-.967v-4.596l1.626-.465a.51.51 0 00.318-.717zm-5.775-5.913l1.263.459-.867 2.383-1.504.19 1.108-3.032zm-12.216 5.52l.759-1.517 4.83.615-1.286 2.13-4.303-1.229zm7.31 7.216l-5.74-1.435v-3.778l3.051.87a.51.51 0 00.577-.228l2.113-3.5v8.071zm1.205-9.373l-.455.06-5.473-.696C6.649 6.749 7.934 5.51 9.52 5.51a3 3 0 012.995 2.995c0 .15-.022.297-.044.44zm6.034 7.938l-5.74 1.435v-8.072l2.112 3.504c.103.172.33.3.577.228l3.051-.87v3.775zm-2.736-4.552L14.484 10.2l4.833-.615.758 1.516-4.306 1.23z"/></svg>
