<svg xmlns="http://www.w3.org/2000/svg" width="58" height="36"><defs/><g fill="#4273B9" fill-rule="evenodd"><path d="M47.31 11.69V2.37A2.22 2.22 0 0045.087.145H6.812A2.22 2.22 0 004.59 2.37v15.667h2.251c3.106 0 5.633 2.511 5.633 5.611v5.082h12.404v3.512l-6.71.813a1.227 1.227 0 10.295 2.435l7.487-.907 7.489.907a1.228 1.228 0 10.295-2.436l-6.398-.774v-3.55h10.37V17.302c0-3.1 2.516-5.611 5.622-5.611h3.981z"/><path d="M54.524 14.81H44.017a2.767 2.767 0 00-2.773 2.766v15.02a2.775 2.775 0 002.773 2.776h10.507a2.774 2.774 0 002.772-2.776v-15.02a2.766 2.766 0 00-2.772-2.766M6.841 21.57H2.084C.934 21.57 0 22.502 0 23.65v9.221c0 1.158.934 2.089 2.084 2.089H6.84c1.16 0 2.094-.931 2.094-2.089V23.65c0-1.148-.934-2.08-2.094-2.08"/></g></svg>
