<svg xmlns="http://www.w3.org/2000/svg" xmlns:xlink="http://www.w3.org/1999/xlink" width="29" height="71"><defs/><defs><path id="a" d="M0 0h28.942v44.978H0z"/><path id="c" d="M0 0h17v19H0z"/></defs><g fill="none" fill-rule="evenodd"><g><mask id="b" fill="#fff"><use xlink:href="#a"/></mask><path fill="#4273B9" d="M14.471 31.159c-4.003 0-7.247-3.295-7.247-7.36s3.244-7.36 7.247-7.36c4.002 0 7.247 3.295 7.247 7.36s-3.245 7.36-7.247 7.36M15.856.455a2.334 2.334 0 00-2.77 0C8.123 4.097-7.83 18.34 4.693 43.653a2.36 2.36 0 002.111 1.325h15.334a2.36 2.36 0 002.111-1.325C36.772 18.34 20.819 4.097 15.856.455" mask="url(#b)"/></g><path fill="#4273B9" d="M6 50h17v-3H6z"/><g transform="translate(7 52)"><mask id="d" fill="#fff"><use xlink:href="#c"/></mask><path fill="#4273B9" d="M.652 0h13.257s6.955 7.021 0 11.253C9.553 13.903 7.994 19 7.994 19s-4.25-4.52 0-8.09c0 0 2.914-2.393 1.525-4.562-1.49-2.325-7.323.438-5.13 4.125 0 0-6.41.395-3.737-10.473" mask="url(#d)"/></g><path fill="#F8F9FB" d="M14 30h2v11a1 1 0 01-2 0V30z"/></g></svg>
