<?xml version="1.0" encoding="UTF-8"?>
<svg width="29px" height="71px" viewBox="0 0 29 71" version="1.1" xmlns="http://www.w3.org/2000/svg" xmlns:xlink="http://www.w3.org/1999/xlink">
    <title>Group 19 Copy</title>
    <defs>
        <polygon id="path-1" points="0 0 28.9419213 0 28.9419213 44.9780303 0 44.9780303"></polygon>
        <polygon id="path-3" points="0 0 17 0 17 19 0 19"></polygon>
    </defs>
    <g id="Page-1" stroke="none" stroke-width="1" fill="none" fill-rule="evenodd">
        <g id="Blue-Sky-Product-Page" transform="translate(-1063.000000, -3368.000000)">
            <g id="Group-19-Copy" transform="translate(1063.000000, 3368.000000)">
                <g id="Page-1" transform="translate(0.000000, -0.000000)">
                    <mask id="mask-2" fill="white">
                        <use xlink:href="#path-1"></use>
                    </mask>
                    <g id="Clip-2"></g>
                    <path d="M14.4709577,31.1586592 C10.4684637,31.1586592 7.22378005,27.8635557 7.22378005,23.7988662 C7.22378005,19.7341051 10.4684637,16.4390732 14.4709577,16.4390732 C18.4734516,16.4390732 21.7181353,19.7341051 21.7181353,23.7988662 C21.7181353,27.8635557 18.4734516,31.1586592 14.4709577,31.1586592 M15.85569,0.455187898 C15.0285197,-0.151738854 13.9133956,-0.151738854 13.0862253,0.455187898 C8.12299173,4.09667675 -7.83046569,18.3388185 4.69287737,43.6531099 C5.09414988,44.4642564 5.91024234,44.9780303 6.80409148,44.9780303 L14.4709577,44.9780303 L22.1377533,44.9780303 C23.031673,44.9780303 23.8477655,44.4642564 24.249038,43.6531099 C36.772381,18.3388185 20.8189236,4.09667675 15.85569,0.455187898" id="Fill-1" fill="#4273B9" mask="url(#mask-2)"></path>
                </g>
                <polygon id="Page-1" fill="#4273B9" points="6 50 23 50 23 47 6 47"></polygon>
                <g id="Page-1" transform="translate(7.000000, 52.000000)">
                    <mask id="mask-4" fill="white">
                        <use xlink:href="#path-3"></use>
                    </mask>
                    <g id="Clip-2"></g>
                    <path d="M0.651634256,0 L13.9086959,0 C13.9086959,0 20.8641301,7.02097619 13.9086959,11.2525556 C9.55269141,13.9027332 7.99445243,19 7.99445243,19 C7.99445243,19 3.74470975,14.479737 7.99445243,10.9106112 C7.99445243,10.9106112 10.9079139,8.51685552 9.51875783,6.34755074 C8.02984867,4.02253267 2.19597802,6.78569872 4.38835087,10.4725359 C4.38835087,10.4725359 -2.020343,10.8678137 0.651634256,0" id="Fill-1" fill="#4273B9" mask="url(#mask-4)"></path>
                </g>
                <path d="M14,30 L16,30 L16,41 C16,41.5522847 15.5522847,42 15,42 C14.4477153,42 14,41.5522847 14,41 L14,30 L14,30 Z" id="Rectangle-6" fill="#F8F9FB"></path>
            </g>
        </g>
    </g>
</svg>