<svg xmlns="http://www.w3.org/2000/svg" xmlns:xlink="http://www.w3.org/1999/xlink" width="53" height="48"><defs/><defs><path id="a" d="M.338.103h25.607v24.835H.338z"/><path id="c" d="M0 .266h35.179v29.168H0z"/></defs><g fill="none" fill-rule="evenodd"><g transform="translate(27.033)"><mask id="b" fill="#fff"><use xlink:href="#a"/></mask><path fill="#4273B9" d="M23.547.103H2.734C1.416.103.338 1.149.338 2.429v13.559h6.247c1.838 0 3.331 1.448 3.331 3.233v.953h1.974v1.71l-1.974.234v2.448l3.1-.365h.01l6.17.727c.052.007.103.01.154.01.625 0 1.167-.453 1.244-1.071.083-.668-.407-1.276-1.095-1.356l-5.107-.602v-1.735h9.155c1.329 0 2.398-1.037 2.398-2.327V2.43c0-1.28-1.07-2.326-2.398-2.326" mask="url(#b)"/></g><g transform="translate(0 17.87)"><mask id="d" fill="#fff"><use xlink:href="#c"/></mask><path fill="#4273B9" d="M33.02.266H2.168c-1.194 0-2.17.959-2.17 2.155v19.132C0 22.74.975 23.7 2.17 23.7h14.226v2.725l-5.36.646a1.177 1.177 0 00-1.042 1.32 1.188 1.188 0 001.186 1.044c.046 0 .095 0 .143-.01l6.15-.739 6.134.739a1.192 1.192 0 001.33-1.035 1.188 1.188 0 00-1.043-1.321l-5.11-.616V23.7H33.02a2.15 2.15 0 002.16-2.147V2.421a2.152 2.152 0 00-2.16-2.155" mask="url(#d)"/></g><path fill="#4273B9" d="M15.82 14.611c.108.141.32.141.428 0l2.246-2.934a.273.273 0 00-.213-.44h-.792V7.17h4.023v.8a.27.27 0 00.435.217l2.902-2.272a.275.275 0 000-.432l-2.902-2.272a.27.27 0 00-.435.216v.801h-5.479c-.803 0-1.455.658-1.455 1.47v5.54h-.791a.272.272 0 00-.213.439l2.246 2.934z"/></g></svg>
