<?xml version="1.0" encoding="UTF-8"?>
<svg width="137px" height="138px" viewBox="0 0 137 138" version="1.1" xmlns="http://www.w3.org/2000/svg" xmlns:xlink="http://www.w3.org/1999/xlink">
    <title>Group 24</title>
    <defs>
        <polygon id="path-1" points="0 0 136.999829 0 136.999829 138 0 138"></polygon>
        <polygon id="path-3" points="0 138 137 138 137 0 0 0"></polygon>
    </defs>
    <g id="Page-1" stroke="none" stroke-width="1" fill="none" fill-rule="evenodd">
        <g id="Help-Center" transform="translate(-732.000000, -1113.000000)">
            <g id="Group-24" transform="translate(732.000000, 1113.000000)">
                <g id="Group-3">
                    <mask id="mask-2" fill="white">
                        <use xlink:href="#path-1"></use>
                    </mask>
                    <g id="Clip-2"></g>
                    <path d="M136.999829,69 C136.999829,107.106975 106.332379,138 68.4998288,138 C30.6672788,138 -0.00017125,107.106975 -0.00017125,69 C-0.00017125,30.8913 30.6672788,0 68.4998288,0 C106.332379,0 136.999829,30.8913 136.999829,69" id="Fill-1" fill="#C2EBF5" mask="url(#mask-2)"></path>
                </g>
                <path d="M136,80.5011205 L87.0793548,30.8183546 C82.1876312,26.5653215 75.8454348,24 68.9135045,24 C54.9166981,24 43.3350736,34.4499637 41.3136157,48.0901349 C41.2778226,48.332473 41.2522561,48.580004 41.2232808,48.8223421 C41.1943054,49.0421773 41.1619212,49.2585506 41.141468,49.4801168 C41.1090837,49.8055422 41.0886305,50.1344296 41.0681773,50.461586 C41.0579507,50.6104508 41.0426108,50.7558537 41.0357931,50.9047185 C41.011931,51.3842017 41,51.8654158 41,52.348361 C41,59.9439284 43.9282164,66.8228676 48.7074475,71.915429 C49.0142455,72.2373924 49.3312701,72.5576248 49.6465902,72.8709333 L63.967239,87.4146794 C63.7473671,87.7401048 63.6348745,88.1174598 63.6348745,88.4965458 L63.6348745,114.244965 C63.6348745,115.531088 64.0831405,116.720276 64.8399089,117.649815 C64.8671798,117.67578 64.8842241,117.701745 64.9114951,117.729441 L65.4739581,118.300666 C65.4995246,118.328362 65.5267955,118.345672 65.552362,118.373368 L82.9051976,136 C109.957963,130.266974 131.108276,108.248829 136,80.5011205" id="Fill-4" fill="#9EDFEF"></path>
                <mask id="mask-4" fill="white">
                    <use xlink:href="#path-3"></use>
                </mask>
                <g id="Clip-7"></g>
                <polygon id="Fill-6" fill="#343B43" mask="url(#mask-4)" points="66 87 71 87 71 81 66 81"></polygon>
                <path d="M67.9948712,76.4022227 C55.6292588,76.4022227 45.5972646,66.3761487 45.5972646,53.9974353 C45.5972646,41.6238513 55.6292588,31.5977773 67.9948712,31.5977773 C80.3690316,31.5977773 90.404445,41.6238513 90.404445,53.9974353 C90.404445,66.3761487 80.3690316,76.4022227 67.9948712,76.4022227 M67.9982904,26 C52.5314446,26 40,38.536012 40,53.9974353 C40,69.4656978 52.5314446,82 67.9982904,82 C83.4617169,82 96,69.4656978 96,53.9974353 C96,38.536012 83.4617169,26 67.9982904,26" id="Fill-8" fill="#495057" mask="url(#mask-4)"></path>
                <path d="M74,90 L74,115.545382 C74,118.554766 71.7643261,121 68.9991929,121 C66.2372881,121 64,118.554766 64,115.545382 L64,90 L74,90 Z" id="Fill-9" fill="#4687C7" mask="url(#mask-4)"></path>
                <path d="M74,90 L64,90 L64,89.2298387 C64,88.6633065 64.1744468,88.0887097 64.5217251,87.6532258 C64.8706186,87.2177419 65.3261186,87 65.7816185,87 L72.2183815,87 C72.6738814,87 73.1293814,87.2177419 73.4782749,87.6532258 C73.8255532,88.0887097 74,88.6633065 74,89.2298387 L74,90 Z" id="Fill-10" fill="#FFFFFF" mask="url(#mask-4)"></path>
                <polygon id="Fill-11" fill="#FFFFFF" mask="url(#mask-4)" points="69.4441805 38 67.5515439 38 67 42 70 42"></polygon>
                <polygon id="Fill-12" fill="#FFFFFF" mask="url(#mask-4)" points="61.8794788 40 60 41.0497238 61.0309446 44 64 42.3378058"></polygon>
                <polygon id="Fill-13" fill="#FFFFFF" mask="url(#mask-4)" points="56.0489731 45 55 46.8712306 57.3396524 49 59 46.0301548"></polygon>
                <polygon id="Fill-14" fill="#FFFFFF" mask="url(#mask-4)" points="53 51.7388414 53 54.2630579 56 55 56 51"></polygon>
                <polygon id="Fill-15" fill="#FFFFFF" mask="url(#mask-4)" points="55 59.1189894 56.0489731 61 59 59.9714751 57.3396524 57"></polygon>
                <polygon id="Fill-16" fill="#FFFFFF" mask="url(#mask-4)" points="60 65.949032 61.8787139 67 64 64.6610036 61.033781 63"></polygon>
                <polygon id="Fill-17" fill="#FFFFFF" mask="url(#mask-4)" points="67.5529691 69 69.4441805 69 70 65 67 65"></polygon>
                <polygon id="Fill-18" fill="#FFFFFF" mask="url(#mask-4)" points="75.1239804 67 77 65.949032 75.9738989 63 73 64.6610036"></polygon>
                <polygon id="Fill-19" fill="#FFFFFF" mask="url(#mask-4)" points="80.9518548 61 82 59.1189894 79.6606156 57 78 59.9714751"></polygon>
                <polygon id="Fill-20" fill="#FFFFFF" mask="url(#mask-4)" points="84 54.2630579 84 51.7388414 81 51 81 55"></polygon>
                <polygon id="Fill-21" fill="#FFFFFF" mask="url(#mask-4)" points="82 46.8712306 80.9518548 45 78 46.0285249 79.6606156 49"></polygon>
                <polygon id="Fill-22" fill="#FFFFFF" mask="url(#mask-4)" points="77 41.0493876 75.1239804 40 73 42.3389964 75.9738989 44"></polygon>
                <path d="M67.9982624,57.9402564 C65.2701998,57.9402564 63.0616855,55.7260482 63.0616855,53.000869 C63.0616855,50.2722138 65.2701998,48.0597436 67.9982624,48.0597436 C70.7263249,48.0597436 72.9400521,50.2722138 72.9400521,53.000869 C72.9400521,55.7260482 70.7263249,57.9402564 67.9982624,57.9402564 M67.9982624,41 C61.3709818,41 56,46.3721486 56,53.000869 C56,59.6330654 61.3709818,65 67.9982624,65 C74.6324935,65 80,59.6330654 80,53.000869 C80,46.3721486 74.6324935,41 67.9982624,41" id="Fill-23" fill="#FFFFFF" mask="url(#mask-4)"></path>
            </g>
        </g>
    </g>
</svg>