<svg xmlns="http://www.w3.org/2000/svg" xmlns:xlink="http://www.w3.org/1999/xlink" width="137" height="138"><defs/><defs><path id="a" d="M0 0h137v138H0z"/><path id="c" d="M0 138h137V0H0z"/></defs><g fill="none" fill-rule="evenodd"><mask id="b" fill="#fff"><use xlink:href="#a"/></mask><path fill="#C2EBF5" d="M137 69c0 38.107-30.668 69-68.5 69C30.667 138 0 107.107 0 69 0 30.891 30.667 0 68.5 0 106.332 0 137 30.891 137 69" mask="url(#b)"/><path fill="#9EDFEF" d="M136 80.501L87.08 30.818C82.187 26.565 75.844 24 68.913 24c-13.997 0-25.579 10.45-27.6 24.09-.036.242-.062.49-.09.732-.03.22-.062.437-.083.658-.032.326-.052.654-.073.982-.01.148-.025.294-.032.443-.024.48-.036.96-.036 1.443 0 7.596 2.928 14.475 7.707 19.567.307.322.624.643.94.956l14.32 14.544c-.22.325-.332.702-.332 1.082v25.748c0 1.286.448 2.475 1.205 3.405.027.026.044.052.071.08l.563.57c.026.028.053.046.078.073L82.905 136c27.053-5.733 48.203-27.751 53.095-55.499"/><mask id="d" fill="#fff"><use xlink:href="#c"/></mask><path fill="#343B43" d="M66 87h5v-6h-5z" mask="url(#d)"/><path fill="#495057" d="M67.995 76.402c-12.366 0-22.398-10.026-22.398-22.405 0-12.373 10.032-22.4 22.398-22.4 12.374 0 22.41 10.027 22.41 22.4 0 12.38-10.036 22.405-22.41 22.405M67.998 26C52.531 26 40 38.536 40 53.997 40 69.466 52.531 82 67.998 82 83.462 82 96 69.466 96 53.997 96 38.536 83.462 26 67.998 26" mask="url(#d)"/><path fill="#4687C7" d="M74 90v25.545c0 3.01-2.236 5.455-5 5.455-2.763 0-5-2.445-5-5.455V90h10z" mask="url(#d)"/><path fill="#FFF" d="M74 90H64v-.77c0-.567.174-1.141.522-1.577.349-.435.804-.653 1.26-.653h6.436c.456 0 .911.218 1.26.653.348.436.522 1.01.522 1.577V90zM69.444 38h-1.892L67 42h3zM61.879 40L60 41.05 61.031 44 64 42.338zM56.049 45L55 46.871 57.34 49 59 46.03zM53 51.739v2.524L56 55v-4zM55 59.119L56.049 61 59 59.971 57.34 57zM60 65.949L61.879 67 64 64.661 61.034 63zM67.553 69h1.891L70 65h-3zM75.124 67L77 65.949 75.974 63 73 64.661zM80.952 61L82 59.119 79.661 57 78 59.971zM84 54.263v-2.524L81 51v4zM82 46.871L80.952 45 78 46.029 79.661 49zM77 41.049L75.124 40 73 42.339 75.974 44z" mask="url(#d)"/><path fill="#FFF" d="M67.998 57.94A4.939 4.939 0 0163.062 53a4.938 4.938 0 119.878 0 4.943 4.943 0 01-4.942 4.94m0-16.94C61.371 41 56 46.372 56 53c0 6.633 5.371 12 11.998 12C74.632 65 80 59.633 80 53c0-6.628-5.368-12-12.002-12" mask="url(#d)"/></g></svg>
