<svg xmlns="http://www.w3.org/2000/svg" xmlns:xlink="http://www.w3.org/1999/xlink" width="49" height="42"><defs/><defs><path id="a" d="M0 0h49v42H0z"/></defs><g fill="none" fill-rule="evenodd"><mask id="b" fill="#fff"><use xlink:href="#a"/></mask><path fill="#4273B9" d="M31.684 19.398a1.412 1.412 0 01-1.4 1.283h-9.03c-.718 0-1.312-.547-1.412-1.27a149.46 149.46 0 01-.297-3.216c-.161-1.853-.346-3.961-.47-4.647-.185-1.017-.953-1.13-1.29-1.13H15.31a.845.845 0 01-.841-.865c0-.482.37-.863.84-.863h2.478c1.152 0 2.615.66 2.948 2.553.026.127.05.305.075.507h10.144c.409 0 .794.166 1.066.484.26.304.383.71.347 1.13l-.682 6.034zm-2.502 5.538c-.78 0-1.411-.648-1.411-1.437 0-.799.631-1.447 1.41-1.447.77 0 1.4.648 1.4 1.447 0 .789-.63 1.437-1.4 1.437zm-7.792-1.437c0-.799.62-1.447 1.4-1.447.78 0 1.412.648 1.412 1.447 0 .789-.632 1.437-1.412 1.437-.78 0-1.4-.648-1.4-1.437zM2.81 0C1.263 0 0 1.297 0 2.885v27.932c0 1.588 1.262 2.87 2.81 2.87h20.134v3.847l-7.409.922c-.951.118-1.627 1.005-1.512 1.98.106.9.856 1.564 1.72 1.564.07 0 .139-.005.21-.014l8.546-1.063 8.548 1.063c.071.009.142.014.21.014.866 0 1.614-.663 1.72-1.565.115-.974-.56-1.86-1.512-1.979l-7.052-.878v-3.89h19.775c1.549 0 2.812-1.283 2.812-2.871V2.885C49 1.297 47.737 0 46.188 0H2.811z" mask="url(#b)"/></g></svg>
