<svg xmlns="http://www.w3.org/2000/svg" xmlns:xlink="http://www.w3.org/1999/xlink" width="38" height="41"><defs/><defs><path id="a" d="M0 0h38v41H0z"/></defs><g fill="none" fill-rule="evenodd"><mask id="b" fill="#fff"><use xlink:href="#a"/></mask><path fill="#4273B9" d="M30.737 35.49c-1.173 0-2.132-1.032-2.132-2.3 0-1.26.96-2.29 2.132-2.29 1.179 0 2.138 1.03 2.138 2.29 0 1.268-.959 2.3-2.138 2.3M7.257 23.395c-1.179 0-2.131-1.03-2.131-2.299 0-1.266.952-2.292 2.13-2.292 1.18 0 2.139 1.026 2.139 2.292 0 1.268-.96 2.299-2.139 2.299m23.48-17.886c1.18 0 2.14 1.032 2.14 2.3 0 1.26-.96 2.291-2.14 2.291-1.172 0-2.13-1.031-2.13-2.292 0-1.267.958-2.299 2.13-2.299M25.55 27.742l-11.063-5.894a8.246 8.246 0 00-.146-2.453l11.221-6.12c1.317 1.442 3.154 2.336 5.176 2.336C34.74 15.61 38 12.113 38 7.808S34.741 0 30.737 0c-4.003 0-7.256 3.503-7.256 7.808 0 .137.005.28.01.416l-11.993 6.548a6.851 6.851 0 00-4.242-1.479C3.252 13.293 0 16.791 0 21.096c0 4.306 3.252 7.809 7.256 7.809 1.92 0 3.664-.802 4.958-2.112l11.278 6.001a9.23 9.23 0 00-.01.397c0 4.306 3.252 7.809 7.255 7.809C34.74 41 38 37.497 38 33.19c0-4.304-3.259-7.802-7.263-7.802-2.033 0-3.871.902-5.188 2.354z" mask="url(#b)"/></g></svg>
