<svg xmlns="http://www.w3.org/2000/svg" xmlns:xlink="http://www.w3.org/1999/xlink" width="100" height="81"><defs/><defs><path id="a" d="M0 .715h93.722V59H0z"/><path id="c" d="M0 .909h93.722v16.669H0z"/><path id="e" d="M0 76h94V1H0z"/></defs><g fill="none" fill-rule="evenodd"><rect width="100" height="81" fill="#E6E6E6" rx="1"/><g transform="translate(3 2)"><g transform="translate(0 17)"><mask id="b" fill="#fff"><use xlink:href="#a"/></mask><path fill="#FFF" d="M93.722 55.684A3.31 3.31 0 0190.419 59H3.309a3.314 3.314 0 01-3.31-3.313V.715h93.723v54.969z" mask="url(#b)"/></g><mask id="d" fill="#fff"><use xlink:href="#c"/></mask><path fill="#F2F2F2" d="M93.722 17.578H-.001V4.177C0 2.374 1.478.909 3.304.909H90.415c1.826 0 3.307 1.46 3.307 3.262v13.407z" mask="url(#d)"/><mask id="f" fill="#fff"><use xlink:href="#e"/></mask><path fill="#D7DBE0" d="M47 36h41v-3H47z" mask="url(#f)"/><path fill="#4687C7" d="M6 45h36V25H6z" mask="url(#f)"/><path fill="#D7DBE0" d="M47 42h26v-3H47zM47 30h41v-3H47zM6 62h41v-3H6z" mask="url(#f)"/><path fill="#F9B11D" d="M52 71h36V51H52z" mask="url(#f)"/><path fill="#D7DBE0" d="M6 68h26v-3H6zM6 56h41v-3H6z" mask="url(#f)"/><path fill="#EA6552" d="M8 7a3 3 0 110 6 3 3 0 010-6" mask="url(#f)"/><path fill="#F9B11D" d="M17 7a3 3 0 110 6 3 3 0 010-6" mask="url(#f)"/><path fill="#70C9E9" d="M25 7a3 3 0 110 6 3 3 0 010-6" mask="url(#f)"/></g></g></svg>
