<svg xmlns="http://www.w3.org/2000/svg" width="32" height="32" viewBox="0 0 20 20"><defs/><path fill="#545454" fill-rule="nonzero" d="M10 0C4.477 0 0 4.477 0 10s4.477 10 10 10 10-4.477 10-10S15.523 0 10 0zm0 1.935A8.06 8.06 0 0118.065 10 8.06 8.06 0 0110 18.065 8.06 8.06 0 011.935 10 8.06 8.06 0 0110 1.935zm5.653 5.253l-.908-.916a.484.484 0 00-.685-.003l-5.7 5.654-2.41-2.43a.484.484 0 00-.685-.003l-.916.909a.484.484 0 00-.002.684l3.66 3.69c.188.19.495.191.684.003l6.96-6.903a.484.484 0 00.002-.685z"/></svg>
