<svg xmlns="http://www.w3.org/2000/svg" xmlns:xlink="http://www.w3.org/1999/xlink" width="68" height="60"><defs/><defs><path id="a" d="M0 0h67.997v59.997H0z"/></defs><g fill="none" fill-rule="evenodd" style="mix-blend-mode:multiply"><path fill="#4273B9" d="M1 3h65v55H1z"/><g><mask id="b" fill="#fff"><use xlink:href="#a"/></mask><path fill="#FFF" d="M62.186 22.912l-2.073.877a.802.802 0 01-1.053-.43L51.788 6.007a.81.81 0 01.428-1.057l2.074-.878a.802.802 0 011.052.431l7.273 17.351a.809.809 0 01-.429 1.058zm-7.573.336l-12.25 5.184c-1.552-3.702-5.797-5.439-9.48-3.88-3.685 1.56-5.413 5.824-3.862 9.526l-.914.387a2.614 2.614 0 01-3.43-1.404l-3.9-9.305a2.636 2.636 0 011.397-3.446L48.681 9.094a2.614 2.614 0 013.43 1.403l3.9 9.305a2.636 2.636 0 01-1.398 3.446zm-9.011 31.5a1.337 1.337 0 01-1.746-.739l-7.168-17.678c-.59.129-1.187.15-1.765.07l-7.14 17.608a1.337 1.337 0 01-1.745.739 1.348 1.348 0 01-.735-1.754l7.15-17.633a5.128 5.128 0 01-1.578-2.068c-1.1-2.624.126-5.647 2.737-6.753a5.122 5.122 0 016.721 2.75 5.175 5.175 0 01-1.256 5.799l7.26 17.905a1.348 1.348 0 01-.735 1.754zM21.738 32.33l-8.963 3.793a.893.893 0 01-1.171-.479l-1.857-4.428a.9.9 0 01.477-1.177l8.964-3.794a.893.893 0 011.171.48l1.857 4.428a.9.9 0 01-.478 1.177zm-11.083 6.871l-1.605.679a.771.771 0 01-1.011-.414l-3.67-8.755a.777.777 0 01.412-1.017l1.604-.678a.771.771 0 011.012.414l3.67 8.755a.777.777 0 01-.412 1.016zM0 59.997h67.997V0H0v59.997z" mask="url(#b)"/></g></g></svg>
