<svg xmlns="http://www.w3.org/2000/svg" xmlns:xlink="http://www.w3.org/1999/xlink" width="185" height="186"><defs/><defs><path id="a" d="M0 92.5c0 51.086 41.414 92.501 92.501 92.501 51.085 0 92.499-41.415 92.499-92.501C185 41.415 143.586 0 92.501 0 41.414 0 0 41.415 0 92.5z"/></defs><g fill="none" fill-rule="evenodd"><path fill="#49C0B7" d="M92.5 185c51.086 0 92.5-41.414 92.5-92.5S143.586 0 92.5 0 0 41.414 0 92.5 41.414 185 92.5 185"/><g><mask id="b" fill="#fff"><use xlink:href="#a"/></mask><path fill="#4686C6" d="M-5 190h195V-5H-5z" mask="url(#b)"/></g><path fill="#004B75" d="M107.771 126.684a1.897 1.897 0 01-1.884 1.889 1.888 1.888 0 01-1.887-1.889V87.887c0-1.044.838-1.887 1.887-1.887a1.89 1.89 0 011.884 1.887v38.797z"/><path fill="#FBB21F" d="M121.306 61.795c-2.613-23.221-14.702-48.269-14.946-48.771V13l-.007.019-.01-.019v.024c-.234.502-12.33 25.55-14.947 48.771-3.276 29.084 14.83 28.372 14.957 28.357.124.015 18.23.727 14.953-28.357"/><path fill="#DCE3E9" d="M121.041 61.795c-2.613-23.221-14.702-48.269-14.946-48.771V13l-.007.019-.011-.019v.024c-.011.017-.037.084-.077.166v76.962h.088c.124.015 18.229.727 14.953-28.357"/><path fill="#004B75" d="M85.455 127.383c0 .957-.77 1.73-1.723 1.73a1.725 1.725 0 01-1.732-1.73v-35.65c0-.963.768-1.733 1.732-1.733.953 0 1.723.77 1.723 1.733v35.65z"/><path fill="#FBB21F" d="M96.839 67.823C94.432 46.5 83.333 23.483 83.108 23.021V23l-.006.008-.007-.008v.021c-.226.462-11.33 23.479-13.731 44.802-3.008 26.729 13.622 26.07 13.738 26.057.117.013 16.743.672 13.737-26.057"/><path fill="#DCE3E9" d="M96.813 67.823C94.406 46.5 83.307 23.483 83.082 23.021V23l-.006.008-.007-.008v.021c-.01.013-.036.077-.069.154V93.88h.069c.124.013 16.75.672 13.744-26.057"/><path fill="#7AAB4C" d="M75.203 80.968a.979.979 0 01-.979.984h-2.252a.974.974 0 01-.972-.984.97.97 0 01.972-.968h2.252c.542 0 .979.437.979.968"/><path fill="#004B75" d="M145.51 131.062c0 .689-.566 1.257-1.254 1.257a1.258 1.258 0 01-1.256-1.257v-25.808a1.256 1.256 0 012.51 0v25.808z"/><path fill="#FBB21F" d="M154.158 87.459c-1.736-15.446-9.779-32.109-9.942-32.444V55l-.003.013-.007-.013v.015c-.156.335-8.203 16.998-9.942 32.444-2.182 19.347 9.864 18.873 9.95 18.863.081.01 12.124.484 9.944-18.863"/><path fill="#DCE3E9" d="M154.004 87.459c-1.736-15.446-9.779-32.109-9.942-32.444V55l-.003.013-.007-.013v.015c-.008.012-.024.057-.052.111v51.196h.059c.082.01 12.125.484 9.945-18.863"/><path fill="#004B75" d="M112.957 107.224a2.928 2.928 0 01-3.829 1.564l-.337-.144a2.923 2.923 0 01-1.563-3.826l4.21-10.026a2.92 2.92 0 013.826-1.563l.338.141a2.922 2.922 0 011.562 3.828l-4.207 10.026zM56.664 104.816l.002-7.988c0-1.449-.813-2.695-2-3.347l.002-5.65 4.375.001 1.198-3.83L52.753 84a1.912 1.912 0 00-1.917 1.916l-.002 7.655a3.825 3.825 0 00-1.831 3.256L49 104.814l7.664.002z"/><path fill="#DCE3E9" d="M49.001 103L49 104.616l7.664.002.001-1.616z"/><path fill="#68CBE4" d="M88.119 104.448l11.807-27.683 21.182.005 3.924 27.686-36.913-.008zm41.34-1.132L124.135 73l-26.319.325-14.502 30.815-26.484-.005v-.011l-7.663-.002v.01l-2.834-.001s-1.998.664-2.166 5.331c-.166 4.666-.167 12.66-.167 12.66l.082 3.022A17.333 17.333 0 0154 122.045c7.822.001 14.441 5.15 16.649 12.242l20.465.006a23.797 23.797 0 01-.089-1.987c.002-13.26 10.754-24.007 24.015-24.004 9.056.003 16.935 5.02 21.024 12.426-.319-5.191-1.976-11.324-6.605-17.412z"/><path fill="#DCE3E9" d="M70 133c.155.395.3.791.425 1.194l20.466.006a26.159 26.159 0 01-.07-1.195L70 133z"/><path fill="#FFF" d="M69.336 133.672l-6.82 3.165-15.472-5.853L44 124.526s4.996-4.138 14.253-1.822c9.259 2.317 10.354 8.286 11.083 10.968M91.597 133.046l3.897.001 27.168.006 12.492-12.486s-4.326-10.417-12.854-12.002c-8.525-1.586-22.291-.248-27.776 9.374-5.488 9.625-2.927 15.107-2.927 15.107"/><path fill="#DCE3E9" d="M65.138 111.725l-17.777-.004a1.36 1.36 0 110-2.721l17.777.003a1.361 1.361 0 010 2.722M76.426 116.811c-.422.238-.895.192-1.063-.1l-4.305-7.6c-.166-.292.038-.721.458-.957.418-.239.89-.195 1.056.099l4.309 7.601c.164.293-.04.722-.455.957M81.423 116.814c-.418.233-.89.19-1.06-.104l-4.305-7.6c-.166-.293.039-.722.456-.959.418-.237.893-.19 1.057.101l4.309 7.6c.167.294-.04.723-.457.962M86.421 116.814c-.415.234-.89.19-1.056-.104l-4.308-7.6c-.165-.293.037-.722.458-.958.418-.237.891-.191 1.057.1l4.308 7.6c.165.294-.039.723-.459.962"/><path fill="#ECECEC" d="M69.115 134.464c-1.67-6.795-6.511-9.431-8.578-10.553l-.141-.077c-9.328-4.473-16.673 1.56-16.98 1.819L42 123.98c.349-.3 8.703-7.22 19.395-2.1l.193.104c2.118 1.152 7.755 4.22 9.657 11.958l-2.13.52zM89.282 135.393c-.036-.17-3.398-17.165 14.078-26.712l.067-.032c8.311-4.003 17.316-3.454 25.344 1.543l.351.246c2.566 1.81 4.42 3.114 8.543 10.174l-2.524 1.475c-3.804-6.509-5.356-7.605-7.704-9.26l-.247-.174c-7.23-4.488-14.997-4.967-22.464-1.386-15.483 8.48-12.709 22.913-12.58 23.523l-2.864.603z"/><path fill="#004B75" d="M66.89 146.878s1.88-2.295 1.628-4.67l-2.505-2.141c.036-.607.026-1.208-.032-1.803l2.563-2.231s-.218-2.962-2.042-4.503l-3.306.177c-.35-.41-.731-.798-1.14-1.155l.244-3.527s-2.247-1.936-4.63-1.737l-2.122 2.367a11.647 11.647 0 00-2.433-.02L50.713 125s-2.951.293-4.452 2.15l.255 3.303a12.05 12.05 0 00-1.38 1.405l-3.484-.156s-1.883 2.294-1.628 4.671l2.444 2.091c-.057.7-.047 1.405.023 2.094l-2.442 2.122s.222 2.958 2.045 4.504l3.136-.171c.465.544.977 1.052 1.54 1.511l-.238 3.373s2.25 1.935 4.634 1.738l2.228-2.481a11.4 11.4 0 002.179-.05l2.257 2.474s2.953-.289 4.452-2.151l-.248-3.188c.52-.457 1.003-.966 1.44-1.52l3.417.159z"/><path fill="#ECECEC" d="M51.348 145.67a7.11 7.11 0 01-3.784-9.321 7.118 7.118 0 019.326-3.786 7.115 7.115 0 01-5.542 13.107"/><path fill="#939597" d="M55.299 140.387a1.718 1.718 0 01-3.164-1.337 1.72 1.72 0 012.252-.915 1.72 1.72 0 01.912 2.252"/><path fill="#004B75" d="M133.509 143.74s2.841-3.335 2.53-6.85l-3.637-3.23c.068-.891.069-1.782.002-2.662l3.848-3.226s-.244-4.371-2.895-6.704l-4.886.176a17.826 17.826 0 00-1.649-1.742l.457-5.196s-3.265-2.92-6.787-2.695l-3.202 3.442a17.151 17.151 0 00-3.591-.101l-3.47-3.952s-4.367.347-6.636 3.054l.291 4.877a17.506 17.506 0 00-2.077 2.045l-5.141-.333s-2.838 3.333-2.528 6.853l3.547 3.149a17.423 17.423 0 00-.027 3.097L94 136.806s.242 4.374 2.894 6.705l4.638-.167c.666.819 1.41 1.58 2.231 2.274l-.443 4.974s3.265 2.921 6.789 2.691l3.354-3.602c1.078.098 2.159.093 3.224-.012l3.262 3.715s4.366-.347 6.633-3.054l-.28-4.711a17.32 17.32 0 002.168-2.205l5.039.326z"/><path fill="#ECECEC" d="M110.24 142.109c-5.302-2.358-7.689-8.566-5.33-13.868 2.356-5.302 8.566-7.69 13.868-5.332 5.3 2.357 7.69 8.568 5.33 13.871-2.357 5.301-8.568 7.683-13.868 5.329"/><path fill="#939597" d="M116.855 133.566a2.538 2.538 0 01-4.636-2.06 2.538 2.538 0 014.636 2.06"/><path fill="#ECECEC" d="M91.758 60.93a5.93 5.93 0 01-5.929 5.927l-7.905-.003A5.926 5.926 0 0172 60.925 5.925 5.925 0 0177.927 55l7.906.002a5.928 5.928 0 015.925 5.928M76.067 78.715a4.71 4.71 0 01-4.71 4.71l-3.649-.001A4.712 4.712 0 0167.711 74l3.648.002a4.71 4.71 0 014.708 4.713"/></g></svg>
