<svg xmlns="http://www.w3.org/2000/svg" width="24" height="24"><defs/><path fill-rule="evenodd" d="M14.5 7h-5A2.502 2.502 0 007 9.5v.625a4.378 4.378 0 004.375 4.375h1.25A4.378 4.378 0 0017 10.125V9.5C17 8.121 15.879 7 14.5 7zm1.25 3.125a3.13 3.13 0 01-3.125 3.125h-1.25a3.13 3.13 0 01-3.125-3.125V9.5c0-.688.559-1.25 1.25-1.25h5c.691 0 1.25.562 1.25 1.25v.625zm-.625 7.5h-6.25C7.84 17.625 7 18.465 7 19.5v2.188c0 .171.14.312.312.312h.625c.172 0 .313-.14.313-.313V19.5c0-.344.281-.625.625-.625h6.25c.344 0 .625.281.625.625v2.188c0 .171.14.312.313.312h.625c.171 0 .312-.14.312-.313V19.5c0-1.035-.84-1.875-1.875-1.875zm-5 1.875a.627.627 0 00-.625.625v1.563c0 .171.14.312.312.312h.626c.171 0 .312-.14.312-.313v-1.562a.627.627 0 00-.625-.625zm7.156-4.676A7.519 7.519 0 0019.066 12h.434a.627.627 0 00.625-.625v-3.75A.627.627 0 0019.5 7h-.438A7.49 7.49 0 0012 2a7.49 7.49 0 00-7.063 5H4.5a.627.627 0 00-.625.625v3.75c0 .344.281.625.625.625h.437a7.47 7.47 0 001.786 2.824A5.238 5.238 0 003.25 19.75v1.938c0 .171.14.312.312.312h.625c.172 0 .313-.14.313-.313V19.75c0-2.016 1.504-3.672 3.45-3.945A7.448 7.448 0 0012 17a7.448 7.448 0 004.05-1.195c1.946.27 3.45 1.925 3.45 3.945v1.938c0 .171.14.312.313.312h.625c.171 0 .312-.14.312-.313V19.75a5.24 5.24 0 00-3.469-4.926zM12 15.75A6.258 6.258 0 015.75 9.5 6.258 6.258 0 0112 3.25a6.258 6.258 0 016.25 6.25A6.258 6.258 0 0112 15.75z"/></svg>
