<svg xmlns="http://www.w3.org/2000/svg" viewBox="0 0 24 24"><defs/><path fill-rule="evenodd" d="M10.637 10.219l.229 3.889c.013.22.195.392.416.392h1.436c.22 0 .403-.172.416-.392l.229-3.89a.417.417 0 00-.416-.44h-1.894c-.24 0-.43.202-.416.44zm2.821 6.225a1.458 1.458 0 11-2.916 0 1.458 1.458 0 012.916 0zm-.014-12.5c-.64-1.11-2.246-1.112-2.888 0L2.225 18.389c-.64 1.11.161 2.5 1.444 2.5H20.33c1.28 0 2.085-1.389 1.444-2.5L13.444 3.944zM3.847 18.91L11.82 5.09a.208.208 0 01.36 0l7.973 13.82a.208.208 0 01-.18.312H4.027a.208.208 0 01-.18-.312z"/></svg>
