<?xml version="1.0" encoding="UTF-8"?>
<svg width="555px" height="421px" viewBox="0 0 555 421" version="1.1" xmlns="http://www.w3.org/2000/svg" xmlns:xlink="http://www.w3.org/1999/xlink">
    <!-- Generator: Sketch 57.1 (83088) - https://sketch.com -->
    <title>Cloning</title>
    <desc>Created with Sketch.</desc>
    <g id="Desktop" stroke="none" stroke-width="1" fill="none" fill-rule="evenodd">
        <g id="Bluerock-plugin-(Staging)-Loading-Staging-Site" transform="translate(-438.000000, -242.000000)">
            <g id="Cloning" transform="translate(438.000000, 242.000000)">
                <path d="M427.395,174.3075 C425.73,164.1375 442.395,160.155 446.7225,166.35 C445.335,156.6375 453.18,143.9025 466.6275,142.8075 C492.0225,140.43 484.6275,159.3075 496.8675,159.57 C508.0125,159.36 499.7025,143.2425 525.06,151.32 C531.135,153.1275 534.21,159.9075 538.5,168.2925 C547.185,158.7375 552.5175,164.9625 554.1075,174.2925 C512.08219,180.274934 469.421725,180.279984 427.395,174.3075 L427.395,174.3075 Z" id="Path" fill="#67CCE6" fill-rule="nonzero"></path>
                <path d="M449.5275,296.76 C448.5375,304.485 452.7525,313.9725 468.075,315.855 C485.6325,316.155 492.135,305.1525 491.61,296.76 L449.5275,296.76 Z" id="Path" fill="#045388" fill-rule="nonzero"></path>
                <polygon id="Path" fill="#FBAC1D" fill-rule="nonzero" points="490.7775 292.8375 488.5275 147.225 450.2475 147.2175 450.2475 292.8375"></polygon>
                <polygon id="Path" fill="#FCD5CA" fill-rule="nonzero" points="487.4175 147.45 470.5125 109.74 449.8575 147.45"></polygon>
                <polygon id="Path" fill="#045388" fill-rule="nonzero" style="mix-blend-mode: multiply;" points="476.94 124.08 470.5125 109.74 462.66 124.08"></polygon>
                <rect id="Rectangle" fill="#FFFFFF" fill-rule="nonzero" x="479.1375" y="147.705" width="1.5375" height="145.1325"></rect>
                <rect id="Rectangle" fill="#FFFFFF" fill-rule="nonzero" x="460.35" y="147.705" width="1.5375" height="145.1325"></rect>
                <rect id="Rectangle" fill="#FBAC1D" fill-rule="nonzero" x="448.59" y="291.345" width="43.8525" height="5.76"></rect>
                <path d="M74.9325,230.0475 L64.605,252.375 L90.555,280.5375 L113.715,272.0475 C122.147007,277.423399 131.273886,281.622217 140.8425,284.5275 C143.6675,292.2625 146.495,299.975 149.325,307.665 L187.575,309.225 C191.025,301.765 194.5,294.3025 198,286.8375 C207.77296,284.679385 217.208684,281.207846 226.05,276.5175 C233.48,279.9575 240.9225,283.4 248.3775,286.845 L276.5325,260.9025 C273.69,253.1775 270.8775,245.46 268.02,237.75 C273.392773,229.310939 277.591344,220.179551 280.5,210.6075 C288.205,207.7875 295.91,204.9575 303.615,202.1175 L305.1675,163.8675 C297.6975,160.3975 290.235,156.9375 282.78,153.4875 C280.622798,143.711883 277.151231,134.27356 272.46,125.43 C275.925,118.005 279.345,110.5575 282.8025,103.11 L256.845,74.94 L233.7,83.445 C225.265626,78.0727426 216.142783,73.8670511 206.58,70.9425 L198.0825,47.8425 L159.8325,46.275 C156.3725,53.73 152.9125,61.1975 149.4525,68.6775 C139.677887,70.8226632 130.241106,74.2895449 121.4025,78.9825 L99.075,68.64 L70.92,94.605 C73.755,102.31 76.585,110.025 79.41,117.75 C74.0367718,126.192883 69.8287203,135.322942 66.9,144.8925 L43.785,153.375 L42.225,191.625 L64.635,201.9975 C66.7840378,211.769915 70.2480865,221.205853 74.9325,230.0475 Z M123.2925,224.25 C104.496509,203.858207 99.8355598,174.151654 111.483173,148.983269 C123.130786,123.814884 148.792998,108.14151 176.502859,109.272043 C204.212719,110.402576 228.512851,128.114362 238.071478,154.147939 C247.630106,180.181516 240.564684,209.409646 220.17,228.2025 C206.800278,240.527555 189.081342,247.035534 170.912496,246.294264 C152.74365,245.552994 135.61376,237.62322 123.2925,224.25 Z" id="Shape" fill="#67CCE6" fill-rule="nonzero"></path>
                <path d="M173.7,258.75 C128.964935,258.75 92.7,222.485065 92.7,177.75 C92.7,133.014935 128.964935,96.75 173.7,96.75 C218.435065,96.75 254.7,133.014935 254.7,177.75 C254.66278,222.469639 218.419639,258.71278 173.7,258.75 L173.7,258.75 Z M173.7,98.3325 C141.567472,98.3325013 112.599343,117.689871 100.30486,147.377327 C88.0103767,177.064783 94.8110508,211.235108 117.535397,233.953018 C140.259743,256.670928 174.431994,263.461923 204.115966,251.15903 C233.799938,238.856138 253.149101,209.882527 253.140003,177.75 C253.106911,133.890213 217.559787,98.3430893 173.7,98.31 L173.7,98.3325 Z" id="Shape" fill="#FFFFFF" fill-rule="nonzero"></path>
                <path d="M73.32,87.915 C73.7625,84.345 69.375,82.95 68.235,85.125 C68.6025,81.72 66.5325,77.2575 62.985,76.875 C56.3025,76.05 58.2375,82.6575 55.0275,82.755 C52.0875,82.68 54.2775,77.0325 47.6025,79.8675 C46.005,80.4975 45.195,82.8675 44.0625,85.815 C41.8125,82.4625 37.995,87.8025 40.545,88.695 C51.615,90.7875 74.1225,90.48 73.32,87.915 Z" id="Path" fill="#67CCE6" fill-rule="nonzero"></path>
                <path d="M30.315,282.6075 C30.315,283.02 32.67,288.3 32.7,288.72 L44.25,288.72 C44.205,288.3 45.99,283.02 45.945,282.6 L30.315,282.6075 Z" id="Path" fill="#045388"></path>
                <path d="M23.4225,246.4725 C24.585,249.39 25.6725,263.82 26.7075,266.775 L51.225,266.775 C52.3575,263.775 53.5425,249.3675 54.81,246.45 C57.6,242.4225 70.44,227.475 74.7975,213.45 C80.6625,195.8775 64.2375,171.0675 38.7975,171.03 C13.425,170.805 -4.47,193.8975 1.38,211.53 C5.7525,226.17 18,239.9175 23.4225,246.4725 Z" id="Path" fill="#FFFFFF" opacity="0.15"></path>
                <path d="M43.4325,264.885 C41.565,254.67 42.4725,233.1825 46.1925,217.7175 C45.6897874,217.769432 45.1818426,217.731336 44.6925,217.605 C42.3675,216.9825 40.665,214.3425 39.4425,211.3275 C37.695,215.28 35.5575,217.455 33.0525,217.8075 C32.059499,217.937755 31.0497278,217.800529 30.1275,217.41 C32.3325,232.1925 34.71,253.6575 34.11,264.7875 L32.61,264.705 C33.1875,254.16 30.84,231.9975 28.485,216.4875 C25.9875,214.7625 23.7975,211.6425 22.29,208.5675 C20.6925,205.32 19.35,201.0225 20.79,199.5675 L20.8875,199.485 C22.1625,198.6075 23.355,198.39 24.435,198.8325 C27.0525,199.9125 27.93,204.5475 28.4025,207.0375 L28.4025,207.1425 C28.8375,209.3925 29.325,212.295 29.8275,215.5725 C30.7185301,216.141111 31.7764728,216.389728 32.8275,216.2775 C34.5375,216.0375 36.705,214.4475 38.67,209.1825 C38.1391079,207.50595 37.7034129,205.80073 37.365,204.075 C36.3825,199.17 37.7175,195.3525 39.54,194.1075 C40.1659557,193.613459 41.032755,193.559658 41.715,193.9725 C42.8475,194.7225 43.215,196.71 42.675,199.605 C42.1464349,202.880085 41.3487326,206.106014 40.29,209.25 C41.625,213.2025 43.29,215.6925 45.075,216.165 C45.5699996,216.2888 46.089867,216.270604 46.575,216.1125 C47.4928719,212.205435 48.9253864,208.437518 50.835,204.9075 L51.12,204.42 C52.065,202.7775 52.9575,201.225 54.2025,201.3525 C55.2675,201.45 55.7025,202.7325 55.8525,203.1525 C57.06,206.6625 52.305,213.1275 50.9625,214.665 C50.1105049,215.701382 49.0695946,216.566686 47.895,217.215 C44.145,232.3875 43.035,254.4 44.895,264.6375 L43.4325,264.885 Z M54.0675,202.86 C53.4235938,203.526018 52.8826409,204.284363 52.4625,205.11 L52.17,205.6125 C50.5624242,208.554388 49.330302,211.686347 48.5025,214.935 C48.9806875,214.524473 49.4269734,214.078187 49.8375,213.6 C51.9075,211.2225 55.215,205.845 54.4425,203.58 C54.3621882,203.319248 54.2351204,203.075278 54.0675,202.86 Z M21.8175,200.715 C21.4275,201.2325 21.69,203.97 23.625,207.9 C24.7522272,210.262816 26.2740282,212.416164 28.125,214.2675 C27.7275,211.7475 27.33,209.445 26.955,207.45 L26.955,207.3375 C26.595,205.455 25.755,201.03 23.9025,200.265 C23.181265,200.043128 22.3965286,200.213723 21.8325,200.715 L21.8175,200.715 Z M40.7775,195.24 C40.6411355,195.254769 40.5114321,195.30665 40.4025,195.39 C39.225,196.185 37.965,199.3275 38.8575,203.7975 C39.06,204.8025 39.2775,205.755 39.5175,206.6625 C40.205768,204.259299 40.7640769,201.820766 41.19,199.3575 C41.6775,196.5975 41.19,195.48 40.8975,195.27 C40.8656208,195.251233 40.8294817,195.240908 40.7925,195.24 L40.7775,195.24 Z" id="Shape" fill="#FFFFFF" fill-rule="nonzero"></path>
                <path d="M22.5,263.4975 L25.5,266.73 C22.7175,266.4675 22.5825,270.9 26.0775,271.11 C22.5075,270.975 22.365,275.5425 25.8525,275.61 C22.365,275.4225 22.2225,280.5675 25.5075,280.86 L23.31,283.245 C27.81,285.36 52.77,285.225 53.31,283.02 L51.3225,280.6575 C54.825,280.35 53.895,275.715 50.9775,275.925 C54.8925,275.4975 53.4,270.855 50.9775,271.17 C54.27,270.5625 53.265,267.21 51.39,266.7975 L53.79,263.52 L22.5,263.4975 Z" id="Path" fill="#4687C7"></path>
                <path d="M265.44,2.565 C265.275,2.565 265.44,2.985 265.44,2.985 C258.0675,-0.015 207.2925,-1.995 205.6725,9.225 C203.0625,27.3375 200.4225,39.975 214.17,45.3825 C223.005,48.8775 242.415,47.955 254.9175,46.7925 L264.9375,54.24 L264.6975,45.66 C265.23,45.585 265.65,45.5175 265.935,45.465 C279.5925,42.8625 287.3325,2.25 265.44,2.565 Z" id="Path" fill="#FFFFFF" fill-rule="nonzero" opacity="0.15"></path>
                <path d="M177.06,317.6475 C170.89236,317.6475 165.8925,312.64764 165.8925,306.48 L165.8925,163.725 C165.8925,160.763884 167.069311,157.924157 169.16384,155.831035 C171.258368,153.737914 174.098885,152.56301 177.06,152.564997 L415.7175,152.564997 C421.878069,152.56914 426.87,157.56443 426.87,163.725 L426.87,306.48 C426.87,312.641787 421.879281,317.639224 415.7175,317.6475 L177.06,317.6475 Z" id="Path" fill="#B4C6D0" fill-rule="nonzero"></path>
                <path d="M164.819979,306.48 L164.819979,163.725 C164.832404,156.972608 170.307598,151.504124 177.06,151.5 L415.7175,151.5 C422.46868,151.508272 427.938368,156.981317 427.942537,163.7325 L427.942537,306.48 C427.950465,309.728847 426.666474,312.847576 424.373409,315.149081 C422.080345,317.450587 418.966354,318.746028 415.7175,318.75 L177.06,318.75 C173.809159,318.748015 170.692472,317.45369 168.396595,315.152186 C166.100718,312.850682 164.814027,309.730836 164.819979,306.48 Z M425.82,163.725 C425.815871,158.158466 421.306529,153.64577 415.74,153.6375 L177.06,153.6375 C171.491032,153.645749 166.977388,158.15604 166.965,163.725 L166.965,306.48 C166.973261,312.051889 171.488111,316.566739 177.06,316.575 L415.7175,316.575 C421.285242,316.562601 425.79338,312.047754 425.7975,306.48 L425.82,163.725 Z" id="Shape" fill="#B4C6D0" fill-rule="nonzero"></path>
                <polygon id="Path" fill="#004C75" fill-rule="nonzero" points="414.3975 163.4925 414.3975 162.765 178.155 162.765 178.155 171.3825 178.365 171.3825 178.365 303.5925 414.6075 303.5925 414.6075 163.4925"></polygon>
                <path d="M447.975,308.445 L144.7875,308.445 L144.7875,317.445 C148.3875,322.8075 157.14,326.6325 161.6325,326.6325 L431.19,326.6325 C435.645,326.6325 444.345,322.845 447.975,317.52 L447.975,308.445 Z" id="Path" fill="#B4C6D0"></path>
                <path d="M144.9525,317.715 C148.7025,322.965 157.1925,326.6325 161.61,326.6325 L431.1675,326.6325 C435.57,326.6325 444.105,322.935 447.81,317.715 L144.9525,317.715 Z" id="Path" fill="#B4C6D0"></path>
                <path d="M270.84,308.6775 C271.125832,312.190081 274.065828,314.89161 277.59,314.880037 L315.21,314.880037 C318.734172,314.89161 321.674168,312.190081 321.96,308.6775 L270.84,308.6775 Z" id="Path" fill="#B4C6D0" fill-rule="nonzero"></path>
                <rect id="Rectangle" fill="#FFFFFF" fill-rule="nonzero" x="243.7875" y="237.96" width="14.43" height="1.5375"></rect>
                <rect id="Rectangle" fill="#FFFFFF" fill-rule="nonzero" x="228.2475" y="202.92" width="17.76" height="1.5375"></rect>
                <rect id="Rectangle" fill="#FFFFFF" fill-rule="nonzero" x="320.9325" y="202.92" width="14.43" height="1.5375"></rect>
                <rect id="Rectangle" fill="#FFFFFF" fill-rule="nonzero" x="344.2425" y="202.92" width="14.43" height="1.5375"></rect>
                <rect id="Rectangle" fill="#FFFFFF" fill-rule="nonzero" x="251.0025" y="202.92" width="60.495" height="1.5375"></rect>
                <rect id="Rectangle" fill="#FFFFFF" fill-rule="nonzero" x="219.3675" y="187.7625" width="14.43" height="1.5375"></rect>
                <rect id="Rectangle" fill="#FFFFFF" fill-rule="nonzero" x="219.3675" y="258.855" width="14.43" height="1.5375"></rect>
                <rect id="Rectangle" fill="#FFFFFF" fill-rule="nonzero" x="259.3275" y="245.5425" width="100.4625" height="1.5375"></rect>
                <rect id="Rectangle" fill="#FFFFFF" fill-rule="nonzero" x="259.3275" y="253.125" width="26.085" height="1.5375"></rect>
                <rect id="Rectangle" fill="#FFFFFF" fill-rule="nonzero" x="292.0725" y="253.125" width="26.085" height="1.5375"></rect>
                <rect id="Rectangle" fill="#FFFFFF" fill-rule="nonzero" x="324.8175" y="253.125" width="26.085" height="1.5375"></rect>
                <rect id="Rectangle" fill="#FFFFFF" fill-rule="nonzero" x="217.1475" y="195.3375" width="27.75" height="1.5375"></rect>
                <rect id="Rectangle" fill="#FFFFFF" fill-rule="nonzero" x="249.8925" y="195.3375" width="57.72" height="1.5375"></rect>
                <rect id="Rectangle" fill="#FFFFFF" fill-rule="nonzero" x="217.1475" y="266.4375" width="14.43" height="1.5375"></rect>
                <rect id="Rectangle" fill="#FFFFFF" fill-rule="nonzero" x="318.1575" y="266.4375" width="36.075" height="1.5375"></rect>
                <rect id="Rectangle" fill="#FFFFFF" fill-rule="nonzero" x="241.0125" y="266.4375" width="66.6" height="1.5375"></rect>
                <rect id="Rectangle" fill="#FFFFFF" fill-rule="nonzero" x="237.1275" y="274.02" width="102.6825" height="1.5375"></rect>
                <rect id="Rectangle" fill="#FFFFFF" fill-rule="nonzero" x="237.1275" y="281.595" width="21.525" height="1.5375"></rect>
                <rect id="Rectangle" fill="#FFFFFF" fill-rule="nonzero" x="268.8225" y="281.595" width="72.8475" height="1.5375"></rect>
                <rect id="Rectangle" fill="#FFFFFF" fill-rule="nonzero" x="244.3425" y="210.5025" width="57.72" height="1.5375"></rect>
                <rect id="Rectangle" fill="#FFFFFF" fill-rule="nonzero" x="313.7175" y="210.5025" width="27.75" height="1.5375"></rect>
                <rect id="Rectangle" fill="#FFFFFF" fill-rule="nonzero" x="217.1475" y="222.8025" width="27.75" height="1.5375"></rect>
                <rect id="Rectangle" fill="#FFFFFF" fill-rule="nonzero" x="253.7775" y="222.8025" width="54.945" height="1.5375"></rect>
                <rect id="Rectangle" fill="#FFFFFF" fill-rule="nonzero" x="217.1475" y="230.385" width="27.75" height="1.5375"></rect>
                <rect id="Rectangle" fill="#FFFFFF" fill-rule="nonzero" x="253.7775" y="230.385" width="82.14" height="1.5375"></rect>
                <rect id="Rectangle" fill="#FFFFFF" fill-rule="nonzero" x="200.6475" y="183.9225" width="1.5375" height="103.05"></rect>
                <path d="M505.62,64.5525 L505.62,64.5525 C493.815,62.52 428.79,58.5525 426.6525,73.35 C423.2025,97.275 419.7225,113.9475 437.9025,121.1325 C449.5725,125.745 475.2225,124.5225 491.7375,122.985 L504.9825,132.825 L504.66,121.5 C505.365,121.395 505.9275,121.305 506.295,121.23 C524.325,117.795 534.555,64.125 505.62,64.5525 Z" id="Path" fill="#FFFFFF" fill-rule="nonzero" opacity="0.15"></path>
                <path d="M465.480002,104.0775 C465.486402,71.7078292 445.324266,42.7619716 414.959362,31.5473277 C384.594458,20.3326837 350.457798,29.2244135 329.4225,53.8275 C314.030021,16.9794707 272.108801,-0.927682999 234.844339,13.4272996 C197.579877,27.7822821 178.506265,69.1858098 191.8125,106.8375 C166.481456,110.498421 145.385998,128.142909 137.305253,152.428001 C129.224508,176.713092 135.54253,203.479282 153.63,221.5875" id="Path" stroke="#FFFFFF" stroke-width="1.1025" stroke-dasharray="6.614999771118164"></path>
                <g id="Group-4" transform="translate(309.000000, 12.000000)">
                    <polygon id="Fill-1" fill="#FFFFFF" points="6 55.5 43.5 55.5 43.5 9 6 9"></polygon>
                    <path d="M9.57792785,19.6489585 L35.4207393,19.6489585 L35.4207393,15.074267 L9.57792785,15.074267 L9.57792785,19.6489585 Z M9.57792785,27.7820389 L35.4207393,27.7820389 L35.4207393,23.2073474 L9.57792785,23.2073474 L9.57792785,27.7820389 Z M9.57792785,35.9177799 L35.4207393,35.9177799 L35.4207393,31.3430884 L9.57792785,31.3430884 L9.57792785,35.9177799 Z M9.57792785,44.0508604 L35.4207393,44.0508604 L35.4207393,39.4761689 L9.57792785,39.4761689 L9.57792785,44.0508604 Z M3.69068776,0 C1.65274569,0 0,1.08414468 0,2.42236499 L0,68.077635 C0,69.4145251 1.65274569,70.5 3.69068776,70.5 L41.3079794,70.5 C43.3472543,70.5 45,69.4145251 45,68.077635 L45,2.42236499 C45,1.08414468 43.3472543,0 41.3079794,0 L3.69068776,0 Z" id="Fill-2" fill="#FCB21F"></path>
                </g>
                <path d="M404.415,141.1425 C404.415,141.1425 393.165,159.9525 379.3275,170.205 L404.1975,184.3575 C404.5425,178.7025 407.1975,166.0575 407.1975,166.0575 L421.1775,162.825 C420.8925,158.1525 431.6175,134.91 431.3325,136.575 L414.3675,129.21 L404.415,141.1425 Z" id="Path" stroke="#36434C" stroke-width="1.5" fill="#FFFFFF" fill-rule="nonzero"></path>
                <path d="M453.63,382.2225 C449.985,389.7225 445.335,396.705 440.7675,403.755 C438.5625,402.315 436.23,399.255 433.8375,398.265 C433.0875,397.965 438.3375,389.3325 444.645,375.765 C447.75,377.7975 450.75,379.965 453.63,382.2225 Z" id="Path" stroke="#36434C" stroke-width="1.005" fill="#FFFFFF" fill-rule="nonzero"></path>
                <path d="M434.52,394.065 L439.995,397.725 C440.0325,397.725 443.745,400.1025 443.745,400.1325 C445.7325,404.28 449.52,407.5125 452.385,410.43 C455.25,413.3475 456.5325,414.27 459.72,417.615 C459.997271,417.867951 460.155258,418.225932 460.155258,418.60125 C460.155258,418.976568 459.997271,419.334549 459.72,419.5875 C457.5675,421.5525 453.9375,419.16 451.7025,417.8175 C449.4675,416.475 445.125,413.025 442.98,411.45 C438.135,407.9175 435.9825,404.925 435.015,405.8025 C434.3775,406.3725 429.3975,402.4425 430.02,401.055 C431.6175,397.5 433.8075,396 434.52,394.065 Z" id="Path" fill="#004C75" fill-rule="nonzero"></path>
                <path d="M478.815,307.2825 C477.495,304.4625 472.6875,280.6425 461.655,271.86 L414.405,271.86 C416.655,276.09 418.905,279.45 420.87,281.0625 C468.2325,302.1525 397.4325,275.775 419.4375,284.925 C425.31,287.37 465.375,314.8725 435.6,392.655 C443.145,395.79 441.12,394.3725 448.0725,396.18 C477.06,352.4025 479.49,310.8225 478.815,307.2825 Z" id="Path" fill="#4378A5" fill-rule="nonzero"></path>
                <path d="M487.0275,376.035 C488.2275,384.285 488.34,392.67 488.5275,401.07 C485.895,401.13 482.25,399.915 479.7075,400.455 C478.9575,400.6125 478.38,390.5325 475.9575,375.7875 C479.6625,375.705 483.345,375.8175 487.0275,376.035 Z" id="Path" stroke="#36434C" stroke-width="1.005" fill="#FFFFFF" fill-rule="nonzero"></path>
                <path d="M446.295,308.4375 C451.77,308.3025 463.845,336.2775 475.9575,395.4975 L489.315,392.0175 C488.1525,372.615 489.7875,276.93 471.135,279 C464.8275,277.965 442.0575,272.01 408.195,263.0025 C369.48,240.615 364.8525,257.7525 359.835,259.8825 C359.835,259.8825 362.745,299.1375 380.085,308.46 C403.5,314.4525 422.7675,309.0525 446.295,308.4375 Z" id="Path" fill="#4687C7" fill-rule="nonzero"></path>
                <path d="M499.26,235.275 C499.0425,235.1175 497.55,234.075 497.415,233.55 L469.5,273.615 C469.5,273.795 469.4325,273.7725 469.4175,273.6675 L467.2875,270.0975 L418.62,259.41 C418.5375,259.635 415.1775,270.3375 415.155,270.6075 C415.0125,272.01 415.905,272.64 417.0375,272.7525 L467.0175,277.74 C467.787733,277.893307 468.573961,277.563982 469.005,276.9075 C469.005,276.9975 469.005,277.065 469.005,277.0875 C470.145,277.9125 471.165,277.4325 471.8925,276.4275 L499.485,238.2225 C500.25,237.225 500.4075,236.1 499.26,235.275 Z" id="Path" fill="#B4C6D0"></path>
                <path d="M477.63,398.8275 L484.485,399.8025 C485.49,400.005 488.745,399.15 488.79,399.1575 C492.4875,401.985 497.37,402.975 501.2775,404.175 C505.185,405.375 506.7525,405.555 511.155,406.9875 C511.528329,407.0983 511.839211,407.358569 512.013935,407.706596 C512.188659,408.054623 512.211665,408.459417 512.0775,408.825 C511.0575,411.825 506.7075,411.525 504.09,411.4725 C501.4725,411.42 495.9975,410.4975 493.35,410.1825 C487.3875,409.4325 484.0725,407.8125 483.6,409.1475 C483.2925,410.04 477.015,409.02 476.9325,407.3775 C476.7225,403.1625 478.2825,405.3375 477.63,398.8275 Z" id="Path" fill="#004C75" fill-rule="nonzero"></path>
                <path d="M404.8725,254.595 C407.6625,256.095 410.28,257.7975 413.0625,259.3275 C418.228829,260.133987 423.34471,261.235792 428.385,262.6275 C429.45,260.3775 430.47,258.51 430.1475,258.435 C422.745,256.6275 413.6475,235.6275 408.5175,224.9475 C395.1825,197.16 386.0175,212.5425 383.535,195.3375 C381.75,186.87 375.75,173.88 373.1925,189.75 C372.285,200.055 369.6975,214.2225 368.1975,222.09 C375.54,228.5625 383.61,234.1275 390.7575,240.84 C395.5575,245.3025 400.2,249.9675 404.8725,254.595 Z" id="Path" fill="#4687C7" fill-rule="nonzero"></path>
                <path d="M405.6525,266.6325 C405.6525,240.9975 407.685,177.0675 404.7975,175.8825 C404.46,175.7475 399.2025,180.2025 399.2025,180.2025 C399.2025,180.2025 388.995,170.8575 387.675,169.965 C386.932418,169.560747 386.233692,169.080687 385.59,168.5325 C380.58,164.415 361.5,176.3925 358.95,195.5325 C358.95,195.5325 350.2275,235.5975 356.37,245.9625 C356.4375,247.125 356.5125,248.2725 356.5875,249.405 C353.6325,256.785 359.88,279.4425 367.3425,280.335 C380.475,287.55 405.6525,276.21 405.6525,266.6325 Z" id="Path" fill="#4378A5" fill-rule="nonzero"></path>
                <path d="M425.7075,263.7375 C418.2975,261.9375 403.9575,256.8075 398.895,244.7925 C373.0575,227.985 385.9875,212.5425 383.535,195.3375 C381.75,186.87 375.75,173.88 373.1925,189.75 C371.8725,204.75 367.02,227.79 367.0875,228 C379.05,259.6125 406.47,270.8625 426.3375,268.6425 C426.6975,264.8475 426.3,263.8875 425.7075,263.7375 Z" id="Path" fill="#4687C7" fill-rule="nonzero"></path>
                <path d="M442.08,258 C441.301978,258.315532 440.505512,258.583526 439.695,258.8025 C430.425,261.315 425.0025,260.0625 422.445,260.1975 C421.4925,260.2425 420.6,260.3025 419.7225,260.34 C420.105,262.7625 420.4725,265.17 420.8775,267.585 C427.9425,268.3725 438.99,271.0275 443.1525,271.335 C448.5825,271.8075 449.2125,271.2375 449.2125,271.2375 C448.71,269.52 443.8575,268.77 441.3,267.99 C439.743,267.853411 438.203137,267.56453 436.7025,267.1275 C435.9525,266.3775 439.7025,265.8075 442.5225,266.685 C445.4175,266.9775 451.1175,271.2225 451.6425,271.59 C452.73,272.34 458.97,273.72 459.8925,273.54 C461.805,274.0425 444.9,259.7325 442.08,258 Z" id="Path" stroke="#36434C" stroke-width="1.005" fill="#FFFFFF" fill-rule="nonzero"></path>
                <path d="M428.25,262.5675 C414.2775,254.9325 410.46,251.565 403.05,239.025 C392.6475,221.4375 388.05,199.815 381.6375,181.3725 C377.805,172.3725 361.08,176.5275 361.4625,194.37 C359.7675,213.465 374.28,241.425 383.5425,249.3675 C394.575,261.0975 415.7025,269.5725 427.44,269.7525 L428.25,262.5675 Z" id="Path" fill="#004C75" fill-rule="nonzero"></path>
                <path d="M410.385,266.7225 L410.385,266.7225 C399.285,262.6725 389.31,256.515 383.025,249.84 C374.19,242.2575 359.025,214.185 360.7575,194.3025 C360.6,187.215 363.21,181.305 367.9125,178.17 C371.0025,176.1075 374.6625,175.5375 377.6625,176.6325 C379.796988,177.395347 381.504846,179.032272 382.3575,181.1325 C384.1875,186.3825 385.815,191.745 387.5475,197.4075 C391.8525,211.5375 396.3075,226.1475 403.7325,238.695 C410.9775,250.965 414.4725,254.2275 428.64,261.945 L429.0675,262.17 L428.145,270.4575 L427.5,270.4575 C422.85,270.3825 416.7825,269.0625 410.385,266.7225 Z M377.1525,177.945 C374.595,177.015 371.46,177.5325 368.775,179.3325 C364.47,182.205 362.085,187.68 362.2275,194.37 C360.495,213.9225 375.36,241.38 384.06,248.85 C390.1575,255.3225 400.17,261.4875 410.895,265.41 C416.8275,267.5775 422.445,268.8525 426.81,269.0175 L427.4925,262.95 C413.52,255.2775 409.71,251.7 402.4425,239.3625 C394.9425,226.6575 390.4425,211.98 386.1225,197.7675 C384.405,192.12 382.77,186.78 380.97,181.5825 C380.266699,179.886389 378.880577,178.565625 377.1525,177.945 Z" id="Shape" fill="#004C75" fill-rule="nonzero"></path>
                <path d="M399.6375,134.925 C400.3875,133.71 409.005,112.125 414.8925,113.6175 C420.78,115.11 421.0275,118.3725 421.0275,118.3725 C421.0275,118.3725 422.0925,122.1225 430.92,123.9 C439.7475,125.6775 439.4475,124.95 440.4975,125.0325 C441.5475,125.115 449.73,126.135 450.495,130.9875 C451.26,135.84 442.5,145.98 438,144.24 C433.5,142.5 417.8625,131.3325 414.9675,135.2775 C412.0725,139.2225 411.2925,142.98 407.385,143.4 C405.038942,143.560273 402.842254,144.608997 401.2425,146.3325 C400.785,146.79 393.9825,149.88 393.105,143.6775 C392.2275,137.475 399.6375,134.925 399.6375,134.925 Z" id="Path" fill="#FCB21F" fill-rule="nonzero"></path>
                <path d="M407.0475,149.25 C407.0475,149.25 398.7975,159.15 407.64,166.08 C407.64,166.08 416.295,173.0625 422.745,165.0075 C429.195,156.9525 415.5525,160.17 414.8775,159.7575 C414.2025,159.345 408.315,156.945 410.16,152.0025 C412.005,147.06 407.0475,149.25 407.0475,149.25 Z" id="Path" fill="#FCB21F" fill-rule="nonzero"></path>
                <path d="M183.75,141.1425 C183.75,141.1425 195,159.9525 208.8375,170.205 L183.975,184.3575 C183.6225,178.7025 180.975,166.0575 180.975,166.0575 L167.0025,162.825 C167.2875,158.1525 156.555,134.91 156.84,136.575 L173.805,129.21 L183.75,141.1425 Z" id="Path" stroke="#36434C" stroke-width="1.5" fill="#FFFFFF" fill-rule="nonzero"></path>
                <path d="M134.5125,382.2225 C138.165,389.7225 142.8075,396.705 147.375,403.755 C149.58,402.315 151.9125,399.255 154.305,398.265 C155.055,397.965 149.805,389.3325 143.505,375.765 C140.415,377.7975 137.4375,379.965 134.5125,382.2225 Z" id="Path" stroke="#36434C" stroke-width="1.005" fill="#FFFFFF" fill-rule="nonzero"></path>
                <path d="M153.63,394.065 L148.155,397.725 C148.11,397.725 144.405,400.1025 144.405,400.1325 C142.41,404.28 138.6225,407.5125 135.7575,410.43 C132.8925,413.3475 131.6175,414.27 128.4225,417.615 C128.147324,417.869134 127.990833,418.226676 127.990833,418.60125 C127.990833,418.975824 128.147324,419.333366 128.4225,419.5875 C130.5825,421.5525 134.2125,419.16 136.44,417.8175 C138.6675,416.475 143.0175,413.025 145.1625,411.45 C150.0075,407.9175 152.16,404.925 153.1275,405.8025 C153.7725,406.3725 158.7525,402.4425 158.1225,401.055 C156.525,397.5 154.335,396 153.63,394.065 Z" id="Path" fill="#004C75" fill-rule="nonzero"></path>
                <path d="M109.3275,307.2825 C110.6475,304.4625 115.4625,280.6425 126.495,271.86 L173.745,271.86 C171.495,276.09 169.2075,279.45 167.2875,281.0625 C119.9175,302.1525 190.7175,275.775 168.7125,284.925 C162.8475,287.37 122.775,314.8725 152.5575,392.655 C145.005,395.79 147.03,394.3725 140.0775,396.18 C111.09,352.4025 108.6525,310.8225 109.3275,307.2825 Z" id="Path" fill="#4378A5" fill-rule="nonzero"></path>
                <path d="M101.1225,376.035 C99.915,384.285 99.8025,392.67 99.6225,401.07 C102.2475,401.13 105.9,399.915 108.435,400.455 C109.185,400.6125 109.77,390.5325 112.185,375.7875 C108.4875,375.705 104.805,375.8175 101.1225,376.035 Z" id="Path" stroke="#36434C" stroke-width="1.005" fill="#FFFFFF" fill-rule="nonzero"></path>
                <path d="M141.8475,308.4375 C136.3725,308.3025 124.2975,336.2775 112.185,395.4975 L98.8275,392.0175 C99.9975,372.615 98.3625,276.93 117.0075,279 C123.315,277.965 146.0925,272.01 179.9475,263.0025 C218.67,240.615 223.29,257.7525 228.315,259.8825 C228.315,259.8825 225.3975,299.1375 208.065,308.46 C184.68,314.4525 165.3825,309.0525 141.8475,308.4375 Z" id="Path" fill="#4687C7" fill-rule="nonzero"></path>
                <path d="M88.8825,235.275 C89.1,235.1175 90.5925,234.075 90.735,233.55 L118.6275,273.615 C118.6275,273.795 118.695,273.7725 118.7175,273.6675 L120.84,270.0975 L169.5,259.41 C169.5825,259.635 172.9425,270.3375 172.965,270.6075 C173.1075,272.01 172.215,272.64 171.0825,272.7525 L121.1025,277.74 C120.334495,277.892155 119.55103,277.562744 119.1225,276.9075 C119.131408,276.971065 119.115273,277.035605 119.0775,277.0875 C117.9375,277.9125 116.9175,277.4325 116.1975,276.4275 L88.5975,238.2225 C87.8925,237.225 87.75,236.1 88.8825,235.275 Z" id="Path" fill="#B4C6D0"></path>
                <path d="M110.52,398.8275 L103.6575,399.8025 C102.6525,400.005 99.3975,399.15 99.36,399.1575 C95.655,401.985 90.78,402.975 86.8725,404.175 C82.965,405.375 81.39,405.555 76.9875,406.9875 C76.6141705,407.0983 76.3032892,407.358569 76.1285652,407.706596 C75.9538412,408.054623 75.9308345,408.459417 76.065,408.825 C77.0925,411.825 81.4425,411.525 84.0525,411.4725 C86.6625,411.42 92.1525,410.4975 94.7925,410.1825 C100.7925,409.4325 104.07,407.8125 104.5425,409.1475 C104.85,410.04 111.12,409.02 111.2025,407.3775 C111.4275,403.1625 109.8675,405.3375 110.52,398.8275 Z" id="Path" fill="#004C75" fill-rule="nonzero"></path>
                <path d="M183.27,254.595 C180.48,256.095 177.8625,257.7975 175.08,259.3275 C169.913809,260.134728 164.797969,261.236524 159.7575,262.6275 C158.7,260.3775 157.6725,258.51 157.995,258.435 C165.405,256.6275 174.495,235.6275 179.625,224.9475 C192.96,197.16 202.125,212.5425 204.615,195.3375 C206.4075,186.87 212.385,173.88 214.95,189.72 C215.865,200.025 218.445,214.1925 219.945,222.06 C212.6025,228.5325 204.5325,234.0975 197.385,240.81 C192.585,245.3025 187.95,249.9675 183.27,254.595 Z" id="Path" fill="#4687C7" fill-rule="nonzero"></path>
                <path d="M182.49,266.6325 C182.49,240.9975 180.4575,177.0675 183.345,175.8825 C183.6825,175.7475 188.94,180.2025 188.94,180.2025 C188.94,180.2025 199.1475,170.8575 200.475,169.965 C201.215174,169.560627 201.911401,169.080557 202.5525,168.5325 C207.5625,164.415 226.6425,176.3925 229.2,195.5325 C229.2,195.5325 237.9225,235.5975 231.78,245.9625 C231.71,247.1275 231.635,248.275 231.555,249.405 C234.51,256.785 228.2625,279.4425 220.8075,280.335 C207.6675,287.55 182.49,276.21 182.49,266.6325 Z" id="Path" fill="#4378A5" fill-rule="nonzero"></path>
                <path d="M162.4425,263.7375 C169.8525,261.9375 184.1925,256.8075 189.2475,244.7925 C215.085,227.985 202.155,212.5425 204.615,195.3375 C206.4075,186.87 212.385,173.88 214.95,189.72 C216.27,204.72 221.1225,227.76 221.055,227.97 C209.1,259.5825 181.68,270.8325 161.805,268.6125 C161.445,264.8475 161.85,263.8875 162.4425,263.7375 Z" id="Path" fill="#4687C7" fill-rule="nonzero"></path>
                <path d="M146.07,258 C146.845485,258.315488 147.639452,258.583484 148.4475,258.8025 C157.7175,261.315 163.14,260.0625 165.6975,260.1975 C166.6575,260.2425 167.55,260.3025 168.4275,260.34 C168.0375,262.7625 167.6775,265.17 167.265,267.585 C160.2,268.3725 149.16,271.0275 144.99,271.335 C139.56,271.8075 138.93,271.2375 138.93,271.2375 C139.44,269.52 144.2925,268.77 146.8425,267.99 C148.3995,267.853411 149.939363,267.56453 151.44,267.1275 C152.19,266.3775 148.44,265.8075 145.6275,266.685 C142.725,266.9775 137.025,271.2225 136.5,271.59 C135.42,272.34 129.1725,273.72 128.25,273.54 C126.3375,274.0425 143.25,259.7325 146.07,258 Z" id="Path" stroke="#36434C" stroke-width="1.005" fill="#FFFFFF" fill-rule="nonzero"></path>
                <path d="M159.87,262.5675 C173.835,254.9325 177.6525,251.565 185.0625,239.025 C195.4725,221.4375 200.0625,199.815 206.475,181.3725 C210.3075,172.3725 227.04,176.5275 226.6575,194.37 C228.345,213.465 213.8325,241.425 204.5775,249.3675 C193.5375,261.0975 172.41,269.5725 160.6725,269.7525 L159.87,262.5675 Z" id="Path" fill="#004C75" fill-rule="nonzero"></path>
                <path d="M160.6725,270.465 L160.0125,270.465 L159.0825,262.1775 L159.51,261.9525 C173.6775,254.205 177.1725,250.9425 184.425,238.7025 C191.85,226.155 196.2975,211.545 200.61,197.415 C202.335,191.7525 203.97,186.3975 205.7925,181.14 C206.646769,179.040868 208.354039,177.404507 210.4875,176.64 C213.797854,175.582933 217.413081,176.153026 220.2375,178.1775 C224.9475,181.3125 227.55,187.2225 227.4,194.31 C229.1625,214.1925 213.9675,242.265 205.125,249.8475 C198.84,256.5225 188.865,262.68 177.765,266.73 L177.765,266.73 C171.36,269.0625 165.2925,270.3825 160.6725,270.465 Z M207.1725,181.5825 C205.365,186.78 203.7375,192.12 202.0125,197.7675 C197.685,211.98 193.2075,226.6575 185.7,239.3625 C178.4325,251.67 174.615,255.2775 160.6425,262.95 L161.325,269.0175 C165.69,268.8525 171.3075,267.5775 177.2475,265.41 C187.9725,261.4875 197.985,255.3225 204.0825,248.85 C212.7825,241.35 227.64,213.9225 225.915,194.37 C226.0575,187.68 223.665,182.205 219.3675,179.3325 C216.675,177.5325 213.5475,177.015 210.99,177.945 C209.264761,178.567407 207.881617,179.887928 207.18,181.5825 L207.1725,181.5825 Z" id="Shape" fill="#004C75" fill-rule="nonzero"></path>
                <path d="M188.5125,134.925 C187.7625,133.71 179.1375,112.125 173.2575,113.6175 C167.3775,115.11 167.115,118.3725 167.115,118.3725 C167.115,118.3725 166.05,122.1225 157.23,123.9 C148.41,125.6775 148.7025,124.95 147.645,125.0325 C146.5875,125.115 138.42,126.135 137.6475,130.9875 C136.875,135.84 145.665,145.9875 150.12,144.24 C154.575,142.4925 170.2575,131.3325 173.16,135.2775 C176.0625,139.2225 176.8275,142.98 180.7425,143.4 C183.086694,143.559156 185.281425,144.608226 186.8775,146.3325 C187.335,146.79 194.145,149.88 195.015,143.6775 C195.885,137.475 188.5125,134.925 188.5125,134.925 Z" id="Path" fill="#FCB21F" fill-rule="nonzero"></path>
                <path d="M181.1025,149.25 C181.1025,149.25 189.3525,159.15 180.5025,166.08 C180.5025,166.08 171.855,173.0625 165.405,165.0075 C158.955,156.9525 172.5975,160.17 173.2725,159.7575 C173.9475,159.345 179.835,156.945 177.99,152.0025 C176.145,147.06 181.1025,149.25 181.1025,149.25 Z" id="Path" fill="#FCB21F" fill-rule="nonzero"></path>
            </g>
        </g>
    </g>
</svg>