<svg xmlns="http://www.w3.org/2000/svg" viewBox="0 0 555 421"><defs/><g fill="none" fill-rule="evenodd"><path fill="#67CCE6" fill-rule="nonzero" d="M427.395 174.308c-1.665-10.17 15-14.153 19.328-7.958-1.388-9.713 6.457-22.447 19.904-23.542 25.395-2.378 18 16.5 30.24 16.762 11.145-.21 2.835-16.327 28.193-8.25 6.075 1.808 9.15 8.588 13.44 16.972 8.685-9.554 14.018-3.33 15.607 6a449.925 449.925 0 01-126.712.016z"/><path fill="#045388" fill-rule="nonzero" d="M449.527 296.76c-.99 7.725 3.226 17.213 18.548 19.095 17.558.3 24.06-10.703 23.535-19.095h-42.083z"/><path fill="#FBAC1D" fill-rule="nonzero" d="M490.777 292.837l-2.25-145.612-38.279-.007v145.619z"/><path fill="#FCD5CA" fill-rule="nonzero" d="M487.418 147.45l-16.906-37.71-20.654 37.71z"/><path fill="#045388" fill-rule="nonzero" d="M476.94 124.08l-6.428-14.34-7.852 14.34z" style="mix-blend-mode:multiply"/><path fill="#FFF" fill-rule="nonzero" d="M479.137 147.705h1.538v145.132h-1.538zM460.35 147.705h1.538v145.132h-1.538z"/><path fill="#FBAC1D" fill-rule="nonzero" d="M448.59 291.345h43.852v5.76H448.59z"/><path fill="#67CCE6" fill-rule="nonzero" d="M74.933 230.048l-10.328 22.327 25.95 28.163 23.16-8.49a109.8 109.8 0 0027.127 12.48c2.825 7.734 5.653 15.447 8.483 23.137l38.25 1.56c3.45-7.46 6.925-14.923 10.425-22.388a110.865 110.865 0 0028.05-10.32c7.43 3.44 14.873 6.883 22.327 10.328l28.156-25.943c-2.843-7.724-5.656-15.442-8.513-23.152a110.198 110.198 0 0012.48-27.143c7.705-2.82 15.41-5.65 23.115-8.49l1.553-38.25c-7.47-3.47-14.933-6.93-22.388-10.38a110.843 110.843 0 00-10.32-28.057c3.465-7.425 6.885-14.873 10.343-22.32l-25.958-28.17-23.145 8.505a110.797 110.797 0 00-27.12-12.502l-8.498-23.1-38.25-1.568a19334.2 19334.2 0 00-10.38 22.402 110.175 110.175 0 00-28.05 10.305L99.076 68.64 70.92 94.605c2.835 7.705 5.665 15.42 8.49 23.145a111.12 111.12 0 00-12.51 27.143l-23.115 8.482-1.56 38.25 22.41 10.373a110.7 110.7 0 0010.297 28.05zm48.36-5.798c-18.796-20.392-23.457-50.098-11.81-75.267 11.648-25.168 37.31-40.841 65.02-39.711 27.71 1.13 52.01 18.842 61.568 44.876 9.56 26.034 2.494 55.262-17.901 74.054a68.55 68.55 0 01-96.877-3.952z"/><path fill="#FFF" fill-rule="nonzero" d="M173.7 258.75c-44.735 0-81-36.265-81-81s36.265-81 81-81 81 36.265 81 81c-.037 44.72-36.28 80.963-81 81zm0-160.418c-32.133 0-61.1 19.358-73.395 49.045-12.295 29.688-5.494 63.858 17.23 86.576 22.725 22.718 56.897 29.509 86.581 17.206 29.684-12.303 49.033-41.276 49.024-73.409-.033-43.86-35.58-79.407-79.44-79.44v.022z"/><path fill="#67CCE6" fill-rule="nonzero" d="M73.32 87.915c.443-3.57-3.945-4.965-5.085-2.79.368-3.405-1.703-7.868-5.25-8.25-6.682-.825-4.748 5.782-7.957 5.88-2.94-.075-.75-5.722-7.425-2.887-1.598.63-2.408 3-3.54 5.947-2.25-3.352-6.068 1.987-3.518 2.88 11.07 2.093 33.578 1.785 32.775-.78z"/><path fill="#045388" d="M30.315 282.608c0 .412 2.355 5.692 2.385 6.112h11.55c-.045-.42 1.74-5.7 1.695-6.12l-15.63.007z"/><path fill="#FFF" d="M23.422 246.472c1.163 2.918 2.25 17.348 3.285 20.303h24.518c1.133-3 2.317-17.407 3.585-20.325 2.79-4.027 15.63-18.975 19.987-33 5.865-17.572-10.56-42.382-36-42.42-25.372-.225-43.267 22.868-37.417 40.5 4.373 14.64 16.62 28.387 22.043 34.942z" opacity=".15"/><path fill="#FFF" fill-rule="nonzero" d="M43.432 264.885c-1.867-10.215-.96-31.702 2.76-47.167a4.252 4.252 0 01-1.5-.113c-2.325-.623-4.027-3.262-5.25-6.278-1.747 3.953-3.885 6.128-6.39 6.48a5.625 5.625 0 01-2.924-.397c2.205 14.782 4.582 36.248 3.982 47.378l-1.5-.083c.578-10.545-1.77-32.707-4.125-48.217-2.497-1.726-4.688-4.845-6.195-7.92-1.598-3.248-2.94-7.546-1.5-9l.098-.083c1.274-.878 2.467-1.095 3.547-.653 2.617 1.08 3.495 5.716 3.968 8.206v.105c.434 2.25.922 5.152 1.425 8.43a4.657 4.657 0 003 .704c1.71-.24 3.877-1.83 5.842-7.094a46.665 46.665 0 01-1.305-5.108c-.983-4.905.352-8.722 2.175-9.968a1.912 1.912 0 012.175-.135c1.132.75 1.5 2.738.96 5.633a60.353 60.353 0 01-2.385 9.645c1.335 3.952 3 6.442 4.785 6.915a2.715 2.715 0 001.5-.052 45.345 45.345 0 014.26-11.206l.285-.487c.945-1.642 1.838-3.195 3.083-3.067 1.064.097 1.5 1.38 1.65 1.8 1.207 3.51-3.548 9.975-4.89 11.512a10.605 10.605 0 01-3.068 2.55c-3.75 15.172-4.86 37.185-3 47.422l-1.463.248zm10.636-62.025a9.315 9.315 0 00-1.605 2.25l-.293.502a40.08 40.08 0 00-3.668 9.323c.479-.41.925-.857 1.335-1.335 2.07-2.377 5.378-7.755 4.605-10.02a2.25 2.25 0 00-.374-.72zm-32.25-2.145c-.39.517-.128 3.255 1.807 7.185a23.033 23.033 0 004.5 6.368c-.398-2.52-.795-4.823-1.17-6.818v-.112c-.36-1.883-1.2-6.308-3.052-7.073a2.16 2.16 0 00-2.07.45h-.015zm18.96-5.475a.75.75 0 00-.375.15c-1.178.795-2.438 3.938-1.545 8.408.202 1.005.42 1.957.66 2.864a69.607 69.607 0 001.672-7.305c.488-2.76 0-3.877-.292-4.087a.217.217 0 00-.106-.03h-.014z"/><path fill="#4687C7" d="M22.5 263.498l3 3.232c-2.782-.263-2.918 4.17.578 4.38-3.57-.135-3.713 4.433-.226 4.5-3.487-.188-3.63 4.957-.345 5.25l-2.197 2.385c4.5 2.115 29.46 1.98 30-.225l-1.988-2.362c3.503-.308 2.573-4.943-.345-4.733 3.916-.428 2.423-5.07 0-4.755 3.293-.608 2.288-3.96.413-4.373l2.4-3.277-31.29-.022z"/><path fill="#FFF" fill-rule="nonzero" d="M265.44 2.565c-.165 0 0 .42 0 .42-7.373-3-58.148-4.98-59.767 6.24-2.61 18.112-5.25 30.75 8.497 36.157 8.835 3.495 28.245 2.573 40.748 1.41l10.02 7.448-.24-8.58c.532-.075.952-.142 1.237-.195 13.657-2.603 21.397-43.215-.495-42.9z" opacity=".15"/><path fill="#B4C6D0" fill-rule="nonzero" d="M177.06 317.647c-6.168 0-11.167-5-11.167-11.167V163.725a11.16 11.16 0 0111.167-11.16h238.657c6.161.004 11.153 5 11.153 11.16V306.48c0 6.162-4.99 11.16-11.153 11.167H177.06z"/><path fill="#B4C6D0" fill-rule="nonzero" d="M164.82 306.48V163.725c.012-6.752 5.488-12.22 12.24-12.225h238.657c6.752.008 12.221 5.481 12.226 12.232V306.48a12.24 12.24 0 01-12.226 12.27H177.06a12.248 12.248 0 01-12.24-12.27zm261-142.755c-.004-5.567-4.513-10.08-10.08-10.088H177.06c-5.569.009-10.083 4.519-10.095 10.088V306.48c.008 5.572 4.523 10.087 10.095 10.095h238.657c5.568-.012 10.076-4.527 10.08-10.095l.023-142.755z"/><path fill="#004C75" fill-rule="nonzero" d="M414.397 163.493v-.728H178.155v8.617h.21v132.21h236.243V163.493z"/><path fill="#B4C6D0" d="M447.975 308.445H144.787v9c3.6 5.363 12.353 9.188 16.845 9.188H431.19c4.455 0 13.155-3.788 16.785-9.113v-9.075z"/><path fill="#B4C6D0" d="M144.952 317.715c3.75 5.25 12.24 8.918 16.658 8.918h269.558c4.402 0 12.937-3.698 16.642-8.918H144.952z"/><path fill="#B4C6D0" fill-rule="nonzero" d="M270.84 308.678a6.75 6.75 0 006.75 6.202h37.62a6.75 6.75 0 006.75-6.202h-51.12z"/><path fill="#FFF" fill-rule="nonzero" d="M243.787 237.96h14.43v1.538h-14.43zM228.248 202.92h17.76v1.538h-17.76zM320.933 202.92h14.43v1.538h-14.43zM344.243 202.92h14.43v1.538h-14.43zM251.002 202.92h60.495v1.538h-60.495zM219.368 187.762h14.43v1.538h-14.43zM219.368 258.855h14.43v1.538h-14.43zM259.327 245.542H359.79v1.538H259.327zM259.327 253.125h26.085v1.538h-26.085zM292.072 253.125h26.085v1.538h-26.085zM324.817 253.125h26.085v1.538h-26.085zM217.148 195.338h27.75v1.538h-27.75zM249.893 195.338h57.72v1.538h-57.72zM217.148 266.438h14.43v1.538h-14.43zM318.158 266.438h36.075v1.538h-36.075zM241.012 266.438h66.6v1.538h-66.6zM237.127 274.02H339.81v1.538H237.127zM237.127 281.595h21.525v1.538h-21.525zM268.822 281.595h72.847v1.538h-72.847zM244.343 210.502h57.72v1.538h-57.72zM313.717 210.502h27.75v1.538h-27.75zM217.148 222.803h27.75v1.538h-27.75zM253.778 222.803h54.945v1.538h-54.945zM217.148 230.385h27.75v1.538h-27.75zM253.778 230.385h82.14v1.538h-82.14zM200.648 183.923h1.538v103.05h-1.538z"/><path fill="#FFF" fill-rule="nonzero" d="M505.62 64.552c-11.805-2.032-76.83-6-78.968 8.798-3.45 23.925-6.93 40.598 11.25 47.782 11.67 4.613 37.32 3.39 53.836 1.853l13.245 9.84-.323-11.325a35.214 35.214 0 001.635-.27c18.03-3.435 28.26-57.105-.675-56.678z" opacity=".15"/><path stroke="#FFF" stroke-dasharray="6.615" stroke-width="1.103" d="M465.48 104.078c.006-32.37-20.156-61.316-50.52-72.53-30.366-11.215-64.502-2.324-85.537 22.28-15.393-36.849-57.314-54.756-94.579-40.4-37.264 14.354-56.338 55.758-43.031 93.41a67.643 67.643 0 00-38.183 114.75"/><path fill="#FFF" d="M315 67.5h37.5V21H315z"/><path fill="#FCB21F" d="M318.578 31.649h25.843v-4.575h-25.843v4.575zm0 8.133h25.843v-4.575h-25.843v4.575zm0 8.136h25.843v-4.575h-25.843v4.575zm0 8.133h25.843v-4.575h-25.843v4.575zM312.69 12c-2.038 0-3.691 1.084-3.691 2.422v65.656c0 1.337 1.653 2.422 3.69 2.422h37.618c2.04 0 3.692-1.085 3.692-2.422V14.422c0-1.338-1.653-2.422-3.692-2.422h-37.617z"/><path fill="#FFF" fill-rule="nonzero" stroke="#36434C" stroke-width="1.5" d="M404.415 141.143s-11.25 18.81-25.088 29.062l24.87 14.152c.346-5.655 3-18.3 3-18.3l13.98-3.232c-.285-4.672 10.44-27.915 10.155-26.25l-16.964-7.365-9.953 11.933z"/><path fill="#FFF" fill-rule="nonzero" stroke="#36434C" stroke-width="1.005" d="M453.63 382.223c-3.645 7.5-8.295 14.482-12.863 21.532-2.204-1.44-4.537-4.5-6.93-5.49-.75-.3 4.5-8.933 10.808-22.5 3.105 2.033 6.105 4.2 8.985 6.458z"/><path fill="#004C75" fill-rule="nonzero" d="M434.52 394.065l5.475 3.66c.038 0 3.75 2.377 3.75 2.407 1.988 4.148 5.775 7.38 8.64 10.298s4.148 3.84 7.335 7.185a1.335 1.335 0 010 1.972c-2.153 1.966-5.783-.427-8.018-1.77-2.235-1.342-6.577-4.792-8.722-6.367-4.845-3.532-6.998-6.525-7.965-5.647-.637.57-5.618-3.36-4.995-4.748 1.598-3.555 3.788-5.055 4.5-6.99z"/><path fill="#4378A5" fill-rule="nonzero" d="M478.815 307.283c-1.32-2.82-6.127-26.64-17.16-35.423h-47.25c2.25 4.23 4.5 7.59 6.465 9.202 47.363 21.09-23.438-5.287-1.433 3.863 5.873 2.445 45.938 29.947 16.163 107.73 7.545 3.135 5.52 1.718 12.472 3.525 28.988-43.778 31.418-85.358 30.743-88.897z"/><path fill="#FFF" fill-rule="nonzero" stroke="#36434C" stroke-width="1.005" d="M487.027 376.035c1.2 8.25 1.313 16.635 1.5 25.035-2.632.06-6.277-1.155-8.82-.615-.75.158-1.327-9.922-3.75-24.667 3.706-.083 7.388.03 11.07.247z"/><path fill="#4687C7" fill-rule="nonzero" d="M446.295 308.438c5.475-.135 17.55 27.84 29.662 87.06l13.358-3.48c-1.163-19.403.473-115.088-18.18-113.018-6.308-1.035-29.077-6.99-62.94-15.998-38.715-22.387-43.342-5.25-48.36-3.12 0 0 2.91 39.255 20.25 48.578 23.415 5.993 42.683.593 66.21-.022z"/><path fill="#B4C6D0" d="M499.26 235.275c-.217-.157-1.71-1.2-1.845-1.725L469.5 273.615c0 .18-.067.157-.082.053l-2.13-3.57-48.668-10.688c-.082.225-3.442 10.927-3.465 11.197-.142 1.403.75 2.033 1.883 2.145l49.98 4.988a1.927 1.927 0 001.987-.832v.18c1.14.825 2.16.344 2.887-.66l27.593-38.206c.765-.997.923-2.122-.225-2.947z"/><path fill="#004C75" fill-rule="nonzero" d="M477.63 398.827l6.855.976c1.005.202 4.26-.653 4.305-.645 3.697 2.827 8.58 3.817 12.487 5.017 3.908 1.2 5.476 1.38 9.878 2.813a1.41 1.41 0 01.923 1.837c-1.02 3-5.37 2.7-7.988 2.648-2.617-.053-8.092-.976-10.74-1.29-5.963-.75-9.278-2.37-9.75-1.036-.308.893-6.585-.127-6.668-1.77-.21-4.214 1.35-2.04.698-8.55z"/><path fill="#4687C7" fill-rule="nonzero" d="M404.873 254.595c2.79 1.5 5.407 3.203 8.19 4.732a136.905 136.905 0 0115.322 3.3c1.065-2.25 2.085-4.117 1.762-4.192-7.402-1.808-16.5-22.808-21.63-33.488-13.334-27.787-22.5-12.405-24.982-29.61-1.785-8.467-7.785-21.457-10.343-5.587-.907 10.305-3.495 24.472-4.995 32.34 7.343 6.472 15.413 12.037 22.56 18.75 4.8 4.463 9.443 9.127 14.115 13.755z"/><path fill="#4378A5" fill-rule="nonzero" d="M405.652 266.632c0-25.635 2.033-89.565-.854-90.75-.338-.135-5.596 4.32-5.596 4.32s-10.207-9.345-11.527-10.237a12.248 12.248 0 01-2.085-1.433c-5.01-4.117-24.09 7.86-26.64 27 0 0-8.722 40.065-2.58 50.43.067 1.163.142 2.31.217 3.443-2.954 7.38 3.293 30.037 10.755 30.93 13.133 7.215 38.31-4.125 38.31-13.702z"/><path fill="#4687C7" fill-rule="nonzero" d="M425.707 263.738c-7.41-1.8-21.75-6.93-26.812-18.946-25.837-16.807-12.907-32.25-15.36-49.454-1.785-8.468-7.785-21.458-10.343-5.588-1.32 15-6.172 38.04-6.105 38.25 11.963 31.613 39.383 42.863 59.25 40.642.36-3.794-.037-4.755-.63-4.904z"/><path fill="#FFF" fill-rule="nonzero" stroke="#36434C" stroke-width="1.005" d="M442.08 258c-.778.316-1.574.584-2.385.803-9.27 2.512-14.692 1.26-17.25 1.394-.952.046-1.845.106-2.722.143.382 2.423.75 4.83 1.154 7.245 7.065.788 18.113 3.442 22.275 3.75 5.43.473 6.06-.097 6.06-.097-.502-1.718-5.354-2.468-7.912-3.248a23.918 23.918 0 01-4.598-.863c-.75-.75 3-1.32 5.82-.442 2.896.293 8.596 4.538 9.12 4.905 1.088.75 7.328 2.13 8.25 1.95 1.913.502-14.992-13.808-17.812-15.54z"/><path fill="#004C75" fill-rule="nonzero" d="M428.25 262.567c-13.973-7.635-17.79-11.002-25.2-23.542-10.403-17.588-15-39.21-21.413-57.653-3.832-9-20.557-4.845-20.175 12.998-1.695 19.095 12.818 47.055 22.08 54.998 11.033 11.73 32.16 20.204 43.898 20.385l.81-7.185z"/><path fill="#004C75" fill-rule="nonzero" d="M410.385 266.723c-11.1-4.05-21.075-10.208-27.36-16.883-8.835-7.583-24-35.655-22.267-55.537-.158-7.088 2.452-12.998 7.155-16.133 3.09-2.063 6.75-2.632 9.75-1.537a7.957 7.957 0 014.695 4.5c1.83 5.25 3.457 10.612 5.19 16.274 4.305 14.13 8.76 28.74 16.185 41.288 7.245 12.27 10.74 15.532 24.907 23.25l.428.225-.923 8.287h-.645c-4.65-.075-10.717-1.394-17.115-3.734zm-33.233-88.778c-2.557-.93-5.692-.412-8.377 1.388-4.305 2.872-6.69 8.347-6.547 15.037-1.733 19.553 13.132 47.01 21.832 54.48 6.098 6.472 16.11 12.638 26.835 16.56 5.933 2.167 11.55 3.442 15.915 3.607l.683-6.067c-13.973-7.672-17.783-11.25-25.05-23.587-7.5-12.706-12-27.383-16.32-41.595-1.718-5.648-3.353-10.988-5.153-16.185a6.517 6.517 0 00-3.818-3.638z"/><path fill="#FCB21F" fill-rule="nonzero" d="M399.637 134.925c.75-1.215 9.368-22.8 15.255-21.308 5.888 1.493 6.135 4.755 6.135 4.755s1.065 3.75 9.893 5.528c8.827 1.777 8.527 1.05 9.577 1.132 1.05.083 9.233 1.103 9.998 5.956.765 4.852-7.995 14.992-12.495 13.252-4.5-1.74-20.137-12.907-23.033-8.963-2.894 3.946-3.674 7.703-7.582 8.123a9.24 9.24 0 00-6.142 2.933c-.458.457-7.26 3.547-8.138-2.655-.877-6.203 6.532-8.753 6.532-8.753zM407.048 149.25s-8.25 9.9.592 16.83c0 0 8.655 6.982 15.105-1.073 6.45-8.055-7.192-4.837-7.868-5.25-.675-.412-6.562-2.812-4.717-7.755 1.845-4.942-3.113-2.752-3.113-2.752z"/><path fill="#FFF" fill-rule="nonzero" stroke="#36434C" stroke-width="1.5" d="M183.75 141.143s11.25 18.81 25.088 29.062l-24.863 14.152c-.352-5.655-3-18.3-3-18.3l-13.972-3.232c.285-4.672-10.448-27.915-10.163-26.25l16.965-7.365 9.945 11.933z"/><path fill="#FFF" fill-rule="nonzero" stroke="#36434C" stroke-width="1.005" d="M134.512 382.223c3.653 7.5 8.296 14.482 12.863 21.532 2.205-1.44 4.537-4.5 6.93-5.49.75-.3-4.5-8.933-10.8-22.5-3.09 2.033-6.067 4.2-8.993 6.458z"/><path fill="#004C75" fill-rule="nonzero" d="M153.63 394.065l-5.475 3.66c-.045 0-3.75 2.377-3.75 2.407-1.995 4.148-5.782 7.38-8.648 10.298-2.864 2.918-4.14 3.84-7.334 7.185a1.343 1.343 0 000 1.972c2.16 1.966 5.79-.427 8.017-1.77 2.227-1.342 6.578-4.792 8.722-6.367 4.845-3.532 6.998-6.525 7.965-5.647.645.57 5.625-3.36 4.995-4.748-1.597-3.555-3.787-5.055-4.492-6.99z"/><path fill="#4378A5" fill-rule="nonzero" d="M109.328 307.283c1.32-2.82 6.135-26.64 17.167-35.423h47.25c-2.25 4.23-4.537 7.59-6.458 9.202-47.37 21.09 23.43-5.287 1.425 3.863-5.864 2.445-45.937 29.947-16.154 107.73-7.553 3.135-5.528 1.718-12.48 3.525-28.988-43.778-31.425-85.358-30.75-88.897z"/><path fill="#FFF" fill-rule="nonzero" stroke="#36434C" stroke-width="1.005" d="M101.123 376.035c-1.208 8.25-1.32 16.635-1.5 25.035 2.624.06 6.277-1.155 8.812-.615.75.158 1.335-9.922 3.75-24.667-3.698-.083-7.38.03-11.063.247z"/><path fill="#4687C7" fill-rule="nonzero" d="M141.847 308.438c-5.475-.135-17.55 27.84-29.662 87.06l-13.358-3.48c1.17-19.403-.465-115.088 18.18-113.018 6.308-1.035 29.085-6.99 62.94-15.998 38.723-22.387 43.343-5.25 48.368-3.12 0 0-2.917 39.255-20.25 48.578-23.385 5.993-42.683.593-66.218-.022z"/><path fill="#B4C6D0" d="M88.882 235.275c.218-.157 1.71-1.2 1.853-1.725l27.892 40.065c0 .18.068.157.09.053l2.123-3.57 48.66-10.688c.083.225 3.442 10.927 3.465 11.197.142 1.403-.75 2.033-1.882 2.145l-49.98 4.988a1.92 1.92 0 01-1.98-.832.248.248 0 01-.046.18c-1.14.825-2.16.344-2.88-.66l-27.6-38.206c-.704-.997-.847-2.122.285-2.947z"/><path fill="#004C75" fill-rule="nonzero" d="M110.52 398.827l-6.862.976c-1.005.202-4.26-.653-4.298-.645-3.705 2.827-8.58 3.817-12.487 5.017-3.908 1.2-5.483 1.38-9.886 2.813a1.41 1.41 0 00-.922 1.837c1.028 3 5.377 2.7 7.987 2.648 2.61-.053 8.1-.976 10.74-1.29 6-.75 9.278-2.37 9.75-1.036.308.893 6.578-.127 6.66-1.77.225-4.214-1.334-2.04-.682-8.55z"/><path fill="#4687C7" fill-rule="nonzero" d="M183.27 254.595c-2.79 1.5-5.407 3.203-8.19 4.732a137.25 137.25 0 00-15.323 3.3c-1.057-2.25-2.084-4.117-1.762-4.192 7.41-1.808 16.5-22.808 21.63-33.488 13.335-27.787 22.5-12.405 24.99-29.61 1.792-8.467 7.77-21.457 10.335-5.617.915 10.305 3.495 24.472 4.995 32.34-7.343 6.472-15.412 12.037-22.56 18.75-4.8 4.493-9.435 9.157-14.115 13.785z"/><path fill="#4378A5" fill-rule="nonzero" d="M182.49 266.632c0-25.635-2.032-89.565.855-90.75.338-.135 5.595 4.32 5.595 4.32s10.208-9.345 11.535-10.237c.74-.404 1.436-.884 2.078-1.433 5.01-4.117 24.09 7.86 26.647 27 0 0 8.723 40.065 2.58 50.43-.07 1.166-.145 2.313-.225 3.443 2.955 7.38-3.293 30.037-10.748 30.93-13.14 7.215-38.317-4.125-38.317-13.702z"/><path fill="#4687C7" fill-rule="nonzero" d="M162.442 263.738c7.41-1.8 21.75-6.93 26.805-18.946 25.838-16.807 12.908-32.25 15.368-49.454 1.792-8.468 7.77-21.458 10.335-5.618 1.32 15 6.173 38.04 6.105 38.25-11.955 31.612-39.375 42.862-59.25 40.643-.36-3.765.045-4.726.637-4.875z"/><path fill="#FFF" fill-rule="nonzero" stroke="#36434C" stroke-width="1.005" d="M146.07 258c.775.315 1.57.583 2.377.803 9.27 2.512 14.693 1.26 17.25 1.394.96.046 1.853.106 2.73.143-.39 2.423-.75 4.83-1.162 7.245-7.065.788-18.105 3.442-22.275 3.75-5.43.473-6.06-.097-6.06-.097.51-1.718 5.362-2.468 7.912-3.248a23.918 23.918 0 004.598-.863c.75-.75-3-1.32-5.813-.442-2.902.293-8.602 4.538-9.127 4.905-1.08.75-7.327 2.13-8.25 1.95-1.912.502 15-13.808 17.82-15.54z"/><path fill="#004C75" fill-rule="nonzero" d="M159.87 262.567c13.965-7.635 17.782-11.002 25.192-23.542 10.41-17.588 15-39.21 21.413-57.653 3.833-9 20.565-4.845 20.183 12.998 1.687 19.095-12.825 47.055-22.08 54.998-11.04 11.73-32.168 20.204-43.905 20.385l-.803-7.185z"/><path fill="#004C75" fill-rule="nonzero" d="M160.673 270.465h-.66l-.93-8.287.427-.226c14.168-7.747 17.663-11.01 24.915-23.25 7.425-12.547 11.873-27.157 16.185-41.287 1.725-5.662 3.36-11.017 5.182-16.275a7.972 7.972 0 014.696-4.5 10.995 10.995 0 019.75 1.538c4.71 3.135 7.312 9.044 7.162 16.132 1.762 19.882-13.433 47.955-22.275 55.537-6.285 6.675-16.26 12.833-27.36 16.883-6.405 2.332-12.472 3.652-17.092 3.735zm46.5-88.882c-1.808 5.197-3.435 10.537-5.16 16.185-4.328 14.212-8.805 28.89-16.313 41.595-7.267 12.307-11.085 15.915-25.057 23.587l.682 6.067c4.365-.164 9.983-1.44 15.923-3.607 10.725-3.923 20.737-10.088 26.835-16.56 8.7-7.5 23.557-34.927 21.832-54.48.143-6.69-2.25-12.165-6.547-15.037-2.693-1.8-5.82-2.318-8.378-1.388a6.518 6.518 0 00-3.81 3.638h-.007z"/><path fill="#FCB21F" fill-rule="nonzero" d="M188.512 134.925c-.75-1.215-9.375-22.8-15.255-21.308-5.88 1.493-6.142 4.755-6.142 4.755s-1.065 3.75-9.885 5.528c-8.82 1.777-8.528 1.05-9.585 1.132-1.058.083-9.225 1.103-9.998 5.956-.772 4.852 8.018 15 12.473 13.252 4.455-1.748 20.137-12.907 23.04-8.963 2.903 3.946 3.667 7.703 7.583 8.123a9.21 9.21 0 016.135 2.933c.457.457 7.267 3.547 8.137-2.655.87-6.203-6.502-8.753-6.502-8.753zM181.102 149.25s8.25 9.9-.6 16.83c0 0-8.647 6.982-15.097-1.073-6.45-8.055 7.192-4.837 7.868-5.25.674-.412 6.562-2.812 4.717-7.755-1.845-4.942 3.112-2.752 3.112-2.752z"/></g></svg>
